# MagicaVoxel @ Ephtracy

# material
mtllib FlameSpinner.mtl
usemtl palette

# normals
vn -1 0 0
vn 1 0 0
vn 0 0 1
vn 0 0 -1
vn 0 -1 0
vn 0 1 0

# texcoords
vt 0.564453 0.5
vt 0.568359 0.5

# verts
v -4.5 1 0.5
v -4.5 1 -0.5
v -4.5 2 0.5
v -4.5 2 -0.5
v -3.5 0 1.5
v -3.5 0 -1.5
v -3.5 1 1.5
v -3.5 1 0.5
v -3.5 1 -0.5
v -3.5 1 -1.5
v -2.5 0 2.5
v -2.5 0 1.5
v -2.5 0 -1.5
v -2.5 0 -2.5
v -2.5 1 2.5
v -2.5 1 1.5
v -2.5 1 -1.5
v -2.5 1 -2.5
v -2.5 2 0.5
v -2.5 2 -0.5
v -2.5 4 0.5
v -2.5 4 -0.5
v -1.5 0 3.5
v -1.5 0 2.5
v -1.5 0 -2.5
v -1.5 0 -3.5
v -1.5 1 3.5
v -1.5 1 2.5
v -1.5 1 1.5
v -1.5 1 0.5
v -1.5 1 -0.5
v -1.5 1 -1.5
v -1.5 1 -2.5
v -1.5 1 -3.5
v -1.5 4 0.5
v -1.5 4 -0.5
v -1.5 5 1.5
v -1.5 5 0.5
v -1.5 5 -0.5
v -1.5 5 -1.5
v -0.5 1 4.5
v -0.5 1 3.5
v -0.5 1 1.5
v -0.5 1 -1.5
v -0.5 1 -3.5
v -0.5 1 -4.5
v -0.5 2 4.5
v -0.5 2 3.5
v -0.5 2 2.5
v -0.5 2 -2.5
v -0.5 2 -3.5
v -0.5 2 -4.5
v -0.5 4 2.5
v -0.5 4 1.5
v -0.5 4 0.5
v -0.5 4 -0.5
v -0.5 4 -1.5
v -0.5 4 -2.5
v -0.5 5 0.5
v -0.5 5 -0.5
v -0.5 6 0.5
v -0.5 6 -0.5
v 0.5 4 1.5
v 0.5 4 0.5
v 0.5 4 -0.5
v 0.5 4 -1.5
v 0.5 5 1.5
v 0.5 5 0.5
v 0.5 5 -0.5
v 0.5 5 -1.5
v -0.5 4 1.5
v -0.5 4 0.5
v -0.5 4 -0.5
v -0.5 4 -1.5
v -0.5 5 1.5
v -0.5 5 0.5
v -0.5 5 -0.5
v -0.5 5 -1.5
v 0.5 1 4.5
v 0.5 1 3.5
v 0.5 1 1.5
v 0.5 1 -1.5
v 0.5 1 -3.5
v 0.5 1 -4.5
v 0.5 2 4.5
v 0.5 2 3.5
v 0.5 2 2.5
v 0.5 2 -2.5
v 0.5 2 -3.5
v 0.5 2 -4.5
v 0.5 4 2.5
v 0.5 4 1.5
v 0.5 4 0.5
v 0.5 4 -0.5
v 0.5 4 -1.5
v 0.5 4 -2.5
v 0.5 5 0.5
v 0.5 5 -0.5
v 0.5 6 0.5
v 0.5 6 -0.5
v 1.5 0 3.5
v 1.5 0 2.5
v 1.5 0 -2.5
v 1.5 0 -3.5
v 1.5 1 3.5
v 1.5 1 2.5
v 1.5 1 1.5
v 1.5 1 0.5
v 1.5 1 -0.5
v 1.5 1 -1.5
v 1.5 1 -2.5
v 1.5 1 -3.5
v 1.5 4 0.5
v 1.5 4 -0.5
v 1.5 5 1.5
v 1.5 5 0.5
v 1.5 5 -0.5
v 1.5 5 -1.5
v 2.5 0 2.5
v 2.5 0 1.5
v 2.5 0 -1.5
v 2.5 0 -2.5
v 2.5 1 2.5
v 2.5 1 1.5
v 2.5 1 -1.5
v 2.5 1 -2.5
v 2.5 2 0.5
v 2.5 2 -0.5
v 2.5 4 0.5
v 2.5 4 -0.5
v 3.5 0 1.5
v 3.5 0 -1.5
v 3.5 1 1.5
v 3.5 1 0.5
v 3.5 1 -0.5
v 3.5 1 -1.5
v 4.5 1 0.5
v 4.5 1 -0.5
v 4.5 2 0.5
v 4.5 2 -0.5
v -0.5 1 4.5
v -0.5 2 4.5
v 0.5 1 4.5
v 0.5 2 4.5
v -1.5 0 3.5
v -1.5 1 3.5
v -0.5 1 3.5
v 0.5 1 3.5
v 1.5 0 3.5
v 1.5 1 3.5
v -2.5 0 2.5
v -2.5 1 2.5
v -1.5 0 2.5
v -1.5 1 2.5
v -0.5 2 2.5
v -0.5 4 2.5
v 0.5 2 2.5
v 0.5 4 2.5
v 1.5 0 2.5
v 1.5 1 2.5
v 2.5 0 2.5
v 2.5 1 2.5
v -3.5 0 1.5
v -3.5 1 1.5
v -2.5 0 1.5
v -2.5 1 1.5
v -1.5 1 1.5
v -1.5 5 1.5
v -0.5 1 1.5
v -0.5 4 1.5
v -0.5 5 1.5
v 0.5 1 1.5
v 0.5 4 1.5
v 0.5 5 1.5
v 1.5 1 1.5
v 1.5 5 1.5
v 2.5 0 1.5
v 2.5 1 1.5
v 3.5 0 1.5
v 3.5 1 1.5
v -4.5 1 0.5
v -4.5 2 0.5
v -3.5 1 0.5
v -3.5 2 0.5
v -2.5 2 0.5
v -2.5 4 0.5
v -1.5 1 0.5
v -1.5 4 0.5
v -0.5 4 0.5
v -0.5 5 0.5
v -0.5 6 0.5
v 0.5 4 0.5
v 0.5 5 0.5
v 0.5 6 0.5
v 1.5 1 0.5
v 1.5 4 0.5
v 2.5 2 0.5
v 2.5 4 0.5
v 3.5 1 0.5
v 3.5 2 0.5
v 4.5 1 0.5
v 4.5 2 0.5
v -1.5 4 -0.5
v -1.5 5 -0.5
v -0.5 4 -0.5
v -0.5 5 -0.5
v 0.5 4 -0.5
v 0.5 5 -0.5
v 1.5 4 -0.5
v 1.5 5 -0.5
v -1.5 4 0.5
v -1.5 5 0.5
v -0.5 4 0.5
v -0.5 5 0.5
v 0.5 4 0.5
v 0.5 5 0.5
v 1.5 4 0.5
v 1.5 5 0.5
v -4.5 1 -0.5
v -4.5 2 -0.5
v -3.5 1 -0.5
v -3.5 2 -0.5
v -2.5 2 -0.5
v -2.5 4 -0.5
v -1.5 1 -0.5
v -1.5 4 -0.5
v -0.5 4 -0.5
v -0.5 5 -0.5
v -0.5 6 -0.5
v 0.5 4 -0.5
v 0.5 5 -0.5
v 0.5 6 -0.5
v 1.5 1 -0.5
v 1.5 4 -0.5
v 2.5 2 -0.5
v 2.5 4 -0.5
v 3.5 1 -0.5
v 3.5 2 -0.5
v 4.5 1 -0.5
v 4.5 2 -0.5
v -3.5 0 -1.5
v -3.5 1 -1.5
v -2.5 0 -1.5
v -2.5 1 -1.5
v -1.5 1 -1.5
v -1.5 5 -1.5
v -0.5 1 -1.5
v -0.5 4 -1.5
v -0.5 5 -1.5
v 0.5 1 -1.5
v 0.5 4 -1.5
v 0.5 5 -1.5
v 1.5 1 -1.5
v 1.5 5 -1.5
v 2.5 0 -1.5
v 2.5 1 -1.5
v 3.5 0 -1.5
v 3.5 1 -1.5
v -2.5 0 -2.5
v -2.5 1 -2.5
v -1.5 0 -2.5
v -1.5 1 -2.5
v -0.5 2 -2.5
v -0.5 4 -2.5
v 0.5 2 -2.5
v 0.5 4 -2.5
v 1.5 0 -2.5
v 1.5 1 -2.5
v 2.5 0 -2.5
v 2.5 1 -2.5
v -1.5 0 -3.5
v -1.5 1 -3.5
v -0.5 1 -3.5
v 0.5 1 -3.5
v 1.5 0 -3.5
v 1.5 1 -3.5
v -0.5 1 -4.5
v -0.5 2 -4.5
v 0.5 1 -4.5
v 0.5 2 -4.5
v -1.5 0 3.5
v 1.5 0 3.5
v -2.5 0 2.5
v -1.5 0 2.5
v 1.5 0 2.5
v 2.5 0 2.5
v -3.5 0 1.5
v -2.5 0 1.5
v 2.5 0 1.5
v 3.5 0 1.5
v -3.5 0 -1.5
v -2.5 0 -1.5
v 2.5 0 -1.5
v 3.5 0 -1.5
v -2.5 0 -2.5
v -1.5 0 -2.5
v 1.5 0 -2.5
v 2.5 0 -2.5
v -1.5 0 -3.5
v 1.5 0 -3.5
v -0.5 1 4.5
v 0.5 1 4.5
v -0.5 1 3.5
v 0.5 1 3.5
v -4.5 1 0.5
v -3.5 1 0.5
v 3.5 1 0.5
v 4.5 1 0.5
v -4.5 1 -0.5
v -3.5 1 -0.5
v 3.5 1 -0.5
v 4.5 1 -0.5
v -0.5 1 -3.5
v 0.5 1 -3.5
v -0.5 1 -4.5
v 0.5 1 -4.5
v -1.5 1 3.5
v -0.5 1 3.5
v 0.5 1 3.5
v 1.5 1 3.5
v -2.5 1 2.5
v -1.5 1 2.5
v 1.5 1 2.5
v 2.5 1 2.5
v -3.5 1 1.5
v -2.5 1 1.5
v -1.5 1 1.5
v -0.5 1 1.5
v 0.5 1 1.5
v 1.5 1 1.5
v 2.5 1 1.5
v 3.5 1 1.5
v -3.5 1 0.5
v -1.5 1 0.5
v 1.5 1 0.5
v 3.5 1 0.5
v -3.5 1 -0.5
v -1.5 1 -0.5
v 1.5 1 -0.5
v 3.5 1 -0.5
v -3.5 1 -1.5
v -2.5 1 -1.5
v -1.5 1 -1.5
v -0.5 1 -1.5
v 0.5 1 -1.5
v 1.5 1 -1.5
v 2.5 1 -1.5
v 3.5 1 -1.5
v -2.5 1 -2.5
v -1.5 1 -2.5
v 1.5 1 -2.5
v 2.5 1 -2.5
v -1.5 1 -3.5
v -0.5 1 -3.5
v 0.5 1 -3.5
v 1.5 1 -3.5
v -0.5 2 4.5
v 0.5 2 4.5
v -0.5 2 3.5
v 0.5 2 3.5
v -0.5 2 2.5
v 0.5 2 2.5
v -4.5 2 0.5
v -3.5 2 0.5
v -2.5 2 0.5
v 2.5 2 0.5
v 3.5 2 0.5
v 4.5 2 0.5
v -4.5 2 -0.5
v -3.5 2 -0.5
v -2.5 2 -0.5
v 2.5 2 -0.5
v 3.5 2 -0.5
v 4.5 2 -0.5
v -0.5 2 -2.5
v 0.5 2 -2.5
v -0.5 2 -3.5
v 0.5 2 -3.5
v -0.5 2 -4.5
v 0.5 2 -4.5
v -0.5 4 2.5
v 0.5 4 2.5
v -0.5 4 1.5
v 0.5 4 1.5
v -2.5 4 0.5
v -1.5 4 0.5
v -0.5 4 0.5
v 0.5 4 0.5
v 1.5 4 0.5
v 2.5 4 0.5
v -2.5 4 -0.5
v -1.5 4 -0.5
v -0.5 4 -0.5
v 0.5 4 -0.5
v 1.5 4 -0.5
v 2.5 4 -0.5
v -0.5 4 -1.5
v 0.5 4 -1.5
v -0.5 4 -2.5
v 0.5 4 -2.5
v -1.5 5 1.5
v -0.5 5 1.5
v 0.5 5 1.5
v 1.5 5 1.5
v -1.5 5 0.5
v -0.5 5 0.5
v 0.5 5 0.5
v 1.5 5 0.5
v -1.5 5 -0.5
v -0.5 5 -0.5
v 0.5 5 -0.5
v 1.5 5 -0.5
v -1.5 5 -1.5
v -0.5 5 -1.5
v 0.5 5 -1.5
v 1.5 5 -1.5
v -0.5 6 0.5
v 0.5 6 0.5
v -0.5 6 -0.5
v 0.5 6 -0.5

# faces
f 3/2/1 2/2/1 1/2/1
f 4/2/1 2/2/1 3/2/1
f 7/1/1 6/1/1 5/1/1
f 8/1/1 6/1/1 7/1/1
f 9/1/1 6/1/1 8/1/1
f 10/1/1 6/1/1 9/1/1
f 15/1/1 12/1/1 11/1/1
f 16/1/1 12/1/1 15/1/1
f 17/1/1 14/1/1 13/1/1
f 18/1/1 14/1/1 17/1/1
f 21/1/1 20/1/1 19/1/1
f 22/1/1 20/1/1 21/1/1
f 27/1/1 24/1/1 23/1/1
f 28/1/1 24/1/1 27/1/1
f 33/1/1 26/1/1 25/1/1
f 34/1/1 26/1/1 33/1/1
f 35/1/1 30/1/1 29/1/1
f 36/1/1 32/1/1 31/1/1
f 37/1/1 35/1/1 29/1/1
f 38/1/1 35/1/1 37/1/1
f 39/1/1 32/1/1 36/1/1
f 40/1/1 32/1/1 39/1/1
f 47/2/1 42/2/1 41/2/1
f 48/1/1 43/1/1 42/1/1
f 48/2/1 42/2/1 47/2/1
f 49/1/1 43/1/1 48/1/1
f 50/1/1 45/1/1 44/1/1
f 51/2/1 46/2/1 45/2/1
f 51/1/1 45/1/1 50/1/1
f 52/2/1 46/2/1 51/2/1
f 53/1/1 43/1/1 49/1/1
f 54/1/1 43/1/1 53/1/1
f 57/1/1 50/1/1 44/1/1
f 58/1/1 50/1/1 57/1/1
f 59/1/1 56/1/1 55/1/1
f 60/1/1 56/1/1 59/1/1
f 61/2/1 60/2/1 59/2/1
f 62/2/1 60/2/1 61/2/1
f 67/1/1 64/1/1 63/1/1
f 68/1/1 64/1/1 67/1/1
f 69/1/1 66/1/1 65/1/1
f 70/1/1 66/1/1 69/1/1
f 71/1/2 72/1/2 75/1/2
f 75/1/2 72/1/2 76/1/2
f 73/1/2 74/1/2 77/1/2
f 77/1/2 74/1/2 78/1/2
f 79/2/2 80/2/2 85/2/2
f 80/1/2 81/1/2 86/1/2
f 85/2/2 80/2/2 86/2/2
f 86/1/2 81/1/2 87/1/2
f 82/1/2 83/1/2 88/1/2
f 83/2/2 84/2/2 89/2/2
f 88/1/2 83/1/2 89/1/2
f 89/2/2 84/2/2 90/2/2
f 87/1/2 81/1/2 91/1/2
f 91/1/2 81/1/2 92/1/2
f 82/1/2 88/1/2 95/1/2
f 95/1/2 88/1/2 96/1/2
f 93/1/2 94/1/2 97/1/2
f 97/1/2 94/1/2 98/1/2
f 97/2/2 98/2/2 99/2/2
f 99/2/2 98/2/2 100/2/2
f 101/1/2 102/1/2 105/1/2
f 105/1/2 102/1/2 106/1/2
f 103/1/2 104/1/2 111/1/2
f 111/1/2 104/1/2 112/1/2
f 107/1/2 108/1/2 113/1/2
f 109/1/2 110/1/2 114/1/2
f 107/1/2 113/1/2 115/1/2
f 115/1/2 113/1/2 116/1/2
f 114/1/2 110/1/2 117/1/2
f 117/1/2 110/1/2 118/1/2
f 119/1/2 120/1/2 123/1/2
f 123/1/2 120/1/2 124/1/2
f 121/1/2 122/1/2 125/1/2
f 125/1/2 122/1/2 126/1/2
f 127/1/2 128/1/2 129/1/2
f 129/1/2 128/1/2 130/1/2
f 131/1/2 132/1/2 133/1/2
f 133/1/2 132/1/2 134/1/2
f 134/1/2 132/1/2 135/1/2
f 135/1/2 132/1/2 136/1/2
f 137/2/2 138/2/2 139/2/2
f 139/2/2 138/2/2 140/2/2
f 143/2/3 142/2/3 141/2/3
f 144/2/3 142/2/3 143/2/3
f 147/1/3 146/1/3 145/1/3
f 148/1/3 147/1/3 145/1/3
f 149/1/3 148/1/3 145/1/3
f 150/1/3 148/1/3 149/1/3
f 153/1/3 152/1/3 151/1/3
f 154/1/3 152/1/3 153/1/3
f 157/1/3 156/1/3 155/1/3
f 158/1/3 156/1/3 157/1/3
f 161/1/3 160/1/3 159/1/3
f 162/1/3 160/1/3 161/1/3
f 165/1/3 164/1/3 163/1/3
f 166/1/3 164/1/3 165/1/3
f 169/1/3 168/1/3 167/1/3
f 170/1/3 168/1/3 169/1/3
f 171/1/3 168/1/3 170/1/3
f 175/1/3 173/1/3 172/1/3
f 175/1/3 174/1/3 173/1/3
f 176/1/3 174/1/3 175/1/3
f 179/1/3 178/1/3 177/1/3
f 180/1/3 178/1/3 179/1/3
f 183/2/3 182/2/3 181/2/3
f 184/2/3 182/2/3 183/2/3
f 185/1/3 184/1/3 183/1/3
f 187/1/3 185/1/3 183/1/3
f 187/1/3 186/1/3 185/1/3
f 188/1/3 186/1/3 187/1/3
f 192/1/3 190/1/3 189/1/3
f 193/2/3 191/2/3 190/2/3
f 193/1/3 190/1/3 192/1/3
f 194/2/3 191/2/3 193/2/3
f 197/1/3 196/1/3 195/1/3
f 198/1/3 196/1/3 197/1/3
f 199/1/3 197/1/3 195/1/3
f 200/1/3 197/1/3 199/1/3
f 201/2/3 200/2/3 199/2/3
f 202/2/3 200/2/3 201/2/3
f 205/1/3 204/1/3 203/1/3
f 206/1/3 204/1/3 205/1/3
f 209/1/3 208/1/3 207/1/3
f 210/1/3 208/1/3 209/1/3
f 211/1/4 212/1/4 213/1/4
f 213/1/4 212/1/4 214/1/4
f 215/1/4 216/1/4 217/1/4
f 217/1/4 216/1/4 218/1/4
f 219/2/4 220/2/4 221/2/4
f 221/2/4 220/2/4 222/2/4
f 221/1/4 222/1/4 223/1/4
f 221/1/4 223/1/4 225/1/4
f 223/1/4 224/1/4 225/1/4
f 225/1/4 224/1/4 226/1/4
f 227/1/4 228/1/4 230/1/4
f 228/2/4 229/2/4 231/2/4
f 230/1/4 228/1/4 231/1/4
f 231/2/4 229/2/4 232/2/4
f 233/1/4 234/1/4 235/1/4
f 235/1/4 234/1/4 236/1/4
f 233/1/4 235/1/4 237/1/4
f 237/1/4 235/1/4 238/1/4
f 237/2/4 238/2/4 239/2/4
f 239/2/4 238/2/4 240/2/4
f 241/1/4 242/1/4 243/1/4
f 243/1/4 242/1/4 244/1/4
f 245/1/4 246/1/4 247/1/4
f 247/1/4 246/1/4 248/1/4
f 248/1/4 246/1/4 249/1/4
f 250/1/4 251/1/4 253/1/4
f 251/1/4 252/1/4 253/1/4
f 253/1/4 252/1/4 254/1/4
f 255/1/4 256/1/4 257/1/4
f 257/1/4 256/1/4 258/1/4
f 259/1/4 260/1/4 261/1/4
f 261/1/4 260/1/4 262/1/4
f 263/1/4 264/1/4 265/1/4
f 265/1/4 264/1/4 266/1/4
f 267/1/4 268/1/4 269/1/4
f 269/1/4 268/1/4 270/1/4
f 271/1/4 272/1/4 273/1/4
f 271/1/4 273/1/4 274/1/4
f 271/1/4 274/1/4 275/1/4
f 275/1/4 274/1/4 276/1/4
f 277/2/4 278/2/4 279/2/4
f 279/2/4 278/2/4 280/2/4
f 284/1/5 282/1/5 281/1/5
f 285/1/5 282/1/5 284/1/5
f 288/1/5 284/1/5 283/1/5
f 288/1/5 286/1/5 285/1/5
f 288/1/5 285/1/5 284/1/5
f 289/1/5 286/1/5 288/1/5
f 291/1/5 288/1/5 287/1/5
f 291/1/5 290/1/5 289/1/5
f 291/1/5 289/1/5 288/1/5
f 292/1/5 290/1/5 291/1/5
f 293/1/5 290/1/5 292/1/5
f 294/1/5 290/1/5 293/1/5
f 295/1/5 293/1/5 292/1/5
f 296/1/5 293/1/5 295/1/5
f 297/1/5 293/1/5 296/1/5
f 298/1/5 293/1/5 297/1/5
f 299/1/5 297/1/5 296/1/5
f 300/1/5 297/1/5 299/1/5
f 303/2/5 302/2/5 301/2/5
f 304/2/5 302/2/5 303/2/5
f 309/2/5 306/2/5 305/2/5
f 310/2/5 306/2/5 309/2/5
f 311/2/5 308/2/5 307/2/5
f 312/2/5 308/2/5 311/2/5
f 315/2/5 314/2/5 313/2/5
f 316/2/5 314/2/5 315/2/5
f 317/1/6 318/1/6 322/1/6
f 319/1/6 320/1/6 323/1/6
f 321/1/6 322/1/6 326/1/6
f 322/1/6 318/1/6 327/1/6
f 326/1/6 322/1/6 327/1/6
f 327/1/6 318/1/6 328/1/6
f 323/1/6 324/1/6 329/1/6
f 319/1/6 323/1/6 329/1/6
f 329/1/6 324/1/6 330/1/6
f 330/1/6 324/1/6 331/1/6
f 325/1/6 326/1/6 333/1/6
f 326/1/6 327/1/6 333/1/6
f 333/1/6 327/1/6 334/1/6
f 331/1/6 332/1/6 335/1/6
f 330/1/6 331/1/6 335/1/6
f 335/1/6 332/1/6 336/1/6
f 337/1/6 338/1/6 341/1/6
f 341/1/6 338/1/6 342/1/6
f 342/1/6 338/1/6 343/1/6
f 339/1/6 340/1/6 346/1/6
f 346/1/6 340/1/6 347/1/6
f 347/1/6 340/1/6 348/1/6
f 343/1/6 344/1/6 349/1/6
f 342/1/6 343/1/6 349/1/6
f 349/1/6 344/1/6 350/1/6
f 346/1/6 347/1/6 351/1/6
f 345/1/6 346/1/6 351/1/6
f 351/1/6 347/1/6 352/1/6
f 350/1/6 344/1/6 353/1/6
f 353/1/6 344/1/6 354/1/6
f 345/1/6 351/1/6 355/1/6
f 355/1/6 351/1/6 356/1/6
f 357/2/6 358/2/6 359/2/6
f 359/2/6 358/2/6 360/2/6
f 359/1/6 360/1/6 361/1/6
f 361/1/6 360/1/6 362/1/6
f 363/2/6 364/2/6 369/2/6
f 364/1/6 365/1/6 370/1/6
f 369/2/6 364/2/6 370/2/6
f 370/1/6 365/1/6 371/1/6
f 366/1/6 367/1/6 372/1/6
f 367/2/6 368/2/6 373/2/6
f 372/1/6 367/1/6 373/1/6
f 373/2/6 368/2/6 374/2/6
f 375/1/6 376/1/6 377/1/6
f 377/1/6 376/1/6 378/1/6
f 377/2/6 378/2/6 379/2/6
f 379/2/6 378/2/6 380/2/6
f 381/1/6 382/1/6 383/1/6
f 383/1/6 382/1/6 384/1/6
f 383/1/6 384/1/6 387/1/6
f 387/1/6 384/1/6 388/1/6
f 385/1/6 386/1/6 391/1/6
f 386/1/6 387/1/6 391/1/6
f 391/1/6 387/1/6 392/1/6
f 392/1/6 387/1/6 393/1/6
f 389/1/6 390/1/6 394/1/6
f 388/1/6 389/1/6 394/1/6
f 394/1/6 390/1/6 395/1/6
f 395/1/6 390/1/6 396/1/6
f 393/1/6 394/1/6 397/1/6
f 397/1/6 394/1/6 398/1/6
f 397/1/6 398/1/6 399/1/6
f 399/1/6 398/1/6 400/1/6
f 401/1/6 402/1/6 405/1/6
f 405/1/6 402/1/6 406/1/6
f 403/1/6 404/1/6 407/1/6
f 407/1/6 404/1/6 408/1/6
f 409/1/6 410/1/6 413/1/6
f 413/1/6 410/1/6 414/1/6
f 411/1/6 412/1/6 415/1/6
f 415/1/6 412/1/6 416/1/6
f 417/2/6 418/2/6 419/2/6
f 419/2/6 418/2/6 420/2/6
