# MagicaVoxel @ Ephtracy

# material
mtllib StackBack.mtl
usemtl palette

# normals
vn -1 0 0
vn 1 0 0
vn 0 0 1
vn 0 0 -1
vn 0 -1 0
vn 0 1 0

# texcoords
vt 0.00195313 0.5
vt 0.00585938 0.5
vt 0.00976563 0.5
vt 0.0136719 0.5
vt 0.470703 0.5
vt 0.564453 0.5
vt 0.572266 0.5

# verts
v 7 2 4
v 7 2 -12
v 7 4 6
v 7 4 4
v 7 4 -12
v 7 4 -14
v 7 5 7
v 7 5 6
v 7 5 -14
v 7 5 -15
v 7 6 8
v 7 6 7
v 7 6 -15
v 7 6 -16
v 7 7 8
v 7 7 7
v 7 7 6
v 7 7 -14
v 7 7 -15
v 7 7 -16
v 7 8 8
v 7 8 7
v 7 8 6
v 7 8 -14
v 7 8 -15
v 7 8 -16
v 7 9 7
v 7 9 6
v 7 9 -14
v 7 9 -15
v 11 0 4
v 11 0 2
v 11 0 -10
v 11 0 -12
v 11 2 6
v 11 2 4
v 11 2 2
v 11 2 -10
v 11 2 -12
v 11 2 -14
v 11 3 6
v 11 3 4
v 11 3 -12
v 11 3 -14
v 11 4 6
v 11 4 4
v 11 4 -12
v 11 4 -14
v 15 7 6
v 15 7 -14
v 15 8 6
v 15 8 5
v 15 8 -13
v 15 8 -14
v 15 9 6
v 15 9 5
v 15 9 -13
v 15 9 -14
v 13 0 4
v 13 0 2
v 13 0 -10
v 13 0 -12
v 13 2 4
v 13 2 3
v 13 2 2
v 13 2 -10
v 13 2 -11
v 13 2 -12
v 13 3 2
v 13 3 -10
v 13 4 2
v 13 4 -10
v 14 2 6
v 14 2 5
v 14 2 -13
v 14 2 -14
v 14 3 6
v 14 3 5
v 14 3 -13
v 14 3 -14
v 14 4 6
v 14 4 5
v 14 4 -13
v 14 4 -14
v 14 6 8
v 14 6 7
v 14 6 -15
v 14 6 -16
v 14 7 8
v 14 7 7
v 14 7 -15
v 14 7 -16
v 14 8 8
v 14 8 7
v 14 8 -15
v 14 8 -16
v 15 2 5
v 15 2 2
v 15 2 -10
v 15 2 -13
v 15 3 5
v 15 3 2
v 15 3 -10
v 15 3 -13
v 15 4 6
v 15 4 5
v 15 4 2
v 15 4 -10
v 15 4 -13
v 15 4 -14
v 15 5 7
v 15 5 6
v 15 5 -14
v 15 5 -15
v 15 8 7
v 15 8 6
v 15 8 -14
v 15 8 -15
v 15 9 7
v 15 9 6
v 15 9 -14
v 15 9 -15
v 16 5 6
v 16 5 -14
v 16 6 5
v 16 6 4
v 16 6 3
v 16 6 2
v 16 6 1
v 16 6 -0
v 16 6 -1
v 16 6 -2
v 16 6 -3
v 16 6 -4
v 16 6 -5
v 16 6 -6
v 16 6 -7
v 16 6 -8
v 16 6 -9
v 16 6 -10
v 16 6 -11
v 16 6 -12
v 16 6 -13
v 16 7 5
v 16 7 -13
v 16 8 6
v 16 8 5
v 16 8 4
v 16 8 3
v 16 8 2
v 16 8 1
v 16 8 -0
v 16 8 -1
v 16 8 -2
v 16 8 -3
v 16 8 -4
v 16 8 -5
v 16 8 -6
v 16 8 -7
v 16 8 -8
v 16 8 -9
v 16 8 -10
v 16 8 -11
v 16 8 -12
v 16 8 -13
v 16 8 -14
v 16 9 6
v 16 9 5
v 16 9 -13
v 16 9 -14
v 17 6 5
v 17 6 4
v 17 6 3
v 17 6 2
v 17 6 1
v 17 6 -0
v 17 6 -1
v 17 6 -2
v 17 6 -3
v 17 6 -4
v 17 6 -5
v 17 6 -6
v 17 6 -7
v 17 6 -8
v 17 6 -9
v 17 6 -10
v 17 6 -11
v 17 6 -12
v 17 6 -13
v 17 7 5
v 17 7 4
v 17 7 3
v 17 7 2
v 17 7 1
v 17 7 -0
v 17 7 -1
v 17 7 -2
v 17 7 -3
v 17 7 -4
v 17 7 -5
v 17 7 -6
v 17 7 -7
v 17 7 -8
v 17 7 -9
v 17 7 -10
v 17 7 -11
v 17 7 -12
v 17 7 -13
v 17 8 5
v 17 8 4
v 17 8 3
v 17 8 2
v 17 8 1
v 17 8 -0
v 17 8 -1
v 17 8 -2
v 17 8 -3
v 17 8 -4
v 17 8 -5
v 17 8 -6
v 17 8 -7
v 17 8 -8
v 17 8 -9
v 17 8 -10
v 17 8 -11
v 17 8 -12
v 17 8 -13
v 7 6 8
v 7 7 8
v 7 8 8
v 8 6 8
v 8 7 8
v 8 8 8
v 9 6 8
v 9 7 8
v 9 8 8
v 10 6 8
v 10 7 8
v 10 8 8
v 11 6 8
v 11 7 8
v 11 8 8
v 12 6 8
v 12 7 8
v 12 8 8
v 13 6 8
v 13 7 8
v 13 8 8
v 14 6 8
v 14 7 8
v 14 8 8
v 7 5 7
v 7 6 7
v 7 8 7
v 7 9 7
v 8 6 7
v 8 8 7
v 9 6 7
v 9 8 7
v 10 6 7
v 10 8 7
v 11 6 7
v 11 8 7
v 12 6 7
v 12 8 7
v 13 6 7
v 13 8 7
v 14 6 7
v 14 7 7
v 14 8 7
v 14 9 7
v 15 5 7
v 15 8 7
v 15 9 7
v 7 4 6
v 7 5 6
v 11 2 6
v 11 3 6
v 11 4 6
v 14 2 6
v 14 3 6
v 14 4 6
v 15 4 6
v 15 5 6
v 15 8 6
v 15 9 6
v 16 5 6
v 16 8 6
v 16 9 6
v 14 2 5
v 14 3 5
v 14 4 5
v 15 2 5
v 15 3 5
v 15 4 5
v 16 6 5
v 16 7 5
v 16 8 5
v 17 6 5
v 17 7 5
v 17 8 5
v 7 2 4
v 7 4 4
v 11 0 4
v 11 2 4
v 11 3 4
v 11 4 4
v 12 2 4
v 13 0 4
v 13 2 4
v 11 0 -10
v 11 2 -10
v 13 0 -10
v 13 2 -10
v 13 3 -10
v 13 4 -10
v 15 2 -10
v 15 3 -10
v 15 4 -10
v 7 7 -14
v 7 8 -14
v 7 9 -14
v 14 8 -14
v 14 9 -14
v 15 7 -14
v 15 8 -14
v 15 9 -14
v 7 7 6
v 7 8 6
v 7 9 6
v 14 8 6
v 14 9 6
v 15 7 6
v 15 8 6
v 15 9 6
v 11 0 2
v 11 2 2
v 13 0 2
v 13 2 2
v 13 3 2
v 13 4 2
v 15 2 2
v 15 3 2
v 15 4 2
v 7 2 -12
v 7 4 -12
v 11 0 -12
v 11 2 -12
v 11 3 -12
v 11 4 -12
v 12 2 -12
v 13 0 -12
v 13 2 -12
v 14 2 -13
v 14 3 -13
v 14 4 -13
v 15 2 -13
v 15 3 -13
v 15 4 -13
v 16 6 -13
v 16 7 -13
v 16 8 -13
v 17 6 -13
v 17 7 -13
v 17 8 -13
v 7 4 -14
v 7 5 -14
v 11 2 -14
v 11 3 -14
v 11 4 -14
v 14 2 -14
v 14 3 -14
v 14 4 -14
v 15 4 -14
v 15 5 -14
v 15 8 -14
v 15 9 -14
v 16 5 -14
v 16 8 -14
v 16 9 -14
v 7 5 -15
v 7 6 -15
v 7 8 -15
v 7 9 -15
v 8 6 -15
v 8 8 -15
v 9 6 -15
v 9 8 -15
v 10 6 -15
v 10 8 -15
v 11 6 -15
v 11 8 -15
v 12 6 -15
v 12 8 -15
v 13 6 -15
v 13 8 -15
v 14 6 -15
v 14 7 -15
v 14 8 -15
v 14 9 -15
v 15 5 -15
v 15 8 -15
v 15 9 -15
v 7 6 -16
v 7 7 -16
v 7 8 -16
v 8 6 -16
v 8 7 -16
v 8 8 -16
v 9 6 -16
v 9 7 -16
v 9 8 -16
v 10 6 -16
v 10 7 -16
v 10 8 -16
v 11 6 -16
v 11 7 -16
v 11 8 -16
v 12 6 -16
v 12 7 -16
v 12 8 -16
v 13 6 -16
v 13 7 -16
v 13 8 -16
v 14 6 -16
v 14 7 -16
v 14 8 -16
v 11 0 4
v 13 0 4
v 11 0 2
v 13 0 2
v 11 0 -10
v 13 0 -10
v 11 0 -12
v 13 0 -12
v 11 2 6
v 14 2 6
v 12 2 5
v 14 2 5
v 15 2 5
v 7 2 4
v 11 2 4
v 12 2 4
v 13 2 4
v 13 2 3
v 14 2 3
v 11 2 2
v 13 2 2
v 15 2 2
v 11 2 -10
v 13 2 -10
v 15 2 -10
v 13 2 -11
v 14 2 -11
v 7 2 -12
v 11 2 -12
v 12 2 -12
v 13 2 -12
v 12 2 -13
v 14 2 -13
v 15 2 -13
v 11 2 -14
v 14 2 -14
v 7 4 6
v 11 4 6
v 14 4 6
v 15 4 6
v 14 4 5
v 15 4 5
v 7 4 4
v 11 4 4
v 13 4 2
v 15 4 2
v 13 4 -10
v 15 4 -10
v 7 4 -12
v 11 4 -12
v 14 4 -13
v 15 4 -13
v 7 4 -14
v 11 4 -14
v 14 4 -14
v 15 4 -14
v 7 5 7
v 15 5 7
v 7 5 6
v 15 5 6
v 16 5 6
v 7 5 -14
v 15 5 -14
v 16 5 -14
v 7 5 -15
v 15 5 -15
v 7 6 8
v 8 6 8
v 9 6 8
v 10 6 8
v 11 6 8
v 12 6 8
v 13 6 8
v 14 6 8
v 7 6 7
v 8 6 7
v 9 6 7
v 10 6 7
v 11 6 7
v 12 6 7
v 13 6 7
v 14 6 7
v 16 6 5
v 17 6 5
v 16 6 4
v 17 6 4
v 16 6 3
v 17 6 3
v 16 6 2
v 17 6 2
v 16 6 1
v 17 6 1
v 16 6 -0
v 17 6 -0
v 16 6 -1
v 17 6 -1
v 16 6 -2
v 17 6 -2
v 16 6 -3
v 17 6 -3
v 16 6 -4
v 17 6 -4
v 16 6 -5
v 17 6 -5
v 16 6 -6
v 17 6 -6
v 16 6 -7
v 17 6 -7
v 16 6 -8
v 17 6 -8
v 16 6 -9
v 17 6 -9
v 16 6 -10
v 17 6 -10
v 16 6 -11
v 17 6 -11
v 16 6 -12
v 17 6 -12
v 16 6 -13
v 17 6 -13
v 7 6 -15
v 8 6 -15
v 9 6 -15
v 10 6 -15
v 11 6 -15
v 12 6 -15
v 13 6 -15
v 14 6 -15
v 7 6 -16
v 8 6 -16
v 9 6 -16
v 10 6 -16
v 11 6 -16
v 12 6 -16
v 13 6 -16
v 14 6 -16
v 7 7 6
v 15 7 6
v 7 7 -14
v 15 7 -14
v 7 8 8
v 8 8 8
v 9 8 8
v 10 8 8
v 11 8 8
v 12 8 8
v 13 8 8
v 14 8 8
v 7 8 7
v 8 8 7
v 9 8 7
v 10 8 7
v 11 8 7
v 12 8 7
v 13 8 7
v 14 8 7
v 16 8 5
v 17 8 5
v 16 8 4
v 17 8 4
v 16 8 3
v 17 8 3
v 16 8 2
v 17 8 2
v 16 8 1
v 17 8 1
v 16 8 -0
v 17 8 -0
v 16 8 -1
v 17 8 -1
v 16 8 -2
v 17 8 -2
v 16 8 -3
v 17 8 -3
v 16 8 -4
v 17 8 -4
v 16 8 -5
v 17 8 -5
v 16 8 -6
v 17 8 -6
v 16 8 -7
v 17 8 -7
v 16 8 -8
v 17 8 -8
v 16 8 -9
v 17 8 -9
v 16 8 -10
v 17 8 -10
v 16 8 -11
v 17 8 -11
v 16 8 -12
v 17 8 -12
v 16 8 -13
v 17 8 -13
v 7 8 -15
v 8 8 -15
v 9 8 -15
v 10 8 -15
v 11 8 -15
v 12 8 -15
v 13 8 -15
v 14 8 -15
v 7 8 -16
v 8 8 -16
v 9 8 -16
v 10 8 -16
v 11 8 -16
v 12 8 -16
v 13 8 -16
v 14 8 -16
v 7 9 7
v 14 9 7
v 15 9 7
v 7 9 6
v 14 9 6
v 15 9 6
v 16 9 6
v 15 9 5
v 16 9 5
v 15 9 -13
v 16 9 -13
v 7 9 -14
v 14 9 -14
v 15 9 -14
v 16 9 -14
v 7 9 -15
v 14 9 -15
v 15 9 -15

# faces
f 4/2/1 2/2/1 1/2/1
f 5/2/1 2/2/1 4/2/1
f 8/2/1 4/2/1 3/2/1
f 8/2/1 6/2/1 5/2/1
f 8/2/1 5/2/1 4/2/1
f 9/2/1 6/2/1 8/2/1
f 12/2/1 8/2/1 7/2/1
f 13/2/1 10/2/1 9/2/1
f 15/1/1 12/1/1 11/1/1
f 16/2/1 8/2/1 12/2/1
f 16/1/1 12/1/1 15/1/1
f 17/1/1 9/1/1 8/1/1
f 17/2/1 8/2/1 16/2/1
f 18/2/1 13/2/1 9/2/1
f 18/1/1 9/1/1 17/1/1
f 19/1/1 14/1/1 13/1/1
f 19/2/1 13/2/1 18/2/1
f 20/1/1 14/1/1 19/1/1
f 21/2/1 16/2/1 15/2/1
f 21/2/1 17/2/1 16/2/1
f 22/2/1 17/2/1 21/2/1
f 23/2/1 17/2/1 22/2/1
f 24/2/1 20/2/1 19/2/1
f 24/2/1 19/2/1 18/2/1
f 25/2/1 20/2/1 24/2/1
f 26/2/1 20/2/1 25/2/1
f 27/3/1 23/3/1 22/3/1
f 28/3/1 23/3/1 27/3/1
f 29/3/1 25/3/1 24/3/1
f 30/3/1 25/3/1 29/3/1
f 36/3/1 32/3/1 31/3/1
f 37/3/1 32/3/1 36/3/1
f 38/3/1 34/3/1 33/3/1
f 39/3/1 34/3/1 38/3/1
f 41/4/1 36/4/1 35/4/1
f 42/4/1 36/4/1 41/4/1
f 43/4/1 40/4/1 39/4/1
f 44/4/1 40/4/1 43/4/1
f 45/3/1 42/3/1 41/3/1
f 46/3/1 42/3/1 45/3/1
f 47/3/1 44/3/1 43/3/1
f 48/3/1 44/3/1 47/3/1
f 51/2/1 50/2/1 49/2/1
f 52/2/1 50/2/1 51/2/1
f 53/2/1 50/2/1 52/2/1
f 54/2/1 50/2/1 53/2/1
f 55/4/1 52/4/1 51/4/1
f 56/3/1 53/3/1 52/3/1
f 56/4/1 52/4/1 55/4/1
f 57/4/1 54/4/1 53/4/1
f 57/3/1 53/3/1 56/3/1
f 58/4/1 54/4/1 57/4/1
f 59/3/2 60/3/2 63/3/2
f 63/3/2 60/3/2 64/3/2
f 64/3/2 60/3/2 65/3/2
f 61/3/2 62/3/2 66/3/2
f 66/3/2 62/3/2 67/3/2
f 67/3/2 62/3/2 68/3/2
f 65/2/2 66/2/2 69/2/2
f 69/2/2 66/2/2 70/2/2
f 69/2/2 70/2/2 71/2/2
f 71/2/2 70/2/2 72/2/2
f 73/4/2 74/4/2 77/4/2
f 77/4/2 74/4/2 78/4/2
f 75/4/2 76/4/2 79/4/2
f 79/4/2 76/4/2 80/4/2
f 77/3/2 78/3/2 81/3/2
f 81/3/2 78/3/2 82/3/2
f 79/3/2 80/3/2 83/3/2
f 83/3/2 80/3/2 84/3/2
f 85/1/2 86/1/2 89/1/2
f 89/1/2 86/1/2 90/1/2
f 87/1/2 88/1/2 91/1/2
f 91/1/2 88/1/2 92/1/2
f 89/2/2 90/2/2 93/2/2
f 93/2/2 90/2/2 94/2/2
f 91/2/2 92/2/2 95/2/2
f 95/2/2 92/2/2 96/2/2
f 97/4/2 98/4/2 101/4/2
f 101/4/2 98/4/2 102/4/2
f 99/4/2 100/4/2 103/4/2
f 103/4/2 100/4/2 104/4/2
f 101/3/2 102/3/2 106/3/2
f 106/3/2 102/3/2 107/3/2
f 103/3/2 104/3/2 108/3/2
f 108/3/2 104/3/2 109/3/2
f 108/2/2 109/2/2 112/2/2
f 109/2/2 110/2/2 112/2/2
f 107/2/2 108/2/2 112/2/2
f 106/2/2 107/2/2 112/2/2
f 105/2/2 106/2/2 112/2/2
f 112/2/2 110/2/2 113/2/2
f 111/2/2 112/2/2 115/2/2
f 115/2/2 112/2/2 116/2/2
f 113/2/2 114/2/2 117/2/2
f 117/2/2 114/2/2 118/2/2
f 115/4/2 116/4/2 119/4/2
f 119/4/2 116/4/2 120/4/2
f 117/4/2 118/4/2 121/4/2
f 121/4/2 118/4/2 122/4/2
f 123/2/2 124/2/2 125/2/2
f 125/2/2 124/2/2 126/2/2
f 126/2/2 124/2/2 127/2/2
f 127/2/2 124/2/2 128/2/2
f 128/2/2 124/2/2 129/2/2
f 129/2/2 124/2/2 130/2/2
f 130/2/2 124/2/2 131/2/2
f 131/2/2 124/2/2 132/2/2
f 132/2/2 124/2/2 133/2/2
f 133/2/2 124/2/2 134/2/2
f 134/2/2 124/2/2 135/2/2
f 135/2/2 124/2/2 136/2/2
f 136/2/2 124/2/2 137/2/2
f 137/2/2 124/2/2 138/2/2
f 138/2/2 124/2/2 139/2/2
f 139/2/2 124/2/2 140/2/2
f 140/2/2 124/2/2 141/2/2
f 141/2/2 124/2/2 142/2/2
f 142/2/2 124/2/2 143/2/2
f 123/2/2 125/2/2 144/2/2
f 143/2/2 124/2/2 145/2/2
f 123/2/2 144/2/2 146/2/2
f 146/2/2 144/2/2 147/2/2
f 145/2/2 124/2/2 165/2/2
f 165/2/2 124/2/2 166/2/2
f 146/4/2 147/4/2 167/4/2
f 163/3/2 164/3/2 168/3/2
f 167/4/2 147/4/2 168/4/2
f 147/3/2 148/3/2 168/3/2
f 148/3/2 149/3/2 168/3/2
f 164/3/2 165/3/2 168/3/2
f 149/3/2 150/3/2 168/3/2
f 162/3/2 163/3/2 168/3/2
f 161/3/2 162/3/2 168/3/2
f 160/3/2 161/3/2 168/3/2
f 159/3/2 160/3/2 168/3/2
f 158/3/2 159/3/2 168/3/2
f 157/3/2 158/3/2 168/3/2
f 156/3/2 157/3/2 168/3/2
f 155/3/2 156/3/2 168/3/2
f 154/3/2 155/3/2 168/3/2
f 153/3/2 154/3/2 168/3/2
f 152/3/2 153/3/2 168/3/2
f 151/3/2 152/3/2 168/3/2
f 150/3/2 151/3/2 168/3/2
f 165/4/2 166/4/2 169/4/2
f 168/3/2 165/3/2 169/3/2
f 169/4/2 166/4/2 170/4/2
f 171/1/2 172/1/2 190/1/2
f 172/2/2 173/2/2 191/2/2
f 190/1/2 172/1/2 191/1/2
f 173/1/2 174/1/2 192/1/2
f 191/2/2 173/2/2 192/2/2
f 174/2/2 175/2/2 193/2/2
f 192/1/2 174/1/2 193/1/2
f 175/1/2 176/1/2 194/1/2
f 193/2/2 175/2/2 194/2/2
f 176/2/2 177/2/2 195/2/2
f 194/1/2 176/1/2 195/1/2
f 177/1/2 178/1/2 196/1/2
f 195/2/2 177/2/2 196/2/2
f 178/2/2 179/2/2 197/2/2
f 196/1/2 178/1/2 197/1/2
f 179/1/2 180/1/2 198/1/2
f 197/2/2 179/2/2 198/2/2
f 180/2/2 181/2/2 199/2/2
f 198/1/2 180/1/2 199/1/2
f 181/1/2 182/1/2 200/1/2
f 199/2/2 181/2/2 200/2/2
f 182/2/2 183/2/2 201/2/2
f 200/1/2 182/1/2 201/1/2
f 183/1/2 184/1/2 202/1/2
f 201/2/2 183/2/2 202/2/2
f 184/2/2 185/2/2 203/2/2
f 202/1/2 184/1/2 203/1/2
f 185/1/2 186/1/2 204/1/2
f 203/2/2 185/2/2 204/2/2
f 186/2/2 187/2/2 205/2/2
f 204/1/2 186/1/2 205/1/2
f 187/1/2 188/1/2 206/1/2
f 205/2/2 187/2/2 206/2/2
f 188/2/2 189/2/2 207/2/2
f 206/1/2 188/1/2 207/1/2
f 207/2/2 189/2/2 208/2/2
f 190/2/2 191/2/2 209/2/2
f 191/1/2 192/1/2 210/1/2
f 209/2/2 191/2/2 210/2/2
f 192/2/2 193/2/2 211/2/2
f 210/1/2 192/1/2 211/1/2
f 193/1/2 194/1/2 212/1/2
f 211/2/2 193/2/2 212/2/2
f 194/2/2 195/2/2 213/2/2
f 212/1/2 194/1/2 213/1/2
f 195/1/2 196/1/2 214/1/2
f 213/2/2 195/2/2 214/2/2
f 196/2/2 197/2/2 215/2/2
f 214/1/2 196/1/2 215/1/2
f 197/1/2 198/1/2 216/1/2
f 215/2/2 197/2/2 216/2/2
f 198/2/2 199/2/2 217/2/2
f 216/1/2 198/1/2 217/1/2
f 199/1/2 200/1/2 218/1/2
f 217/2/2 199/2/2 218/2/2
f 200/2/2 201/2/2 219/2/2
f 218/1/2 200/1/2 219/1/2
f 201/1/2 202/1/2 220/1/2
f 219/2/2 201/2/2 220/2/2
f 202/2/2 203/2/2 221/2/2
f 220/1/2 202/1/2 221/1/2
f 203/1/2 204/1/2 222/1/2
f 221/2/2 203/2/2 222/2/2
f 204/2/2 205/2/2 223/2/2
f 222/1/2 204/1/2 223/1/2
f 205/1/2 206/1/2 224/1/2
f 223/2/2 205/2/2 224/2/2
f 206/2/2 207/2/2 225/2/2
f 224/1/2 206/1/2 225/1/2
f 207/1/2 208/1/2 226/1/2
f 225/2/2 207/2/2 226/2/2
f 226/1/2 208/1/2 227/1/2
f 231/1/3 229/1/3 228/1/3
f 232/2/3 230/2/3 229/2/3
f 232/1/3 229/1/3 231/1/3
f 233/2/3 230/2/3 232/2/3
f 234/2/3 232/2/3 231/2/3
f 235/1/3 233/1/3 232/1/3
f 235/2/3 232/2/3 234/2/3
f 236/1/3 233/1/3 235/1/3
f 237/1/3 235/1/3 234/1/3
f 238/2/3 236/2/3 235/2/3
f 238/1/3 235/1/3 237/1/3
f 239/2/3 236/2/3 238/2/3
f 240/2/3 238/2/3 237/2/3
f 241/1/3 239/1/3 238/1/3
f 241/2/3 238/2/3 240/2/3
f 242/1/3 239/1/3 241/1/3
f 243/1/3 241/1/3 240/1/3
f 244/2/3 242/2/3 241/2/3
f 244/1/3 241/1/3 243/1/3
f 245/2/3 242/2/3 244/2/3
f 246/2/3 244/2/3 243/2/3
f 247/1/3 245/1/3 244/1/3
f 247/2/3 244/2/3 246/2/3
f 248/1/3 245/1/3 247/1/3
f 249/1/3 247/1/3 246/1/3
f 250/2/3 248/2/3 247/2/3
f 250/1/3 247/1/3 249/1/3
f 251/2/3 248/2/3 250/2/3
f 256/2/3 253/2/3 252/2/3
f 257/3/3 255/3/3 254/3/3
f 258/2/3 256/2/3 252/2/3
f 259/3/3 255/3/3 257/3/3
f 260/2/3 258/2/3 252/2/3
f 261/3/3 255/3/3 259/3/3
f 262/2/3 260/2/3 252/2/3
f 263/3/3 255/3/3 261/3/3
f 264/2/3 262/2/3 252/2/3
f 265/3/3 255/3/3 263/3/3
f 266/2/3 264/2/3 252/2/3
f 267/3/3 255/3/3 265/3/3
f 268/2/3 266/2/3 252/2/3
f 270/3/3 255/3/3 267/3/3
f 271/3/3 255/3/3 270/3/3
f 272/2/3 269/2/3 268/2/3
f 272/2/3 268/2/3 252/2/3
f 272/2/3 270/2/3 269/2/3
f 273/4/3 271/4/3 270/4/3
f 273/2/3 270/2/3 272/2/3
f 274/4/3 271/4/3 273/4/3
f 279/2/3 276/2/3 275/2/3
f 280/4/3 278/4/3 277/4/3
f 281/3/3 279/3/3 278/3/3
f 281/4/3 278/4/3 280/4/3
f 282/2/3 276/2/3 279/2/3
f 282/3/3 279/3/3 281/3/3
f 283/2/3 276/2/3 282/2/3
f 284/2/3 276/2/3 283/2/3
f 287/2/3 285/2/3 284/2/3
f 288/4/3 286/4/3 285/4/3
f 288/2/3 285/2/3 287/2/3
f 289/4/3 286/4/3 288/4/3
f 293/4/3 291/4/3 290/4/3
f 294/3/3 292/3/3 291/3/3
f 294/4/3 291/4/3 293/4/3
f 295/3/3 292/3/3 294/3/3
f 299/1/3 297/1/3 296/1/3
f 300/2/3 298/2/3 297/2/3
f 300/1/3 297/1/3 299/1/3
f 301/2/3 298/2/3 300/2/3
f 305/2/3 303/2/3 302/2/3
f 306/2/3 303/2/3 305/2/3
f 307/2/3 303/2/3 306/2/3
f 308/3/3 305/3/3 304/3/3
f 309/3/3 308/3/3 304/3/3
f 310/3/3 308/3/3 309/3/3
f 313/3/3 312/3/3 311/3/3
f 314/3/3 312/3/3 313/3/3
f 317/4/3 315/4/3 314/4/3
f 318/3/3 316/3/3 315/3/3
f 318/4/3 315/4/3 317/4/3
f 319/3/3 316/3/3 318/3/3
f 323/2/3 321/2/3 320/2/3
f 323/3/3 322/3/3 321/3/3
f 324/3/3 322/3/3 323/3/3
f 325/2/3 323/2/3 320/2/3
f 326/4/3 324/4/3 323/4/3
f 326/2/3 323/2/3 325/2/3
f 327/4/3 324/4/3 326/4/3
f 328/2/4 329/2/4 331/2/4
f 329/3/4 330/3/4 331/3/4
f 331/3/4 330/3/4 332/3/4
f 328/2/4 331/2/4 333/2/4
f 331/4/4 332/4/4 334/4/4
f 333/2/4 331/2/4 334/2/4
f 334/4/4 332/4/4 335/4/4
f 336/3/4 337/3/4 338/3/4
f 338/3/4 337/3/4 339/3/4
f 339/4/4 340/4/4 342/4/4
f 340/3/4 341/3/4 343/3/4
f 342/4/4 340/4/4 343/4/4
f 343/3/4 341/3/4 344/3/4
f 345/2/4 346/2/4 348/2/4
f 348/2/4 346/2/4 349/2/4
f 349/2/4 346/2/4 350/2/4
f 347/3/4 348/3/4 351/3/4
f 347/3/4 351/3/4 352/3/4
f 352/3/4 351/3/4 353/3/4
f 354/4/4 355/4/4 357/4/4
f 355/3/4 356/3/4 358/3/4
f 357/4/4 355/4/4 358/4/4
f 358/3/4 356/3/4 359/3/4
f 360/2/4 361/2/4 363/2/4
f 361/1/4 362/1/4 364/1/4
f 363/2/4 361/2/4 364/2/4
f 364/1/4 362/1/4 365/1/4
f 366/2/4 367/2/4 370/2/4
f 368/4/4 369/4/4 371/4/4
f 369/3/4 370/3/4 372/3/4
f 371/4/4 369/4/4 372/4/4
f 370/2/4 367/2/4 373/2/4
f 372/3/4 370/3/4 373/3/4
f 373/2/4 367/2/4 374/2/4
f 374/2/4 367/2/4 375/2/4
f 375/2/4 376/2/4 378/2/4
f 376/4/4 377/4/4 379/4/4
f 378/2/4 376/2/4 379/2/4
f 379/4/4 377/4/4 380/4/4
f 381/2/4 382/2/4 385/2/4
f 383/3/4 384/3/4 386/3/4
f 381/2/4 385/2/4 387/2/4
f 386/3/4 384/3/4 388/3/4
f 381/2/4 387/2/4 389/2/4
f 388/3/4 384/3/4 390/3/4
f 381/2/4 389/2/4 391/2/4
f 390/3/4 384/3/4 392/3/4
f 381/2/4 391/2/4 393/2/4
f 392/3/4 384/3/4 394/3/4
f 381/2/4 393/2/4 395/2/4
f 394/3/4 384/3/4 396/3/4
f 381/2/4 395/2/4 397/2/4
f 396/3/4 384/3/4 399/3/4
f 399/3/4 384/3/4 400/3/4
f 397/2/4 398/2/4 401/2/4
f 381/2/4 397/2/4 401/2/4
f 398/2/4 399/2/4 401/2/4
f 399/4/4 400/4/4 402/4/4
f 401/2/4 399/2/4 402/2/4
f 402/4/4 400/4/4 403/4/4
f 404/1/4 405/1/4 407/1/4
f 405/2/4 406/2/4 408/2/4
f 407/1/4 405/1/4 408/1/4
f 408/2/4 406/2/4 409/2/4
f 407/2/4 408/2/4 410/2/4
f 408/1/4 409/1/4 411/1/4
f 410/2/4 408/2/4 411/2/4
f 411/1/4 409/1/4 412/1/4
f 410/1/4 411/1/4 413/1/4
f 411/2/4 412/2/4 414/2/4
f 413/1/4 411/1/4 414/1/4
f 414/2/4 412/2/4 415/2/4
f 413/2/4 414/2/4 416/2/4
f 414/1/4 415/1/4 417/1/4
f 416/2/4 414/2/4 417/2/4
f 417/1/4 415/1/4 418/1/4
f 416/1/4 417/1/4 419/1/4
f 417/2/4 418/2/4 420/2/4
f 419/1/4 417/1/4 420/1/4
f 420/2/4 418/2/4 421/2/4
f 419/2/4 420/2/4 422/2/4
f 420/1/4 421/1/4 423/1/4
f 422/2/4 420/2/4 423/2/4
f 423/1/4 421/1/4 424/1/4
f 422/1/4 423/1/4 425/1/4
f 423/2/4 424/2/4 426/2/4
f 425/1/4 423/1/4 426/1/4
f 426/2/4 424/2/4 427/2/4
f 430/3/5 429/3/5 428/3/5
f 431/3/5 429/3/5 430/3/5
f 434/3/5 433/3/5 432/3/5
f 435/3/5 433/3/5 434/3/5
f 438/4/5 437/4/5 436/4/5
f 439/4/5 437/4/5 438/4/5
f 442/4/5 438/4/5 436/4/5
f 443/3/5 439/3/5 438/3/5
f 443/4/5 438/4/5 442/4/5
f 444/3/5 439/3/5 443/3/5
f 445/3/5 439/3/5 444/3/5
f 446/4/5 440/4/5 439/4/5
f 446/3/5 439/3/5 445/3/5
f 447/2/5 442/2/5 441/2/5
f 448/4/5 446/4/5 445/4/5
f 449/4/5 440/4/5 446/4/5
f 449/4/5 446/4/5 448/4/5
f 450/2/5 448/2/5 447/2/5
f 450/2/5 447/2/5 441/2/5
f 451/2/5 448/2/5 450/2/5
f 453/4/5 452/4/5 451/4/5
f 454/4/5 452/4/5 453/4/5
f 455/2/5 450/2/5 441/2/5
f 456/2/5 450/2/5 455/2/5
f 458/3/5 454/3/5 453/3/5
f 459/4/5 457/4/5 456/4/5
f 459/3/5 458/3/5 457/3/5
f 460/4/5 452/4/5 454/4/5
f 460/3/5 458/3/5 459/3/5
f 460/3/5 454/3/5 458/3/5
f 461/4/5 452/4/5 460/4/5
f 462/4/5 459/4/5 456/4/5
f 462/4/5 460/4/5 459/4/5
f 463/4/5 460/4/5 462/4/5
f 468/2/5 467/2/5 466/2/5
f 469/2/5 467/2/5 468/2/5
f 470/2/5 465/2/5 464/2/5
f 471/2/5 465/2/5 470/2/5
f 474/2/5 473/2/5 472/2/5
f 475/2/5 473/2/5 474/2/5
f 480/2/5 477/2/5 476/2/5
f 481/2/5 477/2/5 480/2/5
f 482/2/5 479/2/5 478/2/5
f 483/2/5 479/2/5 482/2/5
f 486/2/5 485/2/5 484/2/5
f 487/2/5 485/2/5 486/2/5
f 490/2/5 488/2/5 487/2/5
f 491/2/5 488/2/5 490/2/5
f 492/2/5 490/2/5 489/2/5
f 493/2/5 490/2/5 492/2/5
f 502/1/5 495/1/5 494/1/5
f 503/2/5 496/2/5 495/2/5
f 503/1/5 495/1/5 502/1/5
f 504/1/5 497/1/5 496/1/5
f 504/2/5 496/2/5 503/2/5
f 505/2/5 498/2/5 497/2/5
f 505/1/5 497/1/5 504/1/5
f 506/1/5 499/1/5 498/1/5
f 506/2/5 498/2/5 505/2/5
f 507/2/5 500/2/5 499/2/5
f 507/1/5 499/1/5 506/1/5
f 508/1/5 501/1/5 500/1/5
f 508/2/5 500/2/5 507/2/5
f 509/1/5 501/1/5 508/1/5
f 512/1/5 511/1/5 510/1/5
f 513/1/5 511/1/5 512/1/5
f 514/2/5 513/2/5 512/2/5
f 515/2/5 513/2/5 514/2/5
f 516/1/5 515/1/5 514/1/5
f 517/1/5 515/1/5 516/1/5
f 518/2/5 517/2/5 516/2/5
f 519/2/5 517/2/5 518/2/5
f 520/1/5 519/1/5 518/1/5
f 521/1/5 519/1/5 520/1/5
f 522/2/5 521/2/5 520/2/5
f 523/2/5 521/2/5 522/2/5
f 524/1/5 523/1/5 522/1/5
f 525/1/5 523/1/5 524/1/5
f 526/2/5 525/2/5 524/2/5
f 527/2/5 525/2/5 526/2/5
f 528/1/5 527/1/5 526/1/5
f 529/1/5 527/1/5 528/1/5
f 530/2/5 529/2/5 528/2/5
f 531/2/5 529/2/5 530/2/5
f 532/1/5 531/1/5 530/1/5
f 533/1/5 531/1/5 532/1/5
f 534/2/5 533/2/5 532/2/5
f 535/2/5 533/2/5 534/2/5
f 536/1/5 535/1/5 534/1/5
f 537/1/5 535/1/5 536/1/5
f 538/2/5 537/2/5 536/2/5
f 539/2/5 537/2/5 538/2/5
f 540/1/5 539/1/5 538/1/5
f 541/1/5 539/1/5 540/1/5
f 542/2/5 541/2/5 540/2/5
f 543/2/5 541/2/5 542/2/5
f 544/1/5 543/1/5 542/1/5
f 545/1/5 543/1/5 544/1/5
f 546/2/5 545/2/5 544/2/5
f 547/2/5 545/2/5 546/2/5
f 556/1/5 549/1/5 548/1/5
f 557/2/5 550/2/5 549/2/5
f 557/1/5 549/1/5 556/1/5
f 558/1/5 551/1/5 550/1/5
f 558/2/5 550/2/5 557/2/5
f 559/2/5 552/2/5 551/2/5
f 559/1/5 551/1/5 558/1/5
f 560/1/5 553/1/5 552/1/5
f 560/2/5 552/2/5 559/2/5
f 561/2/5 554/2/5 553/2/5
f 561/1/5 553/1/5 560/1/5
f 562/1/5 555/1/5 554/1/5
f 562/2/5 554/2/5 561/2/5
f 563/1/5 555/1/5 562/1/5
f 564/1/6 565/1/6 566/1/6
f 566/1/6 565/1/6 567/1/6
f 568/2/6 569/2/6 576/2/6
f 569/1/6 570/1/6 577/1/6
f 576/2/6 569/2/6 577/2/6
f 570/2/6 571/2/6 578/2/6
f 577/1/6 570/1/6 578/1/6
f 571/1/6 572/1/6 579/1/6
f 578/2/6 571/2/6 579/2/6
f 572/2/6 573/2/6 580/2/6
f 579/1/6 572/1/6 580/1/6
f 573/1/6 574/1/6 581/1/6
f 580/2/6 573/2/6 581/2/6
f 574/2/6 575/2/6 582/2/6
f 581/1/6 574/1/6 582/1/6
f 582/2/6 575/2/6 583/2/6
f 584/2/6 585/2/6 586/2/6
f 586/2/6 585/2/6 587/2/6
f 586/1/6 587/1/6 588/1/6
f 588/1/6 587/1/6 589/1/6
f 588/2/6 589/2/6 590/2/6
f 590/2/6 589/2/6 591/2/6
f 590/1/6 591/1/6 592/1/6
f 592/1/6 591/1/6 593/1/6
f 592/2/6 593/2/6 594/2/6
f 594/2/6 593/2/6 595/2/6
f 594/1/6 595/1/6 596/1/6
f 596/1/6 595/1/6 597/1/6
f 596/2/6 597/2/6 598/2/6
f 598/2/6 597/2/6 599/2/6
f 598/1/6 599/1/6 600/1/6
f 600/1/6 599/1/6 601/1/6
f 600/2/6 601/2/6 602/2/6
f 602/2/6 601/2/6 603/2/6
f 602/1/6 603/1/6 604/1/6
f 604/1/6 603/1/6 605/1/6
f 604/2/6 605/2/6 606/2/6
f 606/2/6 605/2/6 607/2/6
f 606/1/6 607/1/6 608/1/6
f 608/1/6 607/1/6 609/1/6
f 608/2/6 609/2/6 610/2/6
f 610/2/6 609/2/6 611/2/6
f 610/1/6 611/1/6 612/1/6
f 612/1/6 611/1/6 613/1/6
f 612/2/6 613/2/6 614/2/6
f 614/2/6 613/2/6 615/2/6
f 614/1/6 615/1/6 616/1/6
f 616/1/6 615/1/6 617/1/6
f 616/2/6 617/2/6 618/2/6
f 618/2/6 617/2/6 619/2/6
f 618/1/6 619/1/6 620/1/6
f 620/1/6 619/1/6 621/1/6
f 622/2/6 623/2/6 630/2/6
f 623/1/6 624/1/6 631/1/6
f 630/2/6 623/2/6 631/2/6
f 624/2/6 625/2/6 632/2/6
f 631/1/6 624/1/6 632/1/6
f 625/1/6 626/1/6 633/1/6
f 632/2/6 625/2/6 633/2/6
f 626/2/6 627/2/6 634/2/6
f 633/1/6 626/1/6 634/1/6
f 627/1/6 628/1/6 635/1/6
f 634/2/6 627/2/6 635/2/6
f 628/2/6 629/2/6 636/2/6
f 635/1/6 628/1/6 636/1/6
f 636/2/6 629/2/6 637/2/6
f 638/3/6 639/3/6 641/3/6
f 639/4/6 640/4/6 642/4/6
f 641/3/6 639/3/6 642/3/6
f 642/4/6 640/4/6 643/4/6
f 643/4/6 644/4/6 645/4/6
f 645/4/6 644/4/6 646/4/6
f 645/3/6 646/3/6 647/3/6
f 647/3/6 646/3/6 648/3/6
f 647/4/6 648/4/6 651/4/6
f 651/4/6 648/4/6 652/4/6
f 649/3/6 650/3/6 653/3/6
f 650/4/6 651/4/6 654/4/6
f 653/3/6 650/3/6 654/3/6
f 654/4/6 651/4/6 655/4/6
