# MagicaVoxel @ Ephtracy

# material
mtllib StackFront.mtl
usemtl palette

# normals
vn -1 0 0
vn 1 0 0
vn 0 0 1
vn 0 0 -1
vn 0 -1 0
vn 0 1 0

# texcoords
vt 0.00195313 0.5
vt 0.00585938 0.5
vt 0.00976563 0.5
vt 0.0136719 0.5
vt 0.478516 0.5
vt 0.564453 0.5
vt 0.572266 0.5

# verts
v -13 6 5
v -13 6 4
v -13 6 3
v -13 6 2
v -13 6 1
v -13 6 -0
v -13 6 -1
v -13 6 -2
v -13 6 -3
v -13 6 -4
v -13 6 -5
v -13 6 -6
v -13 6 -7
v -13 6 -8
v -13 6 -9
v -13 6 -10
v -13 6 -11
v -13 6 -12
v -13 6 -13
v -13 7 5
v -13 7 4
v -13 7 3
v -13 7 2
v -13 7 1
v -13 7 -0
v -13 7 -1
v -13 7 -2
v -13 7 -3
v -13 7 -4
v -13 7 -5
v -13 7 -6
v -13 7 -7
v -13 7 -8
v -13 7 -9
v -13 7 -10
v -13 7 -11
v -13 7 -12
v -13 7 -13
v -13 8 5
v -13 8 4
v -13 8 3
v -13 8 2
v -13 8 1
v -13 8 -0
v -13 8 -1
v -13 8 -2
v -13 8 -3
v -13 8 -4
v -13 8 -5
v -13 8 -6
v -13 8 -7
v -13 8 -8
v -13 8 -9
v -13 8 -10
v -13 8 -11
v -13 8 -12
v -13 8 -13
v -12 5 6
v -12 5 -14
v -12 6 5
v -12 6 4
v -12 6 3
v -12 6 2
v -12 6 1
v -12 6 -0
v -12 6 -1
v -12 6 -2
v -12 6 -3
v -12 6 -4
v -12 6 -5
v -12 6 -6
v -12 6 -7
v -12 6 -8
v -12 6 -9
v -12 6 -10
v -12 6 -11
v -12 6 -12
v -12 6 -13
v -12 7 5
v -12 7 -13
v -12 8 6
v -12 8 5
v -12 8 4
v -12 8 3
v -12 8 2
v -12 8 1
v -12 8 -0
v -12 8 -1
v -12 8 -2
v -12 8 -3
v -12 8 -4
v -12 8 -5
v -12 8 -6
v -12 8 -7
v -12 8 -8
v -12 8 -9
v -12 8 -10
v -12 8 -11
v -12 8 -12
v -12 8 -13
v -12 8 -14
v -12 9 6
v -12 9 5
v -12 9 -13
v -12 9 -14
v -11 2 5
v -11 2 2
v -11 2 -10
v -11 2 -13
v -11 3 5
v -11 3 2
v -11 3 -10
v -11 3 -13
v -11 4 6
v -11 4 5
v -11 4 2
v -11 4 -10
v -11 4 -13
v -11 4 -14
v -11 5 7
v -11 5 6
v -11 5 -14
v -11 5 -15
v -11 8 7
v -11 8 6
v -11 8 -14
v -11 8 -15
v -11 9 7
v -11 9 6
v -11 9 -14
v -11 9 -15
v -10 2 6
v -10 2 5
v -10 2 -13
v -10 2 -14
v -10 3 6
v -10 3 5
v -10 3 -13
v -10 3 -14
v -10 4 6
v -10 4 5
v -10 4 -13
v -10 4 -14
v -10 6 8
v -10 6 7
v -10 6 -15
v -10 6 -16
v -10 7 8
v -10 7 7
v -10 7 -15
v -10 7 -16
v -10 8 8
v -10 8 7
v -10 8 -15
v -10 8 -16
v -9 0 4
v -9 0 2
v -9 0 -10
v -9 0 -12
v -9 2 4
v -9 2 3
v -9 2 2
v -9 2 -10
v -9 2 -11
v -9 2 -12
v -9 3 2
v -9 3 -10
v -9 4 2
v -9 4 -10
v -11 7 6
v -11 7 -14
v -11 8 6
v -11 8 5
v -11 8 -13
v -11 8 -14
v -11 9 6
v -11 9 5
v -11 9 -13
v -11 9 -14
v -7 0 4
v -7 0 2
v -7 0 -10
v -7 0 -12
v -7 2 6
v -7 2 4
v -7 2 2
v -7 2 -10
v -7 2 -12
v -7 2 -14
v -7 3 6
v -7 3 4
v -7 3 -12
v -7 3 -14
v -7 4 6
v -7 4 4
v -7 4 -12
v -7 4 -14
v -3 2 4
v -3 2 -12
v -3 4 6
v -3 4 4
v -3 4 -12
v -3 4 -14
v -3 5 7
v -3 5 6
v -3 5 -14
v -3 5 -15
v -3 6 8
v -3 6 7
v -3 6 -15
v -3 6 -16
v -3 7 8
v -3 7 7
v -3 7 6
v -3 7 -14
v -3 7 -15
v -3 7 -16
v -3 8 8
v -3 8 7
v -3 8 6
v -3 8 -14
v -3 8 -15
v -3 8 -16
v -3 9 7
v -3 9 6
v -3 9 -14
v -3 9 -15
v -10 6 8
v -10 7 8
v -10 8 8
v -9 6 8
v -9 7 8
v -9 8 8
v -8 6 8
v -8 7 8
v -8 8 8
v -7 6 8
v -7 7 8
v -7 8 8
v -6 6 8
v -6 7 8
v -6 8 8
v -5 6 8
v -5 7 8
v -5 8 8
v -4 6 8
v -4 7 8
v -4 8 8
v -3 6 8
v -3 7 8
v -3 8 8
v -11 5 7
v -11 8 7
v -11 9 7
v -10 6 7
v -10 7 7
v -10 8 7
v -10 9 7
v -9 6 7
v -9 8 7
v -8 6 7
v -8 8 7
v -7 6 7
v -7 8 7
v -6 6 7
v -6 8 7
v -5 6 7
v -5 8 7
v -4 6 7
v -4 8 7
v -3 5 7
v -3 6 7
v -3 8 7
v -3 9 7
v -12 5 6
v -12 8 6
v -12 9 6
v -11 4 6
v -11 5 6
v -11 8 6
v -11 9 6
v -10 2 6
v -10 3 6
v -10 4 6
v -7 2 6
v -7 3 6
v -7 4 6
v -3 4 6
v -3 5 6
v -13 6 5
v -13 7 5
v -13 8 5
v -12 6 5
v -12 7 5
v -12 8 5
v -11 2 5
v -11 3 5
v -11 4 5
v -10 2 5
v -10 3 5
v -10 4 5
v -9 0 4
v -9 2 4
v -8 2 4
v -7 0 4
v -7 2 4
v -7 3 4
v -7 4 4
v -3 2 4
v -3 4 4
v -11 2 -10
v -11 3 -10
v -11 4 -10
v -9 0 -10
v -9 2 -10
v -9 3 -10
v -9 4 -10
v -7 0 -10
v -7 2 -10
v -11 7 -14
v -11 8 -14
v -11 9 -14
v -10 8 -14
v -10 9 -14
v -3 7 -14
v -3 8 -14
v -3 9 -14
v -11 7 6
v -11 8 6
v -11 9 6
v -10 8 6
v -10 9 6
v -3 7 6
v -3 8 6
v -3 9 6
v -11 2 2
v -11 3 2
v -11 4 2
v -9 0 2
v -9 2 2
v -9 3 2
v -9 4 2
v -7 0 2
v -7 2 2
v -9 0 -12
v -9 2 -12
v -8 2 -12
v -7 0 -12
v -7 2 -12
v -7 3 -12
v -7 4 -12
v -3 2 -12
v -3 4 -12
v -13 6 -13
v -13 7 -13
v -13 8 -13
v -12 6 -13
v -12 7 -13
v -12 8 -13
v -11 2 -13
v -11 3 -13
v -11 4 -13
v -10 2 -13
v -10 3 -13
v -10 4 -13
v -12 5 -14
v -12 8 -14
v -12 9 -14
v -11 4 -14
v -11 5 -14
v -11 8 -14
v -11 9 -14
v -10 2 -14
v -10 3 -14
v -10 4 -14
v -7 2 -14
v -7 3 -14
v -7 4 -14
v -3 4 -14
v -3 5 -14
v -11 5 -15
v -11 8 -15
v -11 9 -15
v -10 6 -15
v -10 7 -15
v -10 8 -15
v -10 9 -15
v -9 6 -15
v -9 8 -15
v -8 6 -15
v -8 8 -15
v -7 6 -15
v -7 8 -15
v -6 6 -15
v -6 8 -15
v -5 6 -15
v -5 8 -15
v -4 6 -15
v -4 8 -15
v -3 5 -15
v -3 6 -15
v -3 8 -15
v -3 9 -15
v -10 6 -16
v -10 7 -16
v -10 8 -16
v -9 6 -16
v -9 7 -16
v -9 8 -16
v -8 6 -16
v -8 7 -16
v -8 8 -16
v -7 6 -16
v -7 7 -16
v -7 8 -16
v -6 6 -16
v -6 7 -16
v -6 8 -16
v -5 6 -16
v -5 7 -16
v -5 8 -16
v -4 6 -16
v -4 7 -16
v -4 8 -16
v -3 6 -16
v -3 7 -16
v -3 8 -16
v -9 0 4
v -7 0 4
v -9 0 2
v -7 0 2
v -9 0 -10
v -7 0 -10
v -9 0 -12
v -7 0 -12
v -10 2 6
v -7 2 6
v -11 2 5
v -10 2 5
v -8 2 5
v -9 2 4
v -8 2 4
v -7 2 4
v -3 2 4
v -10 2 3
v -9 2 3
v -11 2 2
v -9 2 2
v -7 2 2
v -11 2 -10
v -9 2 -10
v -7 2 -10
v -10 2 -11
v -9 2 -11
v -9 2 -12
v -8 2 -12
v -7 2 -12
v -3 2 -12
v -11 2 -13
v -10 2 -13
v -8 2 -13
v -10 2 -14
v -7 2 -14
v -11 4 6
v -10 4 6
v -7 4 6
v -3 4 6
v -11 4 5
v -10 4 5
v -7 4 4
v -3 4 4
v -11 4 2
v -9 4 2
v -11 4 -10
v -9 4 -10
v -7 4 -12
v -3 4 -12
v -11 4 -13
v -10 4 -13
v -11 4 -14
v -10 4 -14
v -7 4 -14
v -3 4 -14
v -11 5 7
v -3 5 7
v -12 5 6
v -11 5 6
v -3 5 6
v -12 5 -14
v -11 5 -14
v -3 5 -14
v -11 5 -15
v -3 5 -15
v -10 6 8
v -9 6 8
v -8 6 8
v -7 6 8
v -6 6 8
v -5 6 8
v -4 6 8
v -3 6 8
v -10 6 7
v -9 6 7
v -8 6 7
v -7 6 7
v -6 6 7
v -5 6 7
v -4 6 7
v -3 6 7
v -13 6 5
v -12 6 5
v -13 6 4
v -12 6 4
v -13 6 3
v -12 6 3
v -13 6 2
v -12 6 2
v -13 6 1
v -12 6 1
v -13 6 -0
v -12 6 -0
v -13 6 -1
v -12 6 -1
v -13 6 -2
v -12 6 -2
v -13 6 -3
v -12 6 -3
v -13 6 -4
v -12 6 -4
v -13 6 -5
v -12 6 -5
v -13 6 -6
v -12 6 -6
v -13 6 -7
v -12 6 -7
v -13 6 -8
v -12 6 -8
v -13 6 -9
v -12 6 -9
v -13 6 -10
v -12 6 -10
v -13 6 -11
v -12 6 -11
v -13 6 -12
v -12 6 -12
v -13 6 -13
v -12 6 -13
v -10 6 -15
v -9 6 -15
v -8 6 -15
v -7 6 -15
v -6 6 -15
v -5 6 -15
v -4 6 -15
v -3 6 -15
v -10 6 -16
v -9 6 -16
v -8 6 -16
v -7 6 -16
v -6 6 -16
v -5 6 -16
v -4 6 -16
v -3 6 -16
v -11 7 6
v -3 7 6
v -11 7 -14
v -3 7 -14
v -10 8 8
v -9 8 8
v -8 8 8
v -7 8 8
v -6 8 8
v -5 8 8
v -4 8 8
v -3 8 8
v -10 8 7
v -9 8 7
v -8 8 7
v -7 8 7
v -6 8 7
v -5 8 7
v -4 8 7
v -3 8 7
v -13 8 5
v -12 8 5
v -13 8 4
v -12 8 4
v -13 8 3
v -12 8 3
v -13 8 2
v -12 8 2
v -13 8 1
v -12 8 1
v -13 8 -0
v -12 8 -0
v -13 8 -1
v -12 8 -1
v -13 8 -2
v -12 8 -2
v -13 8 -3
v -12 8 -3
v -13 8 -4
v -12 8 -4
v -13 8 -5
v -12 8 -5
v -13 8 -6
v -12 8 -6
v -13 8 -7
v -12 8 -7
v -13 8 -8
v -12 8 -8
v -13 8 -9
v -12 8 -9
v -13 8 -10
v -12 8 -10
v -13 8 -11
v -12 8 -11
v -13 8 -12
v -12 8 -12
v -13 8 -13
v -12 8 -13
v -10 8 -15
v -9 8 -15
v -8 8 -15
v -7 8 -15
v -6 8 -15
v -5 8 -15
v -4 8 -15
v -3 8 -15
v -10 8 -16
v -9 8 -16
v -8 8 -16
v -7 8 -16
v -6 8 -16
v -5 8 -16
v -4 8 -16
v -3 8 -16
v -11 9 7
v -10 9 7
v -3 9 7
v -12 9 6
v -11 9 6
v -10 9 6
v -3 9 6
v -12 9 5
v -11 9 5
v -12 9 -13
v -11 9 -13
v -12 9 -14
v -11 9 -14
v -10 9 -14
v -3 9 -14
v -11 9 -15
v -10 9 -15
v -3 9 -15

# faces
f 20/2/1 2/2/1 1/2/1
f 21/1/1 3/1/1 2/1/1
f 21/2/1 2/2/1 20/2/1
f 22/2/1 4/2/1 3/2/1
f 22/1/1 3/1/1 21/1/1
f 23/1/1 5/1/1 4/1/1
f 23/2/1 4/2/1 22/2/1
f 24/2/1 6/2/1 5/2/1
f 24/1/1 5/1/1 23/1/1
f 25/1/1 7/1/1 6/1/1
f 25/2/1 6/2/1 24/2/1
f 26/2/1 8/2/1 7/2/1
f 26/1/1 7/1/1 25/1/1
f 27/1/1 9/1/1 8/1/1
f 27/2/1 8/2/1 26/2/1
f 28/2/1 10/2/1 9/2/1
f 28/1/1 9/1/1 27/1/1
f 29/1/1 11/1/1 10/1/1
f 29/2/1 10/2/1 28/2/1
f 30/2/1 12/2/1 11/2/1
f 30/1/1 11/1/1 29/1/1
f 31/1/1 13/1/1 12/1/1
f 31/2/1 12/2/1 30/2/1
f 32/2/1 14/2/1 13/2/1
f 32/1/1 13/1/1 31/1/1
f 33/1/1 15/1/1 14/1/1
f 33/2/1 14/2/1 32/2/1
f 34/2/1 16/2/1 15/2/1
f 34/1/1 15/1/1 33/1/1
f 35/1/1 17/1/1 16/1/1
f 35/2/1 16/2/1 34/2/1
f 36/2/1 18/2/1 17/2/1
f 36/1/1 17/1/1 35/1/1
f 37/1/1 19/1/1 18/1/1
f 37/2/1 18/2/1 36/2/1
f 38/1/1 19/1/1 37/1/1
f 39/1/1 21/1/1 20/1/1
f 40/2/1 22/2/1 21/2/1
f 40/1/1 21/1/1 39/1/1
f 41/1/1 23/1/1 22/1/1
f 41/2/1 22/2/1 40/2/1
f 42/2/1 24/2/1 23/2/1
f 42/1/1 23/1/1 41/1/1
f 43/1/1 25/1/1 24/1/1
f 43/2/1 24/2/1 42/2/1
f 44/2/1 26/2/1 25/2/1
f 44/1/1 25/1/1 43/1/1
f 45/1/1 27/1/1 26/1/1
f 45/2/1 26/2/1 44/2/1
f 46/2/1 28/2/1 27/2/1
f 46/1/1 27/1/1 45/1/1
f 47/1/1 29/1/1 28/1/1
f 47/2/1 28/2/1 46/2/1
f 48/2/1 30/2/1 29/2/1
f 48/1/1 29/1/1 47/1/1
f 49/1/1 31/1/1 30/1/1
f 49/2/1 30/2/1 48/2/1
f 50/2/1 32/2/1 31/2/1
f 50/1/1 31/1/1 49/1/1
f 51/1/1 33/1/1 32/1/1
f 51/2/1 32/2/1 50/2/1
f 52/2/1 34/2/1 33/2/1
f 52/1/1 33/1/1 51/1/1
f 53/1/1 35/1/1 34/1/1
f 53/2/1 34/2/1 52/2/1
f 54/2/1 36/2/1 35/2/1
f 54/1/1 35/1/1 53/1/1
f 55/1/1 37/1/1 36/1/1
f 55/2/1 36/2/1 54/2/1
f 56/2/1 38/2/1 37/2/1
f 56/1/1 37/1/1 55/1/1
f 57/2/1 38/2/1 56/2/1
f 60/2/1 59/2/1 58/2/1
f 61/2/1 59/2/1 60/2/1
f 62/2/1 59/2/1 61/2/1
f 63/2/1 59/2/1 62/2/1
f 64/2/1 59/2/1 63/2/1
f 65/2/1 59/2/1 64/2/1
f 66/2/1 59/2/1 65/2/1
f 67/2/1 59/2/1 66/2/1
f 68/2/1 59/2/1 67/2/1
f 69/2/1 59/2/1 68/2/1
f 70/2/1 59/2/1 69/2/1
f 71/2/1 59/2/1 70/2/1
f 72/2/1 59/2/1 71/2/1
f 73/2/1 59/2/1 72/2/1
f 74/2/1 59/2/1 73/2/1
f 75/2/1 59/2/1 74/2/1
f 76/2/1 59/2/1 75/2/1
f 77/2/1 59/2/1 76/2/1
f 78/2/1 59/2/1 77/2/1
f 79/2/1 60/2/1 58/2/1
f 80/2/1 59/2/1 78/2/1
f 81/2/1 79/2/1 58/2/1
f 82/2/1 79/2/1 81/2/1
f 100/2/1 59/2/1 80/2/1
f 101/2/1 59/2/1 100/2/1
f 102/4/1 82/4/1 81/4/1
f 103/3/1 99/3/1 98/3/1
f 103/4/1 82/4/1 102/4/1
f 103/3/1 83/3/1 82/3/1
f 103/3/1 84/3/1 83/3/1
f 103/3/1 100/3/1 99/3/1
f 103/3/1 85/3/1 84/3/1
f 103/3/1 98/3/1 97/3/1
f 103/3/1 97/3/1 96/3/1
f 103/3/1 96/3/1 95/3/1
f 103/3/1 95/3/1 94/3/1
f 103/3/1 94/3/1 93/3/1
f 103/3/1 93/3/1 92/3/1
f 103/3/1 92/3/1 91/3/1
f 103/3/1 91/3/1 90/3/1
f 103/3/1 90/3/1 89/3/1
f 103/3/1 89/3/1 88/3/1
f 103/3/1 88/3/1 87/3/1
f 103/3/1 87/3/1 86/3/1
f 103/3/1 86/3/1 85/3/1
f 104/4/1 101/4/1 100/4/1
f 104/3/1 100/3/1 103/3/1
f 105/4/1 101/4/1 104/4/1
f 110/4/1 107/4/1 106/4/1
f 111/4/1 107/4/1 110/4/1
f 112/4/1 109/4/1 108/4/1
f 113/4/1 109/4/1 112/4/1
f 115/3/1 111/3/1 110/3/1
f 116/3/1 111/3/1 115/3/1
f 117/3/1 113/3/1 112/3/1
f 118/3/1 113/3/1 117/3/1
f 121/2/1 118/2/1 117/2/1
f 121/2/1 119/2/1 118/2/1
f 121/2/1 117/2/1 116/2/1
f 121/2/1 116/2/1 115/2/1
f 121/2/1 115/2/1 114/2/1
f 122/2/1 119/2/1 121/2/1
f 124/2/1 121/2/1 120/2/1
f 125/2/1 121/2/1 124/2/1
f 126/2/1 123/2/1 122/2/1
f 127/2/1 123/2/1 126/2/1
f 128/4/1 125/4/1 124/4/1
f 129/4/1 125/4/1 128/4/1
f 130/4/1 127/4/1 126/4/1
f 131/4/1 127/4/1 130/4/1
f 136/4/1 133/4/1 132/4/1
f 137/4/1 133/4/1 136/4/1
f 138/4/1 135/4/1 134/4/1
f 139/4/1 135/4/1 138/4/1
f 140/3/1 137/3/1 136/3/1
f 141/3/1 137/3/1 140/3/1
f 142/3/1 139/3/1 138/3/1
f 143/3/1 139/3/1 142/3/1
f 148/2/1 145/2/1 144/2/1
f 149/2/1 145/2/1 148/2/1
f 150/2/1 147/2/1 146/2/1
f 151/2/1 147/2/1 150/2/1
f 152/1/1 149/1/1 148/1/1
f 153/1/1 149/1/1 152/1/1
f 154/1/1 151/1/1 150/1/1
f 155/1/1 151/1/1 154/1/1
f 160/3/1 157/3/1 156/3/1
f 161/3/1 157/3/1 160/3/1
f 162/3/1 157/3/1 161/3/1
f 163/3/1 159/3/1 158/3/1
f 164/3/1 159/3/1 163/3/1
f 165/3/1 159/3/1 164/3/1
f 166/2/1 163/2/1 162/2/1
f 167/2/1 163/2/1 166/2/1
f 168/2/1 167/2/1 166/2/1
f 169/2/1 167/2/1 168/2/1
f 170/2/2 171/2/2 172/2/2
f 172/2/2 171/2/2 173/2/2
f 173/2/2 171/2/2 174/2/2
f 174/2/2 171/2/2 175/2/2
f 172/4/2 173/4/2 176/4/2
f 173/3/2 174/3/2 177/3/2
f 176/4/2 173/4/2 177/4/2
f 174/4/2 175/4/2 178/4/2
f 177/3/2 174/3/2 178/3/2
f 178/4/2 175/4/2 179/4/2
f 180/3/2 181/3/2 185/3/2
f 185/3/2 181/3/2 186/3/2
f 182/3/2 183/3/2 187/3/2
f 187/3/2 183/3/2 188/3/2
f 184/4/2 185/4/2 190/4/2
f 190/4/2 185/4/2 191/4/2
f 188/4/2 189/4/2 192/4/2
f 192/4/2 189/4/2 193/4/2
f 190/3/2 191/3/2 194/3/2
f 194/3/2 191/3/2 195/3/2
f 192/3/2 193/3/2 196/3/2
f 196/3/2 193/3/2 197/3/2
f 198/2/2 199/2/2 201/2/2
f 201/2/2 199/2/2 202/2/2
f 200/2/2 201/2/2 205/2/2
f 202/2/2 203/2/2 205/2/2
f 201/2/2 202/2/2 205/2/2
f 205/2/2 203/2/2 206/2/2
f 204/2/2 205/2/2 209/2/2
f 206/2/2 207/2/2 210/2/2
f 208/2/2 209/2/2 212/2/2
f 209/2/2 205/2/2 213/2/2
f 212/2/2 209/2/2 213/2/2
f 205/1/2 206/1/2 214/1/2
f 213/2/2 205/2/2 214/2/2
f 210/2/2 211/2/2 215/2/2
f 214/1/2 206/1/2 215/1/2
f 206/2/2 210/2/2 215/2/2
f 215/2/2 211/2/2 216/2/2
f 216/2/2 211/2/2 217/2/2
f 212/1/2 213/1/2 218/1/2
f 213/2/2 214/2/2 219/2/2
f 218/1/2 213/1/2 219/1/2
f 219/2/2 214/2/2 220/2/2
f 215/2/2 216/2/2 221/2/2
f 216/1/2 217/1/2 222/1/2
f 221/2/2 216/2/2 222/2/2
f 222/1/2 217/1/2 223/1/2
f 219/3/2 220/3/2 224/3/2
f 224/3/2 220/3/2 225/3/2
f 221/3/2 222/3/2 226/3/2
f 226/3/2 222/3/2 227/3/2
f 231/2/3 229/2/3 228/2/3
f 232/1/3 230/1/3 229/1/3
f 232/2/3 229/2/3 231/2/3
f 233/1/3 230/1/3 232/1/3
f 234/1/3 232/1/3 231/1/3
f 235/2/3 233/2/3 232/2/3
f 235/1/3 232/1/3 234/1/3
f 236/2/3 233/2/3 235/2/3
f 237/2/3 235/2/3 234/2/3
f 238/1/3 236/1/3 235/1/3
f 238/2/3 235/2/3 237/2/3
f 239/1/3 236/1/3 238/1/3
f 240/1/3 238/1/3 237/1/3
f 241/2/3 239/2/3 238/2/3
f 241/1/3 238/1/3 240/1/3
f 242/2/3 239/2/3 241/2/3
f 243/2/3 241/2/3 240/2/3
f 244/1/3 242/1/3 241/1/3
f 244/2/3 241/2/3 243/2/3
f 245/1/3 242/1/3 244/1/3
f 246/1/3 244/1/3 243/1/3
f 247/2/3 245/2/3 244/2/3
f 247/1/3 244/1/3 246/1/3
f 248/2/3 245/2/3 247/2/3
f 249/2/3 247/2/3 246/2/3
f 250/1/3 248/1/3 247/1/3
f 250/2/3 247/2/3 249/2/3
f 251/1/3 248/1/3 250/1/3
f 255/2/3 253/2/3 252/2/3
f 256/2/3 253/2/3 255/2/3
f 257/4/3 254/4/3 253/4/3
f 257/2/3 253/2/3 256/2/3
f 258/4/3 254/4/3 257/4/3
f 259/2/3 255/2/3 252/2/3
f 260/3/3 258/3/3 257/3/3
f 261/2/3 259/2/3 252/2/3
f 262/3/3 258/3/3 260/3/3
f 263/2/3 261/2/3 252/2/3
f 264/3/3 258/3/3 262/3/3
f 265/2/3 263/2/3 252/2/3
f 266/3/3 258/3/3 264/3/3
f 267/2/3 265/2/3 252/2/3
f 268/3/3 258/3/3 266/3/3
f 269/2/3 267/2/3 252/2/3
f 270/3/3 258/3/3 268/3/3
f 271/2/3 269/2/3 252/2/3
f 272/2/3 269/2/3 271/2/3
f 273/3/3 258/3/3 270/3/3
f 274/3/3 258/3/3 273/3/3
f 279/2/3 276/2/3 275/2/3
f 280/4/3 277/4/3 276/4/3
f 280/2/3 276/2/3 279/2/3
f 281/4/3 277/4/3 280/4/3
f 284/2/3 279/2/3 278/2/3
f 285/4/3 283/4/3 282/4/3
f 286/3/3 284/3/3 283/3/3
f 286/4/3 283/4/3 285/4/3
f 287/2/3 279/2/3 284/2/3
f 287/3/3 284/3/3 286/3/3
f 288/2/3 279/2/3 287/2/3
f 289/2/3 279/2/3 288/2/3
f 293/2/3 291/2/3 290/2/3
f 294/1/3 292/1/3 291/1/3
f 294/2/3 291/2/3 293/2/3
f 295/1/3 292/1/3 294/1/3
f 299/4/3 297/4/3 296/4/3
f 300/3/3 298/3/3 297/3/3
f 300/4/3 297/4/3 299/4/3
f 301/3/3 298/3/3 300/3/3
f 304/3/3 303/3/3 302/3/3
f 305/3/3 304/3/3 302/3/3
f 306/3/3 304/3/3 305/3/3
f 309/2/3 308/2/3 307/2/3
f 309/2/3 307/2/3 306/2/3
f 310/2/3 308/2/3 309/2/3
f 315/4/3 312/4/3 311/4/3
f 316/3/3 313/3/3 312/3/3
f 316/4/3 312/4/3 315/4/3
f 317/3/3 313/3/3 316/3/3
f 318/3/3 315/3/3 314/3/3
f 319/3/3 315/3/3 318/3/3
f 323/2/3 321/2/3 320/2/3
f 323/4/3 322/4/3 321/4/3
f 324/4/3 322/4/3 323/4/3
f 325/2/3 323/2/3 320/2/3
f 326/3/3 324/3/3 323/3/3
f 326/2/3 323/2/3 325/2/3
f 327/3/3 324/3/3 326/3/3
f 328/2/4 329/2/4 331/2/4
f 329/4/4 330/4/4 331/4/4
f 331/4/4 330/4/4 332/4/4
f 328/2/4 331/2/4 333/2/4
f 331/3/4 332/3/4 334/3/4
f 333/2/4 331/2/4 334/2/4
f 334/3/4 332/3/4 335/3/4
f 336/4/4 337/4/4 340/4/4
f 337/3/4 338/3/4 341/3/4
f 340/4/4 337/4/4 341/4/4
f 341/3/4 338/3/4 342/3/4
f 339/3/4 340/3/4 343/3/4
f 343/3/4 340/3/4 344/3/4
f 345/3/4 346/3/4 347/3/4
f 345/3/4 347/3/4 348/3/4
f 348/3/4 347/3/4 349/3/4
f 350/2/4 351/2/4 352/2/4
f 349/2/4 350/2/4 352/2/4
f 352/2/4 351/2/4 353/2/4
f 354/1/4 355/1/4 357/1/4
f 355/2/4 356/2/4 358/2/4
f 357/1/4 355/1/4 358/1/4
f 358/2/4 356/2/4 359/2/4
f 360/4/4 361/4/4 363/4/4
f 361/3/4 362/3/4 364/3/4
f 363/4/4 361/4/4 364/4/4
f 364/3/4 362/3/4 365/3/4
f 366/2/4 367/2/4 370/2/4
f 367/4/4 368/4/4 371/4/4
f 370/2/4 367/2/4 371/2/4
f 371/4/4 368/4/4 372/4/4
f 369/2/4 370/2/4 375/2/4
f 373/4/4 374/4/4 376/4/4
f 374/3/4 375/3/4 377/3/4
f 376/4/4 374/4/4 377/4/4
f 375/2/4 370/2/4 378/2/4
f 377/3/4 375/3/4 378/3/4
f 378/2/4 370/2/4 379/2/4
f 379/2/4 370/2/4 380/2/4
f 381/2/4 382/2/4 384/2/4
f 384/2/4 382/2/4 385/2/4
f 382/4/4 383/4/4 386/4/4
f 385/2/4 382/2/4 386/2/4
f 386/4/4 383/4/4 387/4/4
f 381/2/4 384/2/4 388/2/4
f 386/3/4 387/3/4 389/3/4
f 381/2/4 388/2/4 390/2/4
f 389/3/4 387/3/4 391/3/4
f 381/2/4 390/2/4 392/2/4
f 391/3/4 387/3/4 393/3/4
f 381/2/4 392/2/4 394/2/4
f 393/3/4 387/3/4 395/3/4
f 381/2/4 394/2/4 396/2/4
f 395/3/4 387/3/4 397/3/4
f 381/2/4 396/2/4 398/2/4
f 397/3/4 387/3/4 399/3/4
f 381/2/4 398/2/4 400/2/4
f 400/2/4 398/2/4 401/2/4
f 399/3/4 387/3/4 402/3/4
f 402/3/4 387/3/4 403/3/4
f 404/2/4 405/2/4 407/2/4
f 405/1/4 406/1/4 408/1/4
f 407/2/4 405/2/4 408/2/4
f 408/1/4 406/1/4 409/1/4
f 407/1/4 408/1/4 410/1/4
f 408/2/4 409/2/4 411/2/4
f 410/1/4 408/1/4 411/1/4
f 411/2/4 409/2/4 412/2/4
f 410/2/4 411/2/4 413/2/4
f 411/1/4 412/1/4 414/1/4
f 413/2/4 411/2/4 414/2/4
f 414/1/4 412/1/4 415/1/4
f 413/1/4 414/1/4 416/1/4
f 414/2/4 415/2/4 417/2/4
f 416/1/4 414/1/4 417/1/4
f 417/2/4 415/2/4 418/2/4
f 416/2/4 417/2/4 419/2/4
f 417/1/4 418/1/4 420/1/4
f 419/2/4 417/2/4 420/2/4
f 420/1/4 418/1/4 421/1/4
f 419/1/4 420/1/4 422/1/4
f 420/2/4 421/2/4 423/2/4
f 422/1/4 420/1/4 423/1/4
f 423/2/4 421/2/4 424/2/4
f 422/2/4 423/2/4 425/2/4
f 423/1/4 424/1/4 426/1/4
f 425/2/4 423/2/4 426/2/4
f 426/1/4 424/1/4 427/1/4
f 430/3/5 429/3/5 428/3/5
f 431/3/5 429/3/5 430/3/5
f 434/3/5 433/3/5 432/3/5
f 435/3/5 433/3/5 434/3/5
f 439/4/5 437/4/5 436/4/5
f 440/4/5 437/4/5 439/4/5
f 441/3/5 440/3/5 439/3/5
f 442/4/5 437/4/5 440/4/5
f 442/3/5 440/3/5 441/3/5
f 443/4/5 437/4/5 442/4/5
f 445/4/5 439/4/5 438/4/5
f 445/3/5 441/3/5 439/3/5
f 446/3/5 441/3/5 445/3/5
f 447/4/5 445/4/5 438/4/5
f 447/4/5 446/4/5 445/4/5
f 448/4/5 446/4/5 447/4/5
f 449/2/5 444/2/5 443/2/5
f 451/2/5 449/2/5 448/2/5
f 452/2/5 444/2/5 449/2/5
f 452/2/5 449/2/5 451/2/5
f 453/4/5 451/4/5 450/4/5
f 454/4/5 451/4/5 453/4/5
f 455/3/5 454/3/5 453/3/5
f 457/2/5 444/2/5 452/2/5
f 458/2/5 444/2/5 457/2/5
f 459/4/5 453/4/5 450/4/5
f 460/3/5 456/3/5 455/3/5
f 460/4/5 453/4/5 459/4/5
f 460/3/5 455/3/5 453/3/5
f 461/4/5 457/4/5 456/4/5
f 461/3/5 456/3/5 460/3/5
f 462/4/5 461/4/5 460/4/5
f 463/4/5 457/4/5 461/4/5
f 463/4/5 461/4/5 462/4/5
f 468/2/5 465/2/5 464/2/5
f 469/2/5 465/2/5 468/2/5
f 470/2/5 467/2/5 466/2/5
f 471/2/5 467/2/5 470/2/5
f 474/2/5 473/2/5 472/2/5
f 475/2/5 473/2/5 474/2/5
f 480/2/5 479/2/5 478/2/5
f 481/2/5 479/2/5 480/2/5
f 482/2/5 477/2/5 476/2/5
f 483/2/5 477/2/5 482/2/5
f 487/2/5 485/2/5 484/2/5
f 488/2/5 485/2/5 487/2/5
f 489/2/5 487/2/5 486/2/5
f 490/2/5 487/2/5 489/2/5
f 492/2/5 491/2/5 490/2/5
f 493/2/5 491/2/5 492/2/5
f 502/2/5 495/2/5 494/2/5
f 503/1/5 496/1/5 495/1/5
f 503/2/5 495/2/5 502/2/5
f 504/2/5 497/2/5 496/2/5
f 504/1/5 496/1/5 503/1/5
f 505/1/5 498/1/5 497/1/5
f 505/2/5 497/2/5 504/2/5
f 506/2/5 499/2/5 498/2/5
f 506/1/5 498/1/5 505/1/5
f 507/1/5 500/1/5 499/1/5
f 507/2/5 499/2/5 506/2/5
f 508/2/5 501/2/5 500/2/5
f 508/1/5 500/1/5 507/1/5
f 509/2/5 501/2/5 508/2/5
f 512/2/5 511/2/5 510/2/5
f 513/2/5 511/2/5 512/2/5
f 514/1/5 513/1/5 512/1/5
f 515/1/5 513/1/5 514/1/5
f 516/2/5 515/2/5 514/2/5
f 517/2/5 515/2/5 516/2/5
f 518/1/5 517/1/5 516/1/5
f 519/1/5 517/1/5 518/1/5
f 520/2/5 519/2/5 518/2/5
f 521/2/5 519/2/5 520/2/5
f 522/1/5 521/1/5 520/1/5
f 523/1/5 521/1/5 522/1/5
f 524/2/5 523/2/5 522/2/5
f 525/2/5 523/2/5 524/2/5
f 526/1/5 525/1/5 524/1/5
f 527/1/5 525/1/5 526/1/5
f 528/2/5 527/2/5 526/2/5
f 529/2/5 527/2/5 528/2/5
f 530/1/5 529/1/5 528/1/5
f 531/1/5 529/1/5 530/1/5
f 532/2/5 531/2/5 530/2/5
f 533/2/5 531/2/5 532/2/5
f 534/1/5 533/1/5 532/1/5
f 535/1/5 533/1/5 534/1/5
f 536/2/5 535/2/5 534/2/5
f 537/2/5 535/2/5 536/2/5
f 538/1/5 537/1/5 536/1/5
f 539/1/5 537/1/5 538/1/5
f 540/2/5 539/2/5 538/2/5
f 541/2/5 539/2/5 540/2/5
f 542/1/5 541/1/5 540/1/5
f 543/1/5 541/1/5 542/1/5
f 544/2/5 543/2/5 542/2/5
f 545/2/5 543/2/5 544/2/5
f 546/1/5 545/1/5 544/1/5
f 547/1/5 545/1/5 546/1/5
f 556/2/5 549/2/5 548/2/5
f 557/1/5 550/1/5 549/1/5
f 557/2/5 549/2/5 556/2/5
f 558/2/5 551/2/5 550/2/5
f 558/1/5 550/1/5 557/1/5
f 559/1/5 552/1/5 551/1/5
f 559/2/5 551/2/5 558/2/5
f 560/2/5 553/2/5 552/2/5
f 560/1/5 552/1/5 559/1/5
f 561/1/5 554/1/5 553/1/5
f 561/2/5 553/2/5 560/2/5
f 562/2/5 555/2/5 554/2/5
f 562/1/5 554/1/5 561/1/5
f 563/2/5 555/2/5 562/2/5
f 564/1/6 565/1/6 566/1/6
f 566/1/6 565/1/6 567/1/6
f 568/1/6 569/1/6 576/1/6
f 569/2/6 570/2/6 577/2/6
f 576/1/6 569/1/6 577/1/6
f 570/1/6 571/1/6 578/1/6
f 577/2/6 570/2/6 578/2/6
f 571/2/6 572/2/6 579/2/6
f 578/1/6 571/1/6 579/1/6
f 572/1/6 573/1/6 580/1/6
f 579/2/6 572/2/6 580/2/6
f 573/2/6 574/2/6 581/2/6
f 580/1/6 573/1/6 581/1/6
f 574/1/6 575/1/6 582/1/6
f 581/2/6 574/2/6 582/2/6
f 582/1/6 575/1/6 583/1/6
f 584/1/6 585/1/6 586/1/6
f 586/1/6 585/1/6 587/1/6
f 586/2/6 587/2/6 588/2/6
f 588/2/6 587/2/6 589/2/6
f 588/1/6 589/1/6 590/1/6
f 590/1/6 589/1/6 591/1/6
f 590/2/6 591/2/6 592/2/6
f 592/2/6 591/2/6 593/2/6
f 592/1/6 593/1/6 594/1/6
f 594/1/6 593/1/6 595/1/6
f 594/2/6 595/2/6 596/2/6
f 596/2/6 595/2/6 597/2/6
f 596/1/6 597/1/6 598/1/6
f 598/1/6 597/1/6 599/1/6
f 598/2/6 599/2/6 600/2/6
f 600/2/6 599/2/6 601/2/6
f 600/1/6 601/1/6 602/1/6
f 602/1/6 601/1/6 603/1/6
f 602/2/6 603/2/6 604/2/6
f 604/2/6 603/2/6 605/2/6
f 604/1/6 605/1/6 606/1/6
f 606/1/6 605/1/6 607/1/6
f 606/2/6 607/2/6 608/2/6
f 608/2/6 607/2/6 609/2/6
f 608/1/6 609/1/6 610/1/6
f 610/1/6 609/1/6 611/1/6
f 610/2/6 611/2/6 612/2/6
f 612/2/6 611/2/6 613/2/6
f 612/1/6 613/1/6 614/1/6
f 614/1/6 613/1/6 615/1/6
f 614/2/6 615/2/6 616/2/6
f 616/2/6 615/2/6 617/2/6
f 616/1/6 617/1/6 618/1/6
f 618/1/6 617/1/6 619/1/6
f 618/2/6 619/2/6 620/2/6
f 620/2/6 619/2/6 621/2/6
f 622/1/6 623/1/6 630/1/6
f 623/2/6 624/2/6 631/2/6
f 630/1/6 623/1/6 631/1/6
f 624/1/6 625/1/6 632/1/6
f 631/2/6 624/2/6 632/2/6
f 625/2/6 626/2/6 633/2/6
f 632/1/6 625/1/6 633/1/6
f 626/1/6 627/1/6 634/1/6
f 633/2/6 626/2/6 634/2/6
f 627/2/6 628/2/6 635/2/6
f 634/1/6 627/1/6 635/1/6
f 628/1/6 629/1/6 636/1/6
f 635/2/6 628/2/6 636/2/6
f 636/1/6 629/1/6 637/1/6
f 638/4/6 639/4/6 642/4/6
f 639/3/6 640/3/6 643/3/6
f 642/4/6 639/4/6 643/4/6
f 643/3/6 640/3/6 644/3/6
f 641/4/6 642/4/6 645/4/6
f 645/4/6 642/4/6 646/4/6
f 645/3/6 646/3/6 647/3/6
f 647/3/6 646/3/6 648/3/6
f 647/4/6 648/4/6 649/4/6
f 649/4/6 648/4/6 650/4/6
f 650/4/6 651/4/6 653/4/6
f 651/3/6 652/3/6 654/3/6
f 653/4/6 651/4/6 654/4/6
f 654/3/6 652/3/6 655/3/6
