# MagicaVoxel @ Ephtracy

# material
mtllib BigMamaTurtle.mtl
usemtl palette

# normals
vn -1 0 0
vn 1 0 0
vn 0 0 1
vn 0 0 -1
vn 0 -1 0
vn 0 1 0

# texcoords
vt 0.0957031 0.5
vt 0.0996094 0.5
vt 0.380859 0.5
vt 0.658203 0.5
vt 0.751953 0.5
vt 0.755859 0.5
vt 0.783203 0.5
vt 0.787109 0.5
vt 0.794922 0.5
vt 0.943359 0.5
vt 0.947266 0.5

# verts
v -7 2 9
v -7 2 -3
v -7 3 9
v -7 3 -3
v -6 2 10
v -6 2 9
v -6 3 10
v -6 3 9
v -6 3 8
v -6 3 6
v -6 3 4
v -6 3 2
v -6 3 -0
v -6 3 -2
v -6 3 -3
v -6 4 9
v -6 4 8
v -6 4 6
v -6 4 4
v -6 4 2
v -6 4 -0
v -6 4 -2
v -6 4 -3
v -6 6 9
v -6 6 8
v -6 6 6
v -6 6 4
v -6 6 2
v -6 6 -0
v -6 6 -2
v -6 6 -3
v -6 8 8
v -6 8 6
v -6 8 4
v -6 8 2
v -6 8 -0
v -6 8 -2
v -6 8 -3
v -5 1 6
v -5 1 4
v -5 1 2
v -5 1 -0
v -5 1 -1
v -5 1 -2
v -5 2 6
v -5 2 4
v -5 2 2
v -5 2 -0
v -5 2 -1
v -5 2 -2
v -5 2 -3
v -5 2 -4
v -5 4 -3
v -5 4 -4
v -5 6 9
v -5 6 8
v -5 6 -3
v -5 6 -4
v -5 7 -3
v -5 7 -4
v -5 8 9
v -5 8 8
v -4 1 7
v -4 1 6
v -4 2 7
v -4 2 6
v -3 0 6
v -3 0 4
v -3 0 -2
v -3 0 -4
v -3 1 8
v -3 1 7
v -3 1 6
v -3 1 4
v -3 1 -2
v -3 2 8
v -3 2 7
v -3 2 -2
v -3 2 -3
v -3 2 -4
v -1 3 -4
v -1 3 -8
v -1 4 -4
v -1 5 -5
v -1 5 -6
v -1 6 -4
v -1 6 -5
v -1 6 -6
v -1 6 -7
v -1 6 -8
v -1 7 -4
v -1 7 -7
v 0 3 -8
v 0 3 -9
v 0 4 -8
v 0 4 -9
v 3 0 6
v 3 0 4
v 3 0 -2
v 3 0 -4
v 3 1 6
v 3 1 4
v 3 1 -2
v 3 1 -3
v 3 1 -4
v -1 0 6
v -1 0 4
v -1 0 -2
v -1 0 -4
v -1 1 6
v -1 1 4
v -1 1 -2
v -1 1 -3
v -1 1 -4
v 2 3 -8
v 2 3 -9
v 2 4 -8
v 2 4 -9
v 3 3 -4
v 3 3 -8
v 3 4 -4
v 3 5 -5
v 3 5 -6
v 3 6 -4
v 3 6 -5
v 3 6 -6
v 3 6 -7
v 3 6 -8
v 3 7 -4
v 3 7 -7
v 5 0 6
v 5 0 4
v 5 0 -2
v 5 0 -4
v 5 1 8
v 5 1 7
v 5 1 6
v 5 1 4
v 5 1 -2
v 5 2 8
v 5 2 7
v 5 2 -2
v 5 2 -4
v 6 1 7
v 6 1 6
v 6 2 7
v 6 2 6
v 7 1 6
v 7 1 4
v 7 1 2
v 7 1 -0
v 7 1 -1
v 7 1 -2
v 7 2 6
v 7 2 4
v 7 2 2
v 7 2 -0
v 7 2 -1
v 7 2 -2
v 7 2 -3
v 7 2 -4
v 7 3 -3
v 7 4 -3
v 7 4 -4
v 7 6 9
v 7 6 8
v 7 6 -3
v 7 6 -4
v 7 7 -3
v 7 7 -4
v 7 8 9
v 7 8 8
v 8 2 10
v 8 2 9
v 8 3 10
v 8 3 9
v 8 3 8
v 8 3 6
v 8 3 4
v 8 3 2
v 8 3 -0
v 8 3 -2
v 8 3 -3
v 8 4 9
v 8 4 8
v 8 4 6
v 8 4 4
v 8 4 2
v 8 4 -0
v 8 4 -2
v 8 4 -3
v 8 6 9
v 8 6 8
v 8 6 6
v 8 6 4
v 8 6 2
v 8 6 -0
v 8 6 -2
v 8 6 -3
v 8 8 8
v 8 8 6
v 8 8 4
v 8 8 2
v 8 8 -0
v 8 8 -2
v 8 8 -3
v 9 2 9
v 9 2 -3
v 9 3 9
v 9 3 -3
v -6 2 10
v -6 3 10
v 8 2 10
v 8 3 10
v -7 2 9
v -7 3 9
v -6 2 9
v -6 3 9
v -6 4 9
v -6 6 9
v -5 3 9
v -5 4 9
v -5 6 9
v -5 8 9
v -3 3 9
v -3 4 9
v -3 6 9
v -3 8 9
v -1 3 9
v -1 4 9
v -1 6 9
v -1 8 9
v 1 3 9
v 1 4 9
v 1 6 9
v 1 8 9
v 3 3 9
v 3 4 9
v 3 6 9
v 3 8 9
v 5 3 9
v 5 4 9
v 5 6 9
v 5 8 9
v 7 3 9
v 7 4 9
v 7 6 9
v 7 8 9
v 8 2 9
v 8 3 9
v 8 4 9
v 8 6 9
v 9 2 9
v 9 3 9
v -6 6 8
v -6 8 8
v -5 6 8
v -5 8 8
v -3 1 8
v -3 2 8
v 5 1 8
v 5 2 8
v 7 6 8
v 7 8 8
v 8 6 8
v 8 8 8
v -4 1 7
v -4 2 7
v -3 1 7
v -3 2 7
v 5 1 7
v 5 2 7
v 6 1 7
v 6 2 7
v -5 1 6
v -5 2 6
v -4 1 6
v -4 2 6
v -3 0 6
v -3 1 6
v -1 0 6
v -1 1 6
v 3 0 6
v 3 1 6
v 5 0 6
v 5 1 6
v 6 1 6
v 6 2 6
v 7 1 6
v 7 2 6
v -3 0 -2
v -3 1 -2
v -1 0 -2
v -1 1 -2
v 3 0 -2
v 3 1 -2
v 5 0 -2
v 5 1 -2
v -3 0 4
v -3 1 4
v -1 0 4
v -1 1 4
v 3 0 4
v 3 1 4
v 5 0 4
v 5 1 4
v -5 1 -2
v -5 2 -2
v -3 1 -2
v -3 2 -2
v 5 1 -2
v 5 2 -2
v 7 1 -2
v 7 2 -2
v -7 2 -3
v -7 3 -3
v -6 3 -3
v -6 4 -3
v -6 6 -3
v -6 8 -3
v -5 2 -3
v -5 4 -3
v -5 6 -3
v -5 7 -3
v -5 8 -3
v -3 7 -3
v -3 8 -3
v -1 7 -3
v -1 8 -3
v 1 7 -3
v 1 8 -3
v 3 7 -3
v 3 8 -3
v 5 7 -3
v 5 8 -3
v 7 2 -3
v 7 3 -3
v 7 4 -3
v 7 6 -3
v 7 7 -3
v 7 8 -3
v 8 3 -3
v 8 4 -3
v 8 6 -3
v 8 8 -3
v 9 2 -3
v 9 3 -3
v -5 2 -4
v -5 4 -4
v -5 6 -4
v -5 7 -4
v -3 0 -4
v -3 2 -4
v -3 4 -4
v -3 6 -4
v -3 7 -4
v -1 0 -4
v -1 1 -4
v -1 2 -4
v -1 3 -4
v -1 4 -4
v -1 6 -4
v -1 7 -4
v 1 2 -4
v 1 3 -4
v 3 0 -4
v 3 1 -4
v 3 2 -4
v 3 3 -4
v 3 4 -4
v 3 6 -4
v 3 7 -4
v 5 0 -4
v 5 2 -4
v 5 4 -4
v 5 6 -4
v 5 7 -4
v 7 2 -4
v 7 4 -4
v 7 6 -4
v 7 7 -4
v -1 6 -7
v -1 7 -7
v 3 6 -7
v 3 7 -7
v -1 3 -8
v -1 6 -8
v 0 3 -8
v 0 4 -8
v 2 3 -8
v 2 4 -8
v 3 3 -8
v 3 6 -8
v 0 3 -9
v 0 4 -9
v 2 3 -9
v 2 4 -9
v -3 0 6
v -1 0 6
v 3 0 6
v 5 0 6
v -3 0 4
v -1 0 4
v 3 0 4
v 5 0 4
v -3 0 -2
v -1 0 -2
v 3 0 -2
v 5 0 -2
v -3 0 -4
v -1 0 -4
v 3 0 -4
v 5 0 -4
v -3 1 8
v 5 1 8
v -4 1 7
v -3 1 7
v 5 1 7
v 6 1 7
v -5 1 6
v -4 1 6
v -3 1 6
v -1 1 6
v 3 1 6
v 5 1 6
v 6 1 6
v 7 1 6
v -5 1 4
v -3 1 4
v -1 1 4
v 3 1 4
v 5 1 4
v 7 1 4
v -3 1 3
v -1 1 3
v 3 1 3
v 5 1 3
v -5 1 2
v 7 1 2
v -3 1 1
v -1 1 1
v 3 1 1
v 5 1 1
v -5 1 -0
v -3 1 -0
v -1 1 -0
v 3 1 -0
v 5 1 -0
v 7 1 -0
v -5 1 -1
v -1 1 -1
v 3 1 -1
v 7 1 -1
v -5 1 -2
v -3 1 -2
v -1 1 -2
v 3 1 -2
v 5 1 -2
v 7 1 -2
v -1 1 -3
v 3 1 -3
v -1 1 -4
v 3 1 -4
v -6 2 10
v 8 2 10
v -7 2 9
v -6 2 9
v 8 2 9
v 9 2 9
v -3 2 8
v 5 2 8
v -4 2 7
v -3 2 7
v 5 2 7
v 6 2 7
v -5 2 6
v -4 2 6
v 6 2 6
v 7 2 6
v -5 2 4
v 7 2 4
v -5 2 2
v 7 2 2
v -5 2 -0
v 7 2 -0
v -5 2 -1
v 7 2 -1
v -5 2 -2
v -3 2 -2
v 5 2 -2
v 7 2 -2
v -7 2 -3
v -5 2 -3
v -3 2 -3
v 7 2 -3
v 9 2 -3
v -5 2 -4
v -3 2 -4
v 5 2 -4
v 7 2 -4
v -1 3 -4
v 1 3 -4
v 3 3 -4
v -1 3 -8
v 0 3 -8
v 2 3 -8
v 3 3 -8
v 0 3 -9
v 2 3 -9
v -6 3 10
v 8 3 10
v -7 3 9
v -6 3 9
v -5 3 9
v -3 3 9
v -1 3 9
v 1 3 9
v 3 3 9
v 5 3 9
v 7 3 9
v 8 3 9
v 9 3 9
v -6 3 8
v 8 3 8
v -6 3 6
v 8 3 6
v -6 3 4
v 8 3 4
v -6 3 2
v 8 3 2
v -6 3 -0
v 8 3 -0
v -6 3 -2
v 8 3 -2
v -7 3 -3
v -6 3 -3
v 8 3 -3
v 9 3 -3
v 0 4 -8
v 2 4 -8
v 0 4 -9
v 2 4 -9
v -6 6 9
v -5 6 9
v 7 6 9
v 8 6 9
v -6 6 8
v -5 6 8
v 7 6 8
v 8 6 8
v -1 6 -7
v 3 6 -7
v -1 6 -8
v 3 6 -8
v -5 7 -3
v -3 7 -3
v -1 7 -3
v 1 7 -3
v 3 7 -3
v 5 7 -3
v 7 7 -3
v -5 7 -4
v -3 7 -4
v -1 7 -4
v 1 7 -4
v 3 7 -4
v 5 7 -4
v 7 7 -4
v -1 7 -7
v 3 7 -7
v -5 8 9
v -3 8 9
v -1 8 9
v 1 8 9
v 3 8 9
v 5 8 9
v 7 8 9
v -6 8 8
v -5 8 8
v -3 8 8
v -1 8 8
v 1 8 8
v 3 8 8
v 5 8 8
v 7 8 8
v 8 8 8
v -6 8 6
v -5 8 6
v -3 8 6
v -1 8 6
v 1 8 6
v 3 8 6
v 5 8 6
v 7 8 6
v 8 8 6
v -6 8 4
v -5 8 4
v -3 8 4
v -1 8 4
v 1 8 4
v 3 8 4
v 5 8 4
v 7 8 4
v 8 8 4
v -6 8 2
v -5 8 2
v -3 8 2
v -1 8 2
v 1 8 2
v 3 8 2
v 5 8 2
v 7 8 2
v 8 8 2
v -6 8 -0
v -5 8 -0
v -3 8 -0
v -1 8 -0
v 1 8 -0
v 3 8 -0
v 5 8 -0
v 7 8 -0
v 8 8 -0
v -6 8 -2
v -5 8 -2
v -3 8 -2
v -1 8 -2
v 1 8 -2
v 3 8 -2
v 5 8 -2
v 7 8 -2
v 8 8 -2
v -6 8 -3
v -5 8 -3
v -3 8 -3
v -1 8 -3
v 1 8 -3
v 3 8 -3
v 5 8 -3
v 7 8 -3
v 8 8 -3

# faces
f 3/2/1 2/2/1 1/2/1
f 4/2/1 2/2/1 3/2/1
f 7/2/1 6/2/1 5/2/1
f 8/2/1 6/2/1 7/2/1
f 16/2/1 9/2/1 8/2/1
f 17/1/1 10/1/1 9/1/1
f 17/2/1 9/2/1 16/2/1
f 18/2/1 11/2/1 10/2/1
f 18/1/1 10/1/1 17/1/1
f 19/1/1 12/1/1 11/1/1
f 19/2/1 11/2/1 18/2/1
f 20/2/1 13/2/1 12/2/1
f 20/1/1 12/1/1 19/1/1
f 21/1/1 14/1/1 13/1/1
f 21/2/1 13/2/1 20/2/1
f 22/2/1 15/2/1 14/2/1
f 22/1/1 14/1/1 21/1/1
f 23/2/1 15/2/1 22/2/1
f 24/1/1 17/1/1 16/1/1
f 25/2/1 18/2/1 17/2/1
f 25/1/1 17/1/1 24/1/1
f 26/1/1 19/1/1 18/1/1
f 26/2/1 18/2/1 25/2/1
f 27/2/1 20/2/1 19/2/1
f 27/1/1 19/1/1 26/1/1
f 28/1/1 21/1/1 20/1/1
f 28/2/1 20/2/1 27/2/1
f 29/2/1 22/2/1 21/2/1
f 29/1/1 21/1/1 28/1/1
f 30/1/1 23/1/1 22/1/1
f 30/2/1 22/2/1 29/2/1
f 31/1/1 23/1/1 30/1/1
f 32/1/1 26/1/1 25/1/1
f 33/2/1 27/2/1 26/2/1
f 33/1/1 26/1/1 32/1/1
f 34/1/1 28/1/1 27/1/1
f 34/2/1 27/2/1 33/2/1
f 35/2/1 29/2/1 28/2/1
f 35/1/1 28/1/1 34/1/1
f 36/1/1 30/1/1 29/1/1
f 36/2/1 29/2/1 35/2/1
f 37/2/1 31/2/1 30/2/1
f 37/1/1 30/1/1 36/1/1
f 38/2/1 31/2/1 37/2/1
f 45/6/1 40/6/1 39/6/1
f 46/8/1 41/8/1 40/8/1
f 46/6/1 40/6/1 45/6/1
f 47/6/1 42/6/1 41/6/1
f 47/8/1 41/8/1 46/8/1
f 48/8/1 43/8/1 42/8/1
f 48/6/1 42/6/1 47/6/1
f 49/6/1 44/6/1 43/6/1
f 49/8/1 43/8/1 48/8/1
f 50/6/1 44/6/1 49/6/1
f 53/1/1 52/1/1 51/1/1
f 54/1/1 52/1/1 53/1/1
f 57/2/1 54/2/1 53/2/1
f 58/2/1 54/2/1 57/2/1
f 59/1/1 58/1/1 57/1/1
f 60/1/1 58/1/1 59/1/1
f 61/1/1 56/1/1 55/1/1
f 62/1/1 56/1/1 61/1/1
f 65/8/1 64/8/1 63/8/1
f 66/8/1 64/8/1 65/8/1
f 73/6/1 68/6/1 67/6/1
f 74/6/1 68/6/1 73/6/1
f 75/6/1 70/6/1 69/6/1
f 76/8/1 72/8/1 71/8/1
f 77/8/1 72/8/1 76/8/1
f 78/6/1 70/6/1 75/6/1
f 79/6/1 70/6/1 78/6/1
f 80/6/1 70/6/1 79/6/1
f 83/6/1 82/6/1 81/6/1
f 84/6/1 82/6/1 83/6/1
f 85/6/1 82/6/1 84/6/1
f 86/6/1 84/6/1 83/6/1
f 87/11/1 85/11/1 84/11/1
f 87/6/1 84/6/1 86/6/1
f 88/6/1 82/6/1 85/6/1
f 88/11/1 85/11/1 87/11/1
f 89/6/1 82/6/1 88/6/1
f 90/6/1 82/6/1 89/6/1
f 91/6/1 87/6/1 86/6/1
f 91/6/1 88/6/1 87/6/1
f 91/6/1 89/6/1 88/6/1
f 92/6/1 89/6/1 91/6/1
f 95/3/1 94/3/1 93/3/1
f 96/3/1 94/3/1 95/3/1
f 101/6/1 98/6/1 97/6/1
f 102/6/1 98/6/1 101/6/1
f 103/6/1 100/6/1 99/6/1
f 104/6/1 100/6/1 103/6/1
f 105/6/1 100/6/1 104/6/1
f 106/6/2 107/6/2 110/6/2
f 110/6/2 107/6/2 111/6/2
f 108/6/2 109/6/2 112/6/2
f 112/6/2 109/6/2 113/6/2
f 113/6/2 109/6/2 114/6/2
f 115/3/2 116/3/2 117/3/2
f 117/3/2 116/3/2 118/3/2
f 119/6/2 120/6/2 121/6/2
f 121/6/2 120/6/2 122/6/2
f 122/6/2 120/6/2 123/6/2
f 121/6/2 122/6/2 124/6/2
f 122/11/2 123/11/2 125/11/2
f 124/6/2 122/6/2 125/6/2
f 123/6/2 120/6/2 126/6/2
f 125/11/2 123/11/2 126/11/2
f 126/6/2 120/6/2 127/6/2
f 127/6/2 120/6/2 128/6/2
f 124/6/2 125/6/2 129/6/2
f 125/6/2 126/6/2 129/6/2
f 126/6/2 127/6/2 129/6/2
f 129/6/2 127/6/2 130/6/2
f 131/6/2 132/6/2 137/6/2
f 137/6/2 132/6/2 138/6/2
f 133/6/2 134/6/2 139/6/2
f 135/8/2 136/8/2 140/8/2
f 140/8/2 136/8/2 141/8/2
f 139/6/2 134/6/2 142/6/2
f 142/6/2 134/6/2 143/6/2
f 144/8/2 145/8/2 146/8/2
f 146/8/2 145/8/2 147/8/2
f 148/6/2 149/6/2 154/6/2
f 149/8/2 150/8/2 155/8/2
f 154/6/2 149/6/2 155/6/2
f 150/6/2 151/6/2 156/6/2
f 155/8/2 150/8/2 156/8/2
f 151/8/2 152/8/2 157/8/2
f 156/6/2 151/6/2 157/6/2
f 152/6/2 153/6/2 158/6/2
f 157/8/2 152/8/2 158/8/2
f 158/6/2 153/6/2 159/6/2
f 160/2/2 161/2/2 162/2/2
f 162/2/2 161/2/2 163/2/2
f 163/2/2 161/2/2 164/2/2
f 163/1/2 164/1/2 167/1/2
f 167/1/2 164/1/2 168/1/2
f 167/2/2 168/2/2 169/2/2
f 169/2/2 168/2/2 170/2/2
f 165/2/2 166/2/2 171/2/2
f 171/2/2 166/2/2 172/2/2
f 173/2/2 174/2/2 175/2/2
f 175/2/2 174/2/2 176/2/2
f 176/1/2 177/1/2 184/1/2
f 177/2/2 178/2/2 185/2/2
f 184/1/2 177/1/2 185/1/2
f 178/1/2 179/1/2 186/1/2
f 185/2/2 178/2/2 186/2/2
f 179/2/2 180/2/2 187/2/2
f 186/1/2 179/1/2 187/1/2
f 180/1/2 181/1/2 188/1/2
f 187/2/2 180/2/2 188/2/2
f 181/2/2 182/2/2 189/2/2
f 188/1/2 181/1/2 189/1/2
f 182/1/2 183/1/2 190/1/2
f 189/2/2 182/2/2 190/2/2
f 190/1/2 183/1/2 191/1/2
f 184/2/2 185/2/2 192/2/2
f 185/1/2 186/1/2 193/1/2
f 192/2/2 185/2/2 193/2/2
f 186/2/2 187/2/2 194/2/2
f 193/1/2 186/1/2 194/1/2
f 187/1/2 188/1/2 195/1/2
f 194/2/2 187/2/2 195/2/2
f 188/2/2 189/2/2 196/2/2
f 195/1/2 188/1/2 196/1/2
f 189/1/2 190/1/2 197/1/2
f 196/2/2 189/2/2 197/2/2
f 190/2/2 191/2/2 198/2/2
f 197/1/2 190/1/2 198/1/2
f 198/2/2 191/2/2 199/2/2
f 193/2/2 194/2/2 200/2/2
f 194/1/2 195/1/2 201/1/2
f 200/2/2 194/2/2 201/2/2
f 195/2/2 196/2/2 202/2/2
f 201/1/2 195/1/2 202/1/2
f 196/1/2 197/1/2 203/1/2
f 202/2/2 196/2/2 203/2/2
f 197/2/2 198/2/2 204/2/2
f 203/1/2 197/1/2 204/1/2
f 198/1/2 199/1/2 205/1/2
f 204/2/2 198/2/2 205/2/2
f 205/1/2 199/1/2 206/1/2
f 207/2/2 208/2/2 209/2/2
f 209/2/2 208/2/2 210/2/2
f 213/2/3 212/2/3 211/2/3
f 214/2/3 212/2/3 213/2/3
f 217/2/3 216/2/3 215/2/3
f 218/2/3 216/2/3 217/2/3
f 221/2/3 219/2/3 218/2/3
f 222/1/3 220/1/3 219/1/3
f 222/2/3 219/2/3 221/2/3
f 223/1/3 220/1/3 222/1/3
f 225/1/3 222/1/3 221/1/3
f 226/2/3 223/2/3 222/2/3
f 226/1/3 222/1/3 225/1/3
f 227/1/3 224/1/3 223/1/3
f 227/2/3 223/2/3 226/2/3
f 228/1/3 224/1/3 227/1/3
f 229/2/3 226/2/3 225/2/3
f 230/1/3 227/1/3 226/1/3
f 230/2/3 226/2/3 229/2/3
f 231/2/3 228/2/3 227/2/3
f 231/1/3 227/1/3 230/1/3
f 232/2/3 228/2/3 231/2/3
f 233/1/3 230/1/3 229/1/3
f 234/2/3 231/2/3 230/2/3
f 234/1/3 230/1/3 233/1/3
f 235/1/3 232/1/3 231/1/3
f 235/2/3 231/2/3 234/2/3
f 236/1/3 232/1/3 235/1/3
f 237/2/3 234/2/3 233/2/3
f 238/1/3 235/1/3 234/1/3
f 238/2/3 234/2/3 237/2/3
f 239/2/3 236/2/3 235/2/3
f 239/1/3 235/1/3 238/1/3
f 240/2/3 236/2/3 239/2/3
f 241/1/3 238/1/3 237/1/3
f 242/2/3 239/2/3 238/2/3
f 242/1/3 238/1/3 241/1/3
f 243/1/3 240/1/3 239/1/3
f 243/2/3 239/2/3 242/2/3
f 244/1/3 240/1/3 243/1/3
f 245/2/3 242/2/3 241/2/3
f 246/1/3 243/1/3 242/1/3
f 246/2/3 242/2/3 245/2/3
f 247/2/3 244/2/3 243/2/3
f 247/1/3 243/1/3 246/1/3
f 248/2/3 244/2/3 247/2/3
f 250/1/3 246/1/3 245/1/3
f 251/2/3 247/2/3 246/2/3
f 251/1/3 246/1/3 250/1/3
f 252/2/3 247/2/3 251/2/3
f 253/2/3 250/2/3 249/2/3
f 254/2/3 250/2/3 253/2/3
f 257/1/3 256/1/3 255/1/3
f 258/1/3 256/1/3 257/1/3
f 261/8/3 260/8/3 259/8/3
f 262/8/3 260/8/3 261/8/3
f 265/2/3 264/2/3 263/2/3
f 266/2/3 264/2/3 265/2/3
f 269/8/3 268/8/3 267/8/3
f 270/8/3 268/8/3 269/8/3
f 273/8/3 272/8/3 271/8/3
f 274/8/3 272/8/3 273/8/3
f 277/6/3 276/6/3 275/6/3
f 278/6/3 276/6/3 277/6/3
f 281/6/3 280/6/3 279/6/3
f 282/6/3 280/6/3 281/6/3
f 285/6/3 284/6/3 283/6/3
f 286/6/3 284/6/3 285/6/3
f 289/6/3 288/6/3 287/6/3
f 290/6/3 288/6/3 289/6/3
f 293/6/3 292/6/3 291/6/3
f 294/6/3 292/6/3 293/6/3
f 297/6/3 296/6/3 295/6/3
f 298/6/3 296/6/3 297/6/3
f 299/6/4 300/6/4 301/6/4
f 301/6/4 300/6/4 302/6/4
f 303/6/4 304/6/4 305/6/4
f 305/6/4 304/6/4 306/6/4
f 307/6/4 308/6/4 309/6/4
f 309/6/4 308/6/4 310/6/4
f 311/6/4 312/6/4 313/6/4
f 313/6/4 312/6/4 314/6/4
f 315/2/4 316/2/4 317/2/4
f 315/2/4 317/2/4 321/2/4
f 317/2/4 318/2/4 321/2/4
f 318/1/4 319/1/4 322/1/4
f 321/2/4 318/2/4 322/2/4
f 319/2/4 320/2/4 323/2/4
f 322/1/4 319/1/4 323/1/4
f 323/2/4 320/2/4 324/2/4
f 324/2/4 320/2/4 325/2/4
f 324/1/4 325/1/4 326/1/4
f 326/1/4 325/1/4 327/1/4
f 326/2/4 327/2/4 328/2/4
f 328/2/4 327/2/4 329/2/4
f 328/1/4 329/1/4 330/1/4
f 330/1/4 329/1/4 331/1/4
f 330/2/4 331/2/4 332/2/4
f 332/2/4 331/2/4 333/2/4
f 332/1/4 333/1/4 334/1/4
f 334/1/4 333/1/4 335/1/4
f 334/2/4 335/2/4 340/2/4
f 340/2/4 335/2/4 341/2/4
f 336/2/4 337/2/4 342/2/4
f 337/1/4 338/1/4 342/1/4
f 338/2/4 339/2/4 343/2/4
f 342/1/4 338/1/4 343/1/4
f 340/1/4 341/1/4 344/1/4
f 343/2/4 339/2/4 344/2/4
f 339/1/4 340/1/4 344/1/4
f 344/1/4 341/1/4 345/1/4
f 336/2/4 342/2/4 346/2/4
f 346/2/4 342/2/4 347/2/4
f 348/1/4 349/1/4 353/1/4
f 349/2/4 350/2/4 354/2/4
f 353/1/4 349/1/4 354/1/4
f 350/1/4 351/1/4 355/1/4
f 354/2/4 350/2/4 355/2/4
f 355/1/4 351/1/4 356/1/4
f 352/6/4 353/6/4 357/6/4
f 357/6/4 353/6/4 358/6/4
f 353/2/4 354/2/4 359/2/4
f 358/6/4 353/6/4 359/6/4
f 359/2/4 354/2/4 360/2/4
f 354/1/4 355/1/4 361/1/4
f 360/2/4 354/2/4 361/2/4
f 355/2/4 356/2/4 362/2/4
f 361/1/4 355/1/4 362/1/4
f 362/2/4 356/2/4 363/2/4
f 359/1/4 360/1/4 364/1/4
f 358/8/4 359/8/4 364/8/4
f 364/1/4 360/1/4 365/1/4
f 358/8/4 364/8/4 367/8/4
f 364/2/4 365/2/4 368/2/4
f 367/8/4 364/8/4 368/8/4
f 368/2/4 365/2/4 369/2/4
f 366/6/4 367/6/4 373/6/4
f 367/6/4 368/6/4 373/6/4
f 368/1/4 369/1/4 374/1/4
f 373/6/4 368/6/4 374/6/4
f 369/1/4 370/1/4 374/1/4
f 370/2/4 371/2/4 375/2/4
f 374/1/4 370/1/4 375/1/4
f 371/1/4 372/1/4 376/1/4
f 375/2/4 371/2/4 376/2/4
f 376/1/4 372/1/4 377/1/4
f 374/2/4 375/2/4 378/2/4
f 375/1/4 376/1/4 379/1/4
f 378/2/4 375/2/4 379/2/4
f 376/2/4 377/2/4 380/2/4
f 379/1/4 376/1/4 380/1/4
f 380/2/4 377/2/4 381/2/4
f 382/6/4 383/6/4 384/6/4
f 384/6/4 383/6/4 385/6/4
f 386/6/4 387/6/4 388/6/4
f 388/6/4 387/6/4 389/6/4
f 389/6/4 387/6/4 391/6/4
f 390/6/4 391/6/4 392/6/4
f 391/6/4 387/6/4 393/6/4
f 392/6/4 391/6/4 393/6/4
f 394/3/4 395/3/4 396/3/4
f 396/3/4 395/3/4 397/3/4
f 402/6/5 399/6/5 398/6/5
f 403/6/5 399/6/5 402/6/5
f 404/6/5 401/6/5 400/6/5
f 405/6/5 401/6/5 404/6/5
f 410/6/5 407/6/5 406/6/5
f 411/6/5 407/6/5 410/6/5
f 412/6/5 409/6/5 408/6/5
f 413/6/5 409/6/5 412/6/5
f 417/8/5 415/8/5 414/8/5
f 418/8/5 415/8/5 417/8/5
f 421/8/5 417/8/5 416/8/5
f 421/8/5 419/8/5 418/8/5
f 421/8/5 418/8/5 417/8/5
f 422/8/5 419/8/5 421/8/5
f 423/8/5 419/8/5 422/8/5
f 424/8/5 419/8/5 423/8/5
f 425/8/5 419/8/5 424/8/5
f 426/8/5 419/8/5 425/8/5
f 428/6/5 421/6/5 420/6/5
f 428/6/5 422/6/5 421/6/5
f 429/6/5 422/6/5 428/6/5
f 430/6/5 424/6/5 423/6/5
f 431/6/5 424/6/5 430/6/5
f 432/6/5 427/6/5 426/6/5
f 432/6/5 426/6/5 425/6/5
f 433/6/5 427/6/5 432/6/5
f 434/6/5 430/6/5 429/6/5
f 434/8/5 429/8/5 428/8/5
f 435/8/5 431/8/5 430/8/5
f 435/6/5 430/6/5 434/6/5
f 436/6/5 432/6/5 431/6/5
f 436/8/5 431/8/5 435/8/5
f 437/8/5 433/8/5 432/8/5
f 437/6/5 432/6/5 436/6/5
f 438/8/5 434/8/5 428/8/5
f 438/8/5 436/8/5 435/8/5
f 438/8/5 437/8/5 436/8/5
f 438/8/5 435/8/5 434/8/5
f 439/8/5 433/8/5 437/8/5
f 439/8/5 437/8/5 438/8/5
f 440/6/5 439/6/5 438/6/5
f 441/6/5 439/6/5 440/6/5
f 442/6/5 439/6/5 441/6/5
f 443/6/5 439/6/5 442/6/5
f 444/6/5 440/6/5 438/6/5
f 445/8/5 441/8/5 440/8/5
f 445/6/5 440/6/5 444/6/5
f 446/6/5 442/6/5 441/6/5
f 446/8/5 441/8/5 445/8/5
f 447/8/5 443/8/5 442/8/5
f 447/6/5 442/6/5 446/6/5
f 448/6/5 439/6/5 443/6/5
f 448/8/5 443/8/5 447/8/5
f 449/6/5 439/6/5 448/6/5
f 450/8/5 447/8/5 446/8/5
f 450/8/5 445/8/5 444/8/5
f 450/8/5 449/8/5 448/8/5
f 450/8/5 448/8/5 447/8/5
f 450/8/5 446/8/5 445/8/5
f 451/8/5 449/8/5 450/8/5
f 452/8/5 449/8/5 451/8/5
f 453/8/5 449/8/5 452/8/5
f 454/6/5 451/6/5 450/6/5
f 455/6/5 451/6/5 454/6/5
f 456/8/5 452/8/5 451/8/5
f 456/6/5 451/6/5 455/6/5
f 457/6/5 453/6/5 452/6/5
f 457/8/5 452/8/5 456/8/5
f 458/6/5 453/6/5 457/6/5
f 459/6/5 453/6/5 458/6/5
f 460/6/5 457/6/5 456/6/5
f 461/6/5 457/6/5 460/6/5
f 462/8/5 461/8/5 460/8/5
f 463/8/5 461/8/5 462/8/5
f 467/2/5 465/2/5 464/2/5
f 468/2/5 465/2/5 467/2/5
f 470/2/5 467/2/5 466/2/5
f 470/2/5 469/2/5 468/2/5
f 470/2/5 468/2/5 467/2/5
f 471/2/5 469/2/5 470/2/5
f 472/2/5 470/2/5 466/2/5
f 473/2/5 470/2/5 472/2/5
f 474/2/5 469/2/5 471/2/5
f 475/2/5 469/2/5 474/2/5
f 476/2/5 472/2/5 466/2/5
f 477/2/5 472/2/5 476/2/5
f 478/2/5 469/2/5 475/2/5
f 479/2/5 469/2/5 478/2/5
f 480/2/5 476/2/5 466/2/5
f 481/2/5 469/2/5 479/2/5
f 482/2/5 480/2/5 466/2/5
f 483/2/5 469/2/5 481/2/5
f 484/2/5 482/2/5 466/2/5
f 485/2/5 469/2/5 483/2/5
f 486/2/5 484/2/5 466/2/5
f 487/2/5 469/2/5 485/2/5
f 488/2/5 486/2/5 466/2/5
f 491/2/5 469/2/5 487/2/5
f 492/2/5 489/2/5 488/2/5
f 492/2/5 488/2/5 466/2/5
f 493/2/5 489/2/5 492/2/5
f 494/2/5 489/2/5 493/2/5
f 495/2/5 491/2/5 490/2/5
f 495/2/5 469/2/5 491/2/5
f 496/2/5 469/2/5 495/2/5
f 497/1/5 494/1/5 493/1/5
f 498/1/5 494/1/5 497/1/5
f 499/2/5 495/2/5 490/2/5
f 500/2/5 495/2/5 499/2/5
f 504/6/5 502/6/5 501/6/5
f 504/6/5 503/6/5 502/6/5
f 505/6/5 503/6/5 504/6/5
f 506/6/5 503/6/5 505/6/5
f 507/6/5 503/6/5 506/6/5
f 508/3/5 506/3/5 505/3/5
f 509/3/5 506/3/5 508/3/5
f 510/2/6 511/2/6 513/2/6
f 513/2/6 511/2/6 514/2/6
f 514/2/6 511/2/6 515/2/6
f 515/2/6 511/2/6 516/2/6
f 516/2/6 511/2/6 517/2/6
f 517/2/6 511/2/6 518/2/6
f 518/2/6 511/2/6 519/2/6
f 519/2/6 511/2/6 520/2/6
f 520/2/6 511/2/6 521/2/6
f 512/2/6 513/2/6 523/2/6
f 521/2/6 522/2/6 524/2/6
f 512/2/6 523/2/6 525/2/6
f 524/2/6 522/2/6 526/2/6
f 512/2/6 525/2/6 527/2/6
f 526/2/6 522/2/6 528/2/6
f 512/2/6 527/2/6 529/2/6
f 528/2/6 522/2/6 530/2/6
f 512/2/6 529/2/6 531/2/6
f 530/2/6 522/2/6 532/2/6
f 512/2/6 531/2/6 533/2/6
f 532/2/6 522/2/6 534/2/6
f 512/2/6 533/2/6 535/2/6
f 535/2/6 533/2/6 536/2/6
f 534/2/6 522/2/6 537/2/6
f 537/2/6 522/2/6 538/2/6
f 539/3/6 540/3/6 541/3/6
f 541/3/6 540/3/6 542/3/6
f 543/1/6 544/1/6 547/1/6
f 547/1/6 544/1/6 548/1/6
f 545/2/6 546/2/6 549/2/6
f 549/2/6 546/2/6 550/2/6
f 551/6/6 552/6/6 553/6/6
f 553/6/6 552/6/6 554/6/6
f 555/1/6 556/1/6 562/1/6
f 556/2/6 557/2/6 563/2/6
f 562/1/6 556/1/6 563/1/6
f 557/1/6 558/1/6 564/1/6
f 563/2/6 557/2/6 564/2/6
f 558/2/6 559/2/6 565/2/6
f 564/1/6 558/1/6 565/1/6
f 559/1/6 560/1/6 566/1/6
f 565/2/6 559/2/6 566/2/6
f 560/2/6 561/2/6 567/2/6
f 566/1/6 560/1/6 567/1/6
f 567/2/6 561/2/6 568/2/6
f 565/6/6 566/6/6 569/6/6
f 564/6/6 565/6/6 569/6/6
f 569/6/6 566/6/6 570/6/6
f 571/1/6 572/1/6 579/1/6
f 572/2/6 573/2/6 580/2/6
f 579/1/6 572/1/6 580/1/6
f 573/1/6 574/1/6 581/1/6
f 580/2/6 573/2/6 581/2/6
f 574/2/6 575/2/6 582/2/6
f 581/1/6 574/1/6 582/1/6
f 575/1/6 576/1/6 583/1/6
f 582/2/6 575/2/6 583/2/6
f 576/2/6 577/2/6 584/2/6
f 583/1/6 576/1/6 584/1/6
f 584/2/6 577/2/6 585/2/6
f 578/1/6 579/1/6 587/1/6
f 579/2/6 580/2/6 588/2/6
f 587/1/6 579/1/6 588/1/6
f 580/1/6 581/1/6 589/1/6
f 588/2/6 580/2/6 589/2/6
f 581/2/6 582/2/6 590/2/6
f 589/1/6 581/1/6 590/1/6
f 582/1/6 583/1/6 591/1/6
f 590/2/6 582/2/6 591/2/6
f 583/2/6 584/2/6 592/2/6
f 591/1/6 583/1/6 592/1/6
f 584/1/6 585/1/6 593/1/6
f 592/2/6 584/2/6 593/2/6
f 585/2/6 586/2/6 594/2/6
f 593/1/6 585/1/6 594/1/6
f 594/2/6 586/2/6 595/2/6
f 587/2/6 588/2/6 596/2/6
f 588/1/6 589/1/6 597/1/6
f 596/2/6 588/2/6 597/2/6
f 589/2/6 590/2/6 598/2/6
f 597/1/6 589/1/6 598/1/6
f 590/1/6 591/1/6 599/1/6
f 598/2/6 590/2/6 599/2/6
f 591/2/6 592/2/6 600/2/6
f 599/1/6 591/1/6 600/1/6
f 592/1/6 593/1/6 601/1/6
f 600/2/6 592/2/6 601/2/6
f 593/2/6 594/2/6 602/2/6
f 601/1/6 593/1/6 602/1/6
f 594/1/6 595/1/6 603/1/6
f 602/2/6 594/2/6 603/2/6
f 603/1/6 595/1/6 604/1/6
f 596/1/6 597/1/6 605/1/6
f 597/2/6 598/2/6 606/2/6
f 605/1/6 597/1/6 606/1/6
f 598/1/6 599/1/6 607/1/6
f 606/2/6 598/2/6 607/2/6
f 599/2/6 600/2/6 608/2/6
f 607/1/6 599/1/6 608/1/6
f 600/1/6 601/1/6 609/1/6
f 608/2/6 600/2/6 609/2/6
f 601/2/6 602/2/6 610/2/6
f 609/1/6 601/1/6 610/1/6
f 602/1/6 603/1/6 611/1/6
f 610/2/6 602/2/6 611/2/6
f 603/2/6 604/2/6 612/2/6
f 611/1/6 603/1/6 612/1/6
f 612/2/6 604/2/6 613/2/6
f 605/2/6 606/2/6 614/2/6
f 606/1/6 607/1/6 615/1/6
f 614/2/6 606/2/6 615/2/6
f 607/2/6 608/2/6 616/2/6
f 615/1/6 607/1/6 616/1/6
f 608/1/6 609/1/6 617/1/6
f 616/2/6 608/2/6 617/2/6
f 609/2/6 610/2/6 618/2/6
f 617/1/6 609/1/6 618/1/6
f 610/1/6 611/1/6 619/1/6
f 618/2/6 610/2/6 619/2/6
f 611/2/6 612/2/6 620/2/6
f 619/1/6 611/1/6 620/1/6
f 612/1/6 613/1/6 621/1/6
f 620/2/6 612/2/6 621/2/6
f 621/1/6 613/1/6 622/1/6
f 614/1/6 615/1/6 623/1/6
f 615/2/6 616/2/6 624/2/6
f 623/1/6 615/1/6 624/1/6
f 616/1/6 617/1/6 625/1/6
f 624/2/6 616/2/6 625/2/6
f 617/2/6 618/2/6 626/2/6
f 625/1/6 617/1/6 626/1/6
f 618/1/6 619/1/6 627/1/6
f 626/2/6 618/2/6 627/2/6
f 619/2/6 620/2/6 628/2/6
f 627/1/6 619/1/6 628/1/6
f 620/1/6 621/1/6 629/1/6
f 628/2/6 620/2/6 629/2/6
f 621/2/6 622/2/6 630/2/6
f 629/1/6 621/1/6 630/1/6
f 630/2/6 622/2/6 631/2/6
f 623/2/6 624/2/6 632/2/6
f 624/1/6 625/1/6 633/1/6
f 632/2/6 624/2/6 633/2/6
f 625/2/6 626/2/6 634/2/6
f 633/1/6 625/1/6 634/1/6
f 626/1/6 627/1/6 635/1/6
f 634/2/6 626/2/6 635/2/6
f 627/2/6 628/2/6 636/2/6
f 635/1/6 627/1/6 636/1/6
f 628/1/6 629/1/6 637/1/6
f 636/2/6 628/2/6 637/2/6
f 629/2/6 630/2/6 638/2/6
f 637/1/6 629/1/6 638/1/6
f 630/1/6 631/1/6 639/1/6
f 638/2/6 630/2/6 639/2/6
f 639/1/6 631/1/6 640/1/6
