# MagicaVoxel @ Ephtracy

# material
mtllib ShipBack.mtl
usemtl palette

# normals
vn -1 0 0
vn 1 0 0
vn 0 0 1
vn 0 0 -1
vn 0 -1 0
vn 0 1 0

# texcoords
vt 0.470703 0.5
vt 0.474609 0.5
vt 0.478516 0.5
vt 0.564453 0.5
vt 0.572266 0.5

# verts
v 7 2 4
v 7 2 -12
v 7 4 6
v 7 4 4
v 7 4 -12
v 7 4 -14
v 7 5 7
v 7 5 6
v 7 5 -14
v 7 5 -15
v 7 6 8
v 7 6 7
v 7 6 -15
v 7 6 -16
v 7 7 8
v 7 7 7
v 7 7 6
v 7 7 -14
v 7 7 -15
v 7 7 -16
v 7 8 8
v 7 8 7
v 7 8 6
v 7 8 -14
v 7 8 -15
v 7 8 -16
v 7 9 7
v 7 9 6
v 7 9 -14
v 7 9 -15
v 11 0 4
v 11 0 2
v 11 0 -10
v 11 0 -12
v 11 2 6
v 11 2 4
v 11 2 2
v 11 2 -10
v 11 2 -12
v 11 2 -14
v 11 4 6
v 11 4 4
v 11 4 -12
v 11 4 -14
v 15 7 6
v 15 7 -14
v 15 8 6
v 15 8 -14
v 15 9 6
v 15 9 -14
v 13 0 4
v 13 0 2
v 13 0 -10
v 13 0 -12
v 13 2 4
v 13 2 2
v 13 2 -10
v 13 2 -12
v 13 4 2
v 13 4 -10
v 14 2 6
v 14 2 5
v 14 2 -13
v 14 2 -14
v 14 4 6
v 14 4 5
v 14 4 -13
v 14 4 -14
v 14 6 8
v 14 6 7
v 14 6 -15
v 14 6 -16
v 14 8 8
v 14 8 7
v 14 8 -15
v 14 8 -16
v 15 2 5
v 15 2 2
v 15 2 -10
v 15 2 -13
v 15 4 6
v 15 4 5
v 15 4 2
v 15 4 -10
v 15 4 -13
v 15 4 -14
v 15 5 7
v 15 5 6
v 15 5 -14
v 15 5 -15
v 15 8 7
v 15 8 6
v 15 8 -14
v 15 8 -15
v 15 9 7
v 15 9 6
v 15 9 -14
v 15 9 -15
v 16 5 6
v 16 5 -14
v 16 6 5
v 16 6 -13
v 16 8 6
v 16 8 5
v 16 8 4
v 16 8 -12
v 16 8 -13
v 16 8 -14
v 16 9 6
v 16 9 -14
v 17 6 5
v 17 6 -13
v 17 7 4
v 17 7 -12
v 17 8 5
v 17 8 4
v 17 8 -12
v 17 8 -13
v 7 6 8
v 7 7 8
v 7 8 8
v 13 7 8
v 13 8 8
v 14 6 8
v 14 8 8
v 7 5 7
v 7 6 7
v 7 8 7
v 7 9 7
v 13 8 7
v 14 6 7
v 14 8 7
v 15 5 7
v 15 8 7
v 15 9 7
v 7 4 6
v 7 5 6
v 11 2 6
v 11 4 6
v 14 2 6
v 14 4 6
v 15 4 6
v 15 5 6
v 15 8 6
v 15 9 6
v 16 5 6
v 16 8 6
v 16 9 6
v 14 2 5
v 14 4 5
v 15 2 5
v 15 4 5
v 16 6 5
v 16 8 5
v 17 6 5
v 17 8 5
v 7 2 4
v 7 4 4
v 11 0 4
v 11 2 4
v 11 4 4
v 13 0 4
v 13 2 4
v 11 0 -10
v 11 2 -10
v 13 0 -10
v 13 2 -10
v 13 4 -10
v 15 2 -10
v 15 4 -10
v 7 7 -14
v 7 8 -14
v 7 9 -14
v 15 7 -14
v 15 8 -14
v 15 9 -14
v 7 7 6
v 7 8 6
v 7 9 6
v 15 7 6
v 15 8 6
v 15 9 6
v 11 0 2
v 11 2 2
v 13 0 2
v 13 2 2
v 13 4 2
v 15 2 2
v 15 4 2
v 7 2 -12
v 7 4 -12
v 11 0 -12
v 11 2 -12
v 11 4 -12
v 13 0 -12
v 13 2 -12
v 14 2 -13
v 14 4 -13
v 15 2 -13
v 15 4 -13
v 16 6 -13
v 16 8 -13
v 17 6 -13
v 17 8 -13
v 7 4 -14
v 7 5 -14
v 11 2 -14
v 11 4 -14
v 14 2 -14
v 14 4 -14
v 15 4 -14
v 15 5 -14
v 15 8 -14
v 15 9 -14
v 16 5 -14
v 16 8 -14
v 16 9 -14
v 7 5 -15
v 7 6 -15
v 7 8 -15
v 7 9 -15
v 13 8 -15
v 14 6 -15
v 14 8 -15
v 15 5 -15
v 15 8 -15
v 15 9 -15
v 7 6 -16
v 7 7 -16
v 7 8 -16
v 13 7 -16
v 13 8 -16
v 14 6 -16
v 14 8 -16
v 11 0 4
v 13 0 4
v 11 0 2
v 13 0 2
v 11 0 -10
v 13 0 -10
v 11 0 -12
v 13 0 -12
v 11 2 6
v 14 2 6
v 14 2 5
v 15 2 5
v 7 2 4
v 11 2 4
v 13 2 4
v 11 2 2
v 13 2 2
v 15 2 2
v 11 2 -10
v 13 2 -10
v 15 2 -10
v 7 2 -12
v 11 2 -12
v 13 2 -12
v 14 2 -13
v 15 2 -13
v 11 2 -14
v 14 2 -14
v 7 4 6
v 11 4 6
v 14 4 6
v 15 4 6
v 14 4 5
v 15 4 5
v 7 4 4
v 11 4 4
v 13 4 2
v 15 4 2
v 13 4 -10
v 15 4 -10
v 7 4 -12
v 11 4 -12
v 14 4 -13
v 15 4 -13
v 7 4 -14
v 11 4 -14
v 14 4 -14
v 15 4 -14
v 7 5 7
v 15 5 7
v 7 5 6
v 15 5 6
v 16 5 6
v 7 5 -14
v 15 5 -14
v 16 5 -14
v 7 5 -15
v 15 5 -15
v 7 6 8
v 14 6 8
v 7 6 7
v 14 6 7
v 16 6 5
v 17 6 5
v 16 6 -13
v 17 6 -13
v 7 6 -15
v 14 6 -15
v 7 6 -16
v 14 6 -16
v 7 7 6
v 15 7 6
v 7 7 -14
v 15 7 -14
v 7 8 8
v 13 8 8
v 14 8 8
v 7 8 7
v 13 8 7
v 14 8 7
v 16 8 5
v 17 8 5
v 16 8 4
v 17 8 4
v 16 8 -12
v 17 8 -12
v 16 8 -13
v 17 8 -13
v 7 8 -15
v 13 8 -15
v 14 8 -15
v 7 8 -16
v 13 8 -16
v 14 8 -16
v 7 9 7
v 15 9 7
v 7 9 6
v 15 9 6
v 16 9 6
v 7 9 -14
v 15 9 -14
v 16 9 -14
v 7 9 -15
v 15 9 -15

# faces
f 4/1/1 2/1/1 1/1/1
f 5/1/1 2/1/1 4/1/1
f 8/1/1 4/1/1 3/1/1
f 8/1/1 6/1/1 5/1/1
f 8/1/1 5/1/1 4/1/1
f 9/1/1 6/1/1 8/1/1
f 12/1/1 8/1/1 7/1/1
f 13/1/1 10/1/1 9/1/1
f 15/3/1 12/3/1 11/3/1
f 16/1/1 8/1/1 12/1/1
f 16/3/1 12/3/1 15/3/1
f 17/3/1 9/3/1 8/3/1
f 17/1/1 8/1/1 16/1/1
f 18/1/1 13/1/1 9/1/1
f 18/3/1 9/3/1 17/3/1
f 19/3/1 14/3/1 13/3/1
f 19/1/1 13/1/1 18/1/1
f 20/3/1 14/3/1 19/3/1
f 21/1/1 16/1/1 15/1/1
f 21/1/1 17/1/1 16/1/1
f 22/1/1 17/1/1 21/1/1
f 23/1/1 17/1/1 22/1/1
f 24/1/1 20/1/1 19/1/1
f 24/1/1 19/1/1 18/1/1
f 25/1/1 20/1/1 24/1/1
f 26/1/1 20/1/1 25/1/1
f 27/2/1 23/2/1 22/2/1
f 28/2/1 23/2/1 27/2/1
f 29/2/1 25/2/1 24/2/1
f 30/2/1 25/2/1 29/2/1
f 36/2/1 32/2/1 31/2/1
f 37/2/1 32/2/1 36/2/1
f 38/2/1 34/2/1 33/2/1
f 39/2/1 34/2/1 38/2/1
f 41/2/1 36/2/1 35/2/1
f 42/2/1 36/2/1 41/2/1
f 43/2/1 40/2/1 39/2/1
f 44/2/1 40/2/1 43/2/1
f 47/1/1 46/1/1 45/1/1
f 48/1/1 46/1/1 47/1/1
f 49/2/1 48/2/1 47/2/1
f 50/2/1 48/2/1 49/2/1
f 51/2/2 52/2/2 55/2/2
f 55/2/2 52/2/2 56/2/2
f 53/2/2 54/2/2 57/2/2
f 57/2/2 54/2/2 58/2/2
f 56/1/2 57/1/2 59/1/2
f 59/1/2 57/1/2 60/1/2
f 61/2/2 62/2/2 65/2/2
f 65/2/2 62/2/2 66/2/2
f 63/2/2 64/2/2 67/2/2
f 67/2/2 64/2/2 68/2/2
f 69/3/2 70/3/2 73/3/2
f 73/3/2 70/3/2 74/3/2
f 71/3/2 72/3/2 75/3/2
f 75/3/2 72/3/2 76/3/2
f 77/2/2 78/2/2 82/2/2
f 82/2/2 78/2/2 83/2/2
f 79/2/2 80/2/2 84/2/2
f 84/2/2 80/2/2 85/2/2
f 82/1/2 83/1/2 88/1/2
f 85/1/2 86/1/2 88/1/2
f 84/1/2 85/1/2 88/1/2
f 83/1/2 84/1/2 88/1/2
f 81/1/2 82/1/2 88/1/2
f 88/1/2 86/1/2 89/1/2
f 87/1/2 88/1/2 91/1/2
f 91/1/2 88/1/2 92/1/2
f 89/1/2 90/1/2 93/1/2
f 93/1/2 90/1/2 94/1/2
f 91/2/2 92/2/2 95/2/2
f 95/2/2 92/2/2 96/2/2
f 93/2/2 94/2/2 97/2/2
f 97/2/2 94/2/2 98/2/2
f 99/1/2 100/1/2 101/1/2
f 101/1/2 100/1/2 102/1/2
f 99/1/2 101/1/2 103/1/2
f 103/1/2 101/1/2 104/1/2
f 102/1/2 100/1/2 107/1/2
f 107/1/2 100/1/2 108/1/2
f 105/2/2 106/2/2 109/2/2
f 103/2/2 104/2/2 109/2/2
f 107/2/2 108/2/2 109/2/2
f 106/2/2 107/2/2 109/2/2
f 104/2/2 105/2/2 109/2/2
f 109/2/2 108/2/2 110/2/2
f 111/3/2 112/3/2 113/3/2
f 113/3/2 112/3/2 114/3/2
f 111/3/2 113/3/2 115/3/2
f 113/1/2 114/1/2 116/1/2
f 115/3/2 113/3/2 116/3/2
f 114/3/2 112/3/2 117/3/2
f 116/1/2 114/1/2 117/1/2
f 117/3/2 112/3/2 118/3/2
f 122/3/3 120/3/3 119/3/3
f 122/1/3 121/1/3 120/1/3
f 123/1/3 121/1/3 122/1/3
f 124/3/3 122/3/3 119/3/3
f 124/3/3 123/3/3 122/3/3
f 125/3/3 123/3/3 124/3/3
f 130/2/3 129/2/3 128/2/3
f 131/1/3 127/1/3 126/1/3
f 132/2/3 129/2/3 130/2/3
f 133/1/3 131/1/3 126/1/3
f 133/1/3 132/1/3 131/1/3
f 134/2/3 129/2/3 132/2/3
f 134/1/3 132/1/3 133/1/3
f 135/2/3 129/2/3 134/2/3
f 139/1/3 137/1/3 136/1/3
f 140/2/3 139/2/3 138/2/3
f 141/1/3 137/1/3 139/1/3
f 141/2/3 139/2/3 140/2/3
f 142/1/3 137/1/3 141/1/3
f 143/1/3 137/1/3 142/1/3
f 146/1/3 144/1/3 143/1/3
f 147/2/3 145/2/3 144/2/3
f 147/1/3 144/1/3 146/1/3
f 148/2/3 145/2/3 147/2/3
f 151/2/3 150/2/3 149/2/3
f 152/2/3 150/2/3 151/2/3
f 155/3/3 154/3/3 153/3/3
f 156/3/3 154/3/3 155/3/3
f 160/1/3 158/1/3 157/1/3
f 161/1/3 158/1/3 160/1/3
f 162/2/3 160/2/3 159/2/3
f 163/2/3 160/2/3 162/2/3
f 166/2/3 165/2/3 164/2/3
f 167/2/3 165/2/3 166/2/3
f 169/2/3 168/2/3 167/2/3
f 170/2/3 168/2/3 169/2/3
f 174/1/3 172/1/3 171/1/3
f 175/2/3 173/2/3 172/2/3
f 175/1/3 172/1/3 174/1/3
f 176/2/3 173/2/3 175/2/3
f 177/1/4 178/1/4 180/1/4
f 178/2/4 179/2/4 181/2/4
f 180/1/4 178/1/4 181/1/4
f 181/2/4 179/2/4 182/2/4
f 183/2/4 184/2/4 185/2/4
f 185/2/4 184/2/4 186/2/4
f 186/2/4 187/2/4 188/2/4
f 188/2/4 187/2/4 189/2/4
f 190/1/4 191/1/4 193/1/4
f 193/1/4 191/1/4 194/1/4
f 192/2/4 193/2/4 195/2/4
f 195/2/4 193/2/4 196/2/4
f 197/2/4 198/2/4 199/2/4
f 199/2/4 198/2/4 200/2/4
f 201/3/4 202/3/4 203/3/4
f 203/3/4 202/3/4 204/3/4
f 205/1/4 206/1/4 208/1/4
f 207/2/4 208/2/4 209/2/4
f 208/1/4 206/1/4 210/1/4
f 209/2/4 208/2/4 210/2/4
f 210/1/4 206/1/4 211/1/4
f 211/1/4 206/1/4 212/1/4
f 212/1/4 213/1/4 215/1/4
f 213/2/4 214/2/4 216/2/4
f 215/1/4 213/1/4 216/1/4
f 216/2/4 214/2/4 217/2/4
f 220/2/4 221/2/4 222/2/4
f 218/1/4 219/1/4 223/1/4
f 222/2/4 221/2/4 224/2/4
f 218/1/4 223/1/4 225/1/4
f 223/1/4 224/1/4 225/1/4
f 224/2/4 221/2/4 226/2/4
f 225/1/4 224/1/4 226/1/4
f 226/2/4 221/2/4 227/2/4
f 228/3/4 229/3/4 231/3/4
f 229/1/4 230/1/4 231/1/4
f 231/1/4 230/1/4 232/1/4
f 228/3/4 231/3/4 233/3/4
f 231/3/4 232/3/4 233/3/4
f 233/3/4 232/3/4 234/3/4
f 237/2/5 236/2/5 235/2/5
f 238/2/5 236/2/5 237/2/5
f 241/2/5 240/2/5 239/2/5
f 242/2/5 240/2/5 241/2/5
f 245/2/5 244/2/5 243/2/5
f 248/2/5 245/2/5 243/2/5
f 248/2/5 246/2/5 245/2/5
f 249/2/5 246/2/5 248/2/5
f 250/1/5 248/1/5 247/1/5
f 251/2/5 246/2/5 249/2/5
f 252/2/5 246/2/5 251/2/5
f 253/1/5 250/1/5 247/1/5
f 253/1/5 251/1/5 250/1/5
f 254/1/5 251/1/5 253/1/5
f 256/1/5 253/1/5 247/1/5
f 257/1/5 253/1/5 256/1/5
f 258/2/5 255/2/5 254/2/5
f 259/2/5 258/2/5 257/2/5
f 259/2/5 255/2/5 258/2/5
f 260/2/5 255/2/5 259/2/5
f 261/2/5 259/2/5 257/2/5
f 262/2/5 259/2/5 261/2/5
f 267/1/5 266/1/5 265/1/5
f 268/1/5 266/1/5 267/1/5
f 269/1/5 264/1/5 263/1/5
f 270/1/5 264/1/5 269/1/5
f 273/1/5 272/1/5 271/1/5
f 274/1/5 272/1/5 273/1/5
f 279/1/5 276/1/5 275/1/5
f 280/1/5 276/1/5 279/1/5
f 281/1/5 278/1/5 277/1/5
f 282/1/5 278/1/5 281/1/5
f 285/1/5 284/1/5 283/1/5
f 286/1/5 284/1/5 285/1/5
f 289/1/5 287/1/5 286/1/5
f 290/1/5 287/1/5 289/1/5
f 291/1/5 289/1/5 288/1/5
f 292/1/5 289/1/5 291/1/5
f 295/3/5 294/3/5 293/3/5
f 296/3/5 294/3/5 295/3/5
f 299/3/5 298/3/5 297/3/5
f 300/3/5 298/3/5 299/3/5
f 303/3/5 302/3/5 301/3/5
f 304/3/5 302/3/5 303/3/5
f 305/3/6 306/3/6 307/3/6
f 307/3/6 306/3/6 308/3/6
f 309/1/6 310/1/6 312/1/6
f 310/3/6 311/3/6 313/3/6
f 312/1/6 310/1/6 313/1/6
f 313/3/6 311/3/6 314/3/6
f 315/3/6 316/3/6 317/3/6
f 317/3/6 316/3/6 318/3/6
f 317/1/6 318/1/6 319/1/6
f 319/1/6 318/1/6 320/1/6
f 319/3/6 320/3/6 321/3/6
f 321/3/6 320/3/6 322/3/6
f 323/1/6 324/1/6 326/1/6
f 324/3/6 325/3/6 327/3/6
f 326/1/6 324/1/6 327/1/6
f 327/3/6 325/3/6 328/3/6
f 329/2/6 330/2/6 331/2/6
f 331/2/6 330/2/6 332/2/6
f 332/2/6 333/2/6 335/2/6
f 335/2/6 333/2/6 336/2/6
f 334/2/6 335/2/6 337/2/6
f 337/2/6 335/2/6 338/2/6
