# MagicaVoxel @ Ephtracy

# material
mtllib Turtle.mtl
usemtl palette

# normals
vn -1 0 0
vn 1 0 0
vn 0 0 1
vn 0 0 -1
vn 0 -1 0
vn 0 1 0

# texcoords
vt 0.380859 0.5
vt 0.658203 0.5
vt 0.751953 0.5
vt 0.755859 0.5
vt 0.783203 0.5
vt 0.787109 0.5
vt 0.794922 0.5
vt 0.943359 0.5
vt 0.947266 0.5

# verts
v -3 0 6
v -3 0 4
v -3 0 -2
v -3 0 -4
v -3 2 6
v -3 2 5
v -3 2 4
v -3 2 2
v -3 2 -0
v -3 2 -2
v -3 2 -4
v -3 3 5
v -3 3 4
v -3 3 2
v -3 3 -0
v -3 3 -2
v -3 3 -4
v -2 1 4
v -2 1 3
v -2 1 2
v -2 1 1
v -2 1 -1
v -2 1 -2
v -2 2 6
v -2 2 5
v -2 2 4
v -2 2 3
v -2 2 2
v -2 2 1
v -2 2 -0
v -2 2 -1
v -2 2 -2
v -2 3 6
v -2 3 5
v -2 3 4
v -2 3 2
v -2 3 -0
v -2 3 -2
v -2 3 -4
v -2 4 5
v -2 4 4
v -2 4 2
v -2 4 -0
v -2 4 -2
v -2 4 -4
v -2 5 5
v -2 5 4
v -2 5 -3
v -2 5 -4
v -2 6 4
v -2 6 2
v -2 6 -0
v -2 6 -2
v -2 6 -3
v -1 3 -4
v -1 3 -8
v -1 4 -4
v -1 5 5
v -1 5 4
v -1 5 -4
v -1 5 -5
v -1 5 -6
v -1 6 5
v -1 6 4
v -1 6 -5
v -1 6 -6
v -1 6 -7
v -1 6 -8
v -1 7 -4
v -1 7 -7
v 0 3 -8
v 0 3 -9
v 0 4 -8
v 0 4 -9
v 3 0 6
v 3 0 4
v 3 0 -2
v 3 0 -4
v 3 1 5
v 3 1 4
v 3 1 -2
v 3 1 -3
v 3 1 -4
v 3 2 6
v 3 2 5
v -1 0 6
v -1 0 4
v -1 0 -2
v -1 0 -4
v -1 1 5
v -1 1 4
v -1 1 -2
v -1 1 -3
v -1 1 -4
v -1 2 6
v -1 2 5
v 2 3 -8
v 2 3 -9
v 2 4 -8
v 2 4 -9
v 3 3 -4
v 3 3 -8
v 3 4 -4
v 3 5 5
v 3 5 4
v 3 5 -4
v 3 5 -5
v 3 5 -6
v 3 6 5
v 3 6 4
v 3 6 -5
v 3 6 -6
v 3 6 -7
v 3 6 -8
v 3 7 -4
v 3 7 -7
v 4 1 4
v 4 1 3
v 4 1 2
v 4 1 1
v 4 1 -1
v 4 1 -2
v 4 2 6
v 4 2 5
v 4 2 4
v 4 2 3
v 4 2 2
v 4 2 1
v 4 2 -0
v 4 2 -1
v 4 2 -2
v 4 3 6
v 4 3 5
v 4 3 4
v 4 3 2
v 4 3 -0
v 4 3 -2
v 4 3 -4
v 4 4 5
v 4 4 4
v 4 4 2
v 4 4 -0
v 4 4 -2
v 4 4 -4
v 4 5 5
v 4 5 4
v 4 5 -3
v 4 5 -4
v 4 6 4
v 4 6 2
v 4 6 -0
v 4 6 -2
v 4 6 -3
v 5 0 6
v 5 0 4
v 5 0 -2
v 5 0 -4
v 5 2 6
v 5 2 5
v 5 2 4
v 5 2 2
v 5 2 -0
v 5 2 -2
v 5 2 -4
v 5 3 5
v 5 3 4
v 5 3 2
v 5 3 -0
v 5 3 -2
v 5 3 -4
v -3 0 6
v -3 2 6
v -2 2 6
v -2 3 6
v -1 0 6
v -1 2 6
v -1 3 6
v 1 2 6
v 1 3 6
v 3 0 6
v 3 2 6
v 3 3 6
v 4 2 6
v 4 3 6
v 5 0 6
v 5 2 6
v -3 2 5
v -3 3 5
v -2 2 5
v -2 3 5
v -2 4 5
v -2 5 5
v -1 1 5
v -1 2 5
v -1 3 5
v -1 4 5
v -1 5 5
v -1 6 5
v 1 2 5
v 1 3 5
v 1 4 5
v 1 6 5
v 3 1 5
v 3 2 5
v 3 3 5
v 3 4 5
v 3 5 5
v 3 6 5
v 4 2 5
v 4 3 5
v 4 4 5
v 4 5 5
v 5 2 5
v 5 3 5
v -2 5 4
v -2 6 4
v -1 5 4
v -1 6 4
v 3 5 4
v 3 6 4
v 4 5 4
v 4 6 4
v -3 0 -2
v -3 2 -2
v -2 1 -2
v -2 2 -2
v -1 0 -2
v -1 1 -2
v 3 0 -2
v 3 1 -2
v 4 1 -2
v 4 2 -2
v 5 0 -2
v 5 2 -2
v -1 5 -4
v -1 7 -4
v 1 5 -4
v 3 5 -4
v 3 7 -4
v -3 0 4
v -3 2 4
v -2 1 4
v -2 2 4
v -1 0 4
v -1 1 4
v 3 0 4
v 3 1 4
v 4 1 4
v 4 2 4
v 5 0 4
v 5 2 4
v -2 5 -3
v -2 6 -3
v -1 5 -3
v -1 6 -3
v 1 5 -3
v 1 6 -3
v 3 5 -3
v 3 6 -3
v 4 5 -3
v 4 6 -3
v -3 0 -4
v -3 2 -4
v -3 3 -4
v -2 3 -4
v -2 4 -4
v -2 5 -4
v -1 0 -4
v -1 1 -4
v -1 2 -4
v -1 3 -4
v -1 4 -4
v -1 5 -4
v 1 2 -4
v 1 3 -4
v 3 0 -4
v 3 1 -4
v 3 2 -4
v 3 3 -4
v 3 4 -4
v 3 5 -4
v 4 3 -4
v 4 4 -4
v 4 5 -4
v 5 0 -4
v 5 2 -4
v 5 3 -4
v -1 6 -7
v -1 7 -7
v 3 6 -7
v 3 7 -7
v -1 3 -8
v -1 6 -8
v 0 3 -8
v 0 4 -8
v 2 3 -8
v 2 4 -8
v 3 3 -8
v 3 6 -8
v 0 3 -9
v 0 4 -9
v 2 3 -9
v 2 4 -9
v -3 0 6
v -1 0 6
v 3 0 6
v 5 0 6
v -3 0 4
v -1 0 4
v 3 0 4
v 5 0 4
v -3 0 -2
v -1 0 -2
v 3 0 -2
v 5 0 -2
v -3 0 -4
v -1 0 -4
v 3 0 -4
v 5 0 -4
v -1 1 5
v 3 1 5
v -2 1 4
v -1 1 4
v 3 1 4
v 4 1 4
v -2 1 3
v -1 1 3
v 3 1 3
v 4 1 3
v -2 1 2
v 4 1 2
v -2 1 1
v -1 1 1
v 3 1 1
v 4 1 1
v -1 1 -0
v 3 1 -0
v -2 1 -1
v -1 1 -1
v 3 1 -1
v 4 1 -1
v -2 1 -2
v -1 1 -2
v 3 1 -2
v 4 1 -2
v -1 1 -3
v 3 1 -3
v -1 1 -4
v 3 1 -4
v -1 2 6
v 1 2 6
v 3 2 6
v -1 2 5
v 1 2 5
v 3 2 5
v -3 2 4
v -2 2 4
v 4 2 4
v 5 2 4
v -2 2 3
v 4 2 3
v -3 2 2
v -2 2 2
v 4 2 2
v 5 2 2
v -2 2 1
v 4 2 1
v -3 2 -0
v -2 2 -0
v 4 2 -0
v 5 2 -0
v -2 2 -1
v 4 2 -1
v -3 2 -2
v -2 2 -2
v 4 2 -2
v 5 2 -2
v -1 3 -4
v 1 3 -4
v 3 3 -4
v -1 3 -8
v 0 3 -8
v 2 3 -8
v 3 3 -8
v 0 3 -9
v 2 3 -9
v -3 2 6
v -2 2 6
v 4 2 6
v 5 2 6
v -3 2 5
v -2 2 5
v 4 2 5
v 5 2 5
v -2 3 6
v -1 3 6
v 1 3 6
v 3 3 6
v 4 3 6
v -3 3 5
v -2 3 5
v -1 3 5
v 1 3 5
v 3 3 5
v 4 3 5
v 5 3 5
v -3 3 4
v -2 3 4
v 4 3 4
v 5 3 4
v -3 3 2
v -2 3 2
v 4 3 2
v 5 3 2
v -3 3 -0
v -2 3 -0
v 4 3 -0
v 5 3 -0
v -3 3 -2
v -2 3 -2
v 4 3 -2
v 5 3 -2
v -3 3 -4
v -2 3 -4
v 4 3 -4
v 5 3 -4
v 0 4 -8
v 2 4 -8
v 0 4 -9
v 2 4 -9
v -2 5 5
v -1 5 5
v 3 5 5
v 4 5 5
v -2 5 4
v -1 5 4
v 3 5 4
v 4 5 4
v -2 5 -3
v -1 5 -3
v 1 5 -3
v 3 5 -3
v 4 5 -3
v -2 5 -4
v -1 5 -4
v 1 5 -4
v 3 5 -4
v 4 5 -4
v -1 6 5
v 1 6 5
v 3 6 5
v -2 6 4
v -1 6 4
v 1 6 4
v 3 6 4
v 4 6 4
v -2 6 2
v -1 6 2
v 1 6 2
v 3 6 2
v 4 6 2
v -2 6 -0
v -1 6 -0
v 1 6 -0
v 3 6 -0
v 4 6 -0
v -2 6 -2
v -1 6 -2
v 1 6 -2
v 3 6 -2
v 4 6 -2
v -2 6 -3
v -1 6 -3
v 1 6 -3
v 3 6 -3
v 4 6 -3
v -1 6 -7
v 3 6 -7
v -1 6 -8
v 3 6 -8
v -1 7 -4
v 3 7 -4
v -1 7 -7
v 3 7 -7

# faces
f 5/2/1 2/2/1 1/2/1
f 6/2/1 2/2/1 5/2/1
f 7/2/1 2/2/1 6/2/1
f 10/2/1 4/2/1 3/2/1
f 11/2/1 4/2/1 10/2/1
f 12/7/1 7/7/1 6/7/1
f 13/5/1 8/5/1 7/5/1
f 13/7/1 7/7/1 12/7/1
f 14/7/1 9/7/1 8/7/1
f 14/5/1 8/5/1 13/5/1
f 15/5/1 10/5/1 9/5/1
f 15/7/1 9/7/1 14/7/1
f 16/7/1 11/7/1 10/7/1
f 16/5/1 10/5/1 15/5/1
f 17/7/1 11/7/1 16/7/1
f 26/4/1 19/4/1 18/4/1
f 27/6/1 20/6/1 19/6/1
f 27/4/1 19/4/1 26/4/1
f 28/4/1 21/4/1 20/4/1
f 28/6/1 20/6/1 27/6/1
f 29/6/1 22/6/1 21/6/1
f 29/4/1 21/4/1 28/4/1
f 30/6/1 22/6/1 29/6/1
f 31/4/1 23/4/1 22/4/1
f 31/6/1 22/6/1 30/6/1
f 32/4/1 23/4/1 31/4/1
f 33/7/1 25/7/1 24/7/1
f 34/7/1 25/7/1 33/7/1
f 40/7/1 35/7/1 34/7/1
f 41/5/1 36/5/1 35/5/1
f 41/7/1 35/7/1 40/7/1
f 42/7/1 37/7/1 36/7/1
f 42/5/1 36/5/1 41/5/1
f 43/5/1 38/5/1 37/5/1
f 43/7/1 37/7/1 42/7/1
f 44/7/1 39/7/1 38/7/1
f 44/5/1 38/5/1 43/5/1
f 45/7/1 39/7/1 44/7/1
f 46/5/1 41/5/1 40/5/1
f 47/7/1 42/7/1 41/7/1
f 47/5/1 41/5/1 46/5/1
f 48/5/1 45/5/1 44/5/1
f 49/5/1 45/5/1 48/5/1
f 50/7/1 42/7/1 47/7/1
f 51/5/1 43/5/1 42/5/1
f 51/7/1 42/7/1 50/7/1
f 52/7/1 44/7/1 43/7/1
f 52/5/1 43/5/1 51/5/1
f 53/5/1 48/5/1 44/5/1
f 53/7/1 44/7/1 52/7/1
f 54/5/1 48/5/1 53/5/1
f 57/2/1 56/2/1 55/2/1
f 60/2/1 56/2/1 57/2/1
f 61/2/1 56/2/1 60/2/1
f 62/2/1 56/2/1 61/2/1
f 63/7/1 59/7/1 58/7/1
f 64/7/1 59/7/1 63/7/1
f 65/2/1 61/2/1 60/2/1
f 65/9/1 62/9/1 61/9/1
f 66/2/1 56/2/1 62/2/1
f 66/9/1 62/9/1 65/9/1
f 67/2/1 56/2/1 66/2/1
f 68/2/1 56/2/1 67/2/1
f 69/2/1 65/2/1 60/2/1
f 69/2/1 67/2/1 66/2/1
f 69/2/1 66/2/1 65/2/1
f 70/2/1 67/2/1 69/2/1
f 73/1/1 72/1/1 71/1/1
f 74/1/1 72/1/1 73/1/1
f 79/2/1 76/2/1 75/2/1
f 80/2/1 76/2/1 79/2/1
f 81/2/1 78/2/1 77/2/1
f 82/2/1 78/2/1 81/2/1
f 83/2/1 78/2/1 82/2/1
f 84/2/1 79/2/1 75/2/1
f 85/2/1 79/2/1 84/2/1
f 86/2/2 87/2/2 90/2/2
f 90/2/2 87/2/2 91/2/2
f 88/2/2 89/2/2 92/2/2
f 92/2/2 89/2/2 93/2/2
f 93/2/2 89/2/2 94/2/2
f 86/2/2 90/2/2 95/2/2
f 95/2/2 90/2/2 96/2/2
f 97/1/2 98/1/2 99/1/2
f 99/1/2 98/1/2 100/1/2
f 101/2/2 102/2/2 103/2/2
f 103/2/2 102/2/2 106/2/2
f 106/2/2 102/2/2 107/2/2
f 107/2/2 102/2/2 108/2/2
f 104/5/2 105/5/2 109/5/2
f 109/5/2 105/5/2 110/5/2
f 106/2/2 107/2/2 111/2/2
f 107/9/2 108/9/2 111/9/2
f 108/2/2 102/2/2 112/2/2
f 111/9/2 108/9/2 112/9/2
f 112/2/2 102/2/2 113/2/2
f 113/2/2 102/2/2 114/2/2
f 106/2/2 111/2/2 115/2/2
f 112/2/2 113/2/2 115/2/2
f 111/2/2 112/2/2 115/2/2
f 115/2/2 113/2/2 116/2/2
f 117/4/2 118/4/2 125/4/2
f 118/6/2 119/6/2 126/6/2
f 125/4/2 118/4/2 126/4/2
f 119/4/2 120/4/2 127/4/2
f 126/6/2 119/6/2 127/6/2
f 120/6/2 121/6/2 128/6/2
f 127/4/2 120/4/2 128/4/2
f 128/6/2 121/6/2 129/6/2
f 121/4/2 122/4/2 130/4/2
f 129/6/2 121/6/2 130/6/2
f 130/4/2 122/4/2 131/4/2
f 123/5/2 124/5/2 132/5/2
f 132/5/2 124/5/2 133/5/2
f 133/5/2 134/5/2 139/5/2
f 134/7/2 135/7/2 140/7/2
f 139/5/2 134/5/2 140/5/2
f 135/5/2 136/5/2 141/5/2
f 140/7/2 135/7/2 141/7/2
f 136/7/2 137/7/2 142/7/2
f 141/5/2 136/5/2 142/5/2
f 137/5/2 138/5/2 143/5/2
f 142/7/2 137/7/2 143/7/2
f 143/5/2 138/5/2 144/5/2
f 139/7/2 140/7/2 145/7/2
f 140/5/2 141/5/2 146/5/2
f 145/7/2 140/7/2 146/7/2
f 143/7/2 144/7/2 147/7/2
f 147/7/2 144/7/2 148/7/2
f 146/5/2 141/5/2 149/5/2
f 141/7/2 142/7/2 150/7/2
f 149/5/2 141/5/2 150/5/2
f 142/5/2 143/5/2 151/5/2
f 150/7/2 142/7/2 151/7/2
f 143/7/2 147/7/2 152/7/2
f 151/5/2 143/5/2 152/5/2
f 152/7/2 147/7/2 153/7/2
f 154/2/2 155/2/2 158/2/2
f 158/2/2 155/2/2 159/2/2
f 159/2/2 155/2/2 160/2/2
f 156/2/2 157/2/2 163/2/2
f 163/2/2 157/2/2 164/2/2
f 159/5/2 160/5/2 165/5/2
f 160/7/2 161/7/2 166/7/2
f 165/5/2 160/5/2 166/5/2
f 161/5/2 162/5/2 167/5/2
f 166/7/2 161/7/2 167/7/2
f 162/7/2 163/7/2 168/7/2
f 167/5/2 162/5/2 168/5/2
f 163/5/2 164/5/2 169/5/2
f 168/7/2 163/7/2 169/7/2
f 169/5/2 164/5/2 170/5/2
f 173/2/3 172/2/3 171/2/3
f 175/2/3 173/2/3 171/2/3
f 176/7/3 174/7/3 173/7/3
f 176/2/3 173/2/3 175/2/3
f 177/7/3 174/7/3 176/7/3
f 178/5/3 177/5/3 176/5/3
f 179/5/3 177/5/3 178/5/3
f 181/7/3 179/7/3 178/7/3
f 182/7/3 179/7/3 181/7/3
f 183/2/3 181/2/3 180/2/3
f 183/5/3 182/5/3 181/5/3
f 184/5/3 182/5/3 183/5/3
f 185/2/3 183/2/3 180/2/3
f 186/2/3 183/2/3 185/2/3
f 189/7/3 188/7/3 187/7/3
f 190/7/3 188/7/3 189/7/3
f 195/7/3 191/7/3 190/7/3
f 196/5/3 192/5/3 191/5/3
f 196/7/3 191/7/3 195/7/3
f 197/5/3 192/5/3 196/5/3
f 199/4/3 194/4/3 193/4/3
f 200/5/3 196/5/3 195/5/3
f 201/7/3 198/7/3 197/7/3
f 201/5/3 196/5/3 200/5/3
f 201/7/3 197/7/3 196/7/3
f 202/7/3 198/7/3 201/7/3
f 203/4/3 199/4/3 193/4/3
f 204/4/3 199/4/3 203/4/3
f 205/7/3 201/7/3 200/7/3
f 206/5/3 202/5/3 201/5/3
f 206/7/3 201/7/3 205/7/3
f 207/5/3 202/5/3 206/5/3
f 208/5/3 202/5/3 207/5/3
f 210/5/3 206/5/3 205/5/3
f 211/7/3 207/7/3 206/7/3
f 211/5/3 206/5/3 210/5/3
f 212/7/3 207/7/3 211/7/3
f 213/5/3 210/5/3 209/5/3
f 214/5/3 210/5/3 213/5/3
f 217/7/3 216/7/3 215/7/3
f 218/7/3 216/7/3 217/7/3
f 221/5/3 220/5/3 219/5/3
f 222/5/3 220/5/3 221/5/3
f 225/2/3 224/2/3 223/2/3
f 226/2/3 224/2/3 225/2/3
f 227/2/3 225/2/3 223/2/3
f 228/2/3 225/2/3 227/2/3
f 231/2/3 230/2/3 229/2/3
f 233/2/3 231/2/3 229/2/3
f 233/2/3 232/2/3 231/2/3
f 234/2/3 232/2/3 233/2/3
f 237/2/3 236/2/3 235/2/3
f 238/2/3 236/2/3 237/2/3
f 239/2/3 236/2/3 238/2/3
f 240/2/4 241/2/4 242/2/4
f 242/2/4 241/2/4 243/2/4
f 240/2/4 242/2/4 244/2/4
f 244/2/4 242/2/4 245/2/4
f 246/2/4 247/2/4 248/2/4
f 246/2/4 248/2/4 250/2/4
f 248/2/4 249/2/4 250/2/4
f 250/2/4 249/2/4 251/2/4
f 252/5/4 253/5/4 254/5/4
f 254/5/4 253/5/4 255/5/4
f 254/7/4 255/7/4 256/7/4
f 256/7/4 255/7/4 257/7/4
f 256/5/4 257/5/4 258/5/4
f 258/5/4 257/5/4 259/5/4
f 258/7/4 259/7/4 260/7/4
f 260/7/4 259/7/4 261/7/4
f 263/7/4 264/7/4 265/7/4
f 262/2/4 263/2/4 268/2/4
f 268/2/4 263/2/4 269/2/4
f 263/7/4 265/7/4 270/7/4
f 269/2/4 263/2/4 270/2/4
f 265/7/4 266/7/4 270/7/4
f 270/7/4 266/7/4 271/7/4
f 266/5/4 267/5/4 272/5/4
f 271/7/4 266/7/4 272/7/4
f 272/5/4 267/5/4 273/5/4
f 270/5/4 271/5/4 274/5/4
f 269/6/4 270/6/4 274/6/4
f 274/5/4 271/5/4 275/5/4
f 269/6/4 274/6/4 277/6/4
f 274/7/4 275/7/4 278/7/4
f 277/6/4 274/6/4 278/6/4
f 278/7/4 275/7/4 279/7/4
f 278/5/4 279/5/4 282/5/4
f 279/5/4 280/5/4 282/5/4
f 280/7/4 281/7/4 283/7/4
f 282/5/4 280/5/4 283/5/4
f 283/7/4 281/7/4 284/7/4
f 276/2/4 277/2/4 285/2/4
f 277/2/4 278/2/4 285/2/4
f 278/5/4 282/5/4 286/5/4
f 285/2/4 278/2/4 286/2/4
f 286/5/4 282/5/4 287/5/4
f 288/2/4 289/2/4 290/2/4
f 290/2/4 289/2/4 291/2/4
f 292/2/4 293/2/4 294/2/4
f 294/2/4 293/2/4 295/2/4
f 295/2/4 293/2/4 297/2/4
f 296/2/4 297/2/4 298/2/4
f 297/2/4 293/2/4 299/2/4
f 298/2/4 297/2/4 299/2/4
f 300/1/4 301/1/4 302/1/4
f 302/1/4 301/1/4 303/1/4
f 308/2/5 305/2/5 304/2/5
f 309/2/5 305/2/5 308/2/5
f 310/2/5 307/2/5 306/2/5
f 311/2/5 307/2/5 310/2/5
f 316/2/5 313/2/5 312/2/5
f 317/2/5 313/2/5 316/2/5
f 318/2/5 315/2/5 314/2/5
f 319/2/5 315/2/5 318/2/5
f 323/4/5 321/4/5 320/4/5
f 324/4/5 321/4/5 323/4/5
f 326/4/5 323/4/5 322/4/5
f 327/6/5 324/6/5 323/6/5
f 327/4/5 323/4/5 326/4/5
f 328/4/5 325/4/5 324/4/5
f 328/6/5 324/6/5 327/6/5
f 329/4/5 325/4/5 328/4/5
f 330/6/5 327/6/5 326/6/5
f 330/6/5 328/6/5 327/6/5
f 330/6/5 329/6/5 328/6/5
f 331/6/5 329/6/5 330/6/5
f 332/4/5 331/4/5 330/4/5
f 333/4/5 331/4/5 332/4/5
f 334/4/5 331/4/5 333/4/5
f 335/4/5 331/4/5 334/4/5
f 336/6/5 333/6/5 332/6/5
f 336/4/5 334/4/5 333/4/5
f 337/6/5 335/6/5 334/6/5
f 337/4/5 334/4/5 336/4/5
f 338/6/5 336/6/5 332/6/5
f 338/6/5 337/6/5 336/6/5
f 339/6/5 337/6/5 338/6/5
f 340/6/5 335/6/5 337/6/5
f 340/6/5 337/6/5 339/6/5
f 341/6/5 335/6/5 340/6/5
f 342/4/5 339/4/5 338/4/5
f 343/6/5 340/6/5 339/6/5
f 343/4/5 339/4/5 342/4/5
f 344/4/5 341/4/5 340/4/5
f 344/6/5 340/6/5 343/6/5
f 345/4/5 341/4/5 344/4/5
f 346/4/5 344/4/5 343/4/5
f 347/4/5 344/4/5 346/4/5
f 348/6/5 347/6/5 346/6/5
f 349/6/5 347/6/5 348/6/5
f 353/5/5 351/5/5 350/5/5
f 354/7/5 352/7/5 351/7/5
f 354/5/5 351/5/5 353/5/5
f 355/7/5 352/7/5 354/7/5
f 360/5/5 357/5/5 356/5/5
f 361/7/5 359/7/5 358/7/5
f 362/5/5 360/5/5 356/5/5
f 363/5/5 360/5/5 362/5/5
f 364/7/5 359/7/5 361/7/5
f 365/7/5 359/7/5 364/7/5
f 366/7/5 363/7/5 362/7/5
f 367/5/5 365/5/5 364/5/5
f 368/7/5 366/7/5 362/7/5
f 369/7/5 366/7/5 368/7/5
f 370/5/5 365/5/5 367/5/5
f 371/5/5 365/5/5 370/5/5
f 372/5/5 369/5/5 368/5/5
f 373/7/5 371/7/5 370/7/5
f 374/5/5 372/5/5 368/5/5
f 375/5/5 372/5/5 374/5/5
f 376/7/5 371/7/5 373/7/5
f 377/7/5 371/7/5 376/7/5
f 381/2/5 379/2/5 378/2/5
f 381/2/5 380/2/5 379/2/5
f 382/2/5 380/2/5 381/2/5
f 383/2/5 380/2/5 382/2/5
f 384/2/5 380/2/5 383/2/5
f 385/1/5 383/1/5 382/1/5
f 386/1/5 383/1/5 385/1/5
f 387/2/6 388/2/6 391/2/6
f 391/2/6 388/2/6 392/2/6
f 389/2/6 390/2/6 393/2/6
f 393/2/6 390/2/6 394/2/6
f 395/7/6 396/7/6 401/7/6
f 396/5/6 397/5/6 402/5/6
f 401/7/6 396/7/6 402/7/6
f 397/7/6 398/7/6 403/7/6
f 402/5/6 397/5/6 403/5/6
f 398/5/6 399/5/6 404/5/6
f 403/7/6 398/7/6 404/7/6
f 404/5/6 399/5/6 405/5/6
f 400/7/6 401/7/6 407/7/6
f 407/7/6 401/7/6 408/7/6
f 405/5/6 406/5/6 409/5/6
f 409/5/6 406/5/6 410/5/6
f 407/5/6 408/5/6 411/5/6
f 411/5/6 408/5/6 412/5/6
f 409/7/6 410/7/6 413/7/6
f 413/7/6 410/7/6 414/7/6
f 411/7/6 412/7/6 415/7/6
f 415/7/6 412/7/6 416/7/6
f 413/5/6 414/5/6 417/5/6
f 417/5/6 414/5/6 418/5/6
f 415/5/6 416/5/6 419/5/6
f 419/5/6 416/5/6 420/5/6
f 417/7/6 418/7/6 421/7/6
f 421/7/6 418/7/6 422/7/6
f 419/7/6 420/7/6 423/7/6
f 423/7/6 420/7/6 424/7/6
f 421/5/6 422/5/6 425/5/6
f 425/5/6 422/5/6 426/5/6
f 427/1/6 428/1/6 429/1/6
f 429/1/6 428/1/6 430/1/6
f 431/5/6 432/5/6 435/5/6
f 435/5/6 432/5/6 436/5/6
f 433/7/6 434/7/6 437/7/6
f 437/7/6 434/7/6 438/7/6
f 439/5/6 440/5/6 444/5/6
f 440/7/6 441/7/6 445/7/6
f 444/5/6 440/5/6 445/5/6
f 441/5/6 442/5/6 446/5/6
f 445/7/6 441/7/6 446/7/6
f 442/7/6 443/7/6 447/7/6
f 446/5/6 442/5/6 447/5/6
f 447/7/6 443/7/6 448/7/6
f 449/7/6 450/7/6 453/7/6
f 450/5/6 451/5/6 454/5/6
f 453/7/6 450/7/6 454/7/6
f 454/5/6 451/5/6 455/5/6
f 452/7/6 453/7/6 457/7/6
f 453/5/6 454/5/6 458/5/6
f 457/7/6 453/7/6 458/7/6
f 454/7/6 455/7/6 459/7/6
f 458/5/6 454/5/6 459/5/6
f 455/5/6 456/5/6 460/5/6
f 459/7/6 455/7/6 460/7/6
f 460/5/6 456/5/6 461/5/6
f 457/5/6 458/5/6 462/5/6
f 458/7/6 459/7/6 463/7/6
f 462/5/6 458/5/6 463/5/6
f 459/5/6 460/5/6 464/5/6
f 463/7/6 459/7/6 464/7/6
f 460/7/6 461/7/6 465/7/6
f 464/5/6 460/5/6 465/5/6
f 465/7/6 461/7/6 466/7/6
f 462/7/6 463/7/6 467/7/6
f 463/5/6 464/5/6 468/5/6
f 467/7/6 463/7/6 468/7/6
f 464/7/6 465/7/6 469/7/6
f 468/5/6 464/5/6 469/5/6
f 465/5/6 466/5/6 470/5/6
f 469/7/6 465/7/6 470/7/6
f 470/5/6 466/5/6 471/5/6
f 467/5/6 468/5/6 472/5/6
f 468/7/6 469/7/6 473/7/6
f 472/5/6 468/5/6 473/5/6
f 469/5/6 470/5/6 474/5/6
f 473/7/6 469/7/6 474/7/6
f 470/7/6 471/7/6 475/7/6
f 474/5/6 470/5/6 475/5/6
f 475/7/6 471/7/6 476/7/6
f 477/2/6 478/2/6 479/2/6
f 479/2/6 478/2/6 480/2/6
f 481/2/6 482/2/6 483/2/6
f 483/2/6 482/2/6 484/2/6
