# MagicaVoxel @ Ephtracy

# material
mtllib Turtle.mtl
usemtl palette

# normals
vn -1 0 0
vn 1 0 0
vn 0 0 1
vn 0 0 -1
vn 0 -1 0
vn 0 1 0

# texcoords
vt 0.658203 0.5
vt 0.751953 0.5
vt 0.755859 0.5
vt 0.783203 0.5
vt 0.787109 0.5
vt 0.794922 0.5
vt 0.943359 0.5
vt 0.947266 0.5

# verts
v -6 0 -5
v -6 0 -6
v -6 1 -5
v -6 1 -6
v -5 0 -4
v -5 0 -5
v -5 1 -5
v -5 2 -4
v -5 2 -5
v -4 0 7
v -4 0 6
v -4 0 -3
v -4 0 -4
v -4 1 7
v -4 1 6
v -4 2 -3
v -4 2 -4
v -3 0 6
v -3 0 5
v -3 1 7
v -3 1 6
v -3 2 7
v -3 2 5
v -3 2 4
v -3 2 2
v -3 2 -0
v -3 2 -2
v -3 2 -3
v -3 2 -4
v -3 3 5
v -3 3 4
v -3 3 2
v -3 3 -0
v -3 3 -2
v -3 3 -4
v -2 0 5
v -2 0 4
v -2 0 -2
v -2 0 -3
v -2 1 4
v -2 1 2
v -2 1 1
v -2 1 -1
v -2 1 -2
v -2 2 6
v -2 2 5
v -2 2 4
v -2 2 2
v -2 2 1
v -2 2 -0
v -2 2 -1
v -2 2 -2
v -2 2 -3
v -2 3 6
v -2 3 5
v -2 3 4
v -2 3 2
v -2 3 -0
v -2 3 -2
v -2 3 -4
v -2 4 5
v -2 4 4
v -2 4 -3
v -2 4 -4
v -2 5 4
v -2 5 2
v -2 5 -0
v -2 5 -2
v -2 5 -3
v -1 0 4
v -1 0 2
v -1 0 1
v -1 0 -1
v -1 0 -2
v -1 1 4
v -1 1 2
v -1 1 1
v -1 1 -1
v -1 1 -2
v -1 2 -4
v -1 2 -8
v -1 3 -4
v -1 4 5
v -1 4 4
v -1 4 -4
v -1 4 -5
v -1 4 -6
v -1 5 5
v -1 5 4
v -1 5 -5
v -1 5 -6
v -1 5 -7
v -1 5 -8
v -1 6 -4
v -1 6 -7
v 0 5 3
v 0 5 2
v 0 5 -0
v 0 5 -1
v 0 6 3
v 0 6 2
v 0 6 -0
v 0 6 -1
v 3 0 6
v 3 0 5
v 3 1 5
v 3 2 6
v 3 2 5
v 4 0 7
v 4 0 6
v 4 0 -3
v 4 0 -4
v 4 1 -3
v 4 1 -4
v 4 2 7
v 4 2 6
v 5 0 -4
v 5 0 -5
v 5 2 -4
v 5 2 -5
v 6 0 -5
v 6 0 -6
v 6 1 -5
v 6 1 -6
v -4 0 -5
v -4 0 -6
v -4 1 -5
v -4 1 -6
v -3 0 -4
v -3 0 -5
v -3 2 -4
v -3 2 -5
v -2 0 7
v -2 0 6
v -2 0 -3
v -2 0 -4
v -2 1 -3
v -2 1 -4
v -2 2 7
v -2 2 6
v -1 0 6
v -1 0 5
v -1 1 5
v -1 2 6
v -1 2 5
v 2 5 3
v 2 5 2
v 2 5 -0
v 2 5 -1
v 2 6 3
v 2 6 2
v 2 6 -0
v 2 6 -1
v 3 0 4
v 3 0 2
v 3 0 1
v 3 0 -1
v 3 0 -2
v 3 1 4
v 3 1 2
v 3 1 1
v 3 1 -1
v 3 1 -2
v 3 2 -4
v 3 2 -8
v 3 3 -4
v 3 4 5
v 3 4 4
v 3 4 -4
v 3 4 -5
v 3 4 -6
v 3 5 5
v 3 5 4
v 3 5 -5
v 3 5 -6
v 3 5 -7
v 3 5 -8
v 3 6 -4
v 3 6 -7
v 4 0 5
v 4 0 4
v 4 1 4
v 4 1 2
v 4 1 1
v 4 1 -1
v 4 1 -2
v 4 2 6
v 4 2 5
v 4 2 4
v 4 2 2
v 4 2 1
v 4 2 -0
v 4 2 -1
v 4 2 -2
v 4 3 6
v 4 3 5
v 4 3 4
v 4 3 2
v 4 3 -0
v 4 3 -2
v 4 3 -4
v 4 4 5
v 4 4 4
v 4 4 -3
v 4 4 -4
v 4 5 4
v 4 5 2
v 4 5 -0
v 4 5 -2
v 4 5 -3
v 5 0 6
v 5 0 5
v 5 0 -2
v 5 0 -3
v 5 1 7
v 5 1 6
v 5 2 7
v 5 2 5
v 5 2 4
v 5 2 2
v 5 2 -0
v 5 2 -2
v 5 2 -3
v 5 2 -4
v 5 3 5
v 5 3 4
v 5 3 2
v 5 3 -0
v 5 3 -2
v 5 3 -4
v 6 0 7
v 6 0 6
v 6 0 -3
v 6 0 -4
v 6 1 7
v 6 1 6
v 6 2 -3
v 6 2 -4
v 7 0 -4
v 7 0 -5
v 7 1 -5
v 7 2 -4
v 7 2 -5
v 8 0 -5
v 8 0 -6
v 8 1 -5
v 8 1 -6
v -4 0 7
v -4 1 7
v -3 1 7
v -3 2 7
v -2 0 7
v -2 2 7
v 4 0 7
v 4 2 7
v 5 1 7
v 5 2 7
v 6 0 7
v 6 1 7
v -2 0 6
v -2 2 6
v -2 3 6
v -1 0 6
v -1 2 6
v -1 3 6
v 1 2 6
v 1 3 6
v 3 0 6
v 3 2 6
v 3 3 6
v 4 0 6
v 4 2 6
v 4 3 6
v -3 2 5
v -3 3 5
v -2 2 5
v -2 3 5
v -2 4 5
v -1 0 5
v -1 1 5
v -1 2 5
v -1 3 5
v -1 4 5
v -1 5 5
v 1 2 5
v 1 3 5
v 1 5 5
v 3 0 5
v 3 1 5
v 3 2 5
v 3 3 5
v 3 4 5
v 3 5 5
v 4 2 5
v 4 3 5
v 4 4 5
v 5 2 5
v 5 3 5
v -2 4 4
v -2 5 4
v -1 4 4
v -1 5 4
v 3 4 4
v 3 5 4
v 4 4 4
v 4 5 4
v 0 5 3
v 0 6 3
v 1 5 3
v 1 6 3
v 2 5 3
v 2 6 3
v -2 0 -2
v -2 1 -2
v -1 0 -2
v -1 1 -2
v 3 0 -2
v 3 1 -2
v 4 1 -2
v 4 2 -2
v 5 0 -2
v 5 2 -2
v -4 0 -3
v -4 2 -3
v -3 2 -3
v -2 0 -3
v -2 2 -3
v 5 0 -3
v 5 2 -3
v 6 0 -3
v 6 2 -3
v -5 0 -4
v -5 2 -4
v -4 0 -4
v -4 2 -4
v -1 4 -4
v -1 6 -4
v 1 4 -4
v 3 4 -4
v 3 6 -4
v 6 0 -4
v 6 2 -4
v 7 0 -4
v 7 2 -4
v -6 0 -5
v -6 1 -5
v -5 0 -5
v -5 1 -5
v 7 0 -5
v 7 1 -5
v 8 0 -5
v 8 1 -5
v -4 0 6
v -4 1 6
v -3 0 6
v -3 1 6
v 5 0 6
v 5 1 6
v 6 0 6
v 6 1 6
v -3 0 5
v -3 2 5
v -2 0 5
v -2 2 5
v 4 0 5
v 4 2 5
v 5 0 5
v 5 2 5
v -2 0 4
v -2 1 4
v -1 0 4
v -1 1 4
v 3 0 4
v 3 1 4
v 4 0 4
v 4 1 4
v 0 5 -1
v 0 6 -1
v 1 5 -1
v 1 6 -1
v 2 5 -1
v 2 6 -1
v -2 0 -3
v -2 1 -3
v -2 4 -3
v -2 5 -3
v -1 0 -3
v -1 1 -3
v -1 4 -3
v -1 5 -3
v 1 4 -3
v 1 5 -3
v 3 0 -3
v 3 1 -3
v 3 4 -3
v 3 5 -3
v 4 0 -3
v 4 1 -3
v 4 4 -3
v 4 5 -3
v -3 0 -4
v -3 2 -4
v -3 3 -4
v -2 0 -4
v -2 1 -4
v -2 3 -4
v -2 4 -4
v -1 1 -4
v -1 2 -4
v -1 3 -4
v -1 4 -4
v 3 1 -4
v 3 2 -4
v 3 3 -4
v 3 4 -4
v 4 0 -4
v 4 1 -4
v 4 3 -4
v 4 4 -4
v 5 0 -4
v 5 2 -4
v 5 3 -4
v -5 1 -5
v -5 2 -5
v -4 0 -5
v -4 1 -5
v -3 0 -5
v -3 2 -5
v 5 0 -5
v 5 2 -5
v 6 0 -5
v 6 1 -5
v 7 1 -5
v 7 2 -5
v -6 0 -6
v -6 1 -6
v -4 0 -6
v -4 1 -6
v 6 0 -6
v 6 1 -6
v 8 0 -6
v 8 1 -6
v -1 5 -7
v -1 6 -7
v 3 5 -7
v 3 6 -7
v -1 2 -8
v -1 5 -8
v 3 2 -8
v 3 5 -8
v -4 0 7
v -2 0 7
v 4 0 7
v 6 0 7
v -4 0 6
v -3 0 6
v -2 0 6
v -1 0 6
v 3 0 6
v 4 0 6
v 5 0 6
v 6 0 6
v -3 0 5
v -2 0 5
v -1 0 5
v 3 0 5
v 4 0 5
v 5 0 5
v -2 0 4
v -1 0 4
v 3 0 4
v 4 0 4
v -1 0 2
v 3 0 2
v -1 0 1
v 3 0 1
v -1 0 -1
v 3 0 -1
v -2 0 -2
v -1 0 -2
v 3 0 -2
v 5 0 -2
v -4 0 -3
v -2 0 -3
v -1 0 -3
v 3 0 -3
v 4 0 -3
v 5 0 -3
v 6 0 -3
v -5 0 -4
v -4 0 -4
v -3 0 -4
v -2 0 -4
v 4 0 -4
v 5 0 -4
v 6 0 -4
v 7 0 -4
v -6 0 -5
v -5 0 -5
v -4 0 -5
v -3 0 -5
v 5 0 -5
v 6 0 -5
v 7 0 -5
v 8 0 -5
v -6 0 -6
v -4 0 -6
v 6 0 -6
v 8 0 -6
v -2 1 4
v -1 1 4
v 3 1 4
v 4 1 4
v -2 1 2
v -1 1 2
v 3 1 2
v 4 1 2
v -2 1 1
v -1 1 1
v 3 1 1
v 4 1 1
v -2 1 -1
v -1 1 -1
v 3 1 -1
v 4 1 -1
v -2 1 -2
v -1 1 -2
v 3 1 -2
v 4 1 -2
v -2 1 -3
v -1 1 -3
v 3 1 -3
v 4 1 -3
v -2 1 -4
v -1 1 -4
v 3 1 -4
v 4 1 -4
v -1 2 6
v 1 2 6
v 3 2 6
v -3 2 5
v -2 2 5
v -1 2 5
v 1 2 5
v 3 2 5
v 4 2 5
v 5 2 5
v -3 2 4
v -2 2 4
v 4 2 4
v 5 2 4
v -3 2 2
v -2 2 2
v 4 2 2
v 5 2 2
v -2 2 1
v 4 2 1
v -3 2 -0
v -2 2 -0
v 4 2 -0
v 5 2 -0
v -2 2 -1
v 4 2 -1
v -3 2 -2
v -2 2 -2
v 4 2 -2
v 5 2 -2
v -3 2 -3
v -2 2 -3
v -1 2 -4
v 3 2 -4
v -1 2 -8
v 3 2 -8
v -4 1 7
v -3 1 7
v 5 1 7
v 6 1 7
v -4 1 6
v -3 1 6
v 5 1 6
v 6 1 6
v -6 1 -5
v -5 1 -5
v -4 1 -5
v 6 1 -5
v 7 1 -5
v 8 1 -5
v -6 1 -6
v -4 1 -6
v 6 1 -6
v 8 1 -6
v -3 2 7
v -2 2 7
v 4 2 7
v 5 2 7
v -2 2 6
v 4 2 6
v -3 2 5
v -2 2 5
v 4 2 5
v 5 2 5
v -4 2 -3
v -3 2 -3
v 5 2 -3
v 6 2 -3
v -5 2 -4
v -4 2 -4
v -3 2 -4
v 5 2 -4
v 6 2 -4
v 7 2 -4
v -5 2 -5
v -3 2 -5
v 5 2 -5
v 7 2 -5
v -2 3 6
v -1 3 6
v 1 3 6
v 3 3 6
v 4 3 6
v -3 3 5
v -2 3 5
v -1 3 5
v 1 3 5
v 3 3 5
v 4 3 5
v 5 3 5
v -3 3 4
v -2 3 4
v 4 3 4
v 5 3 4
v -3 3 2
v -2 3 2
v 4 3 2
v 5 3 2
v -3 3 -0
v -2 3 -0
v 4 3 -0
v 5 3 -0
v -3 3 -2
v -2 3 -2
v 4 3 -2
v 5 3 -2
v -3 3 -4
v -2 3 -4
v 4 3 -4
v 5 3 -4
v -2 4 5
v -1 4 5
v 3 4 5
v 4 4 5
v -2 4 4
v -1 4 4
v 3 4 4
v 4 4 4
v -2 4 -3
v -1 4 -3
v 1 4 -3
v 3 4 -3
v 4 4 -3
v -2 4 -4
v -1 4 -4
v 1 4 -4
v 3 4 -4
v 4 4 -4
v -1 5 5
v 1 5 5
v 3 5 5
v -2 5 4
v -1 5 4
v 1 5 4
v 3 5 4
v 4 5 4
v 0 5 3
v 1 5 3
v 2 5 3
v -2 5 2
v -1 5 2
v 0 5 2
v 2 5 2
v 3 5 2
v 4 5 2
v -2 5 -0
v -1 5 -0
v 0 5 -0
v 2 5 -0
v 3 5 -0
v 4 5 -0
v 0 5 -1
v 1 5 -1
v 2 5 -1
v -2 5 -2
v -1 5 -2
v 1 5 -2
v 3 5 -2
v 4 5 -2
v -2 5 -3
v -1 5 -3
v 1 5 -3
v 3 5 -3
v 4 5 -3
v -1 5 -7
v 3 5 -7
v -1 5 -8
v 3 5 -8
v 0 6 3
v 1 6 3
v 2 6 3
v 0 6 2
v 1 6 2
v 2 6 2
v 0 6 -0
v 1 6 -0
v 2 6 -0
v 0 6 -1
v 1 6 -1
v 2 6 -1
v -1 6 -4
v 3 6 -4
v -1 6 -7
v 3 6 -7

# faces
f 3/1/1 2/1/1 1/1/1
f 4/1/1 2/1/1 3/1/1
f 7/1/1 6/1/1 5/1/1
f 8/1/1 7/1/1 5/1/1
f 9/1/1 7/1/1 8/1/1
f 14/1/1 11/1/1 10/1/1
f 15/1/1 11/1/1 14/1/1
f 16/1/1 13/1/1 12/1/1
f 17/1/1 13/1/1 16/1/1
f 21/1/1 19/1/1 18/1/1
f 22/1/1 21/1/1 20/1/1
f 23/1/1 19/1/1 21/1/1
f 23/1/1 21/1/1 22/1/1
f 30/6/1 24/6/1 23/6/1
f 31/4/1 25/4/1 24/4/1
f 31/6/1 24/6/1 30/6/1
f 32/6/1 26/6/1 25/6/1
f 32/4/1 25/4/1 31/4/1
f 33/4/1 27/4/1 26/4/1
f 33/6/1 26/6/1 32/6/1
f 34/6/1 29/6/1 28/6/1
f 34/4/1 27/4/1 33/4/1
f 34/6/1 28/6/1 27/6/1
f 35/6/1 29/6/1 34/6/1
f 40/1/1 37/1/1 36/1/1
f 44/1/1 39/1/1 38/1/1
f 46/1/1 40/1/1 36/1/1
f 47/5/1 41/5/1 40/5/1
f 47/1/1 40/1/1 46/1/1
f 48/3/1 42/3/1 41/3/1
f 48/5/1 41/5/1 47/5/1
f 49/5/1 43/5/1 42/5/1
f 49/3/1 42/3/1 48/3/1
f 50/5/1 43/5/1 49/5/1
f 51/3/1 44/3/1 43/3/1
f 51/5/1 43/5/1 50/5/1
f 52/1/1 39/1/1 44/1/1
f 52/3/1 44/3/1 51/3/1
f 53/1/1 39/1/1 52/1/1
f 54/6/1 46/6/1 45/6/1
f 55/6/1 46/6/1 54/6/1
f 61/4/1 56/4/1 55/4/1
f 62/6/1 57/6/1 56/6/1
f 62/4/1 56/4/1 61/4/1
f 63/4/1 60/4/1 59/4/1
f 64/4/1 60/4/1 63/4/1
f 65/6/1 57/6/1 62/6/1
f 66/4/1 58/4/1 57/4/1
f 66/6/1 57/6/1 65/6/1
f 67/6/1 59/6/1 58/6/1
f 67/4/1 58/4/1 66/4/1
f 68/4/1 63/4/1 59/4/1
f 68/6/1 59/6/1 67/6/1
f 69/4/1 63/4/1 68/4/1
f 75/5/1 71/5/1 70/5/1
f 76/3/1 72/3/1 71/3/1
f 76/5/1 71/5/1 75/5/1
f 77/5/1 73/5/1 72/5/1
f 77/3/1 72/3/1 76/3/1
f 78/3/1 74/3/1 73/3/1
f 78/5/1 73/5/1 77/5/1
f 79/3/1 74/3/1 78/3/1
f 82/1/1 81/1/1 80/1/1
f 85/1/1 81/1/1 82/1/1
f 86/1/1 81/1/1 85/1/1
f 87/1/1 81/1/1 86/1/1
f 88/6/1 84/6/1 83/6/1
f 89/6/1 84/6/1 88/6/1
f 90/1/1 86/1/1 85/1/1
f 90/8/1 87/8/1 86/8/1
f 91/1/1 81/1/1 87/1/1
f 91/8/1 87/8/1 90/8/1
f 92/1/1 81/1/1 91/1/1
f 93/1/1 81/1/1 92/1/1
f 94/1/1 90/1/1 85/1/1
f 94/1/1 92/1/1 91/1/1
f 94/1/1 91/1/1 90/1/1
f 95/1/1 92/1/1 94/1/1
f 100/4/1 97/4/1 96/4/1
f 101/6/1 98/6/1 97/6/1
f 101/4/1 97/4/1 100/4/1
f 102/4/1 99/4/1 98/4/1
f 102/6/1 98/6/1 101/6/1
f 103/4/1 99/4/1 102/4/1
f 106/1/1 105/1/1 104/1/1
f 107/1/1 106/1/1 104/1/1
f 108/1/1 106/1/1 107/1/1
f 113/1/1 112/1/1 111/1/1
f 114/1/1 112/1/1 113/1/1
f 115/1/1 110/1/1 109/1/1
f 116/1/1 110/1/1 115/1/1
f 119/1/1 118/1/1 117/1/1
f 120/1/1 118/1/1 119/1/1
f 123/1/1 122/1/1 121/1/1
f 124/1/1 122/1/1 123/1/1
f 125/1/2 126/1/2 127/1/2
f 127/1/2 126/1/2 128/1/2
f 129/1/2 130/1/2 131/1/2
f 131/1/2 130/1/2 132/1/2
f 135/1/2 136/1/2 137/1/2
f 137/1/2 136/1/2 138/1/2
f 133/1/2 134/1/2 139/1/2
f 139/1/2 134/1/2 140/1/2
f 141/1/2 142/1/2 143/1/2
f 141/1/2 143/1/2 144/1/2
f 144/1/2 143/1/2 145/1/2
f 146/6/2 147/6/2 150/6/2
f 147/4/2 148/4/2 151/4/2
f 150/6/2 147/6/2 151/6/2
f 148/6/2 149/6/2 152/6/2
f 151/4/2 148/4/2 152/4/2
f 152/6/2 149/6/2 153/6/2
f 154/5/2 155/5/2 159/5/2
f 155/3/2 156/3/2 160/3/2
f 159/5/2 155/5/2 160/5/2
f 156/5/2 157/5/2 161/5/2
f 160/3/2 156/3/2 161/3/2
f 157/3/2 158/3/2 162/3/2
f 161/5/2 157/5/2 162/5/2
f 162/3/2 158/3/2 163/3/2
f 164/1/2 165/1/2 166/1/2
f 166/1/2 165/1/2 169/1/2
f 169/1/2 165/1/2 170/1/2
f 170/1/2 165/1/2 171/1/2
f 167/4/2 168/4/2 172/4/2
f 172/4/2 168/4/2 173/4/2
f 169/1/2 170/1/2 174/1/2
f 170/8/2 171/8/2 174/8/2
f 171/1/2 165/1/2 175/1/2
f 174/8/2 171/8/2 175/8/2
f 175/1/2 165/1/2 176/1/2
f 176/1/2 165/1/2 177/1/2
f 169/1/2 174/1/2 178/1/2
f 175/1/2 176/1/2 178/1/2
f 174/1/2 175/1/2 178/1/2
f 178/1/2 176/1/2 179/1/2
f 180/1/2 181/1/2 182/1/2
f 180/1/2 182/1/2 188/1/2
f 182/5/2 183/5/2 189/5/2
f 188/1/2 182/1/2 189/1/2
f 183/3/2 184/3/2 190/3/2
f 189/5/2 183/5/2 190/5/2
f 184/5/2 185/5/2 191/5/2
f 190/3/2 184/3/2 191/3/2
f 191/5/2 185/5/2 192/5/2
f 185/3/2 186/3/2 193/3/2
f 192/5/2 185/5/2 193/5/2
f 193/3/2 186/3/2 194/3/2
f 187/4/2 188/4/2 195/4/2
f 195/4/2 188/4/2 196/4/2
f 196/6/2 197/6/2 202/6/2
f 197/4/2 198/4/2 203/4/2
f 202/6/2 197/6/2 203/6/2
f 200/6/2 201/6/2 204/6/2
f 204/6/2 201/6/2 205/6/2
f 203/4/2 198/4/2 206/4/2
f 198/6/2 199/6/2 207/6/2
f 206/4/2 198/4/2 207/4/2
f 199/4/2 200/4/2 208/4/2
f 207/6/2 199/6/2 208/6/2
f 200/6/2 204/6/2 209/6/2
f 208/4/2 200/4/2 209/4/2
f 209/6/2 204/6/2 210/6/2
f 211/1/2 212/1/2 216/1/2
f 215/1/2 216/1/2 217/1/2
f 216/1/2 212/1/2 218/1/2
f 217/1/2 216/1/2 218/1/2
f 213/1/2 214/1/2 222/1/2
f 222/1/2 214/1/2 223/1/2
f 218/4/2 219/4/2 225/4/2
f 219/6/2 220/6/2 226/6/2
f 225/4/2 219/4/2 226/4/2
f 220/4/2 221/4/2 227/4/2
f 226/6/2 220/6/2 227/6/2
f 221/6/2 222/6/2 228/6/2
f 227/4/2 221/4/2 228/4/2
f 223/4/2 224/4/2 229/4/2
f 228/6/2 222/6/2 229/6/2
f 222/4/2 223/4/2 229/4/2
f 229/4/2 224/4/2 230/4/2
f 231/1/2 232/1/2 235/1/2
f 235/1/2 232/1/2 236/1/2
f 233/1/2 234/1/2 237/1/2
f 237/1/2 234/1/2 238/1/2
f 239/1/2 240/1/2 241/1/2
f 239/1/2 241/1/2 242/1/2
f 242/1/2 241/1/2 243/1/2
f 244/1/2 245/1/2 246/1/2
f 246/1/2 245/1/2 247/1/2
f 250/1/3 249/1/3 248/1/3
f 252/1/3 250/1/3 248/1/3
f 252/1/3 251/1/3 250/1/3
f 253/1/3 251/1/3 252/1/3
f 256/1/3 255/1/3 254/1/3
f 257/1/3 255/1/3 256/1/3
f 258/1/3 256/1/3 254/1/3
f 259/1/3 256/1/3 258/1/3
f 263/1/3 261/1/3 260/1/3
f 264/6/3 262/6/3 261/6/3
f 264/1/3 261/1/3 263/1/3
f 265/6/3 262/6/3 264/6/3
f 266/4/3 265/4/3 264/4/3
f 267/4/3 265/4/3 266/4/3
f 269/6/3 267/6/3 266/6/3
f 270/6/3 267/6/3 269/6/3
f 271/1/3 269/1/3 268/1/3
f 272/4/3 270/4/3 269/4/3
f 272/1/3 269/1/3 271/1/3
f 273/4/3 270/4/3 272/4/3
f 276/6/3 275/6/3 274/6/3
f 277/6/3 275/6/3 276/6/3
f 282/4/3 278/4/3 277/4/3
f 283/4/3 278/4/3 282/4/3
f 285/5/3 281/5/3 280/5/3
f 286/6/3 284/6/3 283/6/3
f 286/6/3 283/6/3 282/6/3
f 287/6/3 284/6/3 286/6/3
f 288/3/3 280/3/3 279/3/3
f 289/5/3 285/5/3 280/5/3
f 289/3/3 280/3/3 288/3/3
f 290/5/3 285/5/3 289/5/3
f 291/4/3 287/4/3 286/4/3
f 292/4/3 287/4/3 291/4/3
f 293/4/3 287/4/3 292/4/3
f 295/6/3 292/6/3 291/6/3
f 296/6/3 292/6/3 295/6/3
f 297/4/3 295/4/3 294/4/3
f 298/4/3 295/4/3 297/4/3
f 301/6/3 300/6/3 299/6/3
f 302/6/3 300/6/3 301/6/3
f 305/4/3 304/4/3 303/4/3
f 306/4/3 304/4/3 305/4/3
f 309/4/3 308/4/3 307/4/3
f 310/4/3 308/4/3 309/4/3
f 311/6/3 310/6/3 309/6/3
f 312/6/3 310/6/3 311/6/3
f 315/1/3 314/1/3 313/1/3
f 316/1/3 314/1/3 315/1/3
f 319/1/3 318/1/3 317/1/3
f 321/1/3 319/1/3 317/1/3
f 321/1/3 320/1/3 319/1/3
f 322/1/3 320/1/3 321/1/3
f 325/1/3 324/1/3 323/1/3
f 326/1/3 325/1/3 323/1/3
f 327/1/3 325/1/3 326/1/3
f 330/1/3 329/1/3 328/1/3
f 331/1/3 329/1/3 330/1/3
f 334/1/3 333/1/3 332/1/3
f 335/1/3 333/1/3 334/1/3
f 338/1/3 337/1/3 336/1/3
f 339/1/3 337/1/3 338/1/3
f 340/1/3 337/1/3 339/1/3
f 343/1/3 342/1/3 341/1/3
f 344/1/3 342/1/3 343/1/3
f 347/1/3 346/1/3 345/1/3
f 348/1/3 346/1/3 347/1/3
f 351/1/3 350/1/3 349/1/3
f 352/1/3 350/1/3 351/1/3
f 353/1/4 354/1/4 355/1/4
f 355/1/4 354/1/4 356/1/4
f 357/1/4 358/1/4 359/1/4
f 359/1/4 358/1/4 360/1/4
f 361/1/4 362/1/4 363/1/4
f 363/1/4 362/1/4 364/1/4
f 365/1/4 366/1/4 367/1/4
f 367/1/4 366/1/4 368/1/4
f 369/1/4 370/1/4 371/1/4
f 371/1/4 370/1/4 372/1/4
f 373/1/4 374/1/4 375/1/4
f 375/1/4 374/1/4 376/1/4
f 377/4/4 378/4/4 379/4/4
f 379/4/4 378/4/4 380/4/4
f 379/6/4 380/6/4 381/6/4
f 381/6/4 380/6/4 382/6/4
f 383/1/4 384/1/4 387/1/4
f 387/1/4 384/1/4 388/1/4
f 385/4/4 386/4/4 389/4/4
f 389/4/4 386/4/4 390/4/4
f 389/6/4 390/6/4 391/6/4
f 391/6/4 390/6/4 392/6/4
f 387/5/4 388/5/4 393/5/4
f 393/5/4 388/5/4 394/5/4
f 391/4/4 392/4/4 395/4/4
f 395/4/4 392/4/4 396/4/4
f 393/1/4 394/1/4 397/1/4
f 397/1/4 394/1/4 398/1/4
f 395/6/4 396/6/4 399/6/4
f 399/6/4 396/6/4 400/6/4
f 401/1/4 402/1/4 404/1/4
f 404/1/4 402/1/4 405/1/4
f 402/6/4 403/6/4 406/6/4
f 405/1/4 402/1/4 408/1/4
f 402/6/4 406/6/4 409/6/4
f 408/1/4 402/1/4 409/1/4
f 406/4/4 407/4/4 410/4/4
f 409/6/4 406/6/4 410/6/4
f 410/4/4 407/4/4 411/4/4
f 408/5/4 409/5/4 412/5/4
f 412/5/4 409/5/4 413/5/4
f 412/1/4 413/1/4 417/1/4
f 414/6/4 415/6/4 418/6/4
f 413/4/4 414/4/4 418/4/4
f 418/6/4 415/6/4 419/6/4
f 416/1/4 417/1/4 420/1/4
f 417/1/4 413/1/4 421/1/4
f 420/1/4 417/1/4 421/1/4
f 413/4/4 418/4/4 421/4/4
f 421/4/4 418/4/4 422/4/4
f 423/1/4 424/1/4 426/1/4
f 425/1/4 426/1/4 427/1/4
f 426/1/4 424/1/4 428/1/4
f 427/1/4 426/1/4 428/1/4
f 429/1/4 430/1/4 431/1/4
f 431/1/4 430/1/4 432/1/4
f 432/1/4 430/1/4 433/1/4
f 433/1/4 430/1/4 434/1/4
f 435/1/4 436/1/4 437/1/4
f 437/1/4 436/1/4 438/1/4
f 439/1/4 440/1/4 441/1/4
f 441/1/4 440/1/4 442/1/4
f 443/1/4 444/1/4 445/1/4
f 445/1/4 444/1/4 446/1/4
f 447/1/4 448/1/4 449/1/4
f 449/1/4 448/1/4 450/1/4
f 455/1/5 452/1/5 451/1/5
f 456/1/5 452/1/5 455/1/5
f 457/1/5 452/1/5 456/1/5
f 460/1/5 454/1/5 453/1/5
f 461/1/5 454/1/5 460/1/5
f 462/1/5 454/1/5 461/1/5
f 463/1/5 458/1/5 457/1/5
f 463/1/5 457/1/5 456/1/5
f 464/1/5 458/1/5 463/1/5
f 465/1/5 458/1/5 464/1/5
f 466/1/5 461/1/5 460/1/5
f 466/1/5 460/1/5 459/1/5
f 467/1/5 461/1/5 466/1/5
f 468/1/5 461/1/5 467/1/5
f 469/1/5 465/1/5 464/1/5
f 470/3/5 466/3/5 465/3/5
f 470/1/5 465/1/5 469/1/5
f 471/1/5 467/1/5 466/1/5
f 471/3/5 466/3/5 470/3/5
f 472/1/5 467/1/5 471/1/5
f 473/5/5 471/5/5 470/5/5
f 474/5/5 471/5/5 473/5/5
f 475/3/5 474/3/5 473/3/5
f 476/3/5 474/3/5 475/3/5
f 477/5/5 476/5/5 475/5/5
f 478/5/5 476/5/5 477/5/5
f 480/3/5 478/3/5 477/3/5
f 481/3/5 478/3/5 480/3/5
f 484/1/5 480/1/5 479/1/5
f 485/5/5 481/5/5 480/5/5
f 485/1/5 480/1/5 484/1/5
f 486/1/5 482/1/5 481/1/5
f 486/5/5 481/5/5 485/5/5
f 487/1/5 482/1/5 486/1/5
f 488/1/5 482/1/5 487/1/5
f 491/1/5 484/1/5 483/1/5
f 492/1/5 484/1/5 491/1/5
f 493/1/5 484/1/5 492/1/5
f 494/1/5 488/1/5 487/1/5
f 494/1/5 489/1/5 488/1/5
f 495/1/5 489/1/5 494/1/5
f 496/1/5 489/1/5 495/1/5
f 499/1/5 492/1/5 491/1/5
f 499/1/5 491/1/5 490/1/5
f 500/1/5 492/1/5 499/1/5
f 501/1/5 492/1/5 500/1/5
f 502/1/5 496/1/5 495/1/5
f 502/1/5 497/1/5 496/1/5
f 503/1/5 497/1/5 502/1/5
f 504/1/5 497/1/5 503/1/5
f 506/1/5 500/1/5 499/1/5
f 506/1/5 499/1/5 498/1/5
f 507/1/5 500/1/5 506/1/5
f 508/1/5 505/1/5 504/1/5
f 508/1/5 504/1/5 503/1/5
f 509/1/5 505/1/5 508/1/5
f 514/5/5 511/5/5 510/5/5
f 515/5/5 511/5/5 514/5/5
f 516/5/5 513/5/5 512/5/5
f 517/5/5 513/5/5 516/5/5
f 518/3/5 515/3/5 514/3/5
f 519/3/5 515/3/5 518/3/5
f 520/3/5 517/3/5 516/3/5
f 521/3/5 517/3/5 520/3/5
f 522/5/5 519/5/5 518/5/5
f 523/5/5 519/5/5 522/5/5
f 524/5/5 521/5/5 520/5/5
f 525/5/5 521/5/5 524/5/5
f 526/3/5 523/3/5 522/3/5
f 527/3/5 523/3/5 526/3/5
f 528/3/5 525/3/5 524/3/5
f 529/3/5 525/3/5 528/3/5
f 534/1/5 531/1/5 530/1/5
f 535/5/5 532/5/5 531/5/5
f 535/1/5 531/1/5 534/1/5
f 536/1/5 533/1/5 532/1/5
f 536/5/5 532/5/5 535/5/5
f 537/1/5 533/1/5 536/1/5
f 543/4/5 539/4/5 538/4/5
f 544/6/5 540/6/5 539/6/5
f 544/4/5 539/4/5 543/4/5
f 545/6/5 540/6/5 544/6/5
f 548/6/5 542/6/5 541/6/5
f 549/6/5 542/6/5 548/6/5
f 550/4/5 547/4/5 546/4/5
f 551/4/5 547/4/5 550/4/5
f 552/4/5 549/4/5 548/4/5
f 553/4/5 549/4/5 552/4/5
f 554/6/5 551/6/5 550/6/5
f 555/6/5 551/6/5 554/6/5
f 556/6/5 553/6/5 552/6/5
f 557/4/5 555/4/5 554/4/5
f 558/6/5 556/6/5 552/6/5
f 559/6/5 556/6/5 558/6/5
f 560/4/5 555/4/5 557/4/5
f 561/4/5 555/4/5 560/4/5
f 562/4/5 559/4/5 558/4/5
f 563/6/5 561/6/5 560/6/5
f 564/4/5 562/4/5 558/4/5
f 565/4/5 562/4/5 564/4/5
f 566/6/5 561/6/5 563/6/5
f 567/6/5 561/6/5 566/6/5
f 568/6/5 565/6/5 564/6/5
f 569/6/5 565/6/5 568/6/5
f 572/1/5 571/1/5 570/1/5
f 573/1/5 571/1/5 572/1/5
f 574/1/6 575/1/6 578/1/6
f 578/1/6 575/1/6 579/1/6
f 576/1/6 577/1/6 580/1/6
f 580/1/6 577/1/6 581/1/6
f 583/1/6 584/1/6 588/1/6
f 582/1/6 583/1/6 588/1/6
f 588/1/6 584/1/6 589/1/6
f 586/1/6 587/1/6 590/1/6
f 585/1/6 586/1/6 590/1/6
f 590/1/6 587/1/6 591/1/6
f 592/1/6 593/1/6 596/1/6
f 594/1/6 595/1/6 597/1/6
f 592/1/6 596/1/6 598/1/6
f 598/1/6 596/1/6 599/1/6
f 597/1/6 595/1/6 600/1/6
f 600/1/6 595/1/6 601/1/6
f 602/1/6 603/1/6 607/1/6
f 607/1/6 603/1/6 608/1/6
f 604/1/6 605/1/6 609/1/6
f 609/1/6 605/1/6 610/1/6
f 607/1/6 608/1/6 612/1/6
f 606/1/6 607/1/6 612/1/6
f 612/1/6 608/1/6 613/1/6
f 610/1/6 611/1/6 614/1/6
f 609/1/6 610/1/6 614/1/6
f 614/1/6 611/1/6 615/1/6
f 616/6/6 617/6/6 622/6/6
f 617/4/6 618/4/6 623/4/6
f 622/6/6 617/6/6 623/6/6
f 618/6/6 619/6/6 624/6/6
f 623/4/6 618/4/6 624/4/6
f 619/4/6 620/4/6 625/4/6
f 624/6/6 619/6/6 625/6/6
f 625/4/6 620/4/6 626/4/6
f 621/6/6 622/6/6 628/6/6
f 628/6/6 622/6/6 629/6/6
f 626/4/6 627/4/6 630/4/6
f 630/4/6 627/4/6 631/4/6
f 628/4/6 629/4/6 632/4/6
f 632/4/6 629/4/6 633/4/6
f 630/6/6 631/6/6 634/6/6
f 634/6/6 631/6/6 635/6/6
f 632/6/6 633/6/6 636/6/6
f 636/6/6 633/6/6 637/6/6
f 634/4/6 635/4/6 638/4/6
f 638/4/6 635/4/6 639/4/6
f 636/4/6 637/4/6 640/4/6
f 640/4/6 637/4/6 641/4/6
f 638/6/6 639/6/6 642/6/6
f 642/6/6 639/6/6 643/6/6
f 640/6/6 641/6/6 644/6/6
f 644/6/6 641/6/6 645/6/6
f 642/4/6 643/4/6 646/4/6
f 646/4/6 643/4/6 647/4/6
f 648/4/6 649/4/6 652/4/6
f 652/4/6 649/4/6 653/4/6
f 650/6/6 651/6/6 654/6/6
f 654/6/6 651/6/6 655/6/6
f 656/4/6 657/4/6 661/4/6
f 657/6/6 658/6/6 662/6/6
f 661/4/6 657/4/6 662/4/6
f 658/4/6 659/4/6 663/4/6
f 662/6/6 658/6/6 663/6/6
f 659/6/6 660/6/6 664/6/6
f 663/4/6 659/4/6 664/4/6
f 664/6/6 660/6/6 665/6/6
f 666/6/6 667/6/6 670/6/6
f 667/4/6 668/4/6 671/4/6
f 670/6/6 667/6/6 671/6/6
f 671/4/6 668/4/6 672/4/6
f 670/4/6 671/4/6 674/4/6
f 671/6/6 672/6/6 675/6/6
f 674/4/6 671/4/6 675/4/6
f 675/6/6 672/6/6 676/6/6
f 669/6/6 670/6/6 677/6/6
f 670/4/6 674/4/6 678/4/6
f 677/6/6 670/6/6 678/6/6
f 678/4/6 674/4/6 679/4/6
f 676/6/6 672/6/6 680/6/6
f 672/4/6 673/4/6 681/4/6
f 680/6/6 672/6/6 681/6/6
f 681/4/6 673/4/6 682/4/6
f 677/4/6 678/4/6 683/4/6
f 678/6/6 679/6/6 684/6/6
f 683/4/6 678/4/6 684/4/6
f 684/6/6 679/6/6 685/6/6
f 680/4/6 681/4/6 686/4/6
f 681/6/6 682/6/6 687/6/6
f 686/4/6 681/4/6 687/4/6
f 687/6/6 682/6/6 688/6/6
f 684/4/6 685/4/6 689/4/6
f 686/6/6 687/6/6 691/6/6
f 683/6/6 684/6/6 692/6/6
f 689/4/6 690/4/6 693/4/6
f 692/6/6 684/6/6 693/6/6
f 684/4/6 689/4/6 693/4/6
f 690/6/6 691/6/6 694/6/6
f 693/4/6 690/4/6 694/4/6
f 687/4/6 688/4/6 695/4/6
f 694/6/6 691/6/6 695/6/6
f 691/6/6 687/6/6 695/6/6
f 695/4/6 688/4/6 696/4/6
f 692/4/6 693/4/6 697/4/6
f 693/6/6 694/6/6 698/6/6
f 697/4/6 693/4/6 698/4/6
f 694/4/6 695/4/6 699/4/6
f 698/6/6 694/6/6 699/6/6
f 695/6/6 696/6/6 700/6/6
f 699/4/6 695/4/6 700/4/6
f 700/6/6 696/6/6 701/6/6
f 702/1/6 703/1/6 704/1/6
f 704/1/6 703/1/6 705/1/6
f 706/4/6 707/4/6 709/4/6
f 707/6/6 708/6/6 710/6/6
f 709/4/6 707/4/6 710/4/6
f 710/6/6 708/6/6 711/6/6
f 709/6/6 710/6/6 712/6/6
f 710/4/6 711/4/6 713/4/6
f 712/6/6 710/6/6 713/6/6
f 713/4/6 711/4/6 714/4/6
f 712/4/6 713/4/6 715/4/6
f 713/6/6 714/6/6 716/6/6
f 715/4/6 713/4/6 716/4/6
f 716/6/6 714/6/6 717/6/6
f 718/1/6 719/1/6 720/1/6
f 720/1/6 719/1/6 721/1/6
