# MagicaVoxel @ Ephtracy

# material
mtllib DonatelloTest.mtl
usemtl palette

# normals
vn -1 0 0
vn 1 0 0
vn 0 0 1
vn 0 0 -1
vn 0 -1 0
vn 0 1 0

# texcoords
vt 0.0957031 0.5
vt 0.193359 0.5
vt 0.197266 0.5
vt 0.380859 0.5
vt 0.658203 0.5
vt 0.751953 0.5
vt 0.755859 0.5
vt 0.783203 0.5
vt 0.787109 0.5
vt 0.794922 0.5
vt 0.943359 0.5

# verts
v -3 0 6
v -3 0 4
v -3 0 -2
v -3 0 -4
v -3 2 6
v -3 2 5
v -3 2 4
v -3 2 2
v -3 2 -0
v -3 2 -2
v -3 2 -4
v -3 3 5
v -3 3 4
v -3 3 2
v -3 3 -0
v -3 3 -2
v -3 3 -4
v -2 1 4
v -2 1 3
v -2 1 2
v -2 1 1
v -2 1 -1
v -2 1 -2
v -2 2 6
v -2 2 5
v -2 2 4
v -2 2 3
v -2 2 2
v -2 2 1
v -2 2 -0
v -2 2 -1
v -2 2 -2
v -2 3 6
v -2 3 5
v -2 3 4
v -2 3 2
v -2 3 -0
v -2 3 -2
v -2 3 -4
v -2 4 5
v -2 4 4
v -2 4 2
v -2 4 -0
v -2 4 -2
v -2 4 -4
v -2 5 5
v -2 5 4
v -2 5 -3
v -2 5 -4
v -2 6 4
v -2 6 2
v -2 6 -0
v -2 6 -2
v -2 6 -3
v -1 3 -4
v -1 3 -8
v -1 4 -4
v -1 5 5
v -1 5 4
v -1 5 -4
v -1 5 -5
v -1 5 -6
v -1 5 -8
v -1 6 5
v -1 6 4
v -1 6 3
v -1 6 -4
v -1 6 -5
v -1 6 -6
v -1 6 -7
v -1 6 -8
v -1 7 5
v -1 7 3
v -1 7 -4
v -1 7 -7
v 0 3 -8
v 0 3 -9
v 0 4 -8
v 0 4 -9
v 0 6 3
v 0 6 2
v 0 6 1
v 0 7 3
v 0 7 2
v 0 7 1
v 1 6 1
v 1 6 -0
v 1 6 -1
v 1 7 1
v 1 7 -0
v 1 7 -1
v 2 6 -1
v 2 6 -2
v 2 6 -3
v 2 7 -1
v 2 7 -3
v 3 0 6
v 3 0 4
v 3 0 -2
v 3 0 -4
v 3 1 5
v 3 1 4
v 3 1 -2
v 3 1 -3
v 3 1 -4
v 3 2 6
v 3 2 5
v -1 0 6
v -1 0 4
v -1 0 -2
v -1 0 -4
v -1 1 5
v -1 1 4
v -1 1 -2
v -1 1 -3
v -1 1 -4
v -1 2 6
v -1 2 5
v 0 6 5
v 0 6 4
v 0 6 3
v 0 7 5
v 0 7 3
v 1 6 3
v 1 6 2
v 1 6 1
v 1 7 3
v 1 7 2
v 1 7 1
v 2 3 -8
v 2 3 -9
v 2 4 -8
v 2 4 -9
v 2 6 1
v 2 6 -0
v 2 6 -1
v 2 7 1
v 2 7 -0
v 2 7 -1
v 3 3 -4
v 3 3 -8
v 3 4 -4
v 3 5 5
v 3 5 4
v 3 5 -4
v 3 5 -5
v 3 5 -6
v 3 5 -8
v 3 6 5
v 3 6 4
v 3 6 -1
v 3 6 -2
v 3 6 -3
v 3 6 -4
v 3 6 -5
v 3 6 -6
v 3 6 -7
v 3 6 -8
v 3 7 -1
v 3 7 -3
v 3 7 -4
v 3 7 -7
v 4 1 4
v 4 1 3
v 4 1 2
v 4 1 1
v 4 1 -1
v 4 1 -2
v 4 2 6
v 4 2 5
v 4 2 4
v 4 2 3
v 4 2 2
v 4 2 1
v 4 2 -0
v 4 2 -1
v 4 2 -2
v 4 3 6
v 4 3 5
v 4 3 4
v 4 3 2
v 4 3 -0
v 4 3 -2
v 4 3 -4
v 4 4 5
v 4 4 4
v 4 4 2
v 4 4 -0
v 4 4 -2
v 4 4 -4
v 4 5 5
v 4 5 4
v 4 5 -3
v 4 5 -4
v 4 6 4
v 4 6 2
v 4 6 -0
v 4 6 -2
v 4 6 -3
v 5 0 6
v 5 0 4
v 5 0 -2
v 5 0 -4
v 5 2 6
v 5 2 5
v 5 2 4
v 5 2 2
v 5 2 -0
v 5 2 -2
v 5 2 -4
v 5 3 5
v 5 3 4
v 5 3 2
v 5 3 -0
v 5 3 -2
v 5 3 -4
v -3 0 6
v -3 2 6
v -2 2 6
v -2 3 6
v -1 0 6
v -1 2 6
v -1 3 6
v 1 2 6
v 1 3 6
v 3 0 6
v 3 2 6
v 3 3 6
v 4 2 6
v 4 3 6
v 5 0 6
v 5 2 6
v -3 2 5
v -3 3 5
v -2 2 5
v -2 3 5
v -2 4 5
v -2 5 5
v -1 1 5
v -1 2 5
v -1 3 5
v -1 4 5
v -1 5 5
v -1 6 5
v -1 7 5
v 0 6 5
v 0 7 5
v 1 2 5
v 1 3 5
v 1 4 5
v 1 6 5
v 3 1 5
v 3 2 5
v 3 3 5
v 3 4 5
v 3 5 5
v 3 6 5
v 4 2 5
v 4 3 5
v 4 4 5
v 4 5 5
v 5 2 5
v 5 3 5
v -2 5 4
v -2 6 4
v -1 5 4
v -1 6 4
v 3 5 4
v 3 6 4
v 4 5 4
v 4 6 4
v 0 6 3
v 0 7 3
v 1 6 3
v 1 7 3
v 1 6 1
v 1 7 1
v 2 6 1
v 2 7 1
v 2 6 -1
v 2 7 -1
v 3 6 -1
v 3 7 -1
v -3 0 -2
v -3 2 -2
v -2 1 -2
v -2 2 -2
v -1 0 -2
v -1 1 -2
v 3 0 -2
v 3 1 -2
v 4 1 -2
v 4 2 -2
v 5 0 -2
v 5 2 -2
v -1 5 -4
v -1 6 -4
v -1 7 -4
v 1 5 -4
v 3 5 -4
v 3 6 -4
v 3 7 -4
v -3 0 4
v -3 2 4
v -2 1 4
v -2 2 4
v -1 0 4
v -1 1 4
v 3 0 4
v 3 1 4
v 4 1 4
v 4 2 4
v 5 0 4
v 5 2 4
v -1 6 3
v -1 7 3
v 0 6 3
v 0 7 3
v 0 6 1
v 0 7 1
v 1 6 1
v 1 7 1
v 1 6 -1
v 1 7 -1
v 2 6 -1
v 2 7 -1
v -2 5 -3
v -2 6 -3
v -1 5 -3
v -1 6 -3
v 1 5 -3
v 1 6 -3
v 2 6 -3
v 2 7 -3
v 3 5 -3
v 3 6 -3
v 3 7 -3
v 4 5 -3
v 4 6 -3
v -3 0 -4
v -3 2 -4
v -3 3 -4
v -2 3 -4
v -2 4 -4
v -2 5 -4
v -1 0 -4
v -1 1 -4
v -1 2 -4
v -1 3 -4
v -1 4 -4
v -1 5 -4
v 1 2 -4
v 1 3 -4
v 3 0 -4
v 3 1 -4
v 3 2 -4
v 3 3 -4
v 3 4 -4
v 3 5 -4
v 4 3 -4
v 4 4 -4
v 4 5 -4
v 5 0 -4
v 5 2 -4
v 5 3 -4
v -1 6 -7
v -1 7 -7
v 3 6 -7
v 3 7 -7
v -1 3 -8
v -1 5 -8
v -1 6 -8
v 0 3 -8
v 0 4 -8
v 2 3 -8
v 2 4 -8
v 3 3 -8
v 3 5 -8
v 3 6 -8
v 0 3 -9
v 0 4 -9
v 2 3 -9
v 2 4 -9
v -3 0 6
v -1 0 6
v 3 0 6
v 5 0 6
v -3 0 4
v -1 0 4
v 3 0 4
v 5 0 4
v -3 0 -2
v -1 0 -2
v 3 0 -2
v 5 0 -2
v -3 0 -4
v -1 0 -4
v 3 0 -4
v 5 0 -4
v -1 1 5
v 3 1 5
v -2 1 4
v -1 1 4
v 3 1 4
v 4 1 4
v -2 1 3
v -1 1 3
v 3 1 3
v 4 1 3
v -2 1 2
v 4 1 2
v -2 1 1
v -1 1 1
v 3 1 1
v 4 1 1
v -1 1 -0
v 3 1 -0
v -2 1 -1
v -1 1 -1
v 3 1 -1
v 4 1 -1
v -2 1 -2
v -1 1 -2
v 3 1 -2
v 4 1 -2
v -1 1 -3
v 3 1 -3
v -1 1 -4
v 3 1 -4
v -1 2 6
v 1 2 6
v 3 2 6
v -1 2 5
v 1 2 5
v 3 2 5
v -3 2 4
v -2 2 4
v 4 2 4
v 5 2 4
v -2 2 3
v 4 2 3
v -3 2 2
v -2 2 2
v 4 2 2
v 5 2 2
v -2 2 1
v 4 2 1
v -3 2 -0
v -2 2 -0
v 4 2 -0
v 5 2 -0
v -2 2 -1
v 4 2 -1
v -3 2 -2
v -2 2 -2
v 4 2 -2
v 5 2 -2
v -1 3 -4
v 1 3 -4
v 3 3 -4
v -1 3 -8
v 0 3 -8
v 2 3 -8
v 3 3 -8
v 0 3 -9
v 2 3 -9
v -3 2 6
v -2 2 6
v 4 2 6
v 5 2 6
v -3 2 5
v -2 2 5
v 4 2 5
v 5 2 5
v -2 3 6
v -1 3 6
v 1 3 6
v 3 3 6
v 4 3 6
v -3 3 5
v -2 3 5
v -1 3 5
v 1 3 5
v 3 3 5
v 4 3 5
v 5 3 5
v -3 3 4
v -2 3 4
v 4 3 4
v 5 3 4
v -3 3 2
v -2 3 2
v 4 3 2
v 5 3 2
v -3 3 -0
v -2 3 -0
v 4 3 -0
v 5 3 -0
v -3 3 -2
v -2 3 -2
v 4 3 -2
v 5 3 -2
v -3 3 -4
v -2 3 -4
v 4 3 -4
v 5 3 -4
v 0 4 -8
v 2 4 -8
v 0 4 -9
v 2 4 -9
v -2 5 5
v -1 5 5
v 3 5 5
v 4 5 5
v -2 5 4
v -1 5 4
v 3 5 4
v 4 5 4
v -2 5 -3
v -1 5 -3
v 1 5 -3
v 3 5 -3
v 4 5 -3
v -2 5 -4
v -1 5 -4
v 1 5 -4
v 3 5 -4
v 4 5 -4
v 0 6 5
v 1 6 5
v 3 6 5
v -2 6 4
v -1 6 4
v 0 6 4
v 1 6 4
v 3 6 4
v 4 6 4
v -1 6 3
v 0 6 3
v 1 6 3
v -2 6 2
v -1 6 2
v 0 6 2
v 1 6 2
v 3 6 2
v 4 6 2
v 0 6 1
v 1 6 1
v 2 6 1
v -2 6 -0
v -1 6 -0
v 1 6 -0
v 2 6 -0
v 3 6 -0
v 4 6 -0
v 1 6 -1
v 2 6 -1
v 3 6 -1
v -2 6 -2
v -1 6 -2
v 1 6 -2
v 2 6 -2
v 3 6 -2
v 4 6 -2
v -2 6 -3
v -1 6 -3
v 1 6 -3
v 2 6 -3
v 3 6 -3
v 4 6 -3
v -1 6 -7
v 3 6 -7
v -1 6 -8
v 3 6 -8
v -1 7 5
v 0 7 5
v -1 7 3
v 0 7 3
v 1 7 3
v 0 7 2
v 1 7 2
v 0 7 1
v 1 7 1
v 2 7 1
v 1 7 -0
v 2 7 -0
v 1 7 -1
v 2 7 -1
v 3 7 -1
v 2 7 -3
v 3 7 -3
v -1 7 -4
v 3 7 -4
v -1 7 -7
v 3 7 -7

# faces
f 5/5/1 2/5/1 1/5/1
f 6/5/1 2/5/1 5/5/1
f 7/5/1 2/5/1 6/5/1
f 10/5/1 4/5/1 3/5/1
f 11/5/1 4/5/1 10/5/1
f 12/10/1 7/10/1 6/10/1
f 13/8/1 8/8/1 7/8/1
f 13/10/1 7/10/1 12/10/1
f 14/10/1 9/10/1 8/10/1
f 14/8/1 8/8/1 13/8/1
f 15/8/1 10/8/1 9/8/1
f 15/10/1 9/10/1 14/10/1
f 16/10/1 11/10/1 10/10/1
f 16/8/1 10/8/1 15/8/1
f 17/10/1 11/10/1 16/10/1
f 26/7/1 19/7/1 18/7/1
f 27/9/1 20/9/1 19/9/1
f 27/7/1 19/7/1 26/7/1
f 28/7/1 21/7/1 20/7/1
f 28/9/1 20/9/1 27/9/1
f 29/9/1 22/9/1 21/9/1
f 29/7/1 21/7/1 28/7/1
f 30/9/1 22/9/1 29/9/1
f 31/7/1 23/7/1 22/7/1
f 31/9/1 22/9/1 30/9/1
f 32/7/1 23/7/1 31/7/1
f 33/10/1 25/10/1 24/10/1
f 34/10/1 25/10/1 33/10/1
f 40/10/1 35/10/1 34/10/1
f 41/8/1 36/8/1 35/8/1
f 41/10/1 35/10/1 40/10/1
f 42/10/1 37/10/1 36/10/1
f 42/8/1 36/8/1 41/8/1
f 43/8/1 38/8/1 37/8/1
f 43/10/1 37/10/1 42/10/1
f 44/10/1 39/10/1 38/10/1
f 44/8/1 38/8/1 43/8/1
f 45/10/1 39/10/1 44/10/1
f 46/8/1 41/8/1 40/8/1
f 47/10/1 42/10/1 41/10/1
f 47/8/1 41/8/1 46/8/1
f 48/8/1 45/8/1 44/8/1
f 49/8/1 45/8/1 48/8/1
f 50/10/1 42/10/1 47/10/1
f 51/8/1 43/8/1 42/8/1
f 51/10/1 42/10/1 50/10/1
f 52/10/1 44/10/1 43/10/1
f 52/8/1 43/8/1 51/8/1
f 53/8/1 48/8/1 44/8/1
f 53/10/1 44/10/1 52/10/1
f 54/8/1 48/8/1 53/8/1
f 57/5/1 56/5/1 55/5/1
f 60/5/1 56/5/1 57/5/1
f 61/5/1 56/5/1 60/5/1
f 62/5/1 56/5/1 61/5/1
f 63/5/1 56/5/1 62/5/1
f 64/10/1 59/10/1 58/10/1
f 65/10/1 59/10/1 64/10/1
f 67/1/1 61/1/1 60/1/1
f 68/2/1 62/2/1 61/2/1
f 68/1/1 61/1/1 67/1/1
f 69/1/1 63/1/1 62/1/1
f 69/2/1 62/2/1 68/2/1
f 70/1/1 63/1/1 69/1/1
f 71/1/1 63/1/1 70/1/1
f 72/3/1 66/3/1 65/3/1
f 72/3/1 65/3/1 64/3/1
f 73/3/1 66/3/1 72/3/1
f 74/5/1 68/5/1 67/5/1
f 74/5/1 70/5/1 69/5/1
f 74/5/1 69/5/1 68/5/1
f 75/5/1 70/5/1 74/5/1
f 78/4/1 77/4/1 76/4/1
f 79/4/1 77/4/1 78/4/1
f 83/3/1 81/3/1 80/3/1
f 84/1/1 82/1/1 81/1/1
f 84/3/1 81/3/1 83/3/1
f 85/1/1 82/1/1 84/1/1
f 89/1/1 87/1/1 86/1/1
f 90/3/1 88/3/1 87/3/1
f 90/1/1 87/1/1 89/1/1
f 91/3/1 88/3/1 90/3/1
f 95/3/1 93/3/1 92/3/1
f 95/3/1 94/3/1 93/3/1
f 96/3/1 94/3/1 95/3/1
f 101/5/1 98/5/1 97/5/1
f 102/5/1 98/5/1 101/5/1
f 103/5/1 100/5/1 99/5/1
f 104/5/1 100/5/1 103/5/1
f 105/5/1 100/5/1 104/5/1
f 106/5/1 101/5/1 97/5/1
f 107/5/1 101/5/1 106/5/1
f 108/5/2 109/5/2 112/5/2
f 112/5/2 109/5/2 113/5/2
f 110/5/2 111/5/2 114/5/2
f 114/5/2 111/5/2 115/5/2
f 115/5/2 111/5/2 116/5/2
f 108/5/2 112/5/2 117/5/2
f 117/5/2 112/5/2 118/5/2
f 119/3/2 120/3/2 122/3/2
f 120/3/2 121/3/2 122/3/2
f 122/3/2 121/3/2 123/3/2
f 124/3/2 125/3/2 127/3/2
f 125/1/2 126/1/2 128/1/2
f 127/3/2 125/3/2 128/3/2
f 128/1/2 126/1/2 129/1/2
f 130/4/2 131/4/2 132/4/2
f 132/4/2 131/4/2 133/4/2
f 134/1/2 135/1/2 137/1/2
f 135/3/2 136/3/2 138/3/2
f 137/1/2 135/1/2 138/1/2
f 138/3/2 136/3/2 139/3/2
f 140/5/2 141/5/2 142/5/2
f 142/5/2 141/5/2 145/5/2
f 145/5/2 141/5/2 146/5/2
f 146/5/2 141/5/2 147/5/2
f 147/5/2 141/5/2 148/5/2
f 143/8/2 144/8/2 149/8/2
f 149/8/2 144/8/2 150/8/2
f 145/1/2 146/1/2 154/1/2
f 146/2/2 147/2/2 155/2/2
f 154/1/2 146/1/2 155/1/2
f 147/1/2 148/1/2 156/1/2
f 155/2/2 147/2/2 156/2/2
f 156/1/2 148/1/2 157/1/2
f 157/1/2 148/1/2 158/1/2
f 152/3/2 153/3/2 159/3/2
f 151/3/2 152/3/2 159/3/2
f 159/3/2 153/3/2 160/3/2
f 154/5/2 155/5/2 161/5/2
f 156/5/2 157/5/2 161/5/2
f 155/5/2 156/5/2 161/5/2
f 161/5/2 157/5/2 162/5/2
f 163/7/2 164/7/2 171/7/2
f 164/9/2 165/9/2 172/9/2
f 171/7/2 164/7/2 172/7/2
f 165/7/2 166/7/2 173/7/2
f 172/9/2 165/9/2 173/9/2
f 166/9/2 167/9/2 174/9/2
f 173/7/2 166/7/2 174/7/2
f 174/9/2 167/9/2 175/9/2
f 167/7/2 168/7/2 176/7/2
f 175/9/2 167/9/2 176/9/2
f 176/7/2 168/7/2 177/7/2
f 169/8/2 170/8/2 178/8/2
f 178/8/2 170/8/2 179/8/2
f 179/8/2 180/8/2 185/8/2
f 180/10/2 181/10/2 186/10/2
f 185/8/2 180/8/2 186/8/2
f 181/8/2 182/8/2 187/8/2
f 186/10/2 181/10/2 187/10/2
f 182/10/2 183/10/2 188/10/2
f 187/8/2 182/8/2 188/8/2
f 183/8/2 184/8/2 189/8/2
f 188/10/2 183/10/2 189/10/2
f 189/8/2 184/8/2 190/8/2
f 185/10/2 186/10/2 191/10/2
f 186/8/2 187/8/2 192/8/2
f 191/10/2 186/10/2 192/10/2
f 189/10/2 190/10/2 193/10/2
f 193/10/2 190/10/2 194/10/2
f 192/8/2 187/8/2 195/8/2
f 187/10/2 188/10/2 196/10/2
f 195/8/2 187/8/2 196/8/2
f 188/8/2 189/8/2 197/8/2
f 196/10/2 188/10/2 197/10/2
f 189/10/2 193/10/2 198/10/2
f 197/8/2 189/8/2 198/8/2
f 198/10/2 193/10/2 199/10/2
f 200/5/2 201/5/2 204/5/2
f 204/5/2 201/5/2 205/5/2
f 205/5/2 201/5/2 206/5/2
f 202/5/2 203/5/2 209/5/2
f 209/5/2 203/5/2 210/5/2
f 205/8/2 206/8/2 211/8/2
f 206/10/2 207/10/2 212/10/2
f 211/8/2 206/8/2 212/8/2
f 207/8/2 208/8/2 213/8/2
f 212/10/2 207/10/2 213/10/2
f 208/10/2 209/10/2 214/10/2
f 213/8/2 208/8/2 214/8/2
f 209/8/2 210/8/2 215/8/2
f 214/10/2 209/10/2 215/10/2
f 215/8/2 210/8/2 216/8/2
f 219/5/3 218/5/3 217/5/3
f 221/5/3 219/5/3 217/5/3
f 222/10/3 220/10/3 219/10/3
f 222/5/3 219/5/3 221/5/3
f 223/10/3 220/10/3 222/10/3
f 224/8/3 223/8/3 222/8/3
f 225/8/3 223/8/3 224/8/3
f 227/10/3 225/10/3 224/10/3
f 228/10/3 225/10/3 227/10/3
f 229/5/3 227/5/3 226/5/3
f 229/8/3 228/8/3 227/8/3
f 230/8/3 228/8/3 229/8/3
f 231/5/3 229/5/3 226/5/3
f 232/5/3 229/5/3 231/5/3
f 235/10/3 234/10/3 233/10/3
f 236/10/3 234/10/3 235/10/3
f 241/10/3 237/10/3 236/10/3
f 242/8/3 238/8/3 237/8/3
f 242/10/3 237/10/3 241/10/3
f 243/8/3 238/8/3 242/8/3
f 246/10/3 243/10/3 242/10/3
f 246/3/3 245/3/3 244/3/3
f 246/10/3 244/10/3 243/10/3
f 247/3/3 245/3/3 246/3/3
f 248/7/3 240/7/3 239/7/3
f 249/8/3 242/8/3 241/8/3
f 250/10/3 246/10/3 242/10/3
f 250/8/3 242/8/3 249/8/3
f 251/10/3 246/10/3 250/10/3
f 252/7/3 248/7/3 239/7/3
f 253/7/3 248/7/3 252/7/3
f 254/10/3 250/10/3 249/10/3
f 255/8/3 251/8/3 250/8/3
f 255/10/3 250/10/3 254/10/3
f 256/8/3 251/8/3 255/8/3
f 257/8/3 251/8/3 256/8/3
f 259/8/3 255/8/3 254/8/3
f 260/10/3 256/10/3 255/10/3
f 260/8/3 255/8/3 259/8/3
f 261/10/3 256/10/3 260/10/3
f 262/8/3 259/8/3 258/8/3
f 263/8/3 259/8/3 262/8/3
f 266/10/3 265/10/3 264/10/3
f 267/10/3 265/10/3 266/10/3
f 270/8/3 269/8/3 268/8/3
f 271/8/3 269/8/3 270/8/3
f 274/3/3 273/3/3 272/3/3
f 275/3/3 273/3/3 274/3/3
f 278/1/3 277/1/3 276/1/3
f 279/1/3 277/1/3 278/1/3
f 282/3/3 281/3/3 280/3/3
f 283/3/3 281/3/3 282/3/3
f 286/5/3 285/5/3 284/5/3
f 287/5/3 285/5/3 286/5/3
f 288/5/3 286/5/3 284/5/3
f 289/5/3 286/5/3 288/5/3
f 292/5/3 291/5/3 290/5/3
f 294/5/3 292/5/3 290/5/3
f 294/5/3 293/5/3 292/5/3
f 295/5/3 293/5/3 294/5/3
f 299/1/3 297/1/3 296/1/3
f 300/1/3 297/1/3 299/1/3
f 301/5/3 298/5/3 297/5/3
f 301/1/3 297/1/3 300/1/3
f 302/5/3 298/5/3 301/5/3
f 303/5/4 304/5/4 305/5/4
f 305/5/4 304/5/4 306/5/4
f 303/5/4 305/5/4 307/5/4
f 307/5/4 305/5/4 308/5/4
f 309/5/4 310/5/4 311/5/4
f 309/5/4 311/5/4 313/5/4
f 311/5/4 312/5/4 313/5/4
f 313/5/4 312/5/4 314/5/4
f 315/3/4 316/3/4 317/3/4
f 317/3/4 316/3/4 318/3/4
f 319/1/4 320/1/4 321/1/4
f 321/1/4 320/1/4 322/1/4
f 323/3/4 324/3/4 325/3/4
f 325/3/4 324/3/4 326/3/4
f 327/8/4 328/8/4 329/8/4
f 329/8/4 328/8/4 330/8/4
f 329/10/4 330/10/4 331/10/4
f 331/10/4 330/10/4 332/10/4
f 331/8/4 332/8/4 333/8/4
f 331/8/4 333/8/4 335/8/4
f 333/3/4 334/3/4 336/3/4
f 335/8/4 333/8/4 336/8/4
f 336/3/4 334/3/4 337/3/4
f 335/10/4 336/10/4 338/10/4
f 338/10/4 336/10/4 339/10/4
f 341/10/4 342/10/4 343/10/4
f 340/5/4 341/5/4 346/5/4
f 346/5/4 341/5/4 347/5/4
f 341/10/4 343/10/4 348/10/4
f 347/5/4 341/5/4 348/5/4
f 343/10/4 344/10/4 348/10/4
f 348/10/4 344/10/4 349/10/4
f 344/8/4 345/8/4 350/8/4
f 349/10/4 344/10/4 350/10/4
f 350/8/4 345/8/4 351/8/4
f 348/8/4 349/8/4 352/8/4
f 347/9/4 348/9/4 352/9/4
f 352/8/4 349/8/4 353/8/4
f 347/9/4 352/9/4 355/9/4
f 352/10/4 353/10/4 356/10/4
f 355/9/4 352/9/4 356/9/4
f 356/10/4 353/10/4 357/10/4
f 356/8/4 357/8/4 360/8/4
f 357/8/4 358/8/4 360/8/4
f 358/10/4 359/10/4 361/10/4
f 360/8/4 358/8/4 361/8/4
f 361/10/4 359/10/4 362/10/4
f 354/5/4 355/5/4 363/5/4
f 355/5/4 356/5/4 363/5/4
f 356/8/4 360/8/4 364/8/4
f 363/5/4 356/5/4 364/5/4
f 364/8/4 360/8/4 365/8/4
f 366/5/4 367/5/4 368/5/4
f 368/5/4 367/5/4 369/5/4
f 370/5/4 371/5/4 373/5/4
f 373/5/4 371/5/4 374/5/4
f 374/5/4 371/5/4 376/5/4
f 375/5/4 376/5/4 377/5/4
f 371/1/4 372/1/4 378/1/4
f 377/5/4 376/5/4 378/5/4
f 376/5/4 371/5/4 378/5/4
f 378/1/4 372/1/4 379/1/4
f 380/4/4 381/4/4 382/4/4
f 382/4/4 381/4/4 383/4/4
f 388/5/5 385/5/5 384/5/5
f 389/5/5 385/5/5 388/5/5
f 390/5/5 387/5/5 386/5/5
f 391/5/5 387/5/5 390/5/5
f 396/5/5 393/5/5 392/5/5
f 397/5/5 393/5/5 396/5/5
f 398/5/5 395/5/5 394/5/5
f 399/5/5 395/5/5 398/5/5
f 403/7/5 401/7/5 400/7/5
f 404/7/5 401/7/5 403/7/5
f 406/7/5 403/7/5 402/7/5
f 407/9/5 404/9/5 403/9/5
f 407/7/5 403/7/5 406/7/5
f 408/7/5 405/7/5 404/7/5
f 408/9/5 404/9/5 407/9/5
f 409/7/5 405/7/5 408/7/5
f 410/9/5 407/9/5 406/9/5
f 410/9/5 408/9/5 407/9/5
f 410/9/5 409/9/5 408/9/5
f 411/9/5 409/9/5 410/9/5
f 412/7/5 411/7/5 410/7/5
f 413/7/5 411/7/5 412/7/5
f 414/7/5 411/7/5 413/7/5
f 415/7/5 411/7/5 414/7/5
f 416/9/5 413/9/5 412/9/5
f 416/7/5 414/7/5 413/7/5
f 417/9/5 415/9/5 414/9/5
f 417/7/5 414/7/5 416/7/5
f 418/9/5 416/9/5 412/9/5
f 418/9/5 417/9/5 416/9/5
f 419/9/5 417/9/5 418/9/5
f 420/9/5 415/9/5 417/9/5
f 420/9/5 417/9/5 419/9/5
f 421/9/5 415/9/5 420/9/5
f 422/7/5 419/7/5 418/7/5
f 423/9/5 420/9/5 419/9/5
f 423/7/5 419/7/5 422/7/5
f 424/7/5 421/7/5 420/7/5
f 424/9/5 420/9/5 423/9/5
f 425/7/5 421/7/5 424/7/5
f 426/7/5 424/7/5 423/7/5
f 427/7/5 424/7/5 426/7/5
f 428/9/5 427/9/5 426/9/5
f 429/9/5 427/9/5 428/9/5
f 433/8/5 431/8/5 430/8/5
f 434/10/5 432/10/5 431/10/5
f 434/8/5 431/8/5 433/8/5
f 435/10/5 432/10/5 434/10/5
f 440/8/5 437/8/5 436/8/5
f 441/10/5 439/10/5 438/10/5
f 442/8/5 440/8/5 436/8/5
f 443/8/5 440/8/5 442/8/5
f 444/10/5 439/10/5 441/10/5
f 445/10/5 439/10/5 444/10/5
f 446/10/5 443/10/5 442/10/5
f 447/8/5 445/8/5 444/8/5
f 448/10/5 446/10/5 442/10/5
f 449/10/5 446/10/5 448/10/5
f 450/8/5 445/8/5 447/8/5
f 451/8/5 445/8/5 450/8/5
f 452/8/5 449/8/5 448/8/5
f 453/10/5 451/10/5 450/10/5
f 454/8/5 452/8/5 448/8/5
f 455/8/5 452/8/5 454/8/5
f 456/10/5 451/10/5 453/10/5
f 457/10/5 451/10/5 456/10/5
f 461/5/5 459/5/5 458/5/5
f 461/5/5 460/5/5 459/5/5
f 462/5/5 460/5/5 461/5/5
f 463/5/5 460/5/5 462/5/5
f 464/5/5 460/5/5 463/5/5
f 465/4/5 463/4/5 462/4/5
f 466/4/5 463/4/5 465/4/5
f 467/5/6 468/5/6 471/5/6
f 471/5/6 468/5/6 472/5/6
f 469/5/6 470/5/6 473/5/6
f 473/5/6 470/5/6 474/5/6
f 475/10/6 476/10/6 481/10/6
f 476/8/6 477/8/6 482/8/6
f 481/10/6 476/10/6 482/10/6
f 477/10/6 478/10/6 483/10/6
f 482/8/6 477/8/6 483/8/6
f 478/8/6 479/8/6 484/8/6
f 483/10/6 478/10/6 484/10/6
f 484/8/6 479/8/6 485/8/6
f 480/10/6 481/10/6 487/10/6
f 487/10/6 481/10/6 488/10/6
f 485/8/6 486/8/6 489/8/6
f 489/8/6 486/8/6 490/8/6
f 487/8/6 488/8/6 491/8/6
f 491/8/6 488/8/6 492/8/6
f 489/10/6 490/10/6 493/10/6
f 493/10/6 490/10/6 494/10/6
f 491/10/6 492/10/6 495/10/6
f 495/10/6 492/10/6 496/10/6
f 493/8/6 494/8/6 497/8/6
f 497/8/6 494/8/6 498/8/6
f 495/8/6 496/8/6 499/8/6
f 499/8/6 496/8/6 500/8/6
f 497/10/6 498/10/6 501/10/6
f 501/10/6 498/10/6 502/10/6
f 499/10/6 500/10/6 503/10/6
f 503/10/6 500/10/6 504/10/6
f 501/8/6 502/8/6 505/8/6
f 505/8/6 502/8/6 506/8/6
f 507/4/6 508/4/6 509/4/6
f 509/4/6 508/4/6 510/4/6
f 511/8/6 512/8/6 515/8/6
f 515/8/6 512/8/6 516/8/6
f 513/10/6 514/10/6 517/10/6
f 517/10/6 514/10/6 518/10/6
f 519/8/6 520/8/6 524/8/6
f 520/10/6 521/10/6 525/10/6
f 524/8/6 520/8/6 525/8/6
f 521/8/6 522/8/6 526/8/6
f 525/10/6 521/10/6 526/10/6
f 522/10/6 523/10/6 527/10/6
f 526/8/6 522/8/6 527/8/6
f 527/10/6 523/10/6 528/10/6
f 529/10/6 530/10/6 534/10/6
f 530/8/6 531/8/6 535/8/6
f 534/10/6 530/10/6 535/10/6
f 535/8/6 531/8/6 536/8/6
f 532/10/6 533/10/6 538/10/6
f 534/8/6 535/8/6 539/8/6
f 535/10/6 536/10/6 540/10/6
f 539/8/6 535/8/6 540/8/6
f 532/10/6 538/10/6 541/10/6
f 538/8/6 539/8/6 542/8/6
f 541/10/6 538/10/6 542/10/6
f 542/8/6 539/8/6 543/8/6
f 540/10/6 536/10/6 544/10/6
f 536/8/6 537/8/6 545/8/6
f 544/10/6 536/10/6 545/10/6
f 545/8/6 537/8/6 546/8/6
f 542/10/6 543/10/6 547/10/6
f 544/8/6 545/8/6 548/8/6
f 548/8/6 545/8/6 549/8/6
f 541/8/6 542/8/6 550/8/6
f 542/10/6 547/10/6 551/10/6
f 550/8/6 542/8/6 551/8/6
f 547/10/6 548/10/6 551/10/6
f 551/10/6 548/10/6 552/10/6
f 549/8/6 545/8/6 553/8/6
f 545/10/6 546/10/6 554/10/6
f 553/8/6 545/8/6 554/8/6
f 554/10/6 546/10/6 555/10/6
f 551/8/6 552/8/6 556/8/6
f 553/10/6 554/10/6 557/10/6
f 554/8/6 555/8/6 558/8/6
f 557/10/6 554/10/6 558/10/6
f 550/10/6 551/10/6 559/10/6
f 551/8/6 556/8/6 560/8/6
f 559/10/6 551/10/6 560/10/6
f 556/10/6 557/10/6 561/10/6
f 560/8/6 556/8/6 561/8/6
f 561/10/6 557/10/6 562/10/6
f 558/8/6 555/8/6 563/8/6
f 563/8/6 555/8/6 564/8/6
f 559/8/6 560/8/6 565/8/6
f 560/10/6 561/10/6 566/10/6
f 565/8/6 560/8/6 566/8/6
f 561/8/6 562/8/6 567/8/6
f 566/10/6 561/10/6 567/10/6
f 567/8/6 562/8/6 568/8/6
f 563/10/6 564/10/6 569/10/6
f 569/10/6 564/10/6 570/10/6
f 571/1/6 572/1/6 573/1/6
f 573/1/6 572/1/6 574/1/6
f 575/3/6 576/3/6 577/3/6
f 577/3/6 576/3/6 578/3/6
f 578/3/6 579/3/6 580/3/6
f 580/3/6 579/3/6 581/3/6
f 580/1/6 581/1/6 582/1/6
f 582/1/6 581/1/6 583/1/6
f 583/1/6 584/1/6 585/1/6
f 585/1/6 584/1/6 586/1/6
f 585/3/6 586/3/6 587/3/6
f 587/3/6 586/3/6 588/3/6
f 588/3/6 589/3/6 590/3/6
f 590/3/6 589/3/6 591/3/6
f 592/5/6 593/5/6 594/5/6
f 594/5/6 593/5/6 595/5/6
