# MagicaVoxel @ Ephtracy

# material
mtllib LeonardoTest.mtl
usemtl palette

# normals
vn -1 0 0
vn 1 0 0
vn 0 0 1
vn 0 0 -1
vn 0 -1 0
vn 0 1 0

# texcoords
vt 0.126953 0.5
vt 0.193359 0.5
vt 0.197266 0.5
vt 0.201172 0.5
vt 0.205078 0.5
vt 0.380859 0.5
vt 0.658203 0.5
vt 0.751953 0.5
vt 0.755859 0.5
vt 0.783203 0.5
vt 0.787109 0.5
vt 0.794922 0.5
vt 0.943359 0.5

# verts
v -3 0 6
v -3 0 4
v -3 0 -2
v -3 0 -4
v -3 2 6
v -3 2 5
v -3 2 4
v -3 2 2
v -3 2 -0
v -3 2 -2
v -3 2 -4
v -3 3 5
v -3 3 4
v -3 3 2
v -3 3 -0
v -3 3 -2
v -3 3 -4
v -2 1 4
v -2 1 3
v -2 1 2
v -2 1 1
v -2 1 -1
v -2 1 -2
v -2 2 6
v -2 2 5
v -2 2 4
v -2 2 3
v -2 2 2
v -2 2 1
v -2 2 -0
v -2 2 -1
v -2 2 -2
v -2 3 6
v -2 3 5
v -2 3 4
v -2 3 2
v -2 3 -0
v -2 3 -2
v -2 3 -4
v -2 4 5
v -2 4 4
v -2 4 2
v -2 4 -0
v -2 4 -2
v -2 4 -4
v -2 5 5
v -2 5 4
v -2 5 -3
v -2 5 -4
v -2 6 4
v -2 6 2
v -2 6 -0
v -2 6 -2
v -2 6 -3
v -1 3 -4
v -1 3 -8
v -1 4 -4
v -1 5 5
v -1 5 4
v -1 5 -4
v -1 5 -5
v -1 5 -6
v -1 5 -8
v -1 6 5
v -1 6 4
v -1 6 2
v -1 6 -0
v -1 6 -2
v -1 6 -3
v -1 6 -4
v -1 6 -5
v -1 6 -6
v -1 6 -7
v -1 6 -8
v -1 7 4
v -1 7 2
v -1 7 -3
v -1 7 -4
v -1 7 -7
v 0 3 -8
v 0 3 -9
v 0 4 -8
v 0 4 -9
v 2 6 4
v 2 6 2
v 2 6 -0
v 2 6 -2
v 2 6 -3
v 2 7 4
v 2 7 2
v 2 7 -3
v 3 0 6
v 3 0 4
v 3 0 -2
v 3 0 -4
v 3 1 5
v 3 1 4
v 3 1 -2
v 3 1 -3
v 3 1 -4
v 3 2 6
v 3 2 5
v -1 0 6
v -1 0 4
v -1 0 -2
v -1 0 -4
v -1 1 5
v -1 1 4
v -1 1 -2
v -1 1 -3
v -1 1 -4
v -1 2 6
v -1 2 5
v 0 6 4
v 0 6 2
v 0 6 -0
v 0 6 -2
v 0 6 -3
v 0 7 4
v 0 7 2
v 0 7 -3
v 2 3 -8
v 2 3 -9
v 2 4 -8
v 2 4 -9
v 3 3 -4
v 3 3 -8
v 3 4 -4
v 3 5 5
v 3 5 4
v 3 5 -4
v 3 5 -5
v 3 5 -6
v 3 5 -8
v 3 6 5
v 3 6 4
v 3 6 2
v 3 6 -0
v 3 6 -2
v 3 6 -3
v 3 6 -4
v 3 6 -5
v 3 6 -6
v 3 6 -7
v 3 6 -8
v 3 7 4
v 3 7 2
v 3 7 -3
v 3 7 -4
v 3 7 -7
v 4 1 4
v 4 1 3
v 4 1 2
v 4 1 1
v 4 1 -1
v 4 1 -2
v 4 2 6
v 4 2 5
v 4 2 4
v 4 2 3
v 4 2 2
v 4 2 1
v 4 2 -0
v 4 2 -1
v 4 2 -2
v 4 3 6
v 4 3 5
v 4 3 4
v 4 3 2
v 4 3 -0
v 4 3 -2
v 4 3 -4
v 4 4 5
v 4 4 4
v 4 4 2
v 4 4 -0
v 4 4 -2
v 4 4 -4
v 4 5 5
v 4 5 4
v 4 5 -3
v 4 5 -4
v 4 6 4
v 4 6 2
v 4 6 -0
v 4 6 -2
v 4 6 -3
v 5 0 6
v 5 0 4
v 5 0 -2
v 5 0 -4
v 5 2 6
v 5 2 5
v 5 2 4
v 5 2 2
v 5 2 -0
v 5 2 -2
v 5 2 -4
v 5 3 5
v 5 3 4
v 5 3 2
v 5 3 -0
v 5 3 -2
v 5 3 -4
v -3 0 6
v -3 2 6
v -2 2 6
v -2 3 6
v -1 0 6
v -1 2 6
v -1 3 6
v 1 2 6
v 1 3 6
v 3 0 6
v 3 2 6
v 3 3 6
v 4 2 6
v 4 3 6
v 5 0 6
v 5 2 6
v -3 2 5
v -3 3 5
v -2 2 5
v -2 3 5
v -2 4 5
v -2 5 5
v -1 1 5
v -1 2 5
v -1 3 5
v -1 4 5
v -1 5 5
v -1 6 5
v 1 2 5
v 1 3 5
v 1 4 5
v 1 6 5
v 3 1 5
v 3 2 5
v 3 3 5
v 3 4 5
v 3 5 5
v 3 6 5
v 4 2 5
v 4 3 5
v 4 4 5
v 4 5 5
v 5 2 5
v 5 3 5
v -2 5 4
v -2 6 4
v -1 5 4
v -1 6 4
v -1 7 4
v 0 6 4
v 0 7 4
v 2 6 4
v 2 7 4
v 3 5 4
v 3 6 4
v 3 7 4
v 4 5 4
v 4 6 4
v -3 0 -2
v -3 2 -2
v -2 1 -2
v -2 2 -2
v -1 0 -2
v -1 1 -2
v 3 0 -2
v 3 1 -2
v 4 1 -2
v 4 2 -2
v 5 0 -2
v 5 2 -2
v -1 5 -4
v -1 6 -4
v -1 7 -4
v 1 5 -4
v 3 5 -4
v 3 6 -4
v 3 7 -4
v -3 0 4
v -3 2 4
v -2 1 4
v -2 2 4
v -1 0 4
v -1 1 4
v 3 0 4
v 3 1 4
v 4 1 4
v 4 2 4
v 5 0 4
v 5 2 4
v -2 5 -3
v -2 6 -3
v -1 5 -3
v -1 6 -3
v -1 7 -3
v 0 6 -3
v 0 7 -3
v 1 5 -3
v 1 6 -3
v 2 6 -3
v 2 7 -3
v 3 5 -3
v 3 6 -3
v 3 7 -3
v 4 5 -3
v 4 6 -3
v -3 0 -4
v -3 2 -4
v -3 3 -4
v -2 3 -4
v -2 4 -4
v -2 5 -4
v -1 0 -4
v -1 1 -4
v -1 2 -4
v -1 3 -4
v -1 4 -4
v -1 5 -4
v 1 2 -4
v 1 3 -4
v 3 0 -4
v 3 1 -4
v 3 2 -4
v 3 3 -4
v 3 4 -4
v 3 5 -4
v 4 3 -4
v 4 4 -4
v 4 5 -4
v 5 0 -4
v 5 2 -4
v 5 3 -4
v -1 6 -7
v -1 7 -7
v 3 6 -7
v 3 7 -7
v -1 3 -8
v -1 5 -8
v -1 6 -8
v 0 3 -8
v 0 4 -8
v 2 3 -8
v 2 4 -8
v 3 3 -8
v 3 5 -8
v 3 6 -8
v 0 3 -9
v 0 4 -9
v 2 3 -9
v 2 4 -9
v -3 0 6
v -1 0 6
v 3 0 6
v 5 0 6
v -3 0 4
v -1 0 4
v 3 0 4
v 5 0 4
v -3 0 -2
v -1 0 -2
v 3 0 -2
v 5 0 -2
v -3 0 -4
v -1 0 -4
v 3 0 -4
v 5 0 -4
v -1 1 5
v 3 1 5
v -2 1 4
v -1 1 4
v 3 1 4
v 4 1 4
v -2 1 3
v -1 1 3
v 3 1 3
v 4 1 3
v -2 1 2
v 4 1 2
v -2 1 1
v -1 1 1
v 3 1 1
v 4 1 1
v -1 1 -0
v 3 1 -0
v -2 1 -1
v -1 1 -1
v 3 1 -1
v 4 1 -1
v -2 1 -2
v -1 1 -2
v 3 1 -2
v 4 1 -2
v -1 1 -3
v 3 1 -3
v -1 1 -4
v 3 1 -4
v -1 2 6
v 1 2 6
v 3 2 6
v -1 2 5
v 1 2 5
v 3 2 5
v -3 2 4
v -2 2 4
v 4 2 4
v 5 2 4
v -2 2 3
v 4 2 3
v -3 2 2
v -2 2 2
v 4 2 2
v 5 2 2
v -2 2 1
v 4 2 1
v -3 2 -0
v -2 2 -0
v 4 2 -0
v 5 2 -0
v -2 2 -1
v 4 2 -1
v -3 2 -2
v -2 2 -2
v 4 2 -2
v 5 2 -2
v -1 3 -4
v 1 3 -4
v 3 3 -4
v -1 3 -8
v 0 3 -8
v 2 3 -8
v 3 3 -8
v 0 3 -9
v 2 3 -9
v -3 2 6
v -2 2 6
v 4 2 6
v 5 2 6
v -3 2 5
v -2 2 5
v 4 2 5
v 5 2 5
v -2 3 6
v -1 3 6
v 1 3 6
v 3 3 6
v 4 3 6
v -3 3 5
v -2 3 5
v -1 3 5
v 1 3 5
v 3 3 5
v 4 3 5
v 5 3 5
v -3 3 4
v -2 3 4
v 4 3 4
v 5 3 4
v -3 3 2
v -2 3 2
v 4 3 2
v 5 3 2
v -3 3 -0
v -2 3 -0
v 4 3 -0
v 5 3 -0
v -3 3 -2
v -2 3 -2
v 4 3 -2
v 5 3 -2
v -3 3 -4
v -2 3 -4
v 4 3 -4
v 5 3 -4
v 0 4 -8
v 2 4 -8
v 0 4 -9
v 2 4 -9
v -2 5 5
v -1 5 5
v 3 5 5
v 4 5 5
v -2 5 4
v -1 5 4
v 3 5 4
v 4 5 4
v -2 5 -3
v -1 5 -3
v 1 5 -3
v 3 5 -3
v 4 5 -3
v -2 5 -4
v -1 5 -4
v 1 5 -4
v 3 5 -4
v 4 5 -4
v -1 6 5
v 1 6 5
v 3 6 5
v -2 6 4
v -1 6 4
v 0 6 4
v 1 6 4
v 2 6 4
v 3 6 4
v 4 6 4
v -2 6 2
v -1 6 2
v 0 6 2
v 1 6 2
v 2 6 2
v 3 6 2
v 4 6 2
v -2 6 -0
v -1 6 -0
v 0 6 -0
v 1 6 -0
v 2 6 -0
v 3 6 -0
v 4 6 -0
v -2 6 -2
v -1 6 -2
v 0 6 -2
v 1 6 -2
v 2 6 -2
v 3 6 -2
v 4 6 -2
v -2 6 -3
v -1 6 -3
v 0 6 -3
v 1 6 -3
v 2 6 -3
v 3 6 -3
v 4 6 -3
v -1 6 -7
v 3 6 -7
v -1 6 -8
v 3 6 -8
v -1 7 4
v 0 7 4
v 2 7 4
v 3 7 4
v -1 7 2
v 0 7 2
v 2 7 2
v 3 7 2
v -1 7 -3
v 0 7 -3
v 2 7 -3
v 3 7 -3
v -1 7 -4
v 3 7 -4
v -1 7 -7
v 3 7 -7

# faces
f 5/7/1 2/7/1 1/7/1
f 6/7/1 2/7/1 5/7/1
f 7/7/1 2/7/1 6/7/1
f 10/7/1 4/7/1 3/7/1
f 11/7/1 4/7/1 10/7/1
f 12/12/1 7/12/1 6/12/1
f 13/10/1 8/10/1 7/10/1
f 13/12/1 7/12/1 12/12/1
f 14/12/1 9/12/1 8/12/1
f 14/10/1 8/10/1 13/10/1
f 15/10/1 10/10/1 9/10/1
f 15/12/1 9/12/1 14/12/1
f 16/12/1 11/12/1 10/12/1
f 16/10/1 10/10/1 15/10/1
f 17/12/1 11/12/1 16/12/1
f 26/9/1 19/9/1 18/9/1
f 27/11/1 20/11/1 19/11/1
f 27/9/1 19/9/1 26/9/1
f 28/9/1 21/9/1 20/9/1
f 28/11/1 20/11/1 27/11/1
f 29/11/1 22/11/1 21/11/1
f 29/9/1 21/9/1 28/9/1
f 30/11/1 22/11/1 29/11/1
f 31/9/1 23/9/1 22/9/1
f 31/11/1 22/11/1 30/11/1
f 32/9/1 23/9/1 31/9/1
f 33/12/1 25/12/1 24/12/1
f 34/12/1 25/12/1 33/12/1
f 40/12/1 35/12/1 34/12/1
f 41/10/1 36/10/1 35/10/1
f 41/12/1 35/12/1 40/12/1
f 42/12/1 37/12/1 36/12/1
f 42/10/1 36/10/1 41/10/1
f 43/10/1 38/10/1 37/10/1
f 43/12/1 37/12/1 42/12/1
f 44/12/1 39/12/1 38/12/1
f 44/10/1 38/10/1 43/10/1
f 45/12/1 39/12/1 44/12/1
f 46/10/1 41/10/1 40/10/1
f 47/12/1 42/12/1 41/12/1
f 47/10/1 41/10/1 46/10/1
f 48/10/1 45/10/1 44/10/1
f 49/10/1 45/10/1 48/10/1
f 50/12/1 42/12/1 47/12/1
f 51/10/1 43/10/1 42/10/1
f 51/12/1 42/12/1 50/12/1
f 52/12/1 44/12/1 43/12/1
f 52/10/1 43/10/1 51/10/1
f 53/10/1 48/10/1 44/10/1
f 53/12/1 44/12/1 52/12/1
f 54/10/1 48/10/1 53/10/1
f 57/7/1 56/7/1 55/7/1
f 60/7/1 56/7/1 57/7/1
f 61/7/1 56/7/1 60/7/1
f 62/7/1 56/7/1 61/7/1
f 63/7/1 56/7/1 62/7/1
f 64/12/1 59/12/1 58/12/1
f 65/12/1 59/12/1 64/12/1
f 70/1/1 61/1/1 60/1/1
f 71/2/1 62/2/1 61/2/1
f 71/1/1 61/1/1 70/1/1
f 72/1/1 63/1/1 62/1/1
f 72/2/1 62/2/1 71/2/1
f 73/1/1 63/1/1 72/1/1
f 74/1/1 63/1/1 73/1/1
f 75/3/1 66/3/1 65/3/1
f 76/5/1 69/5/1 68/5/1
f 76/3/1 66/3/1 75/3/1
f 76/5/1 67/5/1 66/5/1
f 76/5/1 68/5/1 67/5/1
f 77/5/1 69/5/1 76/5/1
f 78/7/1 71/7/1 70/7/1
f 78/7/1 73/7/1 72/7/1
f 78/7/1 72/7/1 71/7/1
f 79/7/1 73/7/1 78/7/1
f 82/6/1 81/6/1 80/6/1
f 83/6/1 81/6/1 82/6/1
f 89/3/1 85/3/1 84/3/1
f 90/4/1 88/4/1 87/4/1
f 90/3/1 85/3/1 89/3/1
f 90/4/1 86/4/1 85/4/1
f 90/4/1 87/4/1 86/4/1
f 91/4/1 88/4/1 90/4/1
f 96/7/1 93/7/1 92/7/1
f 97/7/1 93/7/1 96/7/1
f 98/7/1 95/7/1 94/7/1
f 99/7/1 95/7/1 98/7/1
f 100/7/1 95/7/1 99/7/1
f 101/7/1 96/7/1 92/7/1
f 102/7/1 96/7/1 101/7/1
f 103/7/2 104/7/2 107/7/2
f 107/7/2 104/7/2 108/7/2
f 105/7/2 106/7/2 109/7/2
f 109/7/2 106/7/2 110/7/2
f 110/7/2 106/7/2 111/7/2
f 103/7/2 107/7/2 112/7/2
f 112/7/2 107/7/2 113/7/2
f 114/3/2 115/3/2 119/3/2
f 117/5/2 118/5/2 120/5/2
f 119/3/2 115/3/2 120/3/2
f 115/5/2 116/5/2 120/5/2
f 116/5/2 117/5/2 120/5/2
f 120/5/2 118/5/2 121/5/2
f 122/6/2 123/6/2 124/6/2
f 124/6/2 123/6/2 125/6/2
f 126/7/2 127/7/2 128/7/2
f 128/7/2 127/7/2 131/7/2
f 131/7/2 127/7/2 132/7/2
f 132/7/2 127/7/2 133/7/2
f 133/7/2 127/7/2 134/7/2
f 129/10/2 130/10/2 135/10/2
f 135/10/2 130/10/2 136/10/2
f 131/1/2 132/1/2 141/1/2
f 132/2/2 133/2/2 142/2/2
f 141/1/2 132/1/2 142/1/2
f 133/1/2 134/1/2 143/1/2
f 142/2/2 133/2/2 143/2/2
f 143/1/2 134/1/2 144/1/2
f 144/1/2 134/1/2 145/1/2
f 136/3/2 137/3/2 146/3/2
f 139/4/2 140/4/2 147/4/2
f 146/3/2 137/3/2 147/3/2
f 137/4/2 138/4/2 147/4/2
f 138/4/2 139/4/2 147/4/2
f 147/4/2 140/4/2 148/4/2
f 141/7/2 142/7/2 149/7/2
f 143/7/2 144/7/2 149/7/2
f 142/7/2 143/7/2 149/7/2
f 149/7/2 144/7/2 150/7/2
f 151/9/2 152/9/2 159/9/2
f 152/11/2 153/11/2 160/11/2
f 159/9/2 152/9/2 160/9/2
f 153/9/2 154/9/2 161/9/2
f 160/11/2 153/11/2 161/11/2
f 154/11/2 155/11/2 162/11/2
f 161/9/2 154/9/2 162/9/2
f 162/11/2 155/11/2 163/11/2
f 155/9/2 156/9/2 164/9/2
f 163/11/2 155/11/2 164/11/2
f 164/9/2 156/9/2 165/9/2
f 157/10/2 158/10/2 166/10/2
f 166/10/2 158/10/2 167/10/2
f 167/10/2 168/10/2 173/10/2
f 168/12/2 169/12/2 174/12/2
f 173/10/2 168/10/2 174/10/2
f 169/10/2 170/10/2 175/10/2
f 174/12/2 169/12/2 175/12/2
f 170/12/2 171/12/2 176/12/2
f 175/10/2 170/10/2 176/10/2
f 171/10/2 172/10/2 177/10/2
f 176/12/2 171/12/2 177/12/2
f 177/10/2 172/10/2 178/10/2
f 173/12/2 174/12/2 179/12/2
f 174/10/2 175/10/2 180/10/2
f 179/12/2 174/12/2 180/12/2
f 177/12/2 178/12/2 181/12/2
f 181/12/2 178/12/2 182/12/2
f 180/10/2 175/10/2 183/10/2
f 175/12/2 176/12/2 184/12/2
f 183/10/2 175/10/2 184/10/2
f 176/10/2 177/10/2 185/10/2
f 184/12/2 176/12/2 185/12/2
f 177/12/2 181/12/2 186/12/2
f 185/10/2 177/10/2 186/10/2
f 186/12/2 181/12/2 187/12/2
f 188/7/2 189/7/2 192/7/2
f 192/7/2 189/7/2 193/7/2
f 193/7/2 189/7/2 194/7/2
f 190/7/2 191/7/2 197/7/2
f 197/7/2 191/7/2 198/7/2
f 193/10/2 194/10/2 199/10/2
f 194/12/2 195/12/2 200/12/2
f 199/10/2 194/10/2 200/10/2
f 195/10/2 196/10/2 201/10/2
f 200/12/2 195/12/2 201/12/2
f 196/12/2 197/12/2 202/12/2
f 201/10/2 196/10/2 202/10/2
f 197/10/2 198/10/2 203/10/2
f 202/12/2 197/12/2 203/12/2
f 203/10/2 198/10/2 204/10/2
f 207/7/3 206/7/3 205/7/3
f 209/7/3 207/7/3 205/7/3
f 210/12/3 208/12/3 207/12/3
f 210/7/3 207/7/3 209/7/3
f 211/12/3 208/12/3 210/12/3
f 212/10/3 211/10/3 210/10/3
f 213/10/3 211/10/3 212/10/3
f 215/12/3 213/12/3 212/12/3
f 216/12/3 213/12/3 215/12/3
f 217/7/3 215/7/3 214/7/3
f 217/10/3 216/10/3 215/10/3
f 218/10/3 216/10/3 217/10/3
f 219/7/3 217/7/3 214/7/3
f 220/7/3 217/7/3 219/7/3
f 223/12/3 222/12/3 221/12/3
f 224/12/3 222/12/3 223/12/3
f 229/12/3 225/12/3 224/12/3
f 230/10/3 226/10/3 225/10/3
f 230/12/3 225/12/3 229/12/3
f 231/10/3 226/10/3 230/10/3
f 233/9/3 228/9/3 227/9/3
f 234/10/3 230/10/3 229/10/3
f 235/12/3 232/12/3 231/12/3
f 235/10/3 230/10/3 234/10/3
f 235/12/3 231/12/3 230/12/3
f 236/12/3 232/12/3 235/12/3
f 237/9/3 233/9/3 227/9/3
f 238/9/3 233/9/3 237/9/3
f 239/12/3 235/12/3 234/12/3
f 240/10/3 236/10/3 235/10/3
f 240/12/3 235/12/3 239/12/3
f 241/10/3 236/10/3 240/10/3
f 242/10/3 236/10/3 241/10/3
f 244/10/3 240/10/3 239/10/3
f 245/12/3 241/12/3 240/12/3
f 245/10/3 240/10/3 244/10/3
f 246/12/3 241/12/3 245/12/3
f 247/10/3 244/10/3 243/10/3
f 248/10/3 244/10/3 247/10/3
f 251/12/3 250/12/3 249/12/3
f 252/12/3 250/12/3 251/12/3
f 254/3/3 253/3/3 252/3/3
f 255/3/3 253/3/3 254/3/3
f 259/3/3 257/3/3 256/3/3
f 260/3/3 257/3/3 259/3/3
f 261/10/3 259/10/3 258/10/3
f 262/10/3 259/10/3 261/10/3
f 265/7/3 264/7/3 263/7/3
f 266/7/3 264/7/3 265/7/3
f 267/7/3 265/7/3 263/7/3
f 268/7/3 265/7/3 267/7/3
f 271/7/3 270/7/3 269/7/3
f 273/7/3 271/7/3 269/7/3
f 273/7/3 272/7/3 271/7/3
f 274/7/3 272/7/3 273/7/3
f 278/1/3 276/1/3 275/1/3
f 279/1/3 276/1/3 278/1/3
f 280/7/3 277/7/3 276/7/3
f 280/1/3 276/1/3 279/1/3
f 281/7/3 277/7/3 280/7/3
f 282/7/4 283/7/4 284/7/4
f 284/7/4 283/7/4 285/7/4
f 282/7/4 284/7/4 286/7/4
f 286/7/4 284/7/4 287/7/4
f 288/7/4 289/7/4 290/7/4
f 288/7/4 290/7/4 292/7/4
f 290/7/4 291/7/4 292/7/4
f 292/7/4 291/7/4 293/7/4
f 294/10/4 295/10/4 296/10/4
f 296/10/4 295/10/4 297/10/4
f 296/12/4 297/12/4 299/12/4
f 297/5/4 298/5/4 299/5/4
f 299/5/4 298/5/4 300/5/4
f 296/12/4 299/12/4 301/12/4
f 301/12/4 299/12/4 302/12/4
f 301/10/4 302/10/4 303/10/4
f 301/10/4 303/10/4 305/10/4
f 303/4/4 304/4/4 306/4/4
f 305/10/4 303/10/4 306/10/4
f 306/4/4 304/4/4 307/4/4
f 305/12/4 306/12/4 308/12/4
f 308/12/4 306/12/4 309/12/4
f 311/12/4 312/12/4 313/12/4
f 310/7/4 311/7/4 316/7/4
f 316/7/4 311/7/4 317/7/4
f 311/12/4 313/12/4 318/12/4
f 317/7/4 311/7/4 318/7/4
f 313/12/4 314/12/4 318/12/4
f 318/12/4 314/12/4 319/12/4
f 314/10/4 315/10/4 320/10/4
f 319/12/4 314/12/4 320/12/4
f 320/10/4 315/10/4 321/10/4
f 318/10/4 319/10/4 322/10/4
f 317/11/4 318/11/4 322/11/4
f 322/10/4 319/10/4 323/10/4
f 317/11/4 322/11/4 325/11/4
f 322/12/4 323/12/4 326/12/4
f 325/11/4 322/11/4 326/11/4
f 326/12/4 323/12/4 327/12/4
f 326/10/4 327/10/4 330/10/4
f 327/10/4 328/10/4 330/10/4
f 328/12/4 329/12/4 331/12/4
f 330/10/4 328/10/4 331/10/4
f 331/12/4 329/12/4 332/12/4
f 324/7/4 325/7/4 333/7/4
f 325/7/4 326/7/4 333/7/4
f 326/10/4 330/10/4 334/10/4
f 333/7/4 326/7/4 334/7/4
f 334/10/4 330/10/4 335/10/4
f 336/7/4 337/7/4 338/7/4
f 338/7/4 337/7/4 339/7/4
f 340/7/4 341/7/4 343/7/4
f 343/7/4 341/7/4 344/7/4
f 344/7/4 341/7/4 346/7/4
f 345/7/4 346/7/4 347/7/4
f 341/1/4 342/1/4 348/1/4
f 347/7/4 346/7/4 348/7/4
f 346/7/4 341/7/4 348/7/4
f 348/1/4 342/1/4 349/1/4
f 350/6/4 351/6/4 352/6/4
f 352/6/4 351/6/4 353/6/4
f 358/7/5 355/7/5 354/7/5
f 359/7/5 355/7/5 358/7/5
f 360/7/5 357/7/5 356/7/5
f 361/7/5 357/7/5 360/7/5
f 366/7/5 363/7/5 362/7/5
f 367/7/5 363/7/5 366/7/5
f 368/7/5 365/7/5 364/7/5
f 369/7/5 365/7/5 368/7/5
f 373/9/5 371/9/5 370/9/5
f 374/9/5 371/9/5 373/9/5
f 376/9/5 373/9/5 372/9/5
f 377/11/5 374/11/5 373/11/5
f 377/9/5 373/9/5 376/9/5
f 378/9/5 375/9/5 374/9/5
f 378/11/5 374/11/5 377/11/5
f 379/9/5 375/9/5 378/9/5
f 380/11/5 377/11/5 376/11/5
f 380/11/5 378/11/5 377/11/5
f 380/11/5 379/11/5 378/11/5
f 381/11/5 379/11/5 380/11/5
f 382/9/5 381/9/5 380/9/5
f 383/9/5 381/9/5 382/9/5
f 384/9/5 381/9/5 383/9/5
f 385/9/5 381/9/5 384/9/5
f 386/11/5 383/11/5 382/11/5
f 386/9/5 384/9/5 383/9/5
f 387/11/5 385/11/5 384/11/5
f 387/9/5 384/9/5 386/9/5
f 388/11/5 386/11/5 382/11/5
f 388/11/5 387/11/5 386/11/5
f 389/11/5 387/11/5 388/11/5
f 390/11/5 385/11/5 387/11/5
f 390/11/5 387/11/5 389/11/5
f 391/11/5 385/11/5 390/11/5
f 392/9/5 389/9/5 388/9/5
f 393/11/5 390/11/5 389/11/5
f 393/9/5 389/9/5 392/9/5
f 394/9/5 391/9/5 390/9/5
f 394/11/5 390/11/5 393/11/5
f 395/9/5 391/9/5 394/9/5
f 396/9/5 394/9/5 393/9/5
f 397/9/5 394/9/5 396/9/5
f 398/11/5 397/11/5 396/11/5
f 399/11/5 397/11/5 398/11/5
f 403/10/5 401/10/5 400/10/5
f 404/12/5 402/12/5 401/12/5
f 404/10/5 401/10/5 403/10/5
f 405/12/5 402/12/5 404/12/5
f 410/10/5 407/10/5 406/10/5
f 411/12/5 409/12/5 408/12/5
f 412/10/5 410/10/5 406/10/5
f 413/10/5 410/10/5 412/10/5
f 414/12/5 409/12/5 411/12/5
f 415/12/5 409/12/5 414/12/5
f 416/12/5 413/12/5 412/12/5
f 417/10/5 415/10/5 414/10/5
f 418/12/5 416/12/5 412/12/5
f 419/12/5 416/12/5 418/12/5
f 420/10/5 415/10/5 417/10/5
f 421/10/5 415/10/5 420/10/5
f 422/10/5 419/10/5 418/10/5
f 423/12/5 421/12/5 420/12/5
f 424/10/5 422/10/5 418/10/5
f 425/10/5 422/10/5 424/10/5
f 426/12/5 421/12/5 423/12/5
f 427/12/5 421/12/5 426/12/5
f 431/7/5 429/7/5 428/7/5
f 431/7/5 430/7/5 429/7/5
f 432/7/5 430/7/5 431/7/5
f 433/7/5 430/7/5 432/7/5
f 434/7/5 430/7/5 433/7/5
f 435/6/5 433/6/5 432/6/5
f 436/6/5 433/6/5 435/6/5
f 437/7/6 438/7/6 441/7/6
f 441/7/6 438/7/6 442/7/6
f 439/7/6 440/7/6 443/7/6
f 443/7/6 440/7/6 444/7/6
f 445/12/6 446/12/6 451/12/6
f 446/10/6 447/10/6 452/10/6
f 451/12/6 446/12/6 452/12/6
f 447/12/6 448/12/6 453/12/6
f 452/10/6 447/10/6 453/10/6
f 448/10/6 449/10/6 454/10/6
f 453/12/6 448/12/6 454/12/6
f 454/10/6 449/10/6 455/10/6
f 450/12/6 451/12/6 457/12/6
f 457/12/6 451/12/6 458/12/6
f 455/10/6 456/10/6 459/10/6
f 459/10/6 456/10/6 460/10/6
f 457/10/6 458/10/6 461/10/6
f 461/10/6 458/10/6 462/10/6
f 459/12/6 460/12/6 463/12/6
f 463/12/6 460/12/6 464/12/6
f 461/12/6 462/12/6 465/12/6
f 465/12/6 462/12/6 466/12/6
f 463/10/6 464/10/6 467/10/6
f 467/10/6 464/10/6 468/10/6
f 465/10/6 466/10/6 469/10/6
f 469/10/6 466/10/6 470/10/6
f 467/12/6 468/12/6 471/12/6
f 471/12/6 468/12/6 472/12/6
f 469/12/6 470/12/6 473/12/6
f 473/12/6 470/12/6 474/12/6
f 471/10/6 472/10/6 475/10/6
f 475/10/6 472/10/6 476/10/6
f 477/6/6 478/6/6 479/6/6
f 479/6/6 478/6/6 480/6/6
f 481/10/6 482/10/6 485/10/6
f 485/10/6 482/10/6 486/10/6
f 483/12/6 484/12/6 487/12/6
f 487/12/6 484/12/6 488/12/6
f 489/10/6 490/10/6 494/10/6
f 490/12/6 491/12/6 495/12/6
f 494/10/6 490/10/6 495/10/6
f 491/10/6 492/10/6 496/10/6
f 495/12/6 491/12/6 496/12/6
f 492/12/6 493/12/6 497/12/6
f 496/10/6 492/10/6 497/10/6
f 497/12/6 493/12/6 498/12/6
f 499/12/6 500/12/6 503/12/6
f 503/12/6 500/12/6 504/12/6
f 500/10/6 501/10/6 505/10/6
f 504/12/6 500/12/6 505/12/6
f 505/10/6 501/10/6 506/10/6
f 506/10/6 501/10/6 507/10/6
f 502/12/6 503/12/6 509/12/6
f 509/12/6 503/12/6 510/12/6
f 504/10/6 505/10/6 511/10/6
f 505/12/6 506/12/6 512/12/6
f 511/10/6 505/10/6 512/10/6
f 512/12/6 506/12/6 513/12/6
f 507/10/6 508/10/6 514/10/6
f 514/10/6 508/10/6 515/10/6
f 509/10/6 510/10/6 516/10/6
f 516/10/6 510/10/6 517/10/6
f 511/12/6 512/12/6 518/12/6
f 512/10/6 513/10/6 519/10/6
f 518/12/6 512/12/6 519/12/6
f 519/10/6 513/10/6 520/10/6
f 514/12/6 515/12/6 521/12/6
f 521/12/6 515/12/6 522/12/6
f 516/12/6 517/12/6 523/12/6
f 523/12/6 517/12/6 524/12/6
f 518/10/6 519/10/6 525/10/6
f 519/12/6 520/12/6 526/12/6
f 525/10/6 519/10/6 526/10/6
f 526/12/6 520/12/6 527/12/6
f 521/10/6 522/10/6 528/10/6
f 528/10/6 522/10/6 529/10/6
f 523/10/6 524/10/6 530/10/6
f 530/10/6 524/10/6 531/10/6
f 525/12/6 526/12/6 532/12/6
f 526/10/6 527/10/6 533/10/6
f 532/12/6 526/12/6 533/12/6
f 533/10/6 527/10/6 534/10/6
f 528/12/6 529/12/6 535/12/6
f 535/12/6 529/12/6 536/12/6
f 537/1/6 538/1/6 539/1/6
f 539/1/6 538/1/6 540/1/6
f 541/3/6 542/3/6 545/3/6
f 545/3/6 542/3/6 546/3/6
f 543/3/6 544/3/6 547/3/6
f 547/3/6 544/3/6 548/3/6
f 545/5/6 546/5/6 549/5/6
f 549/5/6 546/5/6 550/5/6
f 547/4/6 548/4/6 551/4/6
f 551/4/6 548/4/6 552/4/6
f 553/7/6 554/7/6 555/7/6
f 555/7/6 554/7/6 556/7/6
