# MagicaVoxel @ Ephtracy

# material
mtllib MichelangeloTest.mtl
usemtl palette

# normals
vn -1 0 0
vn 1 0 0
vn 0 0 1
vn 0 0 -1
vn 0 -1 0
vn 0 1 0

# texcoords
vt 0.189453 0.5
vt 0.193359 0.5
vt 0.197266 0.5
vt 0.201172 0.5
vt 0.205078 0.5
vt 0.380859 0.5
vt 0.658203 0.5
vt 0.751953 0.5
vt 0.755859 0.5
vt 0.783203 0.5
vt 0.787109 0.5
vt 0.794922 0.5
vt 0.943359 0.5

# verts
v -3 0 6
v -3 0 4
v -3 0 -2
v -3 0 -4
v -3 2 6
v -3 2 5
v -3 2 4
v -3 2 2
v -3 2 -0
v -3 2 -2
v -3 2 -4
v -3 3 5
v -3 3 4
v -3 3 2
v -3 3 -0
v -3 3 -2
v -3 3 -4
v -2 1 4
v -2 1 3
v -2 1 2
v -2 1 1
v -2 1 -1
v -2 1 -2
v -2 2 6
v -2 2 5
v -2 2 4
v -2 2 3
v -2 2 2
v -2 2 1
v -2 2 -0
v -2 2 -1
v -2 2 -2
v -2 3 6
v -2 3 5
v -2 3 4
v -2 3 2
v -2 3 -0
v -2 3 -2
v -2 3 -4
v -2 4 5
v -2 4 4
v -2 4 2
v -2 4 -0
v -2 4 -2
v -2 4 -4
v -2 5 5
v -2 5 4
v -2 5 -3
v -2 5 -4
v -2 6 4
v -2 6 2
v -2 6 -0
v -2 6 -2
v -2 6 -3
v -1 3 -4
v -1 3 -8
v -1 4 -4
v -1 5 5
v -1 5 4
v -1 5 -4
v -1 5 -5
v -1 5 -6
v -1 5 -8
v -1 6 5
v -1 6 4
v -1 6 3
v -1 6 2
v -1 6 -0
v -1 6 -1
v -1 6 -4
v -1 6 -5
v -1 6 -6
v -1 6 -7
v -1 6 -8
v -1 7 3
v -1 7 -0
v -1 7 -1
v -1 7 -4
v -1 7 -7
v 0 3 -8
v 0 3 -9
v 0 4 -8
v 0 4 -9
v 0 6 -1
v 0 6 -2
v 0 7 -1
v 0 7 -2
v 2 6 3
v 2 6 2
v 2 6 -0
v 2 6 -1
v 2 7 3
v 2 7 -0
v 2 7 -1
v 3 0 6
v 3 0 4
v 3 0 -2
v 3 0 -4
v 3 1 5
v 3 1 4
v 3 1 -2
v 3 1 -3
v 3 1 -4
v 3 2 6
v 3 2 5
v -1 0 6
v -1 0 4
v -1 0 -2
v -1 0 -4
v -1 1 5
v -1 1 4
v -1 1 -2
v -1 1 -3
v -1 1 -4
v -1 2 6
v -1 2 5
v 0 6 3
v 0 6 2
v 0 6 -0
v 0 6 -1
v 0 7 3
v 0 7 -0
v 0 7 -1
v 2 3 -8
v 2 3 -9
v 2 4 -8
v 2 4 -9
v 2 6 -1
v 2 6 -2
v 2 7 -1
v 2 7 -2
v 3 3 -4
v 3 3 -8
v 3 4 -4
v 3 5 5
v 3 5 4
v 3 5 -4
v 3 5 -5
v 3 5 -6
v 3 5 -8
v 3 6 5
v 3 6 4
v 3 6 3
v 3 6 2
v 3 6 -0
v 3 6 -1
v 3 6 -4
v 3 6 -5
v 3 6 -6
v 3 6 -7
v 3 6 -8
v 3 7 3
v 3 7 -0
v 3 7 -1
v 3 7 -4
v 3 7 -7
v 4 1 4
v 4 1 3
v 4 1 2
v 4 1 1
v 4 1 -1
v 4 1 -2
v 4 2 6
v 4 2 5
v 4 2 4
v 4 2 3
v 4 2 2
v 4 2 1
v 4 2 -0
v 4 2 -1
v 4 2 -2
v 4 3 6
v 4 3 5
v 4 3 4
v 4 3 2
v 4 3 -0
v 4 3 -2
v 4 3 -4
v 4 4 5
v 4 4 4
v 4 4 2
v 4 4 -0
v 4 4 -2
v 4 4 -4
v 4 5 5
v 4 5 4
v 4 5 -3
v 4 5 -4
v 4 6 4
v 4 6 2
v 4 6 -0
v 4 6 -2
v 4 6 -3
v 5 0 6
v 5 0 4
v 5 0 -2
v 5 0 -4
v 5 2 6
v 5 2 5
v 5 2 4
v 5 2 2
v 5 2 -0
v 5 2 -2
v 5 2 -4
v 5 3 5
v 5 3 4
v 5 3 2
v 5 3 -0
v 5 3 -2
v 5 3 -4
v -3 0 6
v -3 2 6
v -2 2 6
v -2 3 6
v -1 0 6
v -1 2 6
v -1 3 6
v 1 2 6
v 1 3 6
v 3 0 6
v 3 2 6
v 3 3 6
v 4 2 6
v 4 3 6
v 5 0 6
v 5 2 6
v -3 2 5
v -3 3 5
v -2 2 5
v -2 3 5
v -2 4 5
v -2 5 5
v -1 1 5
v -1 2 5
v -1 3 5
v -1 4 5
v -1 5 5
v -1 6 5
v 1 2 5
v 1 3 5
v 1 4 5
v 1 6 5
v 3 1 5
v 3 2 5
v 3 3 5
v 3 4 5
v 3 5 5
v 3 6 5
v 4 2 5
v 4 3 5
v 4 4 5
v 4 5 5
v 5 2 5
v 5 3 5
v -2 5 4
v -2 6 4
v -1 5 4
v -1 6 4
v 3 5 4
v 3 6 4
v 4 5 4
v 4 6 4
v -1 6 3
v -1 7 3
v 0 6 3
v 0 7 3
v 2 6 3
v 2 7 3
v 3 6 3
v 3 7 3
v 0 6 -1
v 0 7 -1
v 1 6 -1
v 1 7 -1
v 2 6 -1
v 2 7 -1
v -3 0 -2
v -3 2 -2
v -2 1 -2
v -2 2 -2
v -1 0 -2
v -1 1 -2
v 3 0 -2
v 3 1 -2
v 4 1 -2
v 4 2 -2
v 5 0 -2
v 5 2 -2
v -1 5 -4
v -1 6 -4
v -1 7 -4
v 1 5 -4
v 3 5 -4
v 3 6 -4
v 3 7 -4
v -3 0 4
v -3 2 4
v -2 1 4
v -2 2 4
v -1 0 4
v -1 1 4
v 3 0 4
v 3 1 4
v 4 1 4
v 4 2 4
v 5 0 4
v 5 2 4
v -1 6 -1
v -1 7 -1
v 0 6 -1
v 0 7 -1
v 2 6 -1
v 2 7 -1
v 3 6 -1
v 3 7 -1
v 0 6 -2
v 0 7 -2
v 1 6 -2
v 1 7 -2
v 2 6 -2
v 2 7 -2
v -2 5 -3
v -2 6 -3
v -1 5 -3
v -1 6 -3
v 1 5 -3
v 1 6 -3
v 3 5 -3
v 3 6 -3
v 4 5 -3
v 4 6 -3
v -3 0 -4
v -3 2 -4
v -3 3 -4
v -2 3 -4
v -2 4 -4
v -2 5 -4
v -1 0 -4
v -1 1 -4
v -1 2 -4
v -1 3 -4
v -1 4 -4
v -1 5 -4
v 1 2 -4
v 1 3 -4
v 3 0 -4
v 3 1 -4
v 3 2 -4
v 3 3 -4
v 3 4 -4
v 3 5 -4
v 4 3 -4
v 4 4 -4
v 4 5 -4
v 5 0 -4
v 5 2 -4
v 5 3 -4
v -1 6 -7
v -1 7 -7
v 3 6 -7
v 3 7 -7
v -1 3 -8
v -1 5 -8
v -1 6 -8
v 0 3 -8
v 0 4 -8
v 2 3 -8
v 2 4 -8
v 3 3 -8
v 3 5 -8
v 3 6 -8
v 0 3 -9
v 0 4 -9
v 2 3 -9
v 2 4 -9
v -3 0 6
v -1 0 6
v 3 0 6
v 5 0 6
v -3 0 4
v -1 0 4
v 3 0 4
v 5 0 4
v -3 0 -2
v -1 0 -2
v 3 0 -2
v 5 0 -2
v -3 0 -4
v -1 0 -4
v 3 0 -4
v 5 0 -4
v -1 1 5
v 3 1 5
v -2 1 4
v -1 1 4
v 3 1 4
v 4 1 4
v -2 1 3
v -1 1 3
v 3 1 3
v 4 1 3
v -2 1 2
v 4 1 2
v -2 1 1
v -1 1 1
v 3 1 1
v 4 1 1
v -1 1 -0
v 3 1 -0
v -2 1 -1
v -1 1 -1
v 3 1 -1
v 4 1 -1
v -2 1 -2
v -1 1 -2
v 3 1 -2
v 4 1 -2
v -1 1 -3
v 3 1 -3
v -1 1 -4
v 3 1 -4
v -1 2 6
v 1 2 6
v 3 2 6
v -1 2 5
v 1 2 5
v 3 2 5
v -3 2 4
v -2 2 4
v 4 2 4
v 5 2 4
v -2 2 3
v 4 2 3
v -3 2 2
v -2 2 2
v 4 2 2
v 5 2 2
v -2 2 1
v 4 2 1
v -3 2 -0
v -2 2 -0
v 4 2 -0
v 5 2 -0
v -2 2 -1
v 4 2 -1
v -3 2 -2
v -2 2 -2
v 4 2 -2
v 5 2 -2
v -1 3 -4
v 1 3 -4
v 3 3 -4
v -1 3 -8
v 0 3 -8
v 2 3 -8
v 3 3 -8
v 0 3 -9
v 2 3 -9
v -3 2 6
v -2 2 6
v 4 2 6
v 5 2 6
v -3 2 5
v -2 2 5
v 4 2 5
v 5 2 5
v -2 3 6
v -1 3 6
v 1 3 6
v 3 3 6
v 4 3 6
v -3 3 5
v -2 3 5
v -1 3 5
v 1 3 5
v 3 3 5
v 4 3 5
v 5 3 5
v -3 3 4
v -2 3 4
v 4 3 4
v 5 3 4
v -3 3 2
v -2 3 2
v 4 3 2
v 5 3 2
v -3 3 -0
v -2 3 -0
v 4 3 -0
v 5 3 -0
v -3 3 -2
v -2 3 -2
v 4 3 -2
v 5 3 -2
v -3 3 -4
v -2 3 -4
v 4 3 -4
v 5 3 -4
v 0 4 -8
v 2 4 -8
v 0 4 -9
v 2 4 -9
v -2 5 5
v -1 5 5
v 3 5 5
v 4 5 5
v -2 5 4
v -1 5 4
v 3 5 4
v 4 5 4
v -2 5 -3
v -1 5 -3
v 1 5 -3
v 3 5 -3
v 4 5 -3
v -2 5 -4
v -1 5 -4
v 1 5 -4
v 3 5 -4
v 4 5 -4
v -1 6 5
v 1 6 5
v 3 6 5
v -2 6 4
v -1 6 4
v 1 6 4
v 3 6 4
v 4 6 4
v -1 6 3
v 0 6 3
v 2 6 3
v 3 6 3
v -2 6 2
v -1 6 2
v 0 6 2
v 1 6 2
v 2 6 2
v 3 6 2
v 4 6 2
v -2 6 -0
v -1 6 -0
v 0 6 -0
v 1 6 -0
v 2 6 -0
v 3 6 -0
v 4 6 -0
v -1 6 -1
v 0 6 -1
v 1 6 -1
v 2 6 -1
v 3 6 -1
v -2 6 -2
v -1 6 -2
v 0 6 -2
v 1 6 -2
v 2 6 -2
v 3 6 -2
v 4 6 -2
v -2 6 -3
v -1 6 -3
v 1 6 -3
v 3 6 -3
v 4 6 -3
v -1 6 -7
v 3 6 -7
v -1 6 -8
v 3 6 -8
v -1 7 3
v 0 7 3
v 2 7 3
v 3 7 3
v -1 7 -0
v 0 7 -0
v 2 7 -0
v 3 7 -0
v -1 7 -1
v 0 7 -1
v 1 7 -1
v 2 7 -1
v 3 7 -1
v 0 7 -2
v 1 7 -2
v 2 7 -2
v -1 7 -4
v 3 7 -4
v -1 7 -7
v 3 7 -7

# faces
f 5/7/1 2/7/1 1/7/1
f 6/7/1 2/7/1 5/7/1
f 7/7/1 2/7/1 6/7/1
f 10/7/1 4/7/1 3/7/1
f 11/7/1 4/7/1 10/7/1
f 12/12/1 7/12/1 6/12/1
f 13/10/1 8/10/1 7/10/1
f 13/12/1 7/12/1 12/12/1
f 14/12/1 9/12/1 8/12/1
f 14/10/1 8/10/1 13/10/1
f 15/10/1 10/10/1 9/10/1
f 15/12/1 9/12/1 14/12/1
f 16/12/1 11/12/1 10/12/1
f 16/10/1 10/10/1 15/10/1
f 17/12/1 11/12/1 16/12/1
f 26/9/1 19/9/1 18/9/1
f 27/11/1 20/11/1 19/11/1
f 27/9/1 19/9/1 26/9/1
f 28/9/1 21/9/1 20/9/1
f 28/11/1 20/11/1 27/11/1
f 29/11/1 22/11/1 21/11/1
f 29/9/1 21/9/1 28/9/1
f 30/11/1 22/11/1 29/11/1
f 31/9/1 23/9/1 22/9/1
f 31/11/1 22/11/1 30/11/1
f 32/9/1 23/9/1 31/9/1
f 33/12/1 25/12/1 24/12/1
f 34/12/1 25/12/1 33/12/1
f 40/12/1 35/12/1 34/12/1
f 41/10/1 36/10/1 35/10/1
f 41/12/1 35/12/1 40/12/1
f 42/12/1 37/12/1 36/12/1
f 42/10/1 36/10/1 41/10/1
f 43/10/1 38/10/1 37/10/1
f 43/12/1 37/12/1 42/12/1
f 44/12/1 39/12/1 38/12/1
f 44/10/1 38/10/1 43/10/1
f 45/12/1 39/12/1 44/12/1
f 46/10/1 41/10/1 40/10/1
f 47/12/1 42/12/1 41/12/1
f 47/10/1 41/10/1 46/10/1
f 48/10/1 45/10/1 44/10/1
f 49/10/1 45/10/1 48/10/1
f 50/12/1 42/12/1 47/12/1
f 51/10/1 43/10/1 42/10/1
f 51/12/1 42/12/1 50/12/1
f 52/12/1 44/12/1 43/12/1
f 52/10/1 43/10/1 51/10/1
f 53/10/1 48/10/1 44/10/1
f 53/12/1 44/12/1 52/12/1
f 54/10/1 48/10/1 53/10/1
f 57/7/1 56/7/1 55/7/1
f 60/7/1 56/7/1 57/7/1
f 61/7/1 56/7/1 60/7/1
f 62/7/1 56/7/1 61/7/1
f 63/7/1 56/7/1 62/7/1
f 64/12/1 59/12/1 58/12/1
f 65/12/1 59/12/1 64/12/1
f 70/1/1 61/1/1 60/1/1
f 71/2/1 62/2/1 61/2/1
f 71/1/1 61/1/1 70/1/1
f 72/1/1 63/1/1 62/1/1
f 72/2/1 62/2/1 71/2/1
f 73/1/1 63/1/1 72/1/1
f 74/1/1 63/1/1 73/1/1
f 75/3/1 67/3/1 66/3/1
f 75/3/1 68/3/1 67/3/1
f 76/5/1 69/5/1 68/5/1
f 76/3/1 68/3/1 75/3/1
f 77/5/1 69/5/1 76/5/1
f 78/7/1 71/7/1 70/7/1
f 78/7/1 73/7/1 72/7/1
f 78/7/1 72/7/1 71/7/1
f 79/7/1 73/7/1 78/7/1
f 82/6/1 81/6/1 80/6/1
f 83/6/1 81/6/1 82/6/1
f 86/4/1 85/4/1 84/4/1
f 87/4/1 85/4/1 86/4/1
f 92/3/1 89/3/1 88/3/1
f 92/3/1 90/3/1 89/3/1
f 93/4/1 91/4/1 90/4/1
f 93/3/1 90/3/1 92/3/1
f 94/4/1 91/4/1 93/4/1
f 99/7/1 96/7/1 95/7/1
f 100/7/1 96/7/1 99/7/1
f 101/7/1 98/7/1 97/7/1
f 102/7/1 98/7/1 101/7/1
f 103/7/1 98/7/1 102/7/1
f 104/7/1 99/7/1 95/7/1
f 105/7/1 99/7/1 104/7/1
f 106/7/2 107/7/2 110/7/2
f 110/7/2 107/7/2 111/7/2
f 108/7/2 109/7/2 112/7/2
f 112/7/2 109/7/2 113/7/2
f 113/7/2 109/7/2 114/7/2
f 106/7/2 110/7/2 115/7/2
f 115/7/2 110/7/2 116/7/2
f 117/3/2 118/3/2 121/3/2
f 118/3/2 119/3/2 121/3/2
f 119/5/2 120/5/2 122/5/2
f 121/3/2 119/3/2 122/3/2
f 122/5/2 120/5/2 123/5/2
f 124/6/2 125/6/2 126/6/2
f 126/6/2 125/6/2 127/6/2
f 128/5/2 129/5/2 130/5/2
f 130/5/2 129/5/2 131/5/2
f 132/7/2 133/7/2 134/7/2
f 134/7/2 133/7/2 137/7/2
f 137/7/2 133/7/2 138/7/2
f 138/7/2 133/7/2 139/7/2
f 139/7/2 133/7/2 140/7/2
f 135/10/2 136/10/2 141/10/2
f 141/10/2 136/10/2 142/10/2
f 137/1/2 138/1/2 147/1/2
f 138/2/2 139/2/2 148/2/2
f 147/1/2 138/1/2 148/1/2
f 139/1/2 140/1/2 149/1/2
f 148/2/2 139/2/2 149/2/2
f 149/1/2 140/1/2 150/1/2
f 150/1/2 140/1/2 151/1/2
f 143/3/2 144/3/2 152/3/2
f 144/3/2 145/3/2 152/3/2
f 145/4/2 146/4/2 153/4/2
f 152/3/2 145/3/2 153/3/2
f 153/4/2 146/4/2 154/4/2
f 147/7/2 148/7/2 155/7/2
f 149/7/2 150/7/2 155/7/2
f 148/7/2 149/7/2 155/7/2
f 155/7/2 150/7/2 156/7/2
f 157/9/2 158/9/2 165/9/2
f 158/11/2 159/11/2 166/11/2
f 165/9/2 158/9/2 166/9/2
f 159/9/2 160/9/2 167/9/2
f 166/11/2 159/11/2 167/11/2
f 160/11/2 161/11/2 168/11/2
f 167/9/2 160/9/2 168/9/2
f 168/11/2 161/11/2 169/11/2
f 161/9/2 162/9/2 170/9/2
f 169/11/2 161/11/2 170/11/2
f 170/9/2 162/9/2 171/9/2
f 163/10/2 164/10/2 172/10/2
f 172/10/2 164/10/2 173/10/2
f 173/10/2 174/10/2 179/10/2
f 174/12/2 175/12/2 180/12/2
f 179/10/2 174/10/2 180/10/2
f 175/10/2 176/10/2 181/10/2
f 180/12/2 175/12/2 181/12/2
f 176/12/2 177/12/2 182/12/2
f 181/10/2 176/10/2 182/10/2
f 177/10/2 178/10/2 183/10/2
f 182/12/2 177/12/2 183/12/2
f 183/10/2 178/10/2 184/10/2
f 179/12/2 180/12/2 185/12/2
f 180/10/2 181/10/2 186/10/2
f 185/12/2 180/12/2 186/12/2
f 183/12/2 184/12/2 187/12/2
f 187/12/2 184/12/2 188/12/2
f 186/10/2 181/10/2 189/10/2
f 181/12/2 182/12/2 190/12/2
f 189/10/2 181/10/2 190/10/2
f 182/10/2 183/10/2 191/10/2
f 190/12/2 182/12/2 191/12/2
f 183/12/2 187/12/2 192/12/2
f 191/10/2 183/10/2 192/10/2
f 192/12/2 187/12/2 193/12/2
f 194/7/2 195/7/2 198/7/2
f 198/7/2 195/7/2 199/7/2
f 199/7/2 195/7/2 200/7/2
f 196/7/2 197/7/2 203/7/2
f 203/7/2 197/7/2 204/7/2
f 199/10/2 200/10/2 205/10/2
f 200/12/2 201/12/2 206/12/2
f 205/10/2 200/10/2 206/10/2
f 201/10/2 202/10/2 207/10/2
f 206/12/2 201/12/2 207/12/2
f 202/12/2 203/12/2 208/12/2
f 207/10/2 202/10/2 208/10/2
f 203/10/2 204/10/2 209/10/2
f 208/12/2 203/12/2 209/12/2
f 209/10/2 204/10/2 210/10/2
f 213/7/3 212/7/3 211/7/3
f 215/7/3 213/7/3 211/7/3
f 216/12/3 214/12/3 213/12/3
f 216/7/3 213/7/3 215/7/3
f 217/12/3 214/12/3 216/12/3
f 218/10/3 217/10/3 216/10/3
f 219/10/3 217/10/3 218/10/3
f 221/12/3 219/12/3 218/12/3
f 222/12/3 219/12/3 221/12/3
f 223/7/3 221/7/3 220/7/3
f 223/10/3 222/10/3 221/10/3
f 224/10/3 222/10/3 223/10/3
f 225/7/3 223/7/3 220/7/3
f 226/7/3 223/7/3 225/7/3
f 229/12/3 228/12/3 227/12/3
f 230/12/3 228/12/3 229/12/3
f 235/12/3 231/12/3 230/12/3
f 236/10/3 232/10/3 231/10/3
f 236/12/3 231/12/3 235/12/3
f 237/10/3 232/10/3 236/10/3
f 239/9/3 234/9/3 233/9/3
f 240/10/3 236/10/3 235/10/3
f 241/12/3 238/12/3 237/12/3
f 241/10/3 236/10/3 240/10/3
f 241/12/3 237/12/3 236/12/3
f 242/12/3 238/12/3 241/12/3
f 243/9/3 239/9/3 233/9/3
f 244/9/3 239/9/3 243/9/3
f 245/12/3 241/12/3 240/12/3
f 246/10/3 242/10/3 241/10/3
f 246/12/3 241/12/3 245/12/3
f 247/10/3 242/10/3 246/10/3
f 248/10/3 242/10/3 247/10/3
f 250/10/3 246/10/3 245/10/3
f 251/12/3 247/12/3 246/12/3
f 251/10/3 246/10/3 250/10/3
f 252/12/3 247/12/3 251/12/3
f 253/10/3 250/10/3 249/10/3
f 254/10/3 250/10/3 253/10/3
f 257/12/3 256/12/3 255/12/3
f 258/12/3 256/12/3 257/12/3
f 261/10/3 260/10/3 259/10/3
f 262/10/3 260/10/3 261/10/3
f 265/3/3 264/3/3 263/3/3
f 266/3/3 264/3/3 265/3/3
f 269/3/3 268/3/3 267/3/3
f 270/3/3 268/3/3 269/3/3
f 273/4/3 272/4/3 271/4/3
f 274/4/3 272/4/3 273/4/3
f 275/5/3 274/5/3 273/5/3
f 276/5/3 274/5/3 275/5/3
f 279/7/3 278/7/3 277/7/3
f 280/7/3 278/7/3 279/7/3
f 281/7/3 279/7/3 277/7/3
f 282/7/3 279/7/3 281/7/3
f 285/7/3 284/7/3 283/7/3
f 287/7/3 285/7/3 283/7/3
f 287/7/3 286/7/3 285/7/3
f 288/7/3 286/7/3 287/7/3
f 292/1/3 290/1/3 289/1/3
f 293/1/3 290/1/3 292/1/3
f 294/7/3 291/7/3 290/7/3
f 294/1/3 290/1/3 293/1/3
f 295/7/3 291/7/3 294/7/3
f 296/7/4 297/7/4 298/7/4
f 298/7/4 297/7/4 299/7/4
f 296/7/4 298/7/4 300/7/4
f 300/7/4 298/7/4 301/7/4
f 302/7/4 303/7/4 304/7/4
f 302/7/4 304/7/4 306/7/4
f 304/7/4 305/7/4 306/7/4
f 306/7/4 305/7/4 307/7/4
f 308/5/4 309/5/4 310/5/4
f 310/5/4 309/5/4 311/5/4
f 312/4/4 313/4/4 314/4/4
f 314/4/4 313/4/4 315/4/4
f 316/4/4 317/4/4 318/4/4
f 318/4/4 317/4/4 319/4/4
f 318/5/4 319/5/4 320/5/4
f 320/5/4 319/5/4 321/5/4
f 322/10/4 323/10/4 324/10/4
f 324/10/4 323/10/4 325/10/4
f 324/12/4 325/12/4 326/12/4
f 326/12/4 325/12/4 327/12/4
f 326/10/4 327/10/4 328/10/4
f 328/10/4 327/10/4 329/10/4
f 328/12/4 329/12/4 330/12/4
f 330/12/4 329/12/4 331/12/4
f 333/12/4 334/12/4 335/12/4
f 332/7/4 333/7/4 338/7/4
f 338/7/4 333/7/4 339/7/4
f 333/12/4 335/12/4 340/12/4
f 339/7/4 333/7/4 340/7/4
f 335/12/4 336/12/4 340/12/4
f 340/12/4 336/12/4 341/12/4
f 336/10/4 337/10/4 342/10/4
f 341/12/4 336/12/4 342/12/4
f 342/10/4 337/10/4 343/10/4
f 340/10/4 341/10/4 344/10/4
f 339/11/4 340/11/4 344/11/4
f 344/10/4 341/10/4 345/10/4
f 339/11/4 344/11/4 347/11/4
f 344/12/4 345/12/4 348/12/4
f 347/11/4 344/11/4 348/11/4
f 348/12/4 345/12/4 349/12/4
f 348/10/4 349/10/4 352/10/4
f 349/10/4 350/10/4 352/10/4
f 350/12/4 351/12/4 353/12/4
f 352/10/4 350/10/4 353/10/4
f 353/12/4 351/12/4 354/12/4
f 346/7/4 347/7/4 355/7/4
f 347/7/4 348/7/4 355/7/4
f 348/10/4 352/10/4 356/10/4
f 355/7/4 348/7/4 356/7/4
f 356/10/4 352/10/4 357/10/4
f 358/7/4 359/7/4 360/7/4
f 360/7/4 359/7/4 361/7/4
f 362/7/4 363/7/4 365/7/4
f 365/7/4 363/7/4 366/7/4
f 366/7/4 363/7/4 368/7/4
f 367/7/4 368/7/4 369/7/4
f 363/1/4 364/1/4 370/1/4
f 369/7/4 368/7/4 370/7/4
f 368/7/4 363/7/4 370/7/4
f 370/1/4 364/1/4 371/1/4
f 372/6/4 373/6/4 374/6/4
f 374/6/4 373/6/4 375/6/4
f 380/7/5 377/7/5 376/7/5
f 381/7/5 377/7/5 380/7/5
f 382/7/5 379/7/5 378/7/5
f 383/7/5 379/7/5 382/7/5
f 388/7/5 385/7/5 384/7/5
f 389/7/5 385/7/5 388/7/5
f 390/7/5 387/7/5 386/7/5
f 391/7/5 387/7/5 390/7/5
f 395/9/5 393/9/5 392/9/5
f 396/9/5 393/9/5 395/9/5
f 398/9/5 395/9/5 394/9/5
f 399/11/5 396/11/5 395/11/5
f 399/9/5 395/9/5 398/9/5
f 400/9/5 397/9/5 396/9/5
f 400/11/5 396/11/5 399/11/5
f 401/9/5 397/9/5 400/9/5
f 402/11/5 399/11/5 398/11/5
f 402/11/5 400/11/5 399/11/5
f 402/11/5 401/11/5 400/11/5
f 403/11/5 401/11/5 402/11/5
f 404/9/5 403/9/5 402/9/5
f 405/9/5 403/9/5 404/9/5
f 406/9/5 403/9/5 405/9/5
f 407/9/5 403/9/5 406/9/5
f 408/11/5 405/11/5 404/11/5
f 408/9/5 406/9/5 405/9/5
f 409/11/5 407/11/5 406/11/5
f 409/9/5 406/9/5 408/9/5
f 410/11/5 408/11/5 404/11/5
f 410/11/5 409/11/5 408/11/5
f 411/11/5 409/11/5 410/11/5
f 412/11/5 407/11/5 409/11/5
f 412/11/5 409/11/5 411/11/5
f 413/11/5 407/11/5 412/11/5
f 414/9/5 411/9/5 410/9/5
f 415/11/5 412/11/5 411/11/5
f 415/9/5 411/9/5 414/9/5
f 416/9/5 413/9/5 412/9/5
f 416/11/5 412/11/5 415/11/5
f 417/9/5 413/9/5 416/9/5
f 418/9/5 416/9/5 415/9/5
f 419/9/5 416/9/5 418/9/5
f 420/11/5 419/11/5 418/11/5
f 421/11/5 419/11/5 420/11/5
f 425/10/5 423/10/5 422/10/5
f 426/12/5 424/12/5 423/12/5
f 426/10/5 423/10/5 425/10/5
f 427/12/5 424/12/5 426/12/5
f 432/10/5 429/10/5 428/10/5
f 433/12/5 431/12/5 430/12/5
f 434/10/5 432/10/5 428/10/5
f 435/10/5 432/10/5 434/10/5
f 436/12/5 431/12/5 433/12/5
f 437/12/5 431/12/5 436/12/5
f 438/12/5 435/12/5 434/12/5
f 439/10/5 437/10/5 436/10/5
f 440/12/5 438/12/5 434/12/5
f 441/12/5 438/12/5 440/12/5
f 442/10/5 437/10/5 439/10/5
f 443/10/5 437/10/5 442/10/5
f 444/10/5 441/10/5 440/10/5
f 445/12/5 443/12/5 442/12/5
f 446/10/5 444/10/5 440/10/5
f 447/10/5 444/10/5 446/10/5
f 448/12/5 443/12/5 445/12/5
f 449/12/5 443/12/5 448/12/5
f 453/7/5 451/7/5 450/7/5
f 453/7/5 452/7/5 451/7/5
f 454/7/5 452/7/5 453/7/5
f 455/7/5 452/7/5 454/7/5
f 456/7/5 452/7/5 455/7/5
f 457/6/5 455/6/5 454/6/5
f 458/6/5 455/6/5 457/6/5
f 459/7/6 460/7/6 463/7/6
f 463/7/6 460/7/6 464/7/6
f 461/7/6 462/7/6 465/7/6
f 465/7/6 462/7/6 466/7/6
f 467/12/6 468/12/6 473/12/6
f 468/10/6 469/10/6 474/10/6
f 473/12/6 468/12/6 474/12/6
f 469/12/6 470/12/6 475/12/6
f 474/10/6 469/10/6 475/10/6
f 470/10/6 471/10/6 476/10/6
f 475/12/6 470/12/6 476/12/6
f 476/10/6 471/10/6 477/10/6
f 472/12/6 473/12/6 479/12/6
f 479/12/6 473/12/6 480/12/6
f 477/10/6 478/10/6 481/10/6
f 481/10/6 478/10/6 482/10/6
f 479/10/6 480/10/6 483/10/6
f 483/10/6 480/10/6 484/10/6
f 481/12/6 482/12/6 485/12/6
f 485/12/6 482/12/6 486/12/6
f 483/12/6 484/12/6 487/12/6
f 487/12/6 484/12/6 488/12/6
f 485/10/6 486/10/6 489/10/6
f 489/10/6 486/10/6 490/10/6
f 487/10/6 488/10/6 491/10/6
f 491/10/6 488/10/6 492/10/6
f 489/12/6 490/12/6 493/12/6
f 493/12/6 490/12/6 494/12/6
f 491/12/6 492/12/6 495/12/6
f 495/12/6 492/12/6 496/12/6
f 493/10/6 494/10/6 497/10/6
f 497/10/6 494/10/6 498/10/6
f 499/6/6 500/6/6 501/6/6
f 501/6/6 500/6/6 502/6/6
f 503/10/6 504/10/6 507/10/6
f 507/10/6 504/10/6 508/10/6
f 505/12/6 506/12/6 509/12/6
f 509/12/6 506/12/6 510/12/6
f 511/10/6 512/10/6 516/10/6
f 512/12/6 513/12/6 517/12/6
f 516/10/6 512/10/6 517/10/6
f 513/10/6 514/10/6 518/10/6
f 517/12/6 513/12/6 518/12/6
f 514/12/6 515/12/6 519/12/6
f 518/10/6 514/10/6 519/10/6
f 519/12/6 515/12/6 520/12/6
f 521/12/6 522/12/6 525/12/6
f 522/10/6 523/10/6 526/10/6
f 525/12/6 522/12/6 526/12/6
f 526/10/6 523/10/6 527/10/6
f 524/12/6 525/12/6 529/12/6
f 525/10/6 526/10/6 529/10/6
f 529/10/6 526/10/6 530/10/6
f 526/12/6 527/12/6 531/12/6
f 527/10/6 528/10/6 532/10/6
f 531/12/6 527/12/6 532/12/6
f 524/12/6 529/12/6 533/12/6
f 533/12/6 529/12/6 534/12/6
f 530/10/6 526/10/6 535/10/6
f 526/12/6 531/12/6 536/12/6
f 535/10/6 526/10/6 536/10/6
f 536/12/6 531/12/6 537/12/6
f 532/10/6 528/10/6 538/10/6
f 538/10/6 528/10/6 539/10/6
f 533/10/6 534/10/6 540/10/6
f 540/10/6 534/10/6 541/10/6
f 535/12/6 536/12/6 542/12/6
f 536/10/6 537/10/6 543/10/6
f 542/12/6 536/12/6 543/12/6
f 543/10/6 537/10/6 544/10/6
f 538/12/6 539/12/6 545/12/6
f 545/12/6 539/12/6 546/12/6
f 540/12/6 541/12/6 547/12/6
f 542/10/6 543/10/6 548/10/6
f 543/12/6 544/12/6 549/12/6
f 548/10/6 543/10/6 549/10/6
f 549/12/6 544/12/6 550/12/6
f 545/10/6 546/10/6 551/10/6
f 540/12/6 547/12/6 552/12/6
f 547/10/6 548/10/6 553/10/6
f 552/12/6 547/12/6 553/12/6
f 553/10/6 548/10/6 554/10/6
f 550/12/6 551/12/6 556/12/6
f 551/10/6 546/10/6 557/10/6
f 556/12/6 551/12/6 557/12/6
f 557/10/6 546/10/6 558/10/6
f 552/10/6 553/10/6 559/10/6
f 554/12/6 555/12/6 560/12/6
f 559/10/6 553/10/6 560/10/6
f 553/12/6 554/12/6 560/12/6
f 555/10/6 556/10/6 561/10/6
f 560/12/6 555/12/6 561/12/6
f 556/10/6 557/10/6 561/10/6
f 557/12/6 558/12/6 562/12/6
f 561/10/6 557/10/6 562/10/6
f 562/12/6 558/12/6 563/12/6
f 564/1/6 565/1/6 566/1/6
f 566/1/6 565/1/6 567/1/6
f 568/3/6 569/3/6 572/3/6
f 572/3/6 569/3/6 573/3/6
f 570/3/6 571/3/6 574/3/6
f 574/3/6 571/3/6 575/3/6
f 572/5/6 573/5/6 576/5/6
f 576/5/6 573/5/6 577/5/6
f 574/4/6 575/4/6 579/4/6
f 579/4/6 575/4/6 580/4/6
f 577/4/6 578/4/6 581/4/6
f 578/5/6 579/5/6 582/5/6
f 581/4/6 578/4/6 582/4/6
f 582/5/6 579/5/6 583/5/6
f 584/7/6 585/7/6 586/7/6
f 586/7/6 585/7/6 587/7/6
