# MagicaVoxel @ Ephtracy

# material
mtllib RaphaelTest.mtl
usemtl palette

# normals
vn -1 0 0
vn 1 0 0
vn 0 0 1
vn 0 0 -1
vn 0 -1 0
vn 0 1 0

# texcoords
vt 0.158203 0.5
vt 0.193359 0.5
vt 0.197266 0.5
vt 0.201172 0.5
vt 0.380859 0.5
vt 0.658203 0.5
vt 0.751953 0.5
vt 0.755859 0.5
vt 0.783203 0.5
vt 0.787109 0.5
vt 0.794922 0.5
vt 0.943359 0.5

# verts
v -3 0 6
v -3 0 4
v -3 0 -2
v -3 0 -4
v -3 2 6
v -3 2 5
v -3 2 4
v -3 2 2
v -3 2 -0
v -3 2 -2
v -3 2 -4
v -3 3 5
v -3 3 4
v -3 3 2
v -3 3 -0
v -3 3 -2
v -3 3 -4
v -2 1 4
v -2 1 3
v -2 1 2
v -2 1 1
v -2 1 -1
v -2 1 -2
v -2 2 6
v -2 2 5
v -2 2 4
v -2 2 3
v -2 2 2
v -2 2 1
v -2 2 -0
v -2 2 -1
v -2 2 -2
v -2 3 6
v -2 3 5
v -2 3 4
v -2 3 2
v -2 3 -0
v -2 3 -2
v -2 3 -4
v -2 4 5
v -2 4 4
v -2 4 2
v -2 4 -0
v -2 4 -2
v -2 4 -4
v -2 5 5
v -2 5 4
v -2 5 -3
v -2 5 -4
v -2 6 4
v -2 6 2
v -2 6 1
v -2 6 -0
v -2 6 -2
v -2 6 -3
v -2 7 1
v -2 7 -0
v -1 3 -4
v -1 3 -8
v -1 4 -4
v -1 5 5
v -1 5 4
v -1 5 -4
v -1 5 -5
v -1 5 -6
v -1 5 -8
v -1 6 5
v -1 6 4
v -1 6 2
v -1 6 1
v -1 6 -0
v -1 6 -2
v -1 6 -4
v -1 6 -5
v -1 6 -6
v -1 6 -7
v -1 6 -8
v -1 7 4
v -1 7 1
v -1 7 -0
v -1 7 -2
v -1 7 -4
v -1 7 -7
v 0 3 -8
v 0 3 -9
v 0 4 -8
v 0 4 -9
v 1 6 2
v 1 6 1
v 1 7 2
v 1 7 1
v 2 6 4
v 2 6 2
v 2 6 1
v 2 6 -0
v 2 6 -2
v 2 7 4
v 2 7 2
v 2 7 1
v 2 7 -2
v 3 0 6
v 3 0 4
v 3 0 -2
v 3 0 -4
v 3 1 5
v 3 1 4
v 3 1 -2
v 3 1 -3
v 3 1 -4
v 3 2 6
v 3 2 5
v -1 0 6
v -1 0 4
v -1 0 -2
v -1 0 -4
v -1 1 5
v -1 1 4
v -1 1 -2
v -1 1 -3
v -1 1 -4
v -1 2 6
v -1 2 5
v 0 6 4
v 0 6 2
v 0 6 1
v 0 6 -0
v 0 6 -2
v 0 7 4
v 0 7 1
v 0 7 -0
v 0 7 -2
v 1 6 1
v 1 6 -0
v 1 7 1
v 1 7 -0
v 2 3 -8
v 2 3 -9
v 2 4 -8
v 2 4 -9
v 3 3 -4
v 3 3 -8
v 3 4 -4
v 3 5 5
v 3 5 4
v 3 5 -4
v 3 5 -5
v 3 5 -6
v 3 5 -8
v 3 6 5
v 3 6 4
v 3 6 2
v 3 6 1
v 3 6 -0
v 3 6 -2
v 3 6 -4
v 3 6 -5
v 3 6 -6
v 3 6 -7
v 3 6 -8
v 3 7 4
v 3 7 2
v 3 7 1
v 3 7 -2
v 3 7 -4
v 3 7 -7
v 4 1 4
v 4 1 3
v 4 1 2
v 4 1 1
v 4 1 -1
v 4 1 -2
v 4 2 6
v 4 2 5
v 4 2 4
v 4 2 3
v 4 2 2
v 4 2 1
v 4 2 -0
v 4 2 -1
v 4 2 -2
v 4 3 6
v 4 3 5
v 4 3 4
v 4 3 2
v 4 3 -0
v 4 3 -2
v 4 3 -4
v 4 4 5
v 4 4 4
v 4 4 2
v 4 4 -0
v 4 4 -2
v 4 4 -4
v 4 5 5
v 4 5 4
v 4 5 -3
v 4 5 -4
v 4 6 4
v 4 6 2
v 4 6 1
v 4 6 -0
v 4 6 -2
v 4 6 -3
v 4 7 2
v 4 7 1
v 5 0 6
v 5 0 4
v 5 0 -2
v 5 0 -4
v 5 2 6
v 5 2 5
v 5 2 4
v 5 2 2
v 5 2 -0
v 5 2 -2
v 5 2 -4
v 5 3 5
v 5 3 4
v 5 3 2
v 5 3 -0
v 5 3 -2
v 5 3 -4
v -3 0 6
v -3 2 6
v -2 2 6
v -2 3 6
v -1 0 6
v -1 2 6
v -1 3 6
v 1 2 6
v 1 3 6
v 3 0 6
v 3 2 6
v 3 3 6
v 4 2 6
v 4 3 6
v 5 0 6
v 5 2 6
v -3 2 5
v -3 3 5
v -2 2 5
v -2 3 5
v -2 4 5
v -2 5 5
v -1 1 5
v -1 2 5
v -1 3 5
v -1 4 5
v -1 5 5
v -1 6 5
v 1 2 5
v 1 3 5
v 1 4 5
v 1 6 5
v 3 1 5
v 3 2 5
v 3 3 5
v 3 4 5
v 3 5 5
v 3 6 5
v 4 2 5
v 4 3 5
v 4 4 5
v 4 5 5
v 5 2 5
v 5 3 5
v -2 5 4
v -2 6 4
v -1 5 4
v -1 6 4
v -1 7 4
v 0 6 4
v 0 7 4
v 2 6 4
v 2 7 4
v 3 5 4
v 3 6 4
v 3 7 4
v 4 5 4
v 4 6 4
v 1 6 2
v 1 7 2
v 2 6 2
v 2 7 2
v 3 6 2
v 3 7 2
v 4 6 2
v 4 7 2
v -2 6 1
v -2 7 1
v -1 6 1
v -1 7 1
v 0 6 1
v 0 7 1
v 1 6 1
v 1 7 1
v -3 0 -2
v -3 2 -2
v -2 1 -2
v -2 2 -2
v -1 0 -2
v -1 1 -2
v 3 0 -2
v 3 1 -2
v 4 1 -2
v 4 2 -2
v 5 0 -2
v 5 2 -2
v -1 5 -4
v -1 6 -4
v -1 7 -4
v 1 5 -4
v 3 5 -4
v 3 6 -4
v 3 7 -4
v -3 0 4
v -3 2 4
v -2 1 4
v -2 2 4
v -1 0 4
v -1 1 4
v 3 0 4
v 3 1 4
v 4 1 4
v 4 2 4
v 5 0 4
v 5 2 4
v 1 6 1
v 1 7 1
v 2 6 1
v 2 7 1
v 3 6 1
v 3 7 1
v 4 6 1
v 4 7 1
v -2 6 -0
v -2 7 -0
v -1 6 -0
v -1 7 -0
v 0 6 -0
v 0 7 -0
v 1 6 -0
v 1 7 -0
v -1 6 -2
v -1 7 -2
v 0 6 -2
v 0 7 -2
v 2 6 -2
v 2 7 -2
v 3 6 -2
v 3 7 -2
v -2 5 -3
v -2 6 -3
v -1 5 -3
v -1 6 -3
v 1 5 -3
v 1 6 -3
v 3 5 -3
v 3 6 -3
v 4 5 -3
v 4 6 -3
v -3 0 -4
v -3 2 -4
v -3 3 -4
v -2 3 -4
v -2 4 -4
v -2 5 -4
v -1 0 -4
v -1 1 -4
v -1 2 -4
v -1 3 -4
v -1 4 -4
v -1 5 -4
v 1 2 -4
v 1 3 -4
v 3 0 -4
v 3 1 -4
v 3 2 -4
v 3 3 -4
v 3 4 -4
v 3 5 -4
v 4 3 -4
v 4 4 -4
v 4 5 -4
v 5 0 -4
v 5 2 -4
v 5 3 -4
v -1 6 -7
v -1 7 -7
v 3 6 -7
v 3 7 -7
v -1 3 -8
v -1 5 -8
v -1 6 -8
v 0 3 -8
v 0 4 -8
v 2 3 -8
v 2 4 -8
v 3 3 -8
v 3 5 -8
v 3 6 -8
v 0 3 -9
v 0 4 -9
v 2 3 -9
v 2 4 -9
v -3 0 6
v -1 0 6
v 3 0 6
v 5 0 6
v -3 0 4
v -1 0 4
v 3 0 4
v 5 0 4
v -3 0 -2
v -1 0 -2
v 3 0 -2
v 5 0 -2
v -3 0 -4
v -1 0 -4
v 3 0 -4
v 5 0 -4
v -1 1 5
v 3 1 5
v -2 1 4
v -1 1 4
v 3 1 4
v 4 1 4
v -2 1 3
v -1 1 3
v 3 1 3
v 4 1 3
v -2 1 2
v 4 1 2
v -2 1 1
v -1 1 1
v 3 1 1
v 4 1 1
v -1 1 -0
v 3 1 -0
v -2 1 -1
v -1 1 -1
v 3 1 -1
v 4 1 -1
v -2 1 -2
v -1 1 -2
v 3 1 -2
v 4 1 -2
v -1 1 -3
v 3 1 -3
v -1 1 -4
v 3 1 -4
v -1 2 6
v 1 2 6
v 3 2 6
v -1 2 5
v 1 2 5
v 3 2 5
v -3 2 4
v -2 2 4
v 4 2 4
v 5 2 4
v -2 2 3
v 4 2 3
v -3 2 2
v -2 2 2
v 4 2 2
v 5 2 2
v -2 2 1
v 4 2 1
v -3 2 -0
v -2 2 -0
v 4 2 -0
v 5 2 -0
v -2 2 -1
v 4 2 -1
v -3 2 -2
v -2 2 -2
v 4 2 -2
v 5 2 -2
v -1 3 -4
v 1 3 -4
v 3 3 -4
v -1 3 -8
v 0 3 -8
v 2 3 -8
v 3 3 -8
v 0 3 -9
v 2 3 -9
v -3 2 6
v -2 2 6
v 4 2 6
v 5 2 6
v -3 2 5
v -2 2 5
v 4 2 5
v 5 2 5
v -2 3 6
v -1 3 6
v 1 3 6
v 3 3 6
v 4 3 6
v -3 3 5
v -2 3 5
v -1 3 5
v 1 3 5
v 3 3 5
v 4 3 5
v 5 3 5
v -3 3 4
v -2 3 4
v 4 3 4
v 5 3 4
v -3 3 2
v -2 3 2
v 4 3 2
v 5 3 2
v -3 3 -0
v -2 3 -0
v 4 3 -0
v 5 3 -0
v -3 3 -2
v -2 3 -2
v 4 3 -2
v 5 3 -2
v -3 3 -4
v -2 3 -4
v 4 3 -4
v 5 3 -4
v 0 4 -8
v 2 4 -8
v 0 4 -9
v 2 4 -9
v -2 5 5
v -1 5 5
v 3 5 5
v 4 5 5
v -2 5 4
v -1 5 4
v 3 5 4
v 4 5 4
v -2 5 -3
v -1 5 -3
v 1 5 -3
v 3 5 -3
v 4 5 -3
v -2 5 -4
v -1 5 -4
v 1 5 -4
v 3 5 -4
v 4 5 -4
v -1 6 5
v 1 6 5
v 3 6 5
v -2 6 4
v -1 6 4
v 0 6 4
v 1 6 4
v 2 6 4
v 3 6 4
v 4 6 4
v -2 6 2
v -1 6 2
v 0 6 2
v 1 6 2
v 2 6 2
v 3 6 2
v 4 6 2
v -2 6 1
v -1 6 1
v 0 6 1
v 1 6 1
v 2 6 1
v 3 6 1
v 4 6 1
v -2 6 -0
v -1 6 -0
v 0 6 -0
v 1 6 -0
v 2 6 -0
v 3 6 -0
v 4 6 -0
v -2 6 -2
v -1 6 -2
v 0 6 -2
v 1 6 -2
v 2 6 -2
v 3 6 -2
v 4 6 -2
v -2 6 -3
v -1 6 -3
v 1 6 -3
v 3 6 -3
v 4 6 -3
v -1 6 -7
v 3 6 -7
v -1 6 -8
v 3 6 -8
v -1 7 4
v 0 7 4
v 2 7 4
v 3 7 4
v 1 7 2
v 2 7 2
v 3 7 2
v 4 7 2
v -2 7 1
v -1 7 1
v 0 7 1
v 1 7 1
v 2 7 1
v 3 7 1
v 4 7 1
v -2 7 -0
v -1 7 -0
v 0 7 -0
v 1 7 -0
v -1 7 -2
v 0 7 -2
v 2 7 -2
v 3 7 -2
v -1 7 -4
v 3 7 -4
v -1 7 -7
v 3 7 -7

# faces
f 5/6/1 2/6/1 1/6/1
f 6/6/1 2/6/1 5/6/1
f 7/6/1 2/6/1 6/6/1
f 10/6/1 4/6/1 3/6/1
f 11/6/1 4/6/1 10/6/1
f 12/11/1 7/11/1 6/11/1
f 13/9/1 8/9/1 7/9/1
f 13/11/1 7/11/1 12/11/1
f 14/11/1 9/11/1 8/11/1
f 14/9/1 8/9/1 13/9/1
f 15/9/1 10/9/1 9/9/1
f 15/11/1 9/11/1 14/11/1
f 16/11/1 11/11/1 10/11/1
f 16/9/1 10/9/1 15/9/1
f 17/11/1 11/11/1 16/11/1
f 26/8/1 19/8/1 18/8/1
f 27/10/1 20/10/1 19/10/1
f 27/8/1 19/8/1 26/8/1
f 28/8/1 21/8/1 20/8/1
f 28/10/1 20/10/1 27/10/1
f 29/10/1 22/10/1 21/10/1
f 29/8/1 21/8/1 28/8/1
f 30/10/1 22/10/1 29/10/1
f 31/8/1 23/8/1 22/8/1
f 31/10/1 22/10/1 30/10/1
f 32/8/1 23/8/1 31/8/1
f 33/11/1 25/11/1 24/11/1
f 34/11/1 25/11/1 33/11/1
f 40/11/1 35/11/1 34/11/1
f 41/9/1 36/9/1 35/9/1
f 41/11/1 35/11/1 40/11/1
f 42/11/1 37/11/1 36/11/1
f 42/9/1 36/9/1 41/9/1
f 43/9/1 38/9/1 37/9/1
f 43/11/1 37/11/1 42/11/1
f 44/11/1 39/11/1 38/11/1
f 44/9/1 38/9/1 43/9/1
f 45/11/1 39/11/1 44/11/1
f 46/9/1 41/9/1 40/9/1
f 47/11/1 42/11/1 41/11/1
f 47/9/1 41/9/1 46/9/1
f 48/9/1 45/9/1 44/9/1
f 49/9/1 45/9/1 48/9/1
f 50/11/1 42/11/1 47/11/1
f 51/9/1 43/9/1 42/9/1
f 51/11/1 42/11/1 50/11/1
f 52/9/1 43/9/1 51/9/1
f 53/11/1 44/11/1 43/11/1
f 53/9/1 43/9/1 52/9/1
f 54/9/1 48/9/1 44/9/1
f 54/11/1 44/11/1 53/11/1
f 55/9/1 48/9/1 54/9/1
f 56/4/1 53/4/1 52/4/1
f 57/4/1 53/4/1 56/4/1
f 60/6/1 59/6/1 58/6/1
f 63/6/1 59/6/1 60/6/1
f 64/6/1 59/6/1 63/6/1
f 65/6/1 59/6/1 64/6/1
f 66/6/1 59/6/1 65/6/1
f 67/11/1 62/11/1 61/11/1
f 68/11/1 62/11/1 67/11/1
f 73/1/1 64/1/1 63/1/1
f 74/2/1 65/2/1 64/2/1
f 74/1/1 64/1/1 73/1/1
f 75/1/1 66/1/1 65/1/1
f 75/2/1 65/2/1 74/2/1
f 76/1/1 66/1/1 75/1/1
f 77/1/1 66/1/1 76/1/1
f 78/4/1 69/4/1 68/4/1
f 78/4/1 70/4/1 69/4/1
f 79/4/1 70/4/1 78/4/1
f 80/3/1 72/3/1 71/3/1
f 81/3/1 72/3/1 80/3/1
f 82/6/1 74/6/1 73/6/1
f 82/6/1 76/6/1 75/6/1
f 82/6/1 75/6/1 74/6/1
f 83/6/1 76/6/1 82/6/1
f 86/5/1 85/5/1 84/5/1
f 87/5/1 85/5/1 86/5/1
f 90/4/1 89/4/1 88/4/1
f 91/4/1 89/4/1 90/4/1
f 97/3/1 93/3/1 92/3/1
f 98/3/1 93/3/1 97/3/1
f 99/4/1 96/4/1 95/4/1
f 99/4/1 95/4/1 94/4/1
f 100/4/1 96/4/1 99/4/1
f 105/6/1 102/6/1 101/6/1
f 106/6/1 102/6/1 105/6/1
f 107/6/1 104/6/1 103/6/1
f 108/6/1 104/6/1 107/6/1
f 109/6/1 104/6/1 108/6/1
f 110/6/1 105/6/1 101/6/1
f 111/6/1 105/6/1 110/6/1
f 112/6/2 113/6/2 116/6/2
f 116/6/2 113/6/2 117/6/2
f 114/6/2 115/6/2 118/6/2
f 118/6/2 115/6/2 119/6/2
f 119/6/2 115/6/2 120/6/2
f 112/6/2 116/6/2 121/6/2
f 121/6/2 116/6/2 122/6/2
f 123/4/2 124/4/2 128/4/2
f 124/4/2 125/4/2 128/4/2
f 128/4/2 125/4/2 129/4/2
f 126/3/2 127/3/2 130/3/2
f 130/3/2 127/3/2 131/3/2
f 132/4/2 133/4/2 134/4/2
f 134/4/2 133/4/2 135/4/2
f 136/5/2 137/5/2 138/5/2
f 138/5/2 137/5/2 139/5/2
f 140/6/2 141/6/2 142/6/2
f 142/6/2 141/6/2 145/6/2
f 145/6/2 141/6/2 146/6/2
f 146/6/2 141/6/2 147/6/2
f 147/6/2 141/6/2 148/6/2
f 143/9/2 144/9/2 149/9/2
f 149/9/2 144/9/2 150/9/2
f 145/1/2 146/1/2 155/1/2
f 146/2/2 147/2/2 156/2/2
f 155/1/2 146/1/2 156/1/2
f 147/1/2 148/1/2 157/1/2
f 156/2/2 147/2/2 157/2/2
f 157/1/2 148/1/2 158/1/2
f 158/1/2 148/1/2 159/1/2
f 150/3/2 151/3/2 160/3/2
f 160/3/2 151/3/2 161/3/2
f 153/4/2 154/4/2 162/4/2
f 152/4/2 153/4/2 162/4/2
f 162/4/2 154/4/2 163/4/2
f 155/6/2 156/6/2 164/6/2
f 157/6/2 158/6/2 164/6/2
f 156/6/2 157/6/2 164/6/2
f 164/6/2 158/6/2 165/6/2
f 166/8/2 167/8/2 174/8/2
f 167/10/2 168/10/2 175/10/2
f 174/8/2 167/8/2 175/8/2
f 168/8/2 169/8/2 176/8/2
f 175/10/2 168/10/2 176/10/2
f 169/10/2 170/10/2 177/10/2
f 176/8/2 169/8/2 177/8/2
f 177/10/2 170/10/2 178/10/2
f 170/8/2 171/8/2 179/8/2
f 178/10/2 170/10/2 179/10/2
f 179/8/2 171/8/2 180/8/2
f 172/9/2 173/9/2 181/9/2
f 181/9/2 173/9/2 182/9/2
f 182/9/2 183/9/2 188/9/2
f 183/11/2 184/11/2 189/11/2
f 188/9/2 183/9/2 189/9/2
f 184/9/2 185/9/2 190/9/2
f 189/11/2 184/11/2 190/11/2
f 185/11/2 186/11/2 191/11/2
f 190/9/2 185/9/2 191/9/2
f 186/9/2 187/9/2 192/9/2
f 191/11/2 186/11/2 192/11/2
f 192/9/2 187/9/2 193/9/2
f 188/11/2 189/11/2 194/11/2
f 189/9/2 190/9/2 195/9/2
f 194/11/2 189/11/2 195/11/2
f 192/11/2 193/11/2 196/11/2
f 196/11/2 193/11/2 197/11/2
f 195/9/2 190/9/2 198/9/2
f 190/11/2 191/11/2 199/11/2
f 198/9/2 190/9/2 199/9/2
f 199/11/2 191/11/2 200/11/2
f 191/9/2 192/9/2 201/9/2
f 200/11/2 191/11/2 201/11/2
f 192/11/2 196/11/2 202/11/2
f 201/9/2 192/9/2 202/9/2
f 202/11/2 196/11/2 203/11/2
f 199/4/2 200/4/2 204/4/2
f 204/4/2 200/4/2 205/4/2
f 206/6/2 207/6/2 210/6/2
f 210/6/2 207/6/2 211/6/2
f 211/6/2 207/6/2 212/6/2
f 208/6/2 209/6/2 215/6/2
f 215/6/2 209/6/2 216/6/2
f 211/9/2 212/9/2 217/9/2
f 212/11/2 213/11/2 218/11/2
f 217/9/2 212/9/2 218/9/2
f 213/9/2 214/9/2 219/9/2
f 218/11/2 213/11/2 219/11/2
f 214/11/2 215/11/2 220/11/2
f 219/9/2 214/9/2 220/9/2
f 215/9/2 216/9/2 221/9/2
f 220/11/2 215/11/2 221/11/2
f 221/9/2 216/9/2 222/9/2
f 225/6/3 224/6/3 223/6/3
f 227/6/3 225/6/3 223/6/3
f 228/11/3 226/11/3 225/11/3
f 228/6/3 225/6/3 227/6/3
f 229/11/3 226/11/3 228/11/3
f 230/9/3 229/9/3 228/9/3
f 231/9/3 229/9/3 230/9/3
f 233/11/3 231/11/3 230/11/3
f 234/11/3 231/11/3 233/11/3
f 235/6/3 233/6/3 232/6/3
f 235/9/3 234/9/3 233/9/3
f 236/9/3 234/9/3 235/9/3
f 237/6/3 235/6/3 232/6/3
f 238/6/3 235/6/3 237/6/3
f 241/11/3 240/11/3 239/11/3
f 242/11/3 240/11/3 241/11/3
f 247/11/3 243/11/3 242/11/3
f 248/9/3 244/9/3 243/9/3
f 248/11/3 243/11/3 247/11/3
f 249/9/3 244/9/3 248/9/3
f 251/8/3 246/8/3 245/8/3
f 252/9/3 248/9/3 247/9/3
f 253/11/3 250/11/3 249/11/3
f 253/9/3 248/9/3 252/9/3
f 253/11/3 249/11/3 248/11/3
f 254/11/3 250/11/3 253/11/3
f 255/8/3 251/8/3 245/8/3
f 256/8/3 251/8/3 255/8/3
f 257/11/3 253/11/3 252/11/3
f 258/9/3 254/9/3 253/9/3
f 258/11/3 253/11/3 257/11/3
f 259/9/3 254/9/3 258/9/3
f 260/9/3 254/9/3 259/9/3
f 262/9/3 258/9/3 257/9/3
f 263/11/3 259/11/3 258/11/3
f 263/9/3 258/9/3 262/9/3
f 264/11/3 259/11/3 263/11/3
f 265/9/3 262/9/3 261/9/3
f 266/9/3 262/9/3 265/9/3
f 269/11/3 268/11/3 267/11/3
f 270/11/3 268/11/3 269/11/3
f 272/4/3 271/4/3 270/4/3
f 273/4/3 271/4/3 272/4/3
f 277/3/3 275/3/3 274/3/3
f 278/3/3 275/3/3 277/3/3
f 279/9/3 277/9/3 276/9/3
f 280/9/3 277/9/3 279/9/3
f 283/4/3 282/4/3 281/4/3
f 284/4/3 282/4/3 283/4/3
f 287/4/3 286/4/3 285/4/3
f 288/4/3 286/4/3 287/4/3
f 291/4/3 290/4/3 289/4/3
f 292/4/3 290/4/3 291/4/3
f 295/4/3 294/4/3 293/4/3
f 296/4/3 294/4/3 295/4/3
f 299/6/3 298/6/3 297/6/3
f 300/6/3 298/6/3 299/6/3
f 301/6/3 299/6/3 297/6/3
f 302/6/3 299/6/3 301/6/3
f 305/6/3 304/6/3 303/6/3
f 307/6/3 305/6/3 303/6/3
f 307/6/3 306/6/3 305/6/3
f 308/6/3 306/6/3 307/6/3
f 312/1/3 310/1/3 309/1/3
f 313/1/3 310/1/3 312/1/3
f 314/6/3 311/6/3 310/6/3
f 314/1/3 310/1/3 313/1/3
f 315/6/3 311/6/3 314/6/3
f 316/6/4 317/6/4 318/6/4
f 318/6/4 317/6/4 319/6/4
f 316/6/4 318/6/4 320/6/4
f 320/6/4 318/6/4 321/6/4
f 322/6/4 323/6/4 324/6/4
f 322/6/4 324/6/4 326/6/4
f 324/6/4 325/6/4 326/6/4
f 326/6/4 325/6/4 327/6/4
f 328/4/4 329/4/4 330/4/4
f 330/4/4 329/4/4 331/4/4
f 332/4/4 333/4/4 334/4/4
f 334/4/4 333/4/4 335/4/4
f 336/4/4 337/4/4 338/4/4
f 338/4/4 337/4/4 339/4/4
f 340/4/4 341/4/4 342/4/4
f 342/4/4 341/4/4 343/4/4
f 344/3/4 345/3/4 346/3/4
f 346/3/4 345/3/4 347/3/4
f 348/4/4 349/4/4 350/4/4
f 350/4/4 349/4/4 351/4/4
f 352/9/4 353/9/4 354/9/4
f 354/9/4 353/9/4 355/9/4
f 354/11/4 355/11/4 356/11/4
f 356/11/4 355/11/4 357/11/4
f 356/9/4 357/9/4 358/9/4
f 358/9/4 357/9/4 359/9/4
f 358/11/4 359/11/4 360/11/4
f 360/11/4 359/11/4 361/11/4
f 363/11/4 364/11/4 365/11/4
f 362/6/4 363/6/4 368/6/4
f 368/6/4 363/6/4 369/6/4
f 363/11/4 365/11/4 370/11/4
f 369/6/4 363/6/4 370/6/4
f 365/11/4 366/11/4 370/11/4
f 370/11/4 366/11/4 371/11/4
f 366/9/4 367/9/4 372/9/4
f 371/11/4 366/11/4 372/11/4
f 372/9/4 367/9/4 373/9/4
f 370/9/4 371/9/4 374/9/4
f 369/10/4 370/10/4 374/10/4
f 374/9/4 371/9/4 375/9/4
f 369/10/4 374/10/4 377/10/4
f 374/11/4 375/11/4 378/11/4
f 377/10/4 374/10/4 378/10/4
f 378/11/4 375/11/4 379/11/4
f 378/9/4 379/9/4 382/9/4
f 379/9/4 380/9/4 382/9/4
f 380/11/4 381/11/4 383/11/4
f 382/9/4 380/9/4 383/9/4
f 383/11/4 381/11/4 384/11/4
f 376/6/4 377/6/4 385/6/4
f 377/6/4 378/6/4 385/6/4
f 378/9/4 382/9/4 386/9/4
f 385/6/4 378/6/4 386/6/4
f 386/9/4 382/9/4 387/9/4
f 388/6/4 389/6/4 390/6/4
f 390/6/4 389/6/4 391/6/4
f 392/6/4 393/6/4 395/6/4
f 395/6/4 393/6/4 396/6/4
f 396/6/4 393/6/4 398/6/4
f 397/6/4 398/6/4 399/6/4
f 393/1/4 394/1/4 400/1/4
f 399/6/4 398/6/4 400/6/4
f 398/6/4 393/6/4 400/6/4
f 400/1/4 394/1/4 401/1/4
f 402/5/4 403/5/4 404/5/4
f 404/5/4 403/5/4 405/5/4
f 410/6/5 407/6/5 406/6/5
f 411/6/5 407/6/5 410/6/5
f 412/6/5 409/6/5 408/6/5
f 413/6/5 409/6/5 412/6/5
f 418/6/5 415/6/5 414/6/5
f 419/6/5 415/6/5 418/6/5
f 420/6/5 417/6/5 416/6/5
f 421/6/5 417/6/5 420/6/5
f 425/8/5 423/8/5 422/8/5
f 426/8/5 423/8/5 425/8/5
f 428/8/5 425/8/5 424/8/5
f 429/10/5 426/10/5 425/10/5
f 429/8/5 425/8/5 428/8/5
f 430/8/5 427/8/5 426/8/5
f 430/10/5 426/10/5 429/10/5
f 431/8/5 427/8/5 430/8/5
f 432/10/5 429/10/5 428/10/5
f 432/10/5 430/10/5 429/10/5
f 432/10/5 431/10/5 430/10/5
f 433/10/5 431/10/5 432/10/5
f 434/8/5 433/8/5 432/8/5
f 435/8/5 433/8/5 434/8/5
f 436/8/5 433/8/5 435/8/5
f 437/8/5 433/8/5 436/8/5
f 438/10/5 435/10/5 434/10/5
f 438/8/5 436/8/5 435/8/5
f 439/10/5 437/10/5 436/10/5
f 439/8/5 436/8/5 438/8/5
f 440/10/5 438/10/5 434/10/5
f 440/10/5 439/10/5 438/10/5
f 441/10/5 439/10/5 440/10/5
f 442/10/5 437/10/5 439/10/5
f 442/10/5 439/10/5 441/10/5
f 443/10/5 437/10/5 442/10/5
f 444/8/5 441/8/5 440/8/5
f 445/10/5 442/10/5 441/10/5
f 445/8/5 441/8/5 444/8/5
f 446/8/5 443/8/5 442/8/5
f 446/10/5 442/10/5 445/10/5
f 447/8/5 443/8/5 446/8/5
f 448/8/5 446/8/5 445/8/5
f 449/8/5 446/8/5 448/8/5
f 450/10/5 449/10/5 448/10/5
f 451/10/5 449/10/5 450/10/5
f 455/9/5 453/9/5 452/9/5
f 456/11/5 454/11/5 453/11/5
f 456/9/5 453/9/5 455/9/5
f 457/11/5 454/11/5 456/11/5
f 462/9/5 459/9/5 458/9/5
f 463/11/5 461/11/5 460/11/5
f 464/9/5 462/9/5 458/9/5
f 465/9/5 462/9/5 464/9/5
f 466/11/5 461/11/5 463/11/5
f 467/11/5 461/11/5 466/11/5
f 468/11/5 465/11/5 464/11/5
f 469/9/5 467/9/5 466/9/5
f 470/11/5 468/11/5 464/11/5
f 471/11/5 468/11/5 470/11/5
f 472/9/5 467/9/5 469/9/5
f 473/9/5 467/9/5 472/9/5
f 474/9/5 471/9/5 470/9/5
f 475/11/5 473/11/5 472/11/5
f 476/9/5 474/9/5 470/9/5
f 477/9/5 474/9/5 476/9/5
f 478/11/5 473/11/5 475/11/5
f 479/11/5 473/11/5 478/11/5
f 483/6/5 481/6/5 480/6/5
f 483/6/5 482/6/5 481/6/5
f 484/6/5 482/6/5 483/6/5
f 485/6/5 482/6/5 484/6/5
f 486/6/5 482/6/5 485/6/5
f 487/5/5 485/5/5 484/5/5
f 488/5/5 485/5/5 487/5/5
f 489/6/6 490/6/6 493/6/6
f 493/6/6 490/6/6 494/6/6
f 491/6/6 492/6/6 495/6/6
f 495/6/6 492/6/6 496/6/6
f 497/11/6 498/11/6 503/11/6
f 498/9/6 499/9/6 504/9/6
f 503/11/6 498/11/6 504/11/6
f 499/11/6 500/11/6 505/11/6
f 504/9/6 499/9/6 505/9/6
f 500/9/6 501/9/6 506/9/6
f 505/11/6 500/11/6 506/11/6
f 506/9/6 501/9/6 507/9/6
f 502/11/6 503/11/6 509/11/6
f 509/11/6 503/11/6 510/11/6
f 507/9/6 508/9/6 511/9/6
f 511/9/6 508/9/6 512/9/6
f 509/9/6 510/9/6 513/9/6
f 513/9/6 510/9/6 514/9/6
f 511/11/6 512/11/6 515/11/6
f 515/11/6 512/11/6 516/11/6
f 513/11/6 514/11/6 517/11/6
f 517/11/6 514/11/6 518/11/6
f 515/9/6 516/9/6 519/9/6
f 519/9/6 516/9/6 520/9/6
f 517/9/6 518/9/6 521/9/6
f 521/9/6 518/9/6 522/9/6
f 519/11/6 520/11/6 523/11/6
f 523/11/6 520/11/6 524/11/6
f 521/11/6 522/11/6 525/11/6
f 525/11/6 522/11/6 526/11/6
f 523/9/6 524/9/6 527/9/6
f 527/9/6 524/9/6 528/9/6
f 529/5/6 530/5/6 531/5/6
f 531/5/6 530/5/6 532/5/6
f 533/9/6 534/9/6 537/9/6
f 537/9/6 534/9/6 538/9/6
f 535/11/6 536/11/6 539/11/6
f 539/11/6 536/11/6 540/11/6
f 541/9/6 542/9/6 546/9/6
f 542/11/6 543/11/6 547/11/6
f 546/9/6 542/9/6 547/9/6
f 543/9/6 544/9/6 548/9/6
f 547/11/6 543/11/6 548/11/6
f 544/11/6 545/11/6 549/11/6
f 548/9/6 544/9/6 549/9/6
f 549/11/6 545/11/6 550/11/6
f 551/11/6 552/11/6 555/11/6
f 555/11/6 552/11/6 556/11/6
f 552/9/6 553/9/6 557/9/6
f 556/11/6 552/11/6 557/11/6
f 557/9/6 553/9/6 558/9/6
f 558/9/6 553/9/6 559/9/6
f 554/11/6 555/11/6 561/11/6
f 561/11/6 555/11/6 562/11/6
f 556/9/6 557/9/6 563/9/6
f 557/11/6 558/11/6 564/11/6
f 563/9/6 557/9/6 564/9/6
f 564/11/6 558/11/6 565/11/6
f 559/9/6 560/9/6 566/9/6
f 566/9/6 560/9/6 567/9/6
f 561/9/6 562/9/6 568/9/6
f 568/9/6 562/9/6 569/9/6
f 563/11/6 564/11/6 570/11/6
f 570/11/6 564/11/6 571/11/6
f 571/9/6 572/9/6 578/9/6
f 578/9/6 572/9/6 579/9/6
f 573/11/6 574/11/6 580/11/6
f 580/11/6 574/11/6 581/11/6
f 575/11/6 576/11/6 582/11/6
f 582/11/6 576/11/6 583/11/6
f 577/9/6 578/9/6 584/9/6
f 578/11/6 579/11/6 585/11/6
f 584/9/6 578/9/6 585/9/6
f 585/11/6 579/11/6 586/11/6
f 580/9/6 581/9/6 587/9/6
f 587/9/6 581/9/6 588/9/6
f 582/9/6 583/9/6 589/9/6
f 583/11/6 584/11/6 590/11/6
f 589/9/6 583/9/6 590/9/6
f 584/11/6 585/11/6 590/11/6
f 585/9/6 586/9/6 591/9/6
f 590/11/6 585/11/6 591/11/6
f 586/9/6 587/9/6 591/9/6
f 587/11/6 588/11/6 592/11/6
f 591/9/6 587/9/6 592/9/6
f 592/11/6 588/11/6 593/11/6
f 594/1/6 595/1/6 596/1/6
f 596/1/6 595/1/6 597/1/6
f 600/3/6 601/3/6 603/3/6
f 603/3/6 601/3/6 604/3/6
f 598/4/6 599/4/6 607/4/6
f 607/4/6 599/4/6 608/4/6
f 604/4/6 605/4/6 609/4/6
f 602/4/6 603/4/6 609/4/6
f 603/4/6 604/4/6 609/4/6
f 609/4/6 605/4/6 610/4/6
f 610/4/6 605/4/6 611/4/6
f 611/4/6 605/4/6 612/4/6
f 607/4/6 608/4/6 613/4/6
f 606/4/6 607/4/6 613/4/6
f 608/4/6 609/4/6 613/4/6
f 613/4/6 609/4/6 614/4/6
f 614/4/6 609/4/6 615/4/6
f 615/4/6 609/4/6 616/4/6
f 614/3/6 615/3/6 617/3/6
f 617/3/6 615/3/6 618/3/6
f 610/4/6 611/4/6 619/4/6
f 619/4/6 611/4/6 620/4/6
f 621/6/6 622/6/6 623/6/6
f 623/6/6 622/6/6 624/6/6
