# MagicaVoxel @ Ephtracy

# material
mtllib JetFlames1.mtl
usemtl palette

# normals
vn -1 0 0
vn 1 0 0
vn 0 0 1
vn 0 0 -1
vn 0 -1 0
vn 0 1 0

# texcoords
vt 0.595703 0.5
vt 0.599609 0.5
vt 0.603516 0.5

# verts
v 2 0 -2
v 2 0 -3
v 2 2 -2
v 2 2 -3
v 3 2 -2
v 3 2 -3
v 3 3 -2
v 3 3 -3
v 4 3 -2
v 4 3 -3
v 4 5 -2
v 4 5 -3
v 5 0 1
v 5 0 -0
v 5 0 -1
v 5 0 -2
v 5 0 -3
v 5 0 -4
v 5 0 -5
v 5 0 -6
v 5 1 1
v 5 1 -0
v 5 1 -1
v 5 2 -2
v 5 2 -3
v 5 3 -1
v 5 3 -2
v 5 3 -3
v 5 3 -4
v 5 3 -5
v 5 3 -6
v 5 4 -0
v 5 4 -1
v 5 4 -2
v 5 4 -3
v 5 4 -4
v 5 4 -5
v 5 5 -1
v 5 5 -2
v 5 5 -3
v 5 6 -3
v 5 6 -4
v 5 7 -2
v 5 7 -3
v 6 0 1
v 6 0 -0
v 6 0 -1
v 6 0 -2
v 6 0 -3
v 6 0 -4
v 6 0 -5
v 6 0 -6
v 6 1 1
v 6 1 -0
v 6 1 -1
v 6 2 -2
v 6 2 -3
v 6 3 -1
v 6 3 -2
v 6 3 -3
v 6 3 -4
v 6 3 -5
v 6 3 -6
v 6 4 -0
v 6 4 -1
v 6 4 -2
v 6 4 -3
v 6 4 -4
v 6 4 -5
v 6 5 -1
v 6 5 -2
v 6 5 -3
v 6 6 -3
v 6 6 -4
v 6 7 -2
v 6 7 -3
v 7 4 -2
v 7 4 -3
v 7 5 -2
v 7 5 -3
v 8 2 -2
v 8 2 -3
v 8 4 -2
v 8 4 -3
v 9 0 -2
v 9 0 -3
v 9 2 -2
v 9 2 -3
v 5 0 1
v 5 1 1
v 6 0 1
v 6 1 1
v 5 1 -0
v 5 4 -0
v 6 1 -0
v 6 4 -0
v 5 4 -1
v 5 5 -1
v 6 4 -1
v 6 5 -1
v 2 0 -2
v 2 2 -2
v 3 0 -2
v 3 2 -2
v 3 3 -2
v 4 0 -2
v 4 2 -2
v 4 3 -2
v 4 5 -2
v 5 0 -2
v 5 2 -2
v 5 3 -2
v 5 4 -2
v 5 5 -2
v 5 7 -2
v 6 0 -2
v 6 2 -2
v 6 3 -2
v 6 4 -2
v 6 5 -2
v 6 7 -2
v 7 0 -2
v 7 2 -2
v 7 4 -2
v 7 5 -2
v 8 0 -2
v 8 2 -2
v 8 4 -2
v 9 0 -2
v 9 2 -2
v 2 0 -3
v 2 2 -3
v 3 0 -3
v 3 2 -3
v 3 3 -3
v 4 0 -3
v 4 2 -3
v 4 3 -3
v 4 5 -3
v 5 0 -3
v 5 2 -3
v 5 3 -3
v 5 4 -3
v 5 5 -3
v 5 6 -3
v 5 7 -3
v 6 0 -3
v 6 2 -3
v 6 3 -3
v 6 4 -3
v 6 5 -3
v 6 6 -3
v 6 7 -3
v 7 0 -3
v 7 2 -3
v 7 4 -3
v 7 5 -3
v 8 0 -3
v 8 2 -3
v 8 4 -3
v 9 0 -3
v 9 2 -3
v 5 4 -4
v 5 6 -4
v 6 4 -4
v 6 6 -4
v 5 3 -5
v 5 4 -5
v 6 3 -5
v 6 4 -5
v 5 0 -6
v 5 3 -6
v 6 0 -6
v 6 3 -6
v 5 0 1
v 6 0 1
v 5 0 -0
v 6 0 -0
v 5 0 -1
v 6 0 -1
v 2 0 -2
v 3 0 -2
v 4 0 -2
v 5 0 -2
v 6 0 -2
v 7 0 -2
v 8 0 -2
v 9 0 -2
v 2 0 -3
v 3 0 -3
v 4 0 -3
v 5 0 -3
v 6 0 -3
v 7 0 -3
v 8 0 -3
v 9 0 -3
v 5 0 -4
v 6 0 -4
v 5 0 -5
v 6 0 -5
v 5 0 -6
v 6 0 -6
v 5 1 1
v 6 1 1
v 5 1 -0
v 6 1 -0
v 2 2 -2
v 3 2 -2
v 8 2 -2
v 9 2 -2
v 2 2 -3
v 3 2 -3
v 8 2 -3
v 9 2 -3
v 3 3 -2
v 4 3 -2
v 3 3 -3
v 4 3 -3
v 5 3 -5
v 6 3 -5
v 5 3 -6
v 6 3 -6
v 5 4 -0
v 6 4 -0
v 5 4 -1
v 6 4 -1
v 7 4 -2
v 8 4 -2
v 7 4 -3
v 8 4 -3
v 5 4 -4
v 6 4 -4
v 5 4 -5
v 6 4 -5
v 5 5 -1
v 6 5 -1
v 4 5 -2
v 5 5 -2
v 6 5 -2
v 7 5 -2
v 4 5 -3
v 5 5 -3
v 6 5 -3
v 7 5 -3
v 5 6 -3
v 6 6 -3
v 5 6 -4
v 6 6 -4
v 5 7 -2
v 6 7 -2
v 5 7 -3
v 6 7 -3

# faces
f 3/1/1 2/1/1 1/1/1
f 4/1/1 2/1/1 3/1/1
f 7/1/1 6/1/1 5/1/1
f 8/1/1 6/1/1 7/1/1
f 11/1/1 10/1/1 9/1/1
f 12/1/1 10/1/1 11/1/1
f 21/1/1 14/1/1 13/1/1
f 22/2/1 15/2/1 14/2/1
f 22/1/1 14/1/1 21/1/1
f 23/3/1 16/3/1 15/3/1
f 23/2/1 15/2/1 22/2/1
f 24/3/1 16/3/1 23/3/1
f 25/3/1 18/3/1 17/3/1
f 26/1/1 23/1/1 22/1/1
f 26/3/1 24/3/1 23/3/1
f 27/3/1 24/3/1 26/3/1
f 28/3/1 18/3/1 25/3/1
f 29/2/1 19/2/1 18/2/1
f 29/3/1 18/3/1 28/3/1
f 30/1/1 20/1/1 19/1/1
f 30/2/1 19/2/1 29/2/1
f 31/1/1 20/1/1 30/1/1
f 32/1/1 26/1/1 22/1/1
f 33/2/1 27/2/1 26/2/1
f 33/1/1 26/1/1 32/1/1
f 34/2/1 27/2/1 33/2/1
f 35/2/1 29/2/1 28/2/1
f 36/1/1 30/1/1 29/1/1
f 36/2/1 29/2/1 35/2/1
f 37/1/1 30/1/1 36/1/1
f 38/1/1 34/1/1 33/1/1
f 39/1/1 34/1/1 38/1/1
f 40/1/1 36/1/1 35/1/1
f 41/1/1 40/1/1 39/1/1
f 41/1/1 36/1/1 40/1/1
f 42/1/1 36/1/1 41/1/1
f 43/1/1 41/1/1 39/1/1
f 44/1/1 41/1/1 43/1/1
f 45/1/2 46/1/2 53/1/2
f 46/2/2 47/2/2 54/2/2
f 53/1/2 46/1/2 54/1/2
f 47/3/2 48/3/2 55/3/2
f 54/2/2 47/2/2 55/2/2
f 55/3/2 48/3/2 56/3/2
f 49/3/2 50/3/2 57/3/2
f 54/1/2 55/1/2 58/1/2
f 55/3/2 56/3/2 58/3/2
f 58/3/2 56/3/2 59/3/2
f 57/3/2 50/3/2 60/3/2
f 50/2/2 51/2/2 61/2/2
f 60/3/2 50/3/2 61/3/2
f 51/1/2 52/1/2 62/1/2
f 61/2/2 51/2/2 62/2/2
f 62/1/2 52/1/2 63/1/2
f 54/1/2 58/1/2 64/1/2
f 58/2/2 59/2/2 65/2/2
f 64/1/2 58/1/2 65/1/2
f 65/2/2 59/2/2 66/2/2
f 60/2/2 61/2/2 67/2/2
f 61/1/2 62/1/2 68/1/2
f 67/2/2 61/2/2 68/2/2
f 68/1/2 62/1/2 69/1/2
f 65/1/2 66/1/2 70/1/2
f 70/1/2 66/1/2 71/1/2
f 67/1/2 68/1/2 72/1/2
f 71/1/2 72/1/2 73/1/2
f 72/1/2 68/1/2 73/1/2
f 73/1/2 68/1/2 74/1/2
f 71/1/2 73/1/2 75/1/2
f 75/1/2 73/1/2 76/1/2
f 77/1/2 78/1/2 79/1/2
f 79/1/2 78/1/2 80/1/2
f 81/1/2 82/1/2 83/1/2
f 83/1/2 82/1/2 84/1/2
f 85/1/2 86/1/2 87/1/2
f 87/1/2 86/1/2 88/1/2
f 91/1/3 90/1/3 89/1/3
f 92/1/3 90/1/3 91/1/3
f 95/1/3 94/1/3 93/1/3
f 96/1/3 94/1/3 95/1/3
f 99/1/3 98/1/3 97/1/3
f 100/1/3 98/1/3 99/1/3
f 103/1/3 102/1/3 101/1/3
f 104/1/3 102/1/3 103/1/3
f 106/2/3 104/2/3 103/2/3
f 107/1/3 105/1/3 104/1/3
f 107/2/3 104/2/3 106/2/3
f 108/1/3 105/1/3 107/1/3
f 110/3/3 107/3/3 106/3/3
f 111/2/3 108/2/3 107/2/3
f 111/3/3 107/3/3 110/3/3
f 112/1/3 109/1/3 108/1/3
f 112/2/3 108/2/3 111/2/3
f 113/1/3 109/1/3 112/1/3
f 114/1/3 109/1/3 113/1/3
f 120/1/3 115/1/3 114/1/3
f 121/1/3 115/1/3 120/1/3
f 122/3/3 117/3/3 116/3/3
f 123/2/3 119/2/3 118/2/3
f 123/3/3 117/3/3 122/3/3
f 123/2/3 118/2/3 117/2/3
f 124/1/3 120/1/3 119/1/3
f 124/2/3 119/2/3 123/2/3
f 125/1/3 120/1/3 124/1/3
f 126/2/3 123/2/3 122/2/3
f 127/1/3 124/1/3 123/1/3
f 127/2/3 123/2/3 126/2/3
f 128/1/3 124/1/3 127/1/3
f 129/1/3 127/1/3 126/1/3
f 130/1/3 127/1/3 129/1/3
f 131/1/4 132/1/4 133/1/4
f 133/1/4 132/1/4 134/1/4
f 133/2/4 134/2/4 136/2/4
f 134/1/4 135/1/4 137/1/4
f 136/2/4 134/2/4 137/2/4
f 137/1/4 135/1/4 138/1/4
f 136/3/4 137/3/4 140/3/4
f 137/2/4 138/2/4 141/2/4
f 140/3/4 137/3/4 141/3/4
f 138/1/4 139/1/4 142/1/4
f 141/2/4 138/2/4 142/2/4
f 142/1/4 139/1/4 143/1/4
f 143/1/4 139/1/4 144/1/4
f 145/1/4 146/1/4 152/1/4
f 152/1/4 146/1/4 153/1/4
f 147/3/4 148/3/4 154/3/4
f 148/2/4 149/2/4 155/2/4
f 154/3/4 148/3/4 155/3/4
f 149/2/4 150/2/4 155/2/4
f 150/1/4 151/1/4 156/1/4
f 155/2/4 150/2/4 156/2/4
f 156/1/4 151/1/4 157/1/4
f 154/2/4 155/2/4 158/2/4
f 155/1/4 156/1/4 159/1/4
f 158/2/4 155/2/4 159/2/4
f 159/1/4 156/1/4 160/1/4
f 158/1/4 159/1/4 161/1/4
f 161/1/4 159/1/4 162/1/4
f 163/1/4 164/1/4 165/1/4
f 165/1/4 164/1/4 166/1/4
f 167/1/4 168/1/4 169/1/4
f 169/1/4 168/1/4 170/1/4
f 171/1/4 172/1/4 173/1/4
f 173/1/4 172/1/4 174/1/4
f 177/1/5 176/1/5 175/1/5
f 178/1/5 176/1/5 177/1/5
f 179/2/5 178/2/5 177/2/5
f 180/2/5 178/2/5 179/2/5
f 184/3/5 180/3/5 179/3/5
f 185/3/5 180/3/5 184/3/5
f 189/1/5 182/1/5 181/1/5
f 190/2/5 183/2/5 182/2/5
f 190/1/5 182/1/5 189/1/5
f 191/3/5 185/3/5 184/3/5
f 191/2/5 183/2/5 190/2/5
f 191/3/5 184/3/5 183/3/5
f 191/3/5 186/3/5 185/3/5
f 192/3/5 186/3/5 191/3/5
f 193/3/5 186/3/5 192/3/5
f 194/2/5 187/2/5 186/2/5
f 194/3/5 186/3/5 193/3/5
f 195/1/5 188/1/5 187/1/5
f 195/2/5 187/2/5 194/2/5
f 196/1/5 188/1/5 195/1/5
f 197/3/5 193/3/5 192/3/5
f 198/3/5 193/3/5 197/3/5
f 199/2/5 198/2/5 197/2/5
f 200/2/5 198/2/5 199/2/5
f 201/1/5 200/1/5 199/1/5
f 202/1/5 200/1/5 201/1/5
f 203/1/6 204/1/6 205/1/6
f 205/1/6 204/1/6 206/1/6
f 207/1/6 208/1/6 211/1/6
f 211/1/6 208/1/6 212/1/6
f 209/1/6 210/1/6 213/1/6
f 213/1/6 210/1/6 214/1/6
f 215/1/6 216/1/6 217/1/6
f 217/1/6 216/1/6 218/1/6
f 219/1/6 220/1/6 221/1/6
f 221/1/6 220/1/6 222/1/6
f 223/1/6 224/1/6 225/1/6
f 225/1/6 224/1/6 226/1/6
f 227/1/6 228/1/6 229/1/6
f 229/1/6 228/1/6 230/1/6
f 231/1/6 232/1/6 233/1/6
f 233/1/6 232/1/6 234/1/6
f 235/1/6 236/1/6 238/1/6
f 238/1/6 236/1/6 239/1/6
f 237/1/6 238/1/6 241/1/6
f 241/1/6 238/1/6 242/1/6
f 239/1/6 240/1/6 243/1/6
f 243/1/6 240/1/6 244/1/6
f 245/1/6 246/1/6 247/1/6
f 247/1/6 246/1/6 248/1/6
f 249/1/6 250/1/6 251/1/6
f 251/1/6 250/1/6 252/1/6
