# MagicaVoxel @ Ephtracy

# material
mtllib JetFlames2.mtl
usemtl palette

# normals
vn -1 0 0
vn 1 0 0
vn 0 0 1
vn 0 0 -1
vn 0 -1 0
vn 0 1 0

# texcoords
vt 0.595703 0.5
vt 0.599609 0.5
vt 0.603516 0.5

# verts
v 2 0 -2
v 2 0 -3
v 2 3 -2
v 2 3 -3
v 3 3 -2
v 3 3 -3
v 3 4 -2
v 3 4 -3
v 4 4 -2
v 4 4 -3
v 4 6 -2
v 4 6 -3
v 5 0 1
v 5 0 -0
v 5 0 -1
v 5 0 -2
v 5 0 -3
v 5 0 -4
v 5 0 -5
v 5 0 -6
v 5 2 1
v 5 2 -0
v 5 2 -1
v 5 2 -2
v 5 2 -3
v 5 3 -1
v 5 3 -2
v 5 3 -3
v 5 3 -4
v 5 3 -5
v 5 3 -6
v 5 4 -0
v 5 4 -1
v 5 4 -2
v 5 4 -3
v 5 4 -4
v 5 5 -4
v 5 5 -5
v 5 6 -1
v 5 6 -2
v 5 6 -3
v 5 6 -4
v 5 8 -2
v 5 8 -3
v 6 0 1
v 6 0 -0
v 6 0 -1
v 6 0 -2
v 6 0 -3
v 6 0 -4
v 6 0 -5
v 6 0 -6
v 6 2 1
v 6 2 -0
v 6 2 -1
v 6 3 -1
v 6 3 -2
v 6 3 -3
v 6 3 -4
v 6 3 -5
v 6 3 -6
v 6 4 -0
v 6 4 -1
v 6 4 -2
v 6 4 -3
v 6 4 -4
v 6 5 -2
v 6 5 -3
v 6 5 -4
v 6 5 -5
v 6 6 -1
v 6 6 -2
v 6 6 -3
v 6 6 -4
v 6 7 -2
v 6 7 -3
v 6 8 -2
v 6 8 -3
v 7 5 -2
v 7 5 -3
v 7 7 -2
v 7 7 -3
v 8 3 -2
v 8 3 -3
v 8 5 -2
v 8 5 -3
v 9 0 -2
v 9 0 -3
v 9 3 -2
v 9 3 -3
v 5 0 1
v 5 2 1
v 6 0 1
v 6 2 1
v 5 2 -0
v 5 4 -0
v 6 2 -0
v 6 4 -0
v 5 4 -1
v 5 6 -1
v 6 4 -1
v 6 6 -1
v 2 0 -2
v 2 3 -2
v 3 0 -2
v 3 2 -2
v 3 3 -2
v 3 4 -2
v 4 0 -2
v 4 2 -2
v 4 3 -2
v 4 4 -2
v 4 6 -2
v 5 0 -2
v 5 2 -2
v 5 3 -2
v 5 4 -2
v 5 6 -2
v 5 8 -2
v 6 0 -2
v 6 3 -2
v 6 4 -2
v 6 5 -2
v 6 6 -2
v 6 7 -2
v 6 8 -2
v 7 0 -2
v 7 2 -2
v 7 3 -2
v 7 5 -2
v 7 7 -2
v 8 0 -2
v 8 2 -2
v 8 3 -2
v 8 5 -2
v 9 0 -2
v 9 3 -2
v 2 0 -3
v 2 3 -3
v 3 0 -3
v 3 2 -3
v 3 3 -3
v 3 4 -3
v 4 0 -3
v 4 2 -3
v 4 3 -3
v 4 4 -3
v 4 6 -3
v 5 0 -3
v 5 2 -3
v 5 3 -3
v 5 4 -3
v 5 6 -3
v 5 8 -3
v 6 0 -3
v 6 3 -3
v 6 4 -3
v 6 5 -3
v 6 6 -3
v 6 7 -3
v 6 8 -3
v 7 0 -3
v 7 2 -3
v 7 3 -3
v 7 5 -3
v 7 7 -3
v 8 0 -3
v 8 2 -3
v 8 3 -3
v 8 5 -3
v 9 0 -3
v 9 3 -3
v 5 5 -4
v 5 6 -4
v 6 5 -4
v 6 6 -4
v 5 3 -5
v 5 5 -5
v 6 3 -5
v 6 5 -5
v 5 0 -6
v 5 3 -6
v 6 0 -6
v 6 3 -6
v 5 0 1
v 6 0 1
v 5 0 -0
v 6 0 -0
v 5 0 -1
v 6 0 -1
v 2 0 -2
v 3 0 -2
v 4 0 -2
v 5 0 -2
v 6 0 -2
v 7 0 -2
v 8 0 -2
v 9 0 -2
v 2 0 -3
v 3 0 -3
v 4 0 -3
v 5 0 -3
v 6 0 -3
v 7 0 -3
v 8 0 -3
v 9 0 -3
v 5 0 -4
v 6 0 -4
v 5 0 -5
v 6 0 -5
v 5 0 -6
v 6 0 -6
v 5 2 1
v 6 2 1
v 5 2 -0
v 6 2 -0
v 2 3 -2
v 3 3 -2
v 8 3 -2
v 9 3 -2
v 2 3 -3
v 3 3 -3
v 8 3 -3
v 9 3 -3
v 5 3 -5
v 6 3 -5
v 5 3 -6
v 6 3 -6
v 5 4 -0
v 6 4 -0
v 5 4 -1
v 6 4 -1
v 3 4 -2
v 4 4 -2
v 3 4 -3
v 4 4 -3
v 7 5 -2
v 8 5 -2
v 7 5 -3
v 8 5 -3
v 5 5 -4
v 6 5 -4
v 5 5 -5
v 6 5 -5
v 5 6 -1
v 6 6 -1
v 4 6 -2
v 5 6 -2
v 6 6 -2
v 4 6 -3
v 5 6 -3
v 6 6 -3
v 5 6 -4
v 6 6 -4
v 6 7 -2
v 7 7 -2
v 6 7 -3
v 7 7 -3
v 5 8 -2
v 6 8 -2
v 5 8 -3
v 6 8 -3

# faces
f 3/1/1 2/1/1 1/1/1
f 4/1/1 2/1/1 3/1/1
f 7/1/1 6/1/1 5/1/1
f 8/1/1 6/1/1 7/1/1
f 11/1/1 10/1/1 9/1/1
f 12/1/1 10/1/1 11/1/1
f 21/1/1 14/1/1 13/1/1
f 22/2/1 15/2/1 14/2/1
f 22/1/1 14/1/1 21/1/1
f 23/3/1 16/3/1 15/3/1
f 23/2/1 15/2/1 22/2/1
f 24/3/1 16/3/1 23/3/1
f 25/3/1 18/3/1 17/3/1
f 26/3/1 24/3/1 23/3/1
f 26/1/1 23/1/1 22/1/1
f 27/3/1 24/3/1 26/3/1
f 28/3/1 18/3/1 25/3/1
f 29/2/1 19/2/1 18/2/1
f 29/3/1 18/3/1 28/3/1
f 30/1/1 20/1/1 19/1/1
f 30/2/1 19/2/1 29/2/1
f 31/1/1 20/1/1 30/1/1
f 32/1/1 26/1/1 22/1/1
f 33/2/1 27/2/1 26/2/1
f 33/1/1 26/1/1 32/1/1
f 34/2/1 27/2/1 33/2/1
f 35/2/1 29/2/1 28/2/1
f 36/1/1 30/1/1 29/1/1
f 36/2/1 29/2/1 35/2/1
f 37/1/1 30/1/1 36/1/1
f 37/1/1 36/1/1 35/1/1
f 38/1/1 30/1/1 37/1/1
f 39/1/1 34/1/1 33/1/1
f 40/1/1 34/1/1 39/1/1
f 41/1/1 37/1/1 35/1/1
f 42/1/1 37/1/1 41/1/1
f 43/1/1 41/1/1 40/1/1
f 44/1/1 41/1/1 43/1/1
f 45/1/2 46/1/2 53/1/2
f 46/2/2 47/2/2 54/2/2
f 53/1/2 46/1/2 54/1/2
f 47/3/2 48/3/2 55/3/2
f 54/2/2 47/2/2 55/2/2
f 55/3/2 48/3/2 56/3/2
f 54/1/2 55/1/2 56/1/2
f 56/3/2 48/3/2 57/3/2
f 49/3/2 50/3/2 58/3/2
f 50/2/2 51/2/2 59/2/2
f 58/3/2 50/3/2 59/3/2
f 51/1/2 52/1/2 60/1/2
f 59/2/2 51/2/2 60/2/2
f 60/1/2 52/1/2 61/1/2
f 54/1/2 56/1/2 62/1/2
f 56/2/2 57/2/2 63/2/2
f 62/1/2 56/1/2 63/1/2
f 63/2/2 57/2/2 64/2/2
f 58/2/2 59/2/2 65/2/2
f 59/1/2 60/1/2 66/1/2
f 65/2/2 59/2/2 66/2/2
f 63/1/2 64/1/2 67/1/2
f 65/1/2 66/1/2 68/1/2
f 66/1/2 60/1/2 69/1/2
f 68/1/2 66/1/2 69/1/2
f 69/1/2 60/1/2 70/1/2
f 63/1/2 67/1/2 71/1/2
f 71/1/2 67/1/2 72/1/2
f 68/1/2 69/1/2 73/1/2
f 73/1/2 69/1/2 74/1/2
f 75/1/2 76/1/2 77/1/2
f 77/1/2 76/1/2 78/1/2
f 79/1/2 80/1/2 81/1/2
f 81/1/2 80/1/2 82/1/2
f 83/1/2 84/1/2 85/1/2
f 85/1/2 84/1/2 86/1/2
f 87/1/2 88/1/2 89/1/2
f 89/1/2 88/1/2 90/1/2
f 93/1/3 92/1/3 91/1/3
f 94/1/3 92/1/3 93/1/3
f 97/1/3 96/1/3 95/1/3
f 98/1/3 96/1/3 97/1/3
f 101/1/3 100/1/3 99/1/3
f 102/1/3 100/1/3 101/1/3
f 105/1/3 104/1/3 103/1/3
f 106/1/3 104/1/3 105/1/3
f 107/1/3 104/1/3 106/1/3
f 109/2/3 106/2/3 105/2/3
f 110/1/3 108/1/3 107/1/3
f 110/2/3 106/2/3 109/2/3
f 110/1/3 107/1/3 106/1/3
f 111/1/3 108/1/3 110/1/3
f 112/1/3 108/1/3 111/1/3
f 114/3/3 110/3/3 109/3/3
f 115/2/3 111/2/3 110/2/3
f 115/3/3 110/3/3 114/3/3
f 116/1/3 113/1/3 112/1/3
f 116/2/3 111/2/3 115/2/3
f 116/1/3 112/1/3 111/1/3
f 117/1/3 113/1/3 116/1/3
f 118/1/3 113/1/3 117/1/3
f 124/1/3 119/1/3 118/1/3
f 125/1/3 119/1/3 124/1/3
f 126/1/3 119/1/3 125/1/3
f 127/3/3 121/3/3 120/3/3
f 128/3/3 121/3/3 127/3/3
f 129/2/3 123/2/3 122/2/3
f 129/3/3 121/3/3 128/3/3
f 129/2/3 122/2/3 121/2/3
f 130/1/3 124/1/3 123/1/3
f 130/2/3 123/2/3 129/2/3
f 130/1/3 125/1/3 124/1/3
f 131/1/3 125/1/3 130/1/3
f 132/2/3 128/2/3 127/2/3
f 133/1/3 129/1/3 128/1/3
f 133/2/3 128/2/3 132/2/3
f 133/1/3 130/1/3 129/1/3
f 134/1/3 130/1/3 133/1/3
f 135/1/3 130/1/3 134/1/3
f 136/1/3 133/1/3 132/1/3
f 136/1/3 134/1/3 133/1/3
f 137/1/3 134/1/3 136/1/3
f 138/1/4 139/1/4 140/1/4
f 140/1/4 139/1/4 141/1/4
f 141/1/4 139/1/4 142/1/4
f 140/2/4 141/2/4 144/2/4
f 142/1/4 143/1/4 145/1/4
f 144/2/4 141/2/4 145/2/4
f 141/1/4 142/1/4 145/1/4
f 145/1/4 143/1/4 146/1/4
f 146/1/4 143/1/4 147/1/4
f 144/3/4 145/3/4 149/3/4
f 145/2/4 146/2/4 150/2/4
f 149/3/4 145/3/4 150/3/4
f 147/1/4 148/1/4 151/1/4
f 150/2/4 146/2/4 151/2/4
f 146/1/4 147/1/4 151/1/4
f 151/1/4 148/1/4 152/1/4
f 152/1/4 148/1/4 153/1/4
f 153/1/4 154/1/4 159/1/4
f 159/1/4 154/1/4 160/1/4
f 160/1/4 154/1/4 161/1/4
f 155/3/4 156/3/4 162/3/4
f 162/3/4 156/3/4 163/3/4
f 157/2/4 158/2/4 164/2/4
f 163/3/4 156/3/4 164/3/4
f 156/2/4 157/2/4 164/2/4
f 158/1/4 159/1/4 165/1/4
f 164/2/4 158/2/4 165/2/4
f 159/1/4 160/1/4 165/1/4
f 165/1/4 160/1/4 166/1/4
f 162/2/4 163/2/4 167/2/4
f 163/1/4 164/1/4 168/1/4
f 167/2/4 163/2/4 168/2/4
f 164/1/4 165/1/4 168/1/4
f 168/1/4 165/1/4 169/1/4
f 169/1/4 165/1/4 170/1/4
f 167/1/4 168/1/4 171/1/4
f 168/1/4 169/1/4 171/1/4
f 171/1/4 169/1/4 172/1/4
f 173/1/4 174/1/4 175/1/4
f 175/1/4 174/1/4 176/1/4
f 177/1/4 178/1/4 179/1/4
f 179/1/4 178/1/4 180/1/4
f 181/1/4 182/1/4 183/1/4
f 183/1/4 182/1/4 184/1/4
f 187/1/5 186/1/5 185/1/5
f 188/1/5 186/1/5 187/1/5
f 189/2/5 188/2/5 187/2/5
f 190/2/5 188/2/5 189/2/5
f 194/3/5 190/3/5 189/3/5
f 195/3/5 190/3/5 194/3/5
f 199/1/5 192/1/5 191/1/5
f 200/2/5 193/2/5 192/2/5
f 200/1/5 192/1/5 199/1/5
f 201/3/5 195/3/5 194/3/5
f 201/2/5 193/2/5 200/2/5
f 201/3/5 194/3/5 193/3/5
f 201/3/5 196/3/5 195/3/5
f 202/3/5 196/3/5 201/3/5
f 203/3/5 196/3/5 202/3/5
f 204/2/5 197/2/5 196/2/5
f 204/3/5 196/3/5 203/3/5
f 205/1/5 198/1/5 197/1/5
f 205/2/5 197/2/5 204/2/5
f 206/1/5 198/1/5 205/1/5
f 207/3/5 203/3/5 202/3/5
f 208/3/5 203/3/5 207/3/5
f 209/2/5 208/2/5 207/2/5
f 210/2/5 208/2/5 209/2/5
f 211/1/5 210/1/5 209/1/5
f 212/1/5 210/1/5 211/1/5
f 213/1/6 214/1/6 215/1/6
f 215/1/6 214/1/6 216/1/6
f 217/1/6 218/1/6 221/1/6
f 221/1/6 218/1/6 222/1/6
f 219/1/6 220/1/6 223/1/6
f 223/1/6 220/1/6 224/1/6
f 225/1/6 226/1/6 227/1/6
f 227/1/6 226/1/6 228/1/6
f 229/1/6 230/1/6 231/1/6
f 231/1/6 230/1/6 232/1/6
f 233/1/6 234/1/6 235/1/6
f 235/1/6 234/1/6 236/1/6
f 237/1/6 238/1/6 239/1/6
f 239/1/6 238/1/6 240/1/6
f 241/1/6 242/1/6 243/1/6
f 243/1/6 242/1/6 244/1/6
f 245/1/6 246/1/6 248/1/6
f 248/1/6 246/1/6 249/1/6
f 247/1/6 248/1/6 250/1/6
f 250/1/6 248/1/6 251/1/6
f 251/1/6 252/1/6 253/1/6
f 253/1/6 252/1/6 254/1/6
f 255/1/6 256/1/6 257/1/6
f 257/1/6 256/1/6 258/1/6
f 259/1/6 260/1/6 261/1/6
f 261/1/6 260/1/6 262/1/6
