# MagicaVoxel @ Ephtracy

# material
mtllib BouncyFront.mtl
usemtl palette

# normals
vn -1 0 0
vn 1 0 0
vn 0 0 1
vn 0 0 -1
vn 0 -1 0
vn 0 1 0

# texcoords
vt 0.470703 0.5
vt 0.474609 0.5
vt 0.478516 0.5
vt 0.564453 0.5
vt 0.572266 0.5

# verts
v -13 6 5
v -13 6 -13
v -13 7 4
v -13 7 -12
v -13 8 5
v -13 8 4
v -13 8 -12
v -13 8 -13
v -12 5 6
v -12 5 -14
v -12 6 5
v -12 6 -13
v -12 8 6
v -12 8 5
v -12 8 4
v -12 8 -12
v -12 8 -13
v -12 8 -14
v -12 9 6
v -12 9 -14
v -11 2 5
v -11 2 2
v -11 2 -10
v -11 2 -13
v -11 4 6
v -11 4 5
v -11 4 2
v -11 4 -10
v -11 4 -13
v -11 4 -14
v -11 5 7
v -11 5 6
v -11 5 -14
v -11 5 -15
v -11 8 7
v -11 8 6
v -11 8 -14
v -11 8 -15
v -11 9 7
v -11 9 6
v -11 9 -14
v -11 9 -15
v -10 2 6
v -10 2 5
v -10 2 -13
v -10 2 -14
v -10 4 6
v -10 4 5
v -10 4 -13
v -10 4 -14
v -10 6 8
v -10 6 7
v -10 6 -15
v -10 6 -16
v -10 8 8
v -10 8 7
v -10 8 -15
v -10 8 -16
v -9 0 4
v -9 0 2
v -9 0 -10
v -9 0 -12
v -9 2 4
v -9 2 2
v -9 2 -10
v -9 2 -12
v -9 4 2
v -9 4 -10
v -11 7 6
v -11 7 -14
v -11 8 6
v -11 8 -14
v -11 9 6
v -11 9 -14
v -7 0 4
v -7 0 2
v -7 0 -10
v -7 0 -12
v -7 2 6
v -7 2 4
v -7 2 2
v -7 2 -10
v -7 2 -12
v -7 2 -14
v -7 4 6
v -7 4 4
v -7 4 -12
v -7 4 -14
v -3 2 4
v -3 2 -12
v -3 4 6
v -3 4 4
v -3 4 -12
v -3 4 -14
v -3 5 7
v -3 5 6
v -3 5 -14
v -3 5 -15
v -3 6 8
v -3 6 7
v -3 6 -15
v -3 6 -16
v -3 7 8
v -3 7 7
v -3 7 6
v -3 7 -14
v -3 7 -15
v -3 7 -16
v -3 8 8
v -3 8 7
v -3 8 6
v -3 8 -14
v -3 8 -15
v -3 8 -16
v -3 9 7
v -3 9 6
v -3 9 -14
v -3 9 -15
v -10 6 8
v -10 8 8
v -9 7 8
v -9 8 8
v -3 6 8
v -3 7 8
v -3 8 8
v -11 5 7
v -11 8 7
v -11 9 7
v -10 6 7
v -10 8 7
v -9 8 7
v -3 5 7
v -3 6 7
v -3 8 7
v -3 9 7
v -12 5 6
v -12 8 6
v -12 9 6
v -11 4 6
v -11 5 6
v -11 8 6
v -11 9 6
v -10 2 6
v -10 4 6
v -7 2 6
v -7 4 6
v -3 4 6
v -3 5 6
v -13 6 5
v -13 8 5
v -12 6 5
v -12 8 5
v -11 2 5
v -11 4 5
v -10 2 5
v -10 4 5
v -9 0 4
v -9 2 4
v -7 0 4
v -7 2 4
v -7 4 4
v -3 2 4
v -3 4 4
v -11 2 -10
v -11 4 -10
v -9 0 -10
v -9 2 -10
v -9 4 -10
v -7 0 -10
v -7 2 -10
v -11 7 -14
v -11 8 -14
v -11 9 -14
v -3 7 -14
v -3 8 -14
v -3 9 -14
v -11 7 6
v -11 8 6
v -11 9 6
v -3 7 6
v -3 8 6
v -3 9 6
v -11 2 2
v -11 4 2
v -9 0 2
v -9 2 2
v -9 4 2
v -7 0 2
v -7 2 2
v -9 0 -12
v -9 2 -12
v -7 0 -12
v -7 2 -12
v -7 4 -12
v -3 2 -12
v -3 4 -12
v -13 6 -13
v -13 8 -13
v -12 6 -13
v -12 8 -13
v -11 2 -13
v -11 4 -13
v -10 2 -13
v -10 4 -13
v -12 5 -14
v -12 8 -14
v -12 9 -14
v -11 4 -14
v -11 5 -14
v -11 8 -14
v -11 9 -14
v -10 2 -14
v -10 4 -14
v -7 2 -14
v -7 4 -14
v -3 4 -14
v -3 5 -14
v -11 5 -15
v -11 8 -15
v -11 9 -15
v -10 6 -15
v -10 8 -15
v -9 8 -15
v -3 5 -15
v -3 6 -15
v -3 8 -15
v -3 9 -15
v -10 6 -16
v -10 8 -16
v -9 7 -16
v -9 8 -16
v -3 6 -16
v -3 7 -16
v -3 8 -16
v -9 0 4
v -7 0 4
v -9 0 2
v -7 0 2
v -9 0 -10
v -7 0 -10
v -9 0 -12
v -7 0 -12
v -10 2 6
v -7 2 6
v -11 2 5
v -10 2 5
v -9 2 4
v -7 2 4
v -3 2 4
v -11 2 2
v -9 2 2
v -7 2 2
v -11 2 -10
v -9 2 -10
v -7 2 -10
v -9 2 -12
v -7 2 -12
v -3 2 -12
v -11 2 -13
v -10 2 -13
v -10 2 -14
v -7 2 -14
v -11 4 6
v -10 4 6
v -7 4 6
v -3 4 6
v -11 4 5
v -10 4 5
v -7 4 4
v -3 4 4
v -11 4 2
v -9 4 2
v -11 4 -10
v -9 4 -10
v -7 4 -12
v -3 4 -12
v -11 4 -13
v -10 4 -13
v -11 4 -14
v -10 4 -14
v -7 4 -14
v -3 4 -14
v -11 5 7
v -3 5 7
v -12 5 6
v -11 5 6
v -3 5 6
v -12 5 -14
v -11 5 -14
v -3 5 -14
v -11 5 -15
v -3 5 -15
v -10 6 8
v -3 6 8
v -10 6 7
v -3 6 7
v -13 6 5
v -12 6 5
v -13 6 -13
v -12 6 -13
v -10 6 -15
v -3 6 -15
v -10 6 -16
v -3 6 -16
v -11 7 6
v -3 7 6
v -11 7 -14
v -3 7 -14
v -10 8 8
v -9 8 8
v -3 8 8
v -10 8 7
v -9 8 7
v -3 8 7
v -13 8 5
v -12 8 5
v -13 8 4
v -12 8 4
v -13 8 -12
v -12 8 -12
v -13 8 -13
v -12 8 -13
v -10 8 -15
v -9 8 -15
v -3 8 -15
v -10 8 -16
v -9 8 -16
v -3 8 -16
v -11 9 7
v -3 9 7
v -12 9 6
v -11 9 6
v -3 9 6
v -12 9 -14
v -11 9 -14
v -3 9 -14
v -11 9 -15
v -3 9 -15

# faces
f 3/3/1 2/3/1 1/3/1
f 4/3/1 2/3/1 3/3/1
f 5/3/1 3/3/1 1/3/1
f 6/1/1 4/1/1 3/1/1
f 6/3/1 3/3/1 5/3/1
f 7/3/1 2/3/1 4/3/1
f 7/1/1 4/1/1 6/1/1
f 8/3/1 2/3/1 7/3/1
f 11/1/1 10/1/1 9/1/1
f 12/1/1 10/1/1 11/1/1
f 13/1/1 11/1/1 9/1/1
f 14/1/1 11/1/1 13/1/1
f 17/1/1 10/1/1 12/1/1
f 18/1/1 10/1/1 17/1/1
f 19/2/1 16/2/1 15/2/1
f 19/2/1 14/2/1 13/2/1
f 19/2/1 18/2/1 17/2/1
f 19/2/1 17/2/1 16/2/1
f 19/2/1 15/2/1 14/2/1
f 20/2/1 18/2/1 19/2/1
f 26/2/1 22/2/1 21/2/1
f 27/2/1 22/2/1 26/2/1
f 28/2/1 24/2/1 23/2/1
f 29/2/1 24/2/1 28/2/1
f 32/1/1 27/1/1 26/1/1
f 32/1/1 30/1/1 29/1/1
f 32/1/1 29/1/1 28/1/1
f 32/1/1 28/1/1 27/1/1
f 32/1/1 26/1/1 25/1/1
f 33/1/1 30/1/1 32/1/1
f 35/1/1 32/1/1 31/1/1
f 36/1/1 32/1/1 35/1/1
f 37/1/1 34/1/1 33/1/1
f 38/1/1 34/1/1 37/1/1
f 39/2/1 36/2/1 35/2/1
f 40/2/1 36/2/1 39/2/1
f 41/2/1 38/2/1 37/2/1
f 42/2/1 38/2/1 41/2/1
f 47/2/1 44/2/1 43/2/1
f 48/2/1 44/2/1 47/2/1
f 49/2/1 46/2/1 45/2/1
f 50/2/1 46/2/1 49/2/1
f 55/3/1 52/3/1 51/3/1
f 56/3/1 52/3/1 55/3/1
f 57/3/1 54/3/1 53/3/1
f 58/3/1 54/3/1 57/3/1
f 63/2/1 60/2/1 59/2/1
f 64/2/1 60/2/1 63/2/1
f 65/2/1 62/2/1 61/2/1
f 66/2/1 62/2/1 65/2/1
f 67/1/1 65/1/1 64/1/1
f 68/1/1 65/1/1 67/1/1
f 69/1/2 70/1/2 71/1/2
f 71/1/2 70/1/2 72/1/2
f 71/2/2 72/2/2 73/2/2
f 73/2/2 72/2/2 74/2/2
f 75/2/2 76/2/2 80/2/2
f 80/2/2 76/2/2 81/2/2
f 77/2/2 78/2/2 82/2/2
f 82/2/2 78/2/2 83/2/2
f 79/2/2 80/2/2 85/2/2
f 85/2/2 80/2/2 86/2/2
f 83/2/2 84/2/2 87/2/2
f 87/2/2 84/2/2 88/2/2
f 89/1/2 90/1/2 92/1/2
f 92/1/2 90/1/2 93/1/2
f 91/1/2 92/1/2 96/1/2
f 93/1/2 94/1/2 96/1/2
f 92/1/2 93/1/2 96/1/2
f 96/1/2 94/1/2 97/1/2
f 95/1/2 96/1/2 100/1/2
f 97/1/2 98/1/2 101/1/2
f 99/3/2 100/3/2 103/3/2
f 100/1/2 96/1/2 104/1/2
f 103/3/2 100/3/2 104/3/2
f 96/3/2 97/3/2 105/3/2
f 104/1/2 96/1/2 105/1/2
f 97/1/2 101/1/2 106/1/2
f 105/3/2 97/3/2 106/3/2
f 101/3/2 102/3/2 107/3/2
f 106/1/2 101/1/2 107/1/2
f 107/3/2 102/3/2 108/3/2
f 103/1/2 104/1/2 109/1/2
f 104/1/2 105/1/2 109/1/2
f 109/1/2 105/1/2 110/1/2
f 110/1/2 105/1/2 111/1/2
f 107/1/2 108/1/2 112/1/2
f 106/1/2 107/1/2 112/1/2
f 112/1/2 108/1/2 113/1/2
f 113/1/2 108/1/2 114/1/2
f 110/2/2 111/2/2 115/2/2
f 115/2/2 111/2/2 116/2/2
f 112/2/2 113/2/2 117/2/2
f 117/2/2 113/2/2 118/2/2
f 121/3/3 120/3/3 119/3/3
f 122/3/3 120/3/3 121/3/3
f 123/3/3 121/3/3 119/3/3
f 124/1/3 122/1/3 121/1/3
f 124/3/3 121/3/3 123/3/3
f 125/1/3 122/1/3 124/1/3
f 129/1/3 127/1/3 126/1/3
f 130/2/3 128/2/3 127/2/3
f 130/1/3 127/1/3 129/1/3
f 131/2/3 128/2/3 130/2/3
f 132/1/3 129/1/3 126/1/3
f 133/1/3 129/1/3 132/1/3
f 134/2/3 128/2/3 131/2/3
f 135/2/3 128/2/3 134/2/3
f 140/1/3 137/1/3 136/1/3
f 141/2/3 138/2/3 137/2/3
f 141/1/3 137/1/3 140/1/3
f 142/2/3 138/2/3 141/2/3
f 144/1/3 140/1/3 139/1/3
f 145/2/3 144/2/3 143/2/3
f 146/1/3 140/1/3 144/1/3
f 146/2/3 144/2/3 145/2/3
f 147/1/3 140/1/3 146/1/3
f 148/1/3 140/1/3 147/1/3
f 151/3/3 150/3/3 149/3/3
f 152/3/3 150/3/3 151/3/3
f 155/2/3 154/2/3 153/2/3
f 156/2/3 154/2/3 155/2/3
f 159/2/3 158/2/3 157/2/3
f 160/2/3 158/2/3 159/2/3
f 162/1/3 161/1/3 160/1/3
f 163/1/3 161/1/3 162/1/3
f 167/2/3 165/2/3 164/2/3
f 168/2/3 165/2/3 167/2/3
f 169/2/3 167/2/3 166/2/3
f 170/2/3 167/2/3 169/2/3
f 174/1/3 172/1/3 171/1/3
f 175/2/3 173/2/3 172/2/3
f 175/1/3 172/1/3 174/1/3
f 176/2/3 173/2/3 175/2/3
f 177/1/4 178/1/4 180/1/4
f 178/2/4 179/2/4 181/2/4
f 180/1/4 178/1/4 181/1/4
f 181/2/4 179/2/4 182/2/4
f 183/2/4 184/2/4 186/2/4
f 186/2/4 184/2/4 187/2/4
f 185/2/4 186/2/4 188/2/4
f 188/2/4 186/2/4 189/2/4
f 190/2/4 191/2/4 192/2/4
f 192/2/4 191/2/4 193/2/4
f 193/1/4 194/1/4 195/1/4
f 195/1/4 194/1/4 196/1/4
f 197/3/4 198/3/4 199/3/4
f 199/3/4 198/3/4 200/3/4
f 201/2/4 202/2/4 203/2/4
f 203/2/4 202/2/4 204/2/4
f 205/1/4 206/1/4 209/1/4
f 206/2/4 207/2/4 210/2/4
f 209/1/4 206/1/4 210/1/4
f 210/2/4 207/2/4 211/2/4
f 208/1/4 209/1/4 213/1/4
f 212/2/4 213/2/4 214/2/4
f 213/1/4 209/1/4 215/1/4
f 214/2/4 213/2/4 215/2/4
f 215/1/4 209/1/4 216/1/4
f 216/1/4 209/1/4 217/1/4
f 218/1/4 219/1/4 221/1/4
f 219/2/4 220/2/4 222/2/4
f 221/1/4 219/1/4 222/1/4
f 222/2/4 220/2/4 223/2/4
f 218/1/4 221/1/4 224/1/4
f 224/1/4 221/1/4 225/1/4
f 223/2/4 220/2/4 226/2/4
f 226/2/4 220/2/4 227/2/4
f 228/3/4 229/3/4 230/3/4
f 230/3/4 229/3/4 231/3/4
f 228/3/4 230/3/4 232/3/4
f 230/1/4 231/1/4 233/1/4
f 232/3/4 230/3/4 233/3/4
f 233/1/4 231/1/4 234/1/4
f 237/2/5 236/2/5 235/2/5
f 238/2/5 236/2/5 237/2/5
f 241/2/5 240/2/5 239/2/5
f 242/2/5 240/2/5 241/2/5
f 246/2/5 244/2/5 243/2/5
f 247/2/5 244/2/5 246/2/5
f 247/2/5 246/2/5 245/2/5
f 248/2/5 244/2/5 247/2/5
f 250/2/5 247/2/5 245/2/5
f 251/2/5 247/2/5 250/2/5
f 252/1/5 249/1/5 248/1/5
f 254/1/5 252/1/5 251/1/5
f 255/1/5 249/1/5 252/1/5
f 255/1/5 252/1/5 254/1/5
f 256/2/5 254/2/5 253/2/5
f 257/1/5 249/1/5 255/1/5
f 258/1/5 249/1/5 257/1/5
f 259/2/5 256/2/5 253/2/5
f 259/2/5 257/2/5 256/2/5
f 260/2/5 257/2/5 259/2/5
f 261/2/5 257/2/5 260/2/5
f 262/2/5 257/2/5 261/2/5
f 267/1/5 264/1/5 263/1/5
f 268/1/5 264/1/5 267/1/5
f 269/1/5 266/1/5 265/1/5
f 270/1/5 266/1/5 269/1/5
f 273/1/5 272/1/5 271/1/5
f 274/1/5 272/1/5 273/1/5
f 279/1/5 278/1/5 277/1/5
f 280/1/5 278/1/5 279/1/5
f 281/1/5 276/1/5 275/1/5
f 282/1/5 276/1/5 281/1/5
f 286/1/5 284/1/5 283/1/5
f 287/1/5 284/1/5 286/1/5
f 288/1/5 286/1/5 285/1/5
f 289/1/5 286/1/5 288/1/5
f 291/1/5 290/1/5 289/1/5
f 292/1/5 290/1/5 291/1/5
f 295/3/5 294/3/5 293/3/5
f 296/3/5 294/3/5 295/3/5
f 299/3/5 298/3/5 297/3/5
f 300/3/5 298/3/5 299/3/5
f 303/3/5 302/3/5 301/3/5
f 304/3/5 302/3/5 303/3/5
f 305/3/6 306/3/6 307/3/6
f 307/3/6 306/3/6 308/3/6
f 309/3/6 310/3/6 312/3/6
f 310/1/6 311/1/6 313/1/6
f 312/3/6 310/3/6 313/3/6
f 313/1/6 311/1/6 314/1/6
f 315/3/6 316/3/6 317/3/6
f 317/3/6 316/3/6 318/3/6
f 317/1/6 318/1/6 319/1/6
f 319/1/6 318/1/6 320/1/6
f 319/3/6 320/3/6 321/3/6
f 321/3/6 320/3/6 322/3/6
f 323/3/6 324/3/6 326/3/6
f 324/1/6 325/1/6 327/1/6
f 326/3/6 324/3/6 327/3/6
f 327/1/6 325/1/6 328/1/6
f 329/2/6 330/2/6 332/2/6
f 332/2/6 330/2/6 333/2/6
f 331/2/6 332/2/6 334/2/6
f 334/2/6 332/2/6 335/2/6
f 335/2/6 336/2/6 337/2/6
f 337/2/6 336/2/6 338/2/6
