# MagicaVoxel @ Ephtracy

# material
mtllib BigMamaTurtle.mtl
usemtl palette

# normals
vn -1 0 0
vn 1 0 0
vn 0 0 1
vn 0 0 -1
vn 0 -1 0
vn 0 1 0

# texcoords
vt 0.0957031 0.5
vt 0.0996094 0.5
vt 0.380859 0.5
vt 0.658203 0.5
vt 0.751953 0.5
vt 0.755859 0.5
vt 0.783203 0.5
vt 0.787109 0.5
vt 0.794922 0.5
vt 0.943359 0.5
vt 0.947266 0.5

# verts
v -5 2 6
v -5 2 -3
v -5 3 6
v -5 3 -3
v -4 2 7
v -4 2 6
v -4 3 6
v -4 3 4
v -4 3 2
v -4 3 -0
v -4 3 -2
v -4 3 -3
v -4 4 7
v -4 4 6
v -4 4 4
v -4 4 2
v -4 4 -0
v -4 4 -2
v -4 4 -3
v -4 6 6
v -4 6 4
v -4 6 2
v -4 6 -0
v -4 6 -2
v -4 6 -3
v -3 0 6
v -3 0 4
v -3 0 -2
v -3 0 -4
v -3 2 8
v -3 2 7
v -3 2 6
v -3 2 4
v -3 2 -2
v -3 2 -3
v -3 2 -4
v -3 3 8
v -3 3 7
v -3 3 -3
v -3 4 7
v -3 4 6
v -3 4 -3
v -3 4 -4
v -3 5 -3
v -3 5 -4
v -3 6 7
v -3 6 6
v -2 1 4
v -2 1 3
v -2 1 2
v -2 1 1
v -2 1 -1
v -2 1 -2
v -2 2 4
v -2 2 3
v -2 2 2
v -2 2 1
v -2 2 -0
v -2 2 -1
v -2 2 -2
v -1 3 -4
v -1 3 -8
v -1 4 -4
v -1 5 -4
v -1 5 -5
v -1 5 -6
v -1 6 -5
v -1 6 -6
v -1 6 -7
v -1 6 -8
v -1 7 -4
v -1 7 -7
v 0 3 -8
v 0 3 -9
v 0 4 -8
v 0 4 -9
v 3 0 6
v 3 0 4
v 3 0 -2
v 3 0 -4
v 3 1 5
v 3 1 4
v 3 1 -2
v 3 1 -3
v 3 1 -4
v 3 2 6
v 3 2 5
v -1 0 6
v -1 0 4
v -1 0 -2
v -1 0 -4
v -1 1 5
v -1 1 4
v -1 1 -2
v -1 1 -3
v -1 1 -4
v -1 2 6
v -1 2 5
v 2 3 -8
v 2 3 -9
v 2 4 -8
v 2 4 -9
v 3 3 -4
v 3 3 -8
v 3 4 -4
v 3 5 -4
v 3 5 -5
v 3 5 -6
v 3 6 -5
v 3 6 -6
v 3 6 -7
v 3 6 -8
v 3 7 -4
v 3 7 -7
v 4 1 4
v 4 1 3
v 4 1 2
v 4 1 1
v 4 1 -1
v 4 1 -2
v 4 2 4
v 4 2 3
v 4 2 2
v 4 2 1
v 4 2 -0
v 4 2 -1
v 4 2 -2
v 5 0 6
v 5 0 4
v 5 0 -2
v 5 0 -4
v 5 2 8
v 5 2 7
v 5 2 6
v 5 2 4
v 5 2 -2
v 5 2 -3
v 5 2 -4
v 5 3 8
v 5 3 7
v 5 4 7
v 5 4 6
v 5 4 -3
v 5 4 -4
v 5 5 -3
v 5 5 -4
v 5 6 7
v 5 6 6
v 6 2 7
v 6 2 6
v 6 3 7
v 6 3 6
v 6 3 4
v 6 3 2
v 6 3 -0
v 6 3 -2
v 6 3 -3
v 6 4 7
v 6 4 6
v 6 4 4
v 6 4 2
v 6 4 -0
v 6 4 -2
v 6 4 -3
v 6 6 6
v 6 6 4
v 6 6 2
v 6 6 -0
v 6 6 -2
v 6 6 -3
v 7 2 6
v 7 2 -3
v 7 3 6
v 7 3 -3
v -3 2 8
v -3 3 8
v 5 2 8
v 5 3 8
v -4 2 7
v -4 4 7
v -3 2 7
v -3 3 7
v -3 4 7
v -3 6 7
v -1 3 7
v -1 4 7
v -1 6 7
v 1 3 7
v 1 4 7
v 1 6 7
v 3 3 7
v 3 4 7
v 3 6 7
v 5 2 7
v 5 3 7
v 5 4 7
v 5 6 7
v 6 2 7
v 6 3 7
v 6 4 7
v -5 2 6
v -5 3 6
v -4 2 6
v -4 3 6
v -4 4 6
v -4 6 6
v -3 0 6
v -3 2 6
v -3 4 6
v -3 6 6
v -1 0 6
v -1 2 6
v 3 0 6
v 3 2 6
v 5 0 6
v 5 2 6
v 5 4 6
v 5 6 6
v 6 2 6
v 6 3 6
v 6 4 6
v 6 6 6
v 7 2 6
v 7 3 6
v -1 1 5
v -1 2 5
v 1 2 5
v 3 1 5
v 3 2 5
v -3 0 -2
v -3 2 -2
v -2 1 -2
v -2 2 -2
v -1 0 -2
v -1 1 -2
v 3 0 -2
v 3 1 -2
v 4 1 -2
v 4 2 -2
v 5 0 -2
v 5 2 -2
v -1 5 -4
v -1 7 -4
v 1 5 -4
v 3 5 -4
v 3 7 -4
v -3 0 4
v -3 2 4
v -2 1 4
v -2 2 4
v -1 0 4
v -1 1 4
v 3 0 4
v 3 1 4
v 4 1 4
v 4 2 4
v 5 0 4
v 5 2 4
v -5 2 -3
v -5 3 -3
v -4 3 -3
v -4 4 -3
v -4 6 -3
v -3 2 -3
v -3 3 -3
v -3 4 -3
v -3 5 -3
v -3 6 -3
v -1 5 -3
v -1 6 -3
v 1 5 -3
v 1 6 -3
v 3 5 -3
v 3 6 -3
v 5 2 -3
v 5 4 -3
v 5 5 -3
v 5 6 -3
v 6 3 -3
v 6 4 -3
v 6 6 -3
v 7 2 -3
v 7 3 -3
v -3 0 -4
v -3 2 -4
v -3 4 -4
v -3 5 -4
v -1 0 -4
v -1 1 -4
v -1 2 -4
v -1 3 -4
v -1 4 -4
v -1 5 -4
v 1 2 -4
v 1 3 -4
v 3 0 -4
v 3 1 -4
v 3 2 -4
v 3 3 -4
v 3 4 -4
v 3 5 -4
v 5 0 -4
v 5 2 -4
v 5 4 -4
v 5 5 -4
v -1 6 -7
v -1 7 -7
v 3 6 -7
v 3 7 -7
v -1 3 -8
v -1 6 -8
v 0 3 -8
v 0 4 -8
v 2 3 -8
v 2 4 -8
v 3 3 -8
v 3 6 -8
v 0 3 -9
v 0 4 -9
v 2 3 -9
v 2 4 -9
v -3 0 6
v -1 0 6
v 3 0 6
v 5 0 6
v -3 0 4
v -1 0 4
v 3 0 4
v 5 0 4
v -3 0 -2
v -1 0 -2
v 3 0 -2
v 5 0 -2
v -3 0 -4
v -1 0 -4
v 3 0 -4
v 5 0 -4
v -1 1 5
v 3 1 5
v -2 1 4
v -1 1 4
v 3 1 4
v 4 1 4
v -2 1 3
v -1 1 3
v 3 1 3
v 4 1 3
v -2 1 2
v 4 1 2
v -2 1 1
v -1 1 1
v 3 1 1
v 4 1 1
v -1 1 -0
v 3 1 -0
v -2 1 -1
v -1 1 -1
v 3 1 -1
v 4 1 -1
v -2 1 -2
v -1 1 -2
v 3 1 -2
v 4 1 -2
v -1 1 -3
v 3 1 -3
v -1 1 -4
v 3 1 -4
v -3 2 8
v 5 2 8
v -4 2 7
v -3 2 7
v 5 2 7
v 6 2 7
v -5 2 6
v -4 2 6
v -3 2 6
v -1 2 6
v 1 2 6
v 3 2 6
v 5 2 6
v 6 2 6
v 7 2 6
v -1 2 5
v 1 2 5
v 3 2 5
v -3 2 4
v -2 2 4
v 4 2 4
v 5 2 4
v -2 2 3
v 4 2 3
v -3 2 2
v -2 2 2
v 4 2 2
v 5 2 2
v -2 2 1
v 4 2 1
v -3 2 -0
v -2 2 -0
v 4 2 -0
v 5 2 -0
v -2 2 -1
v 4 2 -1
v -3 2 -2
v -2 2 -2
v 4 2 -2
v 5 2 -2
v -5 2 -3
v -3 2 -3
v 5 2 -3
v 7 2 -3
v -1 3 -4
v 1 3 -4
v 3 3 -4
v -1 3 -8
v 0 3 -8
v 2 3 -8
v 3 3 -8
v 0 3 -9
v 2 3 -9
v -3 3 8
v 5 3 8
v -3 3 7
v -1 3 7
v 1 3 7
v 3 3 7
v 5 3 7
v -5 3 6
v -4 3 6
v 6 3 6
v 7 3 6
v -4 3 4
v 6 3 4
v -4 3 2
v 6 3 2
v -4 3 -0
v 6 3 -0
v -4 3 -2
v 6 3 -2
v -5 3 -3
v -4 3 -3
v 6 3 -3
v 7 3 -3
v -4 4 7
v -3 4 7
v 5 4 7
v 6 4 7
v -4 4 6
v -3 4 6
v 5 4 6
v 6 4 6
v 0 4 -8
v 2 4 -8
v 0 4 -9
v 2 4 -9
v -3 5 -3
v -1 5 -3
v 1 5 -3
v 3 5 -3
v 5 5 -3
v -3 5 -4
v -1 5 -4
v 1 5 -4
v 3 5 -4
v 5 5 -4
v -3 6 7
v -1 6 7
v 1 6 7
v 3 6 7
v 5 6 7
v -4 6 6
v -3 6 6
v -1 6 6
v 1 6 6
v 3 6 6
v 5 6 6
v 6 6 6
v -4 6 4
v -3 6 4
v -1 6 4
v 1 6 4
v 3 6 4
v 5 6 4
v 6 6 4
v -4 6 2
v -3 6 2
v -1 6 2
v 1 6 2
v 3 6 2
v 5 6 2
v 6 6 2
v -4 6 -0
v -3 6 -0
v -1 6 -0
v 1 6 -0
v 3 6 -0
v 5 6 -0
v 6 6 -0
v -4 6 -2
v -3 6 -2
v -1 6 -2
v 1 6 -2
v 3 6 -2
v 5 6 -2
v 6 6 -2
v -4 6 -3
v -3 6 -3
v -1 6 -3
v 1 6 -3
v 3 6 -3
v 5 6 -3
v 6 6 -3
v -1 6 -7
v 3 6 -7
v -1 6 -8
v 3 6 -8
v -1 7 -4
v 3 7 -4
v -1 7 -7
v 3 7 -7

# faces
f 3/2/1 2/2/1 1/2/1
f 4/2/1 2/2/1 3/2/1
f 7/2/1 6/2/1 5/2/1
f 13/2/1 7/2/1 5/2/1
f 14/1/1 8/1/1 7/1/1
f 14/2/1 7/2/1 13/2/1
f 15/2/1 9/2/1 8/2/1
f 15/1/1 8/1/1 14/1/1
f 16/1/1 10/1/1 9/1/1
f 16/2/1 9/2/1 15/2/1
f 17/2/1 11/2/1 10/2/1
f 17/1/1 10/1/1 16/1/1
f 18/1/1 12/1/1 11/1/1
f 18/2/1 11/2/1 17/2/1
f 19/1/1 12/1/1 18/1/1
f 20/2/1 15/2/1 14/2/1
f 21/1/1 16/1/1 15/1/1
f 21/2/1 15/2/1 20/2/1
f 22/2/1 17/2/1 16/2/1
f 22/1/1 16/1/1 21/1/1
f 23/1/1 18/1/1 17/1/1
f 23/2/1 17/2/1 22/2/1
f 24/2/1 19/2/1 18/2/1
f 24/1/1 18/1/1 23/1/1
f 25/2/1 19/2/1 24/2/1
f 32/6/1 27/6/1 26/6/1
f 33/6/1 27/6/1 32/6/1
f 34/6/1 29/6/1 28/6/1
f 35/6/1 29/6/1 34/6/1
f 36/6/1 29/6/1 35/6/1
f 37/2/1 31/2/1 30/2/1
f 38/2/1 31/2/1 37/2/1
f 39/2/1 36/2/1 35/2/1
f 42/2/1 36/2/1 39/2/1
f 43/2/1 36/2/1 42/2/1
f 44/1/1 43/1/1 42/1/1
f 45/1/1 43/1/1 44/1/1
f 46/2/1 41/2/1 40/2/1
f 47/2/1 41/2/1 46/2/1
f 54/6/1 49/6/1 48/6/1
f 55/8/1 50/8/1 49/8/1
f 55/6/1 49/6/1 54/6/1
f 56/6/1 51/6/1 50/6/1
f 56/8/1 50/8/1 55/8/1
f 57/8/1 52/8/1 51/8/1
f 57/6/1 51/6/1 56/6/1
f 58/8/1 52/8/1 57/8/1
f 59/6/1 53/6/1 52/6/1
f 59/8/1 52/8/1 58/8/1
f 60/6/1 53/6/1 59/6/1
f 63/6/1 62/6/1 61/6/1
f 64/6/1 62/6/1 63/6/1
f 65/6/1 62/6/1 64/6/1
f 66/6/1 62/6/1 65/6/1
f 67/6/1 65/6/1 64/6/1
f 67/11/1 66/11/1 65/11/1
f 68/6/1 62/6/1 66/6/1
f 68/11/1 66/11/1 67/11/1
f 69/6/1 62/6/1 68/6/1
f 70/6/1 62/6/1 69/6/1
f 71/6/1 67/6/1 64/6/1
f 71/6/1 68/6/1 67/6/1
f 71/6/1 69/6/1 68/6/1
f 72/6/1 69/6/1 71/6/1
f 75/3/1 74/3/1 73/3/1
f 76/3/1 74/3/1 75/3/1
f 81/6/1 78/6/1 77/6/1
f 82/6/1 78/6/1 81/6/1
f 83/6/1 80/6/1 79/6/1
f 84/6/1 80/6/1 83/6/1
f 85/6/1 80/6/1 84/6/1
f 86/6/1 81/6/1 77/6/1
f 87/6/1 81/6/1 86/6/1
f 88/6/2 89/6/2 92/6/2
f 92/6/2 89/6/2 93/6/2
f 90/6/2 91/6/2 94/6/2
f 94/6/2 91/6/2 95/6/2
f 95/6/2 91/6/2 96/6/2
f 88/6/2 92/6/2 97/6/2
f 97/6/2 92/6/2 98/6/2
f 99/3/2 100/3/2 101/3/2
f 101/3/2 100/3/2 102/3/2
f 103/6/2 104/6/2 105/6/2
f 105/6/2 104/6/2 106/6/2
f 106/6/2 104/6/2 107/6/2
f 107/6/2 104/6/2 108/6/2
f 106/6/2 107/6/2 109/6/2
f 107/11/2 108/11/2 109/11/2
f 108/6/2 104/6/2 110/6/2
f 109/11/2 108/11/2 110/11/2
f 110/6/2 104/6/2 111/6/2
f 111/6/2 104/6/2 112/6/2
f 106/6/2 109/6/2 113/6/2
f 109/6/2 110/6/2 113/6/2
f 110/6/2 111/6/2 113/6/2
f 113/6/2 111/6/2 114/6/2
f 115/6/2 116/6/2 121/6/2
f 116/8/2 117/8/2 122/8/2
f 121/6/2 116/6/2 122/6/2
f 117/6/2 118/6/2 123/6/2
f 122/8/2 117/8/2 123/8/2
f 118/8/2 119/8/2 124/8/2
f 123/6/2 118/6/2 124/6/2
f 124/8/2 119/8/2 125/8/2
f 119/6/2 120/6/2 126/6/2
f 125/8/2 119/8/2 126/8/2
f 126/6/2 120/6/2 127/6/2
f 128/6/2 129/6/2 134/6/2
f 134/6/2 129/6/2 135/6/2
f 130/6/2 131/6/2 136/6/2
f 136/6/2 131/6/2 137/6/2
f 137/6/2 131/6/2 138/6/2
f 132/2/2 133/2/2 139/2/2
f 139/2/2 133/2/2 140/2/2
f 137/1/2 138/1/2 143/1/2
f 143/1/2 138/1/2 144/1/2
f 143/2/2 144/2/2 145/2/2
f 145/2/2 144/2/2 146/2/2
f 141/1/2 142/1/2 147/1/2
f 147/1/2 142/1/2 148/1/2
f 149/2/2 150/2/2 151/2/2
f 151/2/2 150/2/2 152/2/2
f 151/1/2 152/1/2 158/1/2
f 152/2/2 153/2/2 159/2/2
f 158/1/2 152/1/2 159/1/2
f 153/1/2 154/1/2 160/1/2
f 159/2/2 153/2/2 160/2/2
f 154/2/2 155/2/2 161/2/2
f 160/1/2 154/1/2 161/1/2
f 155/1/2 156/1/2 162/1/2
f 161/2/2 155/2/2 162/2/2
f 156/2/2 157/2/2 163/2/2
f 162/1/2 156/1/2 163/1/2
f 163/2/2 157/2/2 164/2/2
f 159/1/2 160/1/2 165/1/2
f 160/2/2 161/2/2 166/2/2
f 165/1/2 160/1/2 166/1/2
f 161/1/2 162/1/2 167/1/2
f 166/2/2 161/2/2 167/2/2
f 162/2/2 163/2/2 168/2/2
f 167/1/2 162/1/2 168/1/2
f 163/1/2 164/1/2 169/1/2
f 168/2/2 163/2/2 169/2/2
f 169/1/2 164/1/2 170/1/2
f 171/2/2 172/2/2 173/2/2
f 173/2/2 172/2/2 174/2/2
f 177/2/3 176/2/3 175/2/3
f 178/2/3 176/2/3 177/2/3
f 181/2/3 180/2/3 179/2/3
f 182/2/3 180/2/3 181/2/3
f 183/2/3 180/2/3 182/2/3
f 185/1/3 183/1/3 182/1/3
f 186/2/3 184/2/3 183/2/3
f 186/1/3 183/1/3 185/1/3
f 187/2/3 184/2/3 186/2/3
f 188/2/3 186/2/3 185/2/3
f 189/1/3 187/1/3 186/1/3
f 189/2/3 186/2/3 188/2/3
f 190/1/3 187/1/3 189/1/3
f 191/1/3 189/1/3 188/1/3
f 192/2/3 190/2/3 189/2/3
f 192/1/3 189/1/3 191/1/3
f 193/2/3 190/2/3 192/2/3
f 195/2/3 192/2/3 191/2/3
f 196/1/3 193/1/3 192/1/3
f 196/2/3 192/2/3 195/2/3
f 197/1/3 193/1/3 196/1/3
f 198/2/3 195/2/3 194/2/3
f 199/1/3 196/1/3 195/1/3
f 199/2/3 195/2/3 198/2/3
f 200/1/3 196/1/3 199/1/3
f 203/2/3 202/2/3 201/2/3
f 204/2/3 202/2/3 203/2/3
f 209/2/3 206/2/3 205/2/3
f 210/2/3 206/2/3 209/2/3
f 211/6/3 208/6/3 207/6/3
f 212/6/3 208/6/3 211/6/3
f 215/6/3 214/6/3 213/6/3
f 216/6/3 214/6/3 215/6/3
f 221/1/3 218/1/3 217/1/3
f 222/1/3 218/1/3 221/1/3
f 223/2/3 220/2/3 219/2/3
f 224/2/3 220/2/3 223/2/3
f 227/6/3 226/6/3 225/6/3
f 228/6/3 227/6/3 225/6/3
f 229/6/3 227/6/3 228/6/3
f 232/6/3 231/6/3 230/6/3
f 233/6/3 231/6/3 232/6/3
f 234/6/3 232/6/3 230/6/3
f 235/6/3 232/6/3 234/6/3
f 238/6/3 237/6/3 236/6/3
f 240/6/3 238/6/3 236/6/3
f 240/6/3 239/6/3 238/6/3
f 241/6/3 239/6/3 240/6/3
f 244/6/3 243/6/3 242/6/3
f 245/6/3 243/6/3 244/6/3
f 246/6/3 243/6/3 245/6/3
f 247/6/4 248/6/4 249/6/4
f 249/6/4 248/6/4 250/6/4
f 247/6/4 249/6/4 251/6/4
f 251/6/4 249/6/4 252/6/4
f 253/6/4 254/6/4 255/6/4
f 253/6/4 255/6/4 257/6/4
f 255/6/4 256/6/4 257/6/4
f 257/6/4 256/6/4 258/6/4
f 259/2/4 260/2/4 261/2/4
f 259/2/4 261/2/4 264/2/4
f 261/1/4 262/1/4 265/1/4
f 264/2/4 261/2/4 265/2/4
f 262/2/4 263/2/4 266/2/4
f 265/1/4 262/1/4 266/1/4
f 266/2/4 263/2/4 267/2/4
f 267/2/4 263/2/4 268/2/4
f 267/1/4 268/1/4 269/1/4
f 269/1/4 268/1/4 270/1/4
f 269/2/4 270/2/4 271/2/4
f 271/2/4 270/2/4 272/2/4
f 271/1/4 272/1/4 273/1/4
f 273/1/4 272/1/4 274/1/4
f 273/2/4 274/2/4 277/2/4
f 277/2/4 274/2/4 278/2/4
f 275/2/4 276/2/4 279/2/4
f 276/1/4 277/1/4 280/1/4
f 279/2/4 276/2/4 280/2/4
f 277/1/4 278/1/4 280/1/4
f 280/1/4 278/1/4 281/1/4
f 275/2/4 279/2/4 282/2/4
f 282/2/4 279/2/4 283/2/4
f 284/6/4 285/6/4 288/6/4
f 288/6/4 285/6/4 289/6/4
f 285/2/4 286/2/4 290/2/4
f 289/6/4 285/6/4 290/6/4
f 290/2/4 286/2/4 291/2/4
f 286/1/4 287/1/4 292/1/4
f 291/2/4 286/2/4 292/2/4
f 292/1/4 287/1/4 293/1/4
f 290/1/4 291/1/4 294/1/4
f 289/8/4 290/8/4 294/8/4
f 294/1/4 291/1/4 295/1/4
f 289/8/4 294/8/4 297/8/4
f 294/2/4 295/2/4 298/2/4
f 297/8/4 294/8/4 298/8/4
f 298/2/4 295/2/4 299/2/4
f 296/6/4 297/6/4 302/6/4
f 297/6/4 298/6/4 302/6/4
f 298/1/4 299/1/4 303/1/4
f 302/6/4 298/6/4 303/6/4
f 299/1/4 300/1/4 303/1/4
f 300/2/4 301/2/4 304/2/4
f 303/1/4 300/1/4 304/1/4
f 304/2/4 301/2/4 305/2/4
f 306/6/4 307/6/4 308/6/4
f 308/6/4 307/6/4 309/6/4
f 310/6/4 311/6/4 312/6/4
f 312/6/4 311/6/4 313/6/4
f 313/6/4 311/6/4 315/6/4
f 314/6/4 315/6/4 316/6/4
f 315/6/4 311/6/4 317/6/4
f 316/6/4 315/6/4 317/6/4
f 318/3/4 319/3/4 320/3/4
f 320/3/4 319/3/4 321/3/4
f 326/6/5 323/6/5 322/6/5
f 327/6/5 323/6/5 326/6/5
f 328/6/5 325/6/5 324/6/5
f 329/6/5 325/6/5 328/6/5
f 334/6/5 331/6/5 330/6/5
f 335/6/5 331/6/5 334/6/5
f 336/6/5 333/6/5 332/6/5
f 337/6/5 333/6/5 336/6/5
f 341/6/5 339/6/5 338/6/5
f 342/6/5 339/6/5 341/6/5
f 344/6/5 341/6/5 340/6/5
f 345/8/5 342/8/5 341/8/5
f 345/6/5 341/6/5 344/6/5
f 346/6/5 343/6/5 342/6/5
f 346/8/5 342/8/5 345/8/5
f 347/6/5 343/6/5 346/6/5
f 348/8/5 345/8/5 344/8/5
f 348/8/5 346/8/5 345/8/5
f 348/8/5 347/8/5 346/8/5
f 349/8/5 347/8/5 348/8/5
f 350/6/5 349/6/5 348/6/5
f 351/6/5 349/6/5 350/6/5
f 352/6/5 349/6/5 351/6/5
f 353/6/5 349/6/5 352/6/5
f 354/8/5 351/8/5 350/8/5
f 354/6/5 352/6/5 351/6/5
f 355/8/5 353/8/5 352/8/5
f 355/6/5 352/6/5 354/6/5
f 356/8/5 354/8/5 350/8/5
f 356/8/5 355/8/5 354/8/5
f 357/8/5 355/8/5 356/8/5
f 358/8/5 353/8/5 355/8/5
f 358/8/5 355/8/5 357/8/5
f 359/8/5 353/8/5 358/8/5
f 360/6/5 357/6/5 356/6/5
f 361/8/5 358/8/5 357/8/5
f 361/6/5 357/6/5 360/6/5
f 362/6/5 359/6/5 358/6/5
f 362/8/5 358/8/5 361/8/5
f 363/6/5 359/6/5 362/6/5
f 364/6/5 362/6/5 361/6/5
f 365/6/5 362/6/5 364/6/5
f 366/8/5 365/8/5 364/8/5
f 367/8/5 365/8/5 366/8/5
f 371/2/5 369/2/5 368/2/5
f 372/2/5 369/2/5 371/2/5
f 375/2/5 371/2/5 370/2/5
f 375/2/5 373/2/5 372/2/5
f 375/2/5 372/2/5 371/2/5
f 376/2/5 373/2/5 375/2/5
f 377/2/5 373/2/5 376/2/5
f 378/2/5 373/2/5 377/2/5
f 379/2/5 373/2/5 378/2/5
f 380/2/5 373/2/5 379/2/5
f 381/2/5 373/2/5 380/2/5
f 383/1/5 378/1/5 377/1/5
f 384/2/5 379/2/5 378/2/5
f 384/1/5 378/1/5 383/1/5
f 385/2/5 379/2/5 384/2/5
f 386/2/5 375/2/5 374/2/5
f 386/2/5 376/2/5 375/2/5
f 389/2/5 382/2/5 381/2/5
f 389/2/5 381/2/5 380/2/5
f 390/1/5 387/1/5 386/1/5
f 391/2/5 389/2/5 388/2/5
f 392/1/5 390/1/5 386/1/5
f 392/2/5 386/2/5 374/2/5
f 393/1/5 390/1/5 392/1/5
f 394/2/5 389/2/5 391/2/5
f 395/2/5 382/2/5 389/2/5
f 395/2/5 389/2/5 394/2/5
f 396/2/5 393/2/5 392/2/5
f 397/1/5 395/1/5 394/1/5
f 398/2/5 392/2/5 374/2/5
f 398/2/5 396/2/5 392/2/5
f 399/2/5 396/2/5 398/2/5
f 400/1/5 395/1/5 397/1/5
f 401/2/5 382/2/5 395/2/5
f 401/1/5 395/1/5 400/1/5
f 402/1/5 399/1/5 398/1/5
f 403/2/5 401/2/5 400/2/5
f 404/2/5 398/2/5 374/2/5
f 404/1/5 402/1/5 398/1/5
f 405/1/5 402/1/5 404/1/5
f 406/2/5 401/2/5 403/2/5
f 407/2/5 382/2/5 401/2/5
f 407/2/5 401/2/5 406/2/5
f 408/2/5 404/2/5 374/2/5
f 409/2/5 404/2/5 408/2/5
f 410/2/5 382/2/5 407/2/5
f 411/2/5 382/2/5 410/2/5
f 415/6/5 413/6/5 412/6/5
f 415/6/5 414/6/5 413/6/5
f 416/6/5 414/6/5 415/6/5
f 417/6/5 414/6/5 416/6/5
f 418/6/5 414/6/5 417/6/5
f 419/3/5 417/3/5 416/3/5
f 420/3/5 417/3/5 419/3/5
f 421/2/6 422/2/6 423/2/6
f 423/2/6 422/2/6 424/2/6
f 424/2/6 422/2/6 425/2/6
f 425/2/6 422/2/6 426/2/6
f 426/2/6 422/2/6 427/2/6
f 428/2/6 429/2/6 432/2/6
f 430/2/6 431/2/6 433/2/6
f 428/2/6 432/2/6 434/2/6
f 433/2/6 431/2/6 435/2/6
f 428/2/6 434/2/6 436/2/6
f 435/2/6 431/2/6 437/2/6
f 428/2/6 436/2/6 438/2/6
f 437/2/6 431/2/6 439/2/6
f 428/2/6 438/2/6 440/2/6
f 440/2/6 438/2/6 441/2/6
f 439/2/6 431/2/6 442/2/6
f 442/2/6 431/2/6 443/2/6
f 444/2/6 445/2/6 448/2/6
f 448/2/6 445/2/6 449/2/6
f 446/1/6 447/1/6 450/1/6
f 450/1/6 447/1/6 451/1/6
f 452/3/6 453/3/6 454/3/6
f 454/3/6 453/3/6 455/3/6
f 456/1/6 457/1/6 461/1/6
f 457/2/6 458/2/6 462/2/6
f 461/1/6 457/1/6 462/1/6
f 458/1/6 459/1/6 463/1/6
f 462/2/6 458/2/6 463/2/6
f 459/2/6 460/2/6 464/2/6
f 463/1/6 459/1/6 464/1/6
f 464/2/6 460/2/6 465/2/6
f 466/2/6 467/2/6 472/2/6
f 467/1/6 468/1/6 473/1/6
f 472/2/6 467/2/6 473/2/6
f 468/2/6 469/2/6 474/2/6
f 473/1/6 468/1/6 474/1/6
f 469/1/6 470/1/6 475/1/6
f 474/2/6 469/2/6 475/2/6
f 475/1/6 470/1/6 476/1/6
f 471/2/6 472/2/6 478/2/6
f 472/1/6 473/1/6 479/1/6
f 478/2/6 472/2/6 479/2/6
f 473/2/6 474/2/6 480/2/6
f 479/1/6 473/1/6 480/1/6
f 474/1/6 475/1/6 481/1/6
f 480/2/6 474/2/6 481/2/6
f 475/2/6 476/2/6 482/2/6
f 481/1/6 475/1/6 482/1/6
f 476/1/6 477/1/6 483/1/6
f 482/2/6 476/2/6 483/2/6
f 483/1/6 477/1/6 484/1/6
f 478/1/6 479/1/6 485/1/6
f 479/2/6 480/2/6 486/2/6
f 485/1/6 479/1/6 486/1/6
f 480/1/6 481/1/6 487/1/6
f 486/2/6 480/2/6 487/2/6
f 481/2/6 482/2/6 488/2/6
f 487/1/6 481/1/6 488/1/6
f 482/1/6 483/1/6 489/1/6
f 488/2/6 482/2/6 489/2/6
f 483/2/6 484/2/6 490/2/6
f 489/1/6 483/1/6 490/1/6
f 490/2/6 484/2/6 491/2/6
f 485/2/6 486/2/6 492/2/6
f 486/1/6 487/1/6 493/1/6
f 492/2/6 486/2/6 493/2/6
f 487/2/6 488/2/6 494/2/6
f 493/1/6 487/1/6 494/1/6
f 488/1/6 489/1/6 495/1/6
f 494/2/6 488/2/6 495/2/6
f 489/2/6 490/2/6 496/2/6
f 495/1/6 489/1/6 496/1/6
f 490/1/6 491/1/6 497/1/6
f 496/2/6 490/2/6 497/2/6
f 497/1/6 491/1/6 498/1/6
f 492/1/6 493/1/6 499/1/6
f 493/2/6 494/2/6 500/2/6
f 499/1/6 493/1/6 500/1/6
f 494/1/6 495/1/6 501/1/6
f 500/2/6 494/2/6 501/2/6
f 495/2/6 496/2/6 502/2/6
f 501/1/6 495/1/6 502/1/6
f 496/1/6 497/1/6 503/1/6
f 502/2/6 496/2/6 503/2/6
f 497/2/6 498/2/6 504/2/6
f 503/1/6 497/1/6 504/1/6
f 504/2/6 498/2/6 505/2/6
f 499/2/6 500/2/6 506/2/6
f 500/1/6 501/1/6 507/1/6
f 506/2/6 500/2/6 507/2/6
f 501/2/6 502/2/6 508/2/6
f 507/1/6 501/1/6 508/1/6
f 502/1/6 503/1/6 509/1/6
f 508/2/6 502/2/6 509/2/6
f 503/2/6 504/2/6 510/2/6
f 509/1/6 503/1/6 510/1/6
f 504/1/6 505/1/6 511/1/6
f 510/2/6 504/2/6 511/2/6
f 511/1/6 505/1/6 512/1/6
f 513/6/6 514/6/6 515/6/6
f 515/6/6 514/6/6 516/6/6
f 517/6/6 518/6/6 519/6/6
f 519/6/6 518/6/6 520/6/6
