# MagicaVoxel @ Ephtracy

# material
mtllib StartPlatform.mtl
usemtl palette

# normals
vn -1 0 0
vn 1 0 0
vn 0 0 1
vn 0 0 -1
vn 0 -1 0
vn 0 1 0

# texcoords
vt 0.505859 0.5
vt 0.599609 0.5
vt 0.658203 0.5

# verts
v -20 1 12
v -20 1 11
v -20 1 6
v -20 1 4
v -20 1 -2
v -20 1 -4
v -20 2 11
v -20 2 10
v -20 2 7
v -20 2 6
v -20 2 5
v -20 2 -1
v -20 2 -2
v -20 2 -4
v -20 2 -5
v -20 2 -6
v -20 3 13
v -20 3 12
v -20 3 11
v -20 3 10
v -20 3 9
v -20 3 7
v -20 3 6
v -20 3 5
v -20 3 4
v -20 3 2
v -20 3 1
v -20 3 -1
v -20 3 -2
v -20 3 -5
v -20 3 -6
v -20 3 -7
v -20 4 11
v -20 4 9
v -20 4 2
v -20 4 1
v -20 5 13
v -20 5 -7
v -19 0 12
v -19 0 -7
v -19 1 12
v -19 1 11
v -19 1 6
v -19 1 4
v -19 1 -2
v -19 1 -4
v -19 2 13
v -19 2 12
v -19 2 11
v -19 2 10
v -19 2 7
v -19 2 6
v -19 2 5
v -19 2 -1
v -19 2 -2
v -19 2 -4
v -19 2 -5
v -19 2 -6
v -19 3 13
v -19 3 12
v -19 3 11
v -19 3 10
v -19 3 9
v -19 3 7
v -19 3 6
v -19 3 5
v -19 3 4
v -19 3 2
v -19 3 1
v -19 3 -1
v -19 3 -2
v -19 3 -5
v -19 3 -6
v -19 3 -7
v -19 4 11
v -19 4 9
v -19 4 2
v -19 4 1
v -17 2 13
v -17 2 12
v -17 3 13
v -17 3 12
v -16 1 13
v -16 1 12
v -16 2 13
v -16 2 12
v -9 3 13
v -9 3 12
v -9 4 13
v -9 4 12
v -7 1 13
v -7 1 12
v -7 3 13
v -7 3 12
v -4 3 13
v -4 3 12
v -4 4 13
v -4 4 12
v 2 2 13
v 2 2 12
v 2 3 13
v 2 3 12
v 4 1 13
v 4 1 12
v 4 2 13
v 4 2 12
v 5 2 13
v 5 2 12
v 5 3 13
v 5 3 12
v 10 3 13
v 10 3 12
v 10 4 13
v 10 4 12
v 11 2 13
v 11 2 12
v 11 3 13
v 11 3 12
v 15 2 13
v 15 2 12
v 15 3 13
v 15 3 12
v 17 3 13
v 17 3 12
v 17 4 13
v 17 4 12
v 18 1 13
v 18 1 12
v 18 2 13
v 18 2 12
v 19 2 13
v 19 2 12
v 19 3 13
v 19 3 12
v -18 2 13
v -18 2 12
v -18 3 13
v -18 3 12
v -16 2 13
v -16 2 12
v -16 3 13
v -16 3 12
v -15 1 13
v -15 1 12
v -15 2 13
v -15 2 12
v -11 3 13
v -11 3 12
v -11 4 13
v -11 4 12
v -6 2 13
v -6 2 12
v -6 3 13
v -6 3 12
v -5 1 13
v -5 1 12
v -5 2 13
v -5 2 12
v -5 3 13
v -5 3 12
v -5 4 13
v -5 4 12
v 4 2 13
v 4 2 12
v 4 3 13
v 4 3 12
v 6 1 13
v 6 1 12
v 6 3 13
v 6 3 12
v 8 3 13
v 8 3 12
v 8 4 13
v 8 4 12
v 13 2 13
v 13 2 12
v 13 3 13
v 13 3 12
v 16 2 13
v 16 2 12
v 16 3 12
v 16 4 13
v 16 4 12
v 19 1 13
v 19 1 12
v 19 2 13
v 19 2 12
v 20 0 12
v 20 0 -7
v 20 2 13
v 20 2 12
v 20 3 12
v 20 3 -7
v 20 5 13
v 20 5 -7
v -20 3 13
v -20 5 13
v -19 2 13
v -19 3 13
v -18 2 13
v -18 3 13
v -17 2 13
v -17 3 13
v -16 1 13
v -16 2 13
v -16 3 13
v -15 1 13
v -15 2 13
v -11 3 13
v -11 4 13
v -9 3 13
v -9 4 13
v -7 1 13
v -7 3 13
v -6 2 13
v -6 3 13
v -5 1 13
v -5 2 13
v -5 3 13
v -5 4 13
v -4 3 13
v -4 4 13
v 2 2 13
v 2 3 13
v 4 1 13
v 4 2 13
v 4 3 13
v 5 2 13
v 5 3 13
v 6 1 13
v 6 3 13
v 8 3 13
v 8 4 13
v 10 3 13
v 10 4 13
v 11 2 13
v 11 3 13
v 13 2 13
v 13 3 13
v 15 2 13
v 15 3 13
v 16 2 13
v 16 4 13
v 17 3 13
v 17 4 13
v 18 1 13
v 18 2 13
v 19 1 13
v 19 2 13
v 19 3 13
v 20 2 13
v 20 5 13
v -20 1 12
v -20 3 12
v -19 0 12
v -19 1 12
v -19 2 12
v -19 3 12
v -18 2 12
v -18 3 12
v -17 2 12
v -17 3 12
v -16 1 12
v -16 2 12
v -16 3 12
v -15 1 12
v -15 2 12
v -11 3 12
v -11 4 12
v -9 3 12
v -9 4 12
v -7 1 12
v -7 3 12
v -6 2 12
v -6 3 12
v -5 1 12
v -5 2 12
v -5 3 12
v -5 4 12
v -4 3 12
v -4 4 12
v 2 2 12
v 2 3 12
v 4 1 12
v 4 2 12
v 4 3 12
v 5 2 12
v 5 3 12
v 6 1 12
v 6 3 12
v 8 3 12
v 8 4 12
v 10 3 12
v 10 4 12
v 11 2 12
v 11 3 12
v 13 2 12
v 13 3 12
v 15 2 12
v 15 3 12
v 16 2 12
v 16 3 12
v 16 4 12
v 17 3 12
v 17 4 12
v 18 1 12
v 18 2 12
v 19 1 12
v 19 2 12
v 19 3 12
v 20 0 12
v 20 2 12
v -20 3 9
v -20 4 9
v -19 3 9
v -19 4 9
v -20 2 7
v -20 3 7
v -19 2 7
v -19 3 7
v -20 1 6
v -20 2 6
v -19 1 6
v -19 2 6
v -20 2 5
v -20 3 5
v -19 2 5
v -19 3 5
v -20 3 1
v -20 4 1
v -19 3 1
v -19 4 1
v -20 2 -1
v -20 3 -1
v -19 2 -1
v -19 3 -1
v -20 1 -2
v -20 2 -2
v -19 1 -2
v -19 2 -2
v -20 2 -5
v -20 3 -5
v -19 2 -5
v -19 3 -5
v -20 1 11
v -20 2 11
v -20 3 11
v -20 4 11
v -19 1 11
v -19 2 11
v -19 3 11
v -19 4 11
v -20 2 10
v -20 3 10
v -19 2 10
v -19 3 10
v -20 2 6
v -20 3 6
v -19 2 6
v -19 3 6
v -20 1 4
v -20 3 4
v -19 1 4
v -19 3 4
v -20 3 2
v -20 4 2
v -19 3 2
v -19 4 2
v -20 2 -2
v -20 3 -2
v -19 2 -2
v -19 3 -2
v -20 1 -4
v -20 2 -4
v -19 1 -4
v -19 2 -4
v -20 2 -6
v -20 3 -6
v -19 2 -6
v -19 3 -6
v -20 3 -7
v -20 5 -7
v -19 0 -7
v -19 3 -7
v 20 0 -7
v 20 3 -7
v 20 5 -7
v -19 0 12
v 20 0 12
v -19 0 -7
v 20 0 -7
v -16 1 13
v -15 1 13
v -7 1 13
v -5 1 13
v 4 1 13
v 6 1 13
v 18 1 13
v 19 1 13
v -20 1 12
v -19 1 12
v -16 1 12
v -15 1 12
v -7 1 12
v -5 1 12
v 4 1 12
v 6 1 12
v 18 1 12
v 19 1 12
v -20 1 11
v -19 1 11
v -20 1 6
v -19 1 6
v -20 1 4
v -19 1 4
v -20 1 -2
v -19 1 -2
v -20 1 -4
v -19 1 -4
v -19 2 13
v -18 2 13
v -17 2 13
v -16 2 13
v 2 2 13
v 4 2 13
v 11 2 13
v 13 2 13
v 15 2 13
v 16 2 13
v 19 2 13
v 20 2 13
v -19 2 12
v -18 2 12
v -17 2 12
v -16 2 12
v 2 2 12
v 4 2 12
v 11 2 12
v 13 2 12
v 15 2 12
v 16 2 12
v 19 2 12
v 20 2 12
v -20 2 11
v -19 2 11
v -20 2 10
v -19 2 10
v -20 2 7
v -19 2 7
v -20 2 6
v -19 2 6
v -20 2 -1
v -19 2 -1
v -20 2 -2
v -19 2 -2
v -20 2 -5
v -19 2 -5
v -20 2 -6
v -19 2 -6
v -20 3 13
v -19 3 13
v -18 3 13
v -17 3 13
v -16 3 13
v -11 3 13
v -9 3 13
v -7 3 13
v -6 3 13
v -5 3 13
v -4 3 13
v 2 3 13
v 4 3 13
v 5 3 13
v 6 3 13
v 8 3 13
v 10 3 13
v 11 3 13
v 13 3 13
v 15 3 13
v 17 3 13
v 19 3 13
v -20 3 12
v -19 3 12
v -18 3 12
v -17 3 12
v -16 3 12
v -11 3 12
v -9 3 12
v -7 3 12
v -6 3 12
v -5 3 12
v -4 3 12
v 2 3 12
v 4 3 12
v 5 3 12
v 6 3 12
v 8 3 12
v 10 3 12
v 11 3 12
v 13 3 12
v 15 3 12
v 17 3 12
v 19 3 12
v -20 3 9
v -19 3 9
v -20 3 7
v -19 3 7
v -20 3 6
v -19 3 6
v -20 3 5
v -19 3 5
v -20 3 4
v -19 3 4
v -20 3 2
v -19 3 2
v -20 3 1
v -19 3 1
v -20 3 -1
v -19 3 -1
v -20 3 -2
v -19 3 -2
v -20 3 -5
v -19 3 -5
v -20 3 -6
v -19 3 -6
v -20 3 -7
v -19 3 -7
v -11 4 13
v -9 4 13
v -5 4 13
v -4 4 13
v 8 4 13
v 10 4 13
v 16 4 13
v 17 4 13
v -11 4 12
v -9 4 12
v -5 4 12
v -4 4 12
v 8 4 12
v 10 4 12
v 16 4 12
v 17 4 12
v -20 4 11
v -19 4 11
v -20 4 9
v -19 4 9
v -20 4 2
v -19 4 2
v -20 4 1
v -19 4 1
v -16 2 13
v -15 2 13
v -6 2 13
v -5 2 13
v 4 2 13
v 5 2 13
v 18 2 13
v 19 2 13
v -16 2 12
v -15 2 12
v -6 2 12
v -5 2 12
v 4 2 12
v 5 2 12
v 18 2 12
v 19 2 12
v -20 2 6
v -19 2 6
v -20 2 5
v -19 2 5
v -20 2 -2
v -19 2 -2
v -20 2 -4
v -19 2 -4
v -20 3 11
v -19 3 11
v -20 3 10
v -19 3 10
v -20 5 13
v 20 5 13
v -20 5 -7
v 20 5 -7

# faces
f 7/1/1 2/1/1 1/1/1
f 10/1/1 4/1/1 3/1/1
f 11/1/1 4/1/1 10/1/1
f 13/1/1 6/1/1 5/1/1
f 14/1/1 6/1/1 13/1/1
f 18/1/1 8/1/1 7/1/1
f 18/1/1 7/1/1 1/1/1
f 19/1/1 8/1/1 18/1/1
f 20/1/1 8/1/1 19/1/1
f 22/1/1 10/1/1 9/1/1
f 23/1/1 10/1/1 22/1/1
f 24/1/1 4/1/1 11/1/1
f 25/1/1 4/1/1 24/1/1
f 28/1/1 13/1/1 12/1/1
f 29/1/1 13/1/1 28/1/1
f 30/1/1 16/1/1 15/1/1
f 31/1/1 16/1/1 30/1/1
f 33/1/1 18/1/1 17/1/1
f 33/1/1 19/1/1 18/1/1
f 34/1/1 23/1/1 22/1/1
f 34/1/1 26/1/1 25/1/1
f 34/1/1 22/1/1 21/1/1
f 34/1/1 24/1/1 23/1/1
f 34/1/1 25/1/1 24/1/1
f 35/1/1 26/1/1 34/1/1
f 36/1/1 32/1/1 31/1/1
f 36/1/1 29/1/1 28/1/1
f 36/1/1 31/1/1 30/1/1
f 36/1/1 30/1/1 29/1/1
f 36/1/1 28/1/1 27/1/1
f 37/1/1 33/1/1 17/1/1
f 37/1/1 36/1/1 35/1/1
f 37/1/1 35/1/1 34/1/1
f 37/1/1 34/1/1 33/1/1
f 38/1/1 32/1/1 36/1/1
f 38/1/1 36/1/1 37/1/1
f 41/2/1 40/2/1 39/2/1
f 42/2/1 40/2/1 41/2/1
f 43/2/1 40/2/1 42/2/1
f 44/2/1 40/2/1 43/2/1
f 45/2/1 40/2/1 44/2/1
f 46/2/1 40/2/1 45/2/1
f 49/2/1 43/2/1 42/2/1
f 50/2/1 43/2/1 49/2/1
f 51/2/1 43/2/1 50/2/1
f 52/2/1 43/2/1 51/2/1
f 54/2/1 45/2/1 44/2/1
f 55/2/1 45/2/1 54/2/1
f 56/2/1 40/2/1 46/2/1
f 57/2/1 40/2/1 56/2/1
f 58/2/1 40/2/1 57/2/1
f 59/1/1 48/1/1 47/1/1
f 60/1/1 48/1/1 59/1/1
f 62/2/1 51/2/1 50/2/1
f 63/2/1 51/2/1 62/2/1
f 64/2/1 51/2/1 63/2/1
f 65/2/1 53/2/1 52/2/1
f 66/2/1 53/2/1 65/2/1
f 67/2/1 54/2/1 44/2/1
f 68/2/1 54/2/1 67/2/1
f 69/2/1 54/2/1 68/2/1
f 70/2/1 54/2/1 69/2/1
f 71/2/1 57/2/1 56/2/1
f 71/2/1 56/2/1 55/2/1
f 72/2/1 57/2/1 71/2/1
f 73/2/1 40/2/1 58/2/1
f 74/2/1 40/2/1 73/2/1
f 75/1/1 62/1/1 61/1/1
f 75/1/1 63/1/1 62/1/1
f 76/1/1 63/1/1 75/1/1
f 77/1/1 69/1/1 68/1/1
f 78/1/1 69/1/1 77/1/1
f 81/1/1 80/1/1 79/1/1
f 82/1/1 80/1/1 81/1/1
f 85/1/1 84/1/1 83/1/1
f 86/1/1 84/1/1 85/1/1
f 89/1/1 88/1/1 87/1/1
f 90/1/1 88/1/1 89/1/1
f 93/1/1 92/1/1 91/1/1
f 94/1/1 92/1/1 93/1/1
f 97/1/1 96/1/1 95/1/1
f 98/1/1 96/1/1 97/1/1
f 101/1/1 100/1/1 99/1/1
f 102/1/1 100/1/1 101/1/1
f 105/1/1 104/1/1 103/1/1
f 106/1/1 104/1/1 105/1/1
f 109/1/1 108/1/1 107/1/1
f 110/1/1 108/1/1 109/1/1
f 113/1/1 112/1/1 111/1/1
f 114/1/1 112/1/1 113/1/1
f 117/1/1 116/1/1 115/1/1
f 118/1/1 116/1/1 117/1/1
f 121/1/1 120/1/1 119/1/1
f 122/1/1 120/1/1 121/1/1
f 125/1/1 124/1/1 123/1/1
f 126/1/1 124/1/1 125/1/1
f 129/1/1 128/1/1 127/1/1
f 130/1/1 128/1/1 129/1/1
f 133/1/1 132/1/1 131/1/1
f 134/1/1 132/1/1 133/1/1
f 135/1/2 136/1/2 137/1/2
f 137/1/2 136/1/2 138/1/2
f 139/1/2 140/1/2 141/1/2
f 141/1/2 140/1/2 142/1/2
f 143/1/2 144/1/2 145/1/2
f 145/1/2 144/1/2 146/1/2
f 147/1/2 148/1/2 149/1/2
f 149/1/2 148/1/2 150/1/2
f 151/1/2 152/1/2 153/1/2
f 153/1/2 152/1/2 154/1/2
f 155/1/2 156/1/2 157/1/2
f 157/1/2 156/1/2 158/1/2
f 159/1/2 160/1/2 161/1/2
f 161/1/2 160/1/2 162/1/2
f 163/1/2 164/1/2 165/1/2
f 165/1/2 164/1/2 166/1/2
f 167/1/2 168/1/2 169/1/2
f 169/1/2 168/1/2 170/1/2
f 171/1/2 172/1/2 173/1/2
f 173/1/2 172/1/2 174/1/2
f 175/1/2 176/1/2 177/1/2
f 177/1/2 176/1/2 178/1/2
f 179/1/2 180/1/2 181/1/2
f 179/1/2 181/1/2 182/1/2
f 182/1/2 181/1/2 183/1/2
f 184/1/2 185/1/2 186/1/2
f 186/1/2 185/1/2 187/1/2
f 188/2/2 189/2/2 191/2/2
f 191/2/2 189/2/2 192/2/2
f 190/1/2 191/1/2 192/1/2
f 192/2/2 189/2/2 193/2/2
f 190/1/2 192/1/2 194/1/2
f 192/1/2 193/1/2 194/1/2
f 194/1/2 193/1/2 195/1/2
f 199/1/3 197/1/3 196/1/3
f 200/1/3 199/1/3 198/1/3
f 201/1/3 197/1/3 199/1/3
f 201/1/3 199/1/3 200/1/3
f 203/1/3 197/1/3 201/1/3
f 205/1/3 203/1/3 202/1/3
f 206/1/3 197/1/3 203/1/3
f 206/1/3 203/1/3 205/1/3
f 207/1/3 205/1/3 204/1/3
f 208/1/3 205/1/3 207/1/3
f 209/1/3 197/1/3 206/1/3
f 210/1/3 197/1/3 209/1/3
f 212/1/3 197/1/3 210/1/3
f 214/1/3 212/1/3 211/1/3
f 215/1/3 214/1/3 213/1/3
f 216/1/3 212/1/3 214/1/3
f 216/1/3 214/1/3 215/1/3
f 217/1/3 215/1/3 213/1/3
f 218/1/3 215/1/3 217/1/3
f 219/1/3 212/1/3 216/1/3
f 220/1/3 197/1/3 212/1/3
f 220/1/3 212/1/3 219/1/3
f 222/1/3 197/1/3 220/1/3
f 224/1/3 222/1/3 221/1/3
f 226/1/3 224/1/3 223/1/3
f 227/1/3 222/1/3 224/1/3
f 227/1/3 224/1/3 226/1/3
f 228/1/3 226/1/3 225/1/3
f 229/1/3 222/1/3 227/1/3
f 230/1/3 228/1/3 225/1/3
f 230/1/3 229/1/3 228/1/3
f 231/1/3 222/1/3 229/1/3
f 231/1/3 229/1/3 230/1/3
f 232/1/3 222/1/3 231/1/3
f 233/1/3 197/1/3 222/1/3
f 233/1/3 222/1/3 232/1/3
f 235/1/3 197/1/3 233/1/3
f 237/1/3 235/1/3 234/1/3
f 238/1/3 237/1/3 236/1/3
f 239/1/3 235/1/3 237/1/3
f 239/1/3 237/1/3 238/1/3
f 241/1/3 235/1/3 239/1/3
f 242/1/3 241/1/3 240/1/3
f 243/1/3 197/1/3 235/1/3
f 243/1/3 241/1/3 242/1/3
f 243/1/3 235/1/3 241/1/3
f 245/1/3 197/1/3 243/1/3
f 248/1/3 247/1/3 246/1/3
f 249/1/3 247/1/3 248/1/3
f 250/1/3 245/1/3 244/1/3
f 251/1/3 250/1/3 249/1/3
f 252/1/3 197/1/3 245/1/3
f 252/1/3 250/1/3 251/1/3
f 252/1/3 245/1/3 250/1/3
f 256/1/3 254/1/3 253/1/3
f 257/1/3 254/1/3 256/1/3
f 258/1/3 254/1/3 257/1/3
f 259/2/3 256/2/3 255/2/3
f 259/2/3 257/2/3 256/2/3
f 261/2/3 259/2/3 255/2/3
f 261/2/3 260/2/3 259/2/3
f 262/2/3 260/2/3 261/2/3
f 263/2/3 261/2/3 255/2/3
f 264/2/3 261/2/3 263/2/3
f 266/2/3 263/2/3 255/2/3
f 267/2/3 265/2/3 264/2/3
f 268/2/3 265/2/3 267/2/3
f 268/2/3 267/2/3 266/2/3
f 270/2/3 268/2/3 266/2/3
f 270/1/3 269/1/3 268/1/3
f 271/1/3 269/1/3 270/1/3
f 272/2/3 266/2/3 255/2/3
f 272/2/3 270/2/3 266/2/3
f 273/2/3 270/2/3 272/2/3
f 276/2/3 272/2/3 255/2/3
f 277/2/3 275/2/3 274/2/3
f 278/2/3 275/2/3 277/2/3
f 280/2/3 278/2/3 277/2/3
f 280/1/3 279/1/3 278/1/3
f 280/2/3 277/2/3 276/2/3
f 281/1/3 279/1/3 280/1/3
f 282/2/3 280/2/3 276/2/3
f 283/2/3 280/2/3 282/2/3
f 284/2/3 276/2/3 255/2/3
f 284/2/3 282/2/3 276/2/3
f 285/2/3 282/2/3 284/2/3
f 287/2/3 286/2/3 285/2/3
f 288/2/3 286/2/3 287/2/3
f 289/2/3 284/2/3 255/2/3
f 291/2/3 290/2/3 289/2/3
f 293/2/3 291/2/3 289/2/3
f 293/1/3 292/1/3 291/1/3
f 294/1/3 292/1/3 293/1/3
f 295/2/3 293/2/3 289/2/3
f 296/2/3 293/2/3 295/2/3
f 297/2/3 295/2/3 289/2/3
f 299/2/3 297/2/3 289/2/3
f 299/2/3 298/2/3 297/2/3
f 300/2/3 298/2/3 299/2/3
f 301/2/3 299/2/3 289/2/3
f 304/2/3 302/2/3 301/2/3
f 304/1/3 303/1/3 302/1/3
f 305/1/3 303/1/3 304/1/3
f 306/2/3 289/2/3 255/2/3
f 306/2/3 301/2/3 289/2/3
f 306/2/3 304/2/3 301/2/3
f 307/2/3 304/2/3 306/2/3
f 308/2/3 306/2/3 255/2/3
f 309/2/3 304/2/3 307/2/3
f 310/2/3 304/2/3 309/2/3
f 311/2/3 308/2/3 255/2/3
f 311/2/3 309/2/3 308/2/3
f 312/2/3 309/2/3 311/2/3
f 315/1/3 314/1/3 313/1/3
f 316/1/3 314/1/3 315/1/3
f 319/1/3 318/1/3 317/1/3
f 320/1/3 318/1/3 319/1/3
f 323/1/3 322/1/3 321/1/3
f 324/1/3 322/1/3 323/1/3
f 327/1/3 326/1/3 325/1/3
f 328/1/3 326/1/3 327/1/3
f 331/1/3 330/1/3 329/1/3
f 332/1/3 330/1/3 331/1/3
f 335/1/3 334/1/3 333/1/3
f 336/1/3 334/1/3 335/1/3
f 339/1/3 338/1/3 337/1/3
f 340/1/3 338/1/3 339/1/3
f 343/1/3 342/1/3 341/1/3
f 344/1/3 342/1/3 343/1/3
f 345/1/4 346/1/4 349/1/4
f 349/1/4 346/1/4 350/1/4
f 347/1/4 348/1/4 351/1/4
f 351/1/4 348/1/4 352/1/4
f 353/1/4 354/1/4 355/1/4
f 355/1/4 354/1/4 356/1/4
f 357/1/4 358/1/4 359/1/4
f 359/1/4 358/1/4 360/1/4
f 361/1/4 362/1/4 363/1/4
f 363/1/4 362/1/4 364/1/4
f 365/1/4 366/1/4 367/1/4
f 367/1/4 366/1/4 368/1/4
f 369/1/4 370/1/4 371/1/4
f 371/1/4 370/1/4 372/1/4
f 373/1/4 374/1/4 375/1/4
f 375/1/4 374/1/4 376/1/4
f 377/1/4 378/1/4 379/1/4
f 379/1/4 378/1/4 380/1/4
f 381/1/4 382/1/4 384/1/4
f 383/2/4 384/2/4 385/2/4
f 384/1/4 382/1/4 386/1/4
f 385/2/4 384/2/4 386/2/4
f 386/1/4 382/1/4 387/1/4
f 390/2/5 389/2/5 388/2/5
f 391/2/5 389/2/5 390/2/5
f 402/1/5 393/1/5 392/1/5
f 403/1/5 393/1/5 402/1/5
f 404/1/5 395/1/5 394/1/5
f 405/1/5 395/1/5 404/1/5
f 406/1/5 397/1/5 396/1/5
f 407/1/5 397/1/5 406/1/5
f 408/1/5 399/1/5 398/1/5
f 409/1/5 399/1/5 408/1/5
f 410/1/5 401/1/5 400/1/5
f 411/1/5 401/1/5 410/1/5
f 414/1/5 413/1/5 412/1/5
f 415/1/5 413/1/5 414/1/5
f 418/1/5 417/1/5 416/1/5
f 419/1/5 417/1/5 418/1/5
f 432/1/5 421/1/5 420/1/5
f 433/1/5 421/1/5 432/1/5
f 434/1/5 423/1/5 422/1/5
f 435/1/5 423/1/5 434/1/5
f 436/1/5 425/1/5 424/1/5
f 437/1/5 425/1/5 436/1/5
f 438/1/5 427/1/5 426/1/5
f 439/1/5 427/1/5 438/1/5
f 440/1/5 429/1/5 428/1/5
f 441/1/5 429/1/5 440/1/5
f 442/1/5 431/1/5 430/1/5
f 443/1/5 431/1/5 442/1/5
f 446/1/5 445/1/5 444/1/5
f 447/1/5 445/1/5 446/1/5
f 450/1/5 449/1/5 448/1/5
f 451/1/5 449/1/5 450/1/5
f 454/1/5 453/1/5 452/1/5
f 455/1/5 453/1/5 454/1/5
f 458/1/5 457/1/5 456/1/5
f 459/1/5 457/1/5 458/1/5
f 482/1/5 461/1/5 460/1/5
f 483/1/5 461/1/5 482/1/5
f 484/1/5 463/1/5 462/1/5
f 485/1/5 463/1/5 484/1/5
f 486/1/5 465/1/5 464/1/5
f 487/1/5 465/1/5 486/1/5
f 488/1/5 467/1/5 466/1/5
f 489/1/5 467/1/5 488/1/5
f 490/1/5 469/1/5 468/1/5
f 491/1/5 469/1/5 490/1/5
f 492/1/5 471/1/5 470/1/5
f 493/1/5 471/1/5 492/1/5
f 494/1/5 473/1/5 472/1/5
f 495/1/5 473/1/5 494/1/5
f 496/1/5 475/1/5 474/1/5
f 497/1/5 475/1/5 496/1/5
f 498/1/5 477/1/5 476/1/5
f 499/1/5 477/1/5 498/1/5
f 500/1/5 479/1/5 478/1/5
f 501/1/5 479/1/5 500/1/5
f 502/1/5 481/1/5 480/1/5
f 503/1/5 481/1/5 502/1/5
f 506/1/5 505/1/5 504/1/5
f 507/1/5 505/1/5 506/1/5
f 510/1/5 509/1/5 508/1/5
f 511/1/5 509/1/5 510/1/5
f 514/1/5 513/1/5 512/1/5
f 515/1/5 513/1/5 514/1/5
f 518/1/5 517/1/5 516/1/5
f 519/1/5 517/1/5 518/1/5
f 522/1/5 521/1/5 520/1/5
f 523/1/5 521/1/5 522/1/5
f 526/1/5 525/1/5 524/1/5
f 527/1/5 525/1/5 526/1/5
f 536/1/5 529/1/5 528/1/5
f 537/1/5 529/1/5 536/1/5
f 538/1/5 531/1/5 530/1/5
f 539/1/5 531/1/5 538/1/5
f 540/1/5 533/1/5 532/1/5
f 541/1/5 533/1/5 540/1/5
f 542/1/5 535/1/5 534/1/5
f 543/1/5 535/1/5 542/1/5
f 546/1/5 545/1/5 544/1/5
f 547/1/5 545/1/5 546/1/5
f 550/1/5 549/1/5 548/1/5
f 551/1/5 549/1/5 550/1/5
f 552/1/6 553/1/6 560/1/6
f 560/1/6 553/1/6 561/1/6
f 554/1/6 555/1/6 562/1/6
f 562/1/6 555/1/6 563/1/6
f 556/1/6 557/1/6 564/1/6
f 564/1/6 557/1/6 565/1/6
f 558/1/6 559/1/6 566/1/6
f 566/1/6 559/1/6 567/1/6
f 568/1/6 569/1/6 570/1/6
f 570/1/6 569/1/6 571/1/6
f 572/1/6 573/1/6 574/1/6
f 574/1/6 573/1/6 575/1/6
f 576/1/6 577/1/6 578/1/6
f 578/1/6 577/1/6 579/1/6
f 580/1/6 581/1/6 582/1/6
f 582/1/6 581/1/6 583/1/6
